<svg xmlns="http://www.w3.org/2000/svg" viewBox="0 0 743.779 305.084"><path d="M673.077,246.175c1.427-1.072-.81.627,0,0Zm-432.326,79.8-3.056,3.18-3.154,3.48-3.549,6.332-1.942,9-.987-1.775-1.249,14.476,6.341,1.206.248,5.837,5.558.327-1.25,1.662,10.954-6.607,4.413-2.49-1.45,2.025,12.1-7.511s3.263-1.676,5.189-2.715,28.423-12.007,28.423-12.007l-8.935,1.127,9.732-5.588-7.987,1.007,4.148-1.747s-13.9,2.639-15.826,2.938-3.075.487-3.438.562q-2.137.293-4.746.475c-1.745.122-3.459.242-5.152.353s-3.3.277-4.819.492c-.186.037-1.454.343-3.813.911a31.456,31.456,0,0,1-5.74.957c-1.47.069-2.337-.237-2.617-.925a39.783,39.783,0,0,1,3.056-3.182q1.777-1.676,3.245-2.806t3.606-2.741q2.137-1.611,3.35-2.549,6.714-5.52,11.569-9.688c1.68-1.451,5.129-4.231,5.129-4.231l-2.5,2.643,13.9-11.466s1.836-1.412,2.069-1.6.7-.559,1.4-1.117,1.206-.981,1.518-1.278.8-.737,1.474-1.337,4.521-4.685,4.521-4.685-1.283.336-1.024-.181c-.571-.068-6.914-2.337-8.391-2.87a18.514,18.514,0,0,0-3.429-.968c-.871-.191-8.156-2.086-10.066-2.208s2.529,1.52,1.536,1.445c-.332-.022-12.179-2.285-12.742-3.374a57.957,57.957,0,0,1,9.248-5.477c.793-.347,31.888-15.891,31.888-15.891l-2.345,3.029L312.23,264l3.37-3.365s-9.214-.073-9.488-.016c-.241-.043-25.393,1.719-25.393,1.719l1.3.951-2.345.334s-2.094.289-2.96.464-5.516,1.383-5.516,1.383.62.9-.865,2.4-3.17,3.393-5.042,5.665-4.245,5-5.026,5.8-1.348,1.407-1.692,1.8-.935,1.068-1.771,2.022-6.524,10.778-6.524,10.778a3.159,3.159,0,0,1,2.668,1.16,21.163,21.163,0,0,0,4.149,4.286c1.9,1.552,2.866,2.372,2.925,2.452a7.422,7.422,0,0,0,1.017.765,7.423,7.423,0,0,1,1.471,1.293c.362.437.494.8.393,1.1a5.918,5.918,0,0,1-1.716,2.428q-1.555,1.563-3.858,3.482c-1.539,1.284-4.831,3.417-4.831,3.417l1.6-.536c-2.933,2.545-12.2,10.642-15.053,13.1ZM164.363,263.4c-.353.384-.68.754-.984,1.117a5.445,5.445,0,0,0-1.011,2.026,13.51,13.51,0,0,0-.356,2.47,17.97,17.97,0,0,1-.185,2,4.644,4.644,0,0,0-.072,2.462c.174.266.561.393,1.177.384s.982-.015,1.136-.012a1.584,1.584,0,0,0,.328,1.861,1.869,1.869,0,0,0,2,.09c.44-.171.917-.384,1.436-.637s1.127-.571,1.832-.964,1.2-.655,1.478-.8c.486-.242,1.071-.538,1.771-.884s1.294-.639,1.812-.892,1.1-.542,1.745-.875,1.213-.642,1.707-.919c.071-.041.711-.368,1.907-.977s2.168-1.144,2.91-1.618a4.123,4.123,0,0,0,1.459-1.368,4.622,4.622,0,0,0-1.019-.1c-.4,0-.862.023-1.405.066s-.962.088-1.262.131-.783.111-1.459.212-1.082.16-1.207.186c-.5.063-1.064.119-1.679.158s-1.229.09-1.829.126-1.168.1-1.7.169c-.065.012-.507.112-1.327.3a12.259,12.259,0,0,1-2.013.325c-.522.02-.842-.076-.974-.291a11.133,11.133,0,0,1,.962-1.02,12.94,12.94,0,0,1,1.048-.908c.32-.242.711-.534,1.181-.88l1.093-.821q2.171-1.776,3.742-3.12c.539-.465,1.1-.918,1.656-1.357s1.243-.956,2.029-1.549,1.348-1.016,1.692-1.294c.373-.284.595-.458.672-.512s.231-.182.458-.363.388-.316.49-.41.255-.238.473-.429a2.353,2.353,0,0,0,.4-.421,3.965,3.965,0,0,1,.33-.4c.168-.181.247-.312.235-.384a.743.743,0,0,1,.089-.356,2.776,2.776,0,0,1-.879-.3,2.638,2.638,0,0,0-.924-.3,6.51,6.51,0,0,1-1.316-.291,7.641,7.641,0,0,0-1.264-.3,11.981,11.981,0,0,0-1.511-.143c-.688-.034-1.211-.06-1.571-.082-.118-.009-.62-.031-1.5-.073a10.93,10.93,0,0,1-2.07-.262,1.883,1.883,0,0,1-1.114-.714,18.161,18.161,0,0,1,3.084-1.769q.4-.167,1.848-.852a129.52,129.52,0,0,0,11.524-6.467l-14.62,1.446-1.267.969-1.571,1.815-1.071,1.361c-.081.079-.241.243-.492.5s-.422.453-.532.581-.289.341-.552.649-.434.528-.527.668-.244.354-.441.649a1.547,1.547,0,0,0-.3.644,2.308,2.308,0,0,1-.15.593,1.772,1.772,0,0,0,.519,1.259,8.627,8.627,0,0,0,1.661,1.357c.74.5,1.123.752,1.147.78a2.8,2.8,0,0,0,.389.241,2.732,2.732,0,0,1,.577.411c.152.135.209.253.185.352a1.579,1.579,0,0,1-.515.777,15.382,15.382,0,0,1-1.234,1.119,9.111,9.111,0,0,1-.794.627c-.15.118-.5.436-1.057.947s-.951.881-1.186,1.09-.6.554-1.1,1.025-.891.861-1.178,1.156S164.719,263.01,164.363,263.4Zm4.905,50.537c.4-1.06,2.407-8.9,2.595-9.459.607-1.786,7.537-20.4,7.537-20.4l-13.071,5.252.917-1.092-7.591,3.775-7.4,2.974c-1.374,3.244-3.832,12.819-4.613,17.8-.65,3.411-3.387,14.185-3.876,16.132-.324,1.451,1.494-4.61,1.117-2s-.681,4.505-.9,5.657c-.8,3.856-2.173,10.5-2.173,10.5L148,342.15,143.8,359.766s1.751-2.706,1.432-1.461c-1.076,4.162-9.867,50.359-9.867,50.359l12.426-36.82,2.4-5.2,2.254-5.01-.5,3.592,3.96-9.232,1.445-3.133q.537-1.22,2.3-4.347c1.173-2.087,2.589-4.822,2.589-4.822l.726-1.947.9-2.261.859-1.976,1.111-1.954,1.186-2.182a35.616,35.616,0,0,0,1.148-3.768,3.84,3.84,0,0,1-.7,0c-.377-.014-4.5-.057-4.5-.057s1-2.906,1.81-5.145,1.341-3.9,1.622-4.97q.822-2.8,2.84-7.992C169.955,309.612,168.82,315.129,169.268,313.933ZM709.58,177.31l3.943-1.487s-2.04.22-19.832,3.958c-.458.092-1.237.207-2.341.336s-2.094.287-2.96.464a12.437,12.437,0,0,0-2.5.781c-1.109.5-15.568,10.528-17.051,12.028s3.095-1.371,3.095-1.371l3.781-1.934s-3,4.942-3.783,5.746-1.348,1.409-1.692,1.8l-1.767,2.021c-.836.958-1.727,2.083-1.727,2.083L665.3,203.76l-3.179,4.952a23.109,23.109,0,0,1,2.5,2.876c.876,1.3,9.566,8.8,9.566,8.8l1.7,1.074-3.027,2.45s-2.322,2.2-3.857,3.485a31.025,31.025,0,0,1-2.447,1.951q-.7.558-3.293,2.954c-1.737,1.6-2.964,2.728-3.7,3.383s-3.439,3.192-3.439,3.192l-9.328,14.8s6.707-5.247-2.669,4.235-3.321,5.27-3.321,5.27l-2.323,13.983s5.922,1.2,6.343,1.206c-1.06,2.617-4.535,4.533-4.535,4.533s7.859,2.69,10.343,1.63q1.926-.8,4.236-1.967t5.468-2.978c2.11-1.21,6.03-1.817,6.864-2.264,1.443-.754.744-1.887,2.8-2.953s3.859-1.983,5.4-2.759,3.263-1.676,5.189-2.715-5.149,5.881-3.669,5.026c.217-.137,10.876-9,14.445-10.881s13.274-9.275,13.274-9.275-20.946,1.778-22.683,1.9-10.817-.5-12.51-.387,4.057,1.018,2.543,1.231q-.279.055-3.815.912a31.618,31.618,0,0,1-5.738.958c-1.47.068-2.339-.239-2.617-.927a39.767,39.767,0,0,1,3.056-3.182q1.774-1.671,3.243-2.806c.976-.751,5.529-4.211,6.956-5.289q6.709-5.52,11.568-9.688,2.518-2.173,5.128-4.231c1.739-1.367-3.6,5.7-1.2,3.875s11.544-11.838,12.6-12.7c1.148-.876,1.838-1.412,2.073-1.6s.7-.559,1.4-1.116,1.2-.982,1.518-1.278.8-.736,1.47-1.339a8.128,8.128,0,0,0,1.267-1.294c.176-.265,2.8-3.18,2.8-3.18s-7.478-2.729-8.954-3.262a18.822,18.822,0,0,0-3.429-.968,31.124,31.124,0,0,0-4.172-.469c-1.915-.12-3.365-.218-4.36-.293q-.5-.034-4.181-.26a24.935,24.935,0,0,1-5.7-.855,4.578,4.578,0,0,1-2.865-2.26,58.035,58.035,0,0,1,9.248-5.477c.794-.347,25.458-11.047,28.315-12.458,5.382-2.506,6.563-3.775,6.563-3.775l-5.9-.554,11-5.87ZM140.7,254.736a59.769,59.769,0,0,0-1.476,6.937c-.084.923-.294,2.27-.638,4.042s-.535,2.883-.59,3.351a27.213,27.213,0,0,0-.306,3.18,10.136,10.136,0,0,0,.1,1.5,7.726,7.726,0,0,1,.065,1.64c-.032.246-.1.652-.19,1.211a14.193,14.193,0,0,0-.185,1.438,4.642,4.642,0,0,0,.057,1.125,8.232,8.232,0,0,0,.284,1.212c.193.687.329,1.039.418,1.053a.38.38,0,0,0,.486-.116,2.8,2.8,0,0,0,.481-.841c.162-.393.273-.691.342-.905s.158-.472.269-.794q.34-1.15,1.226-3.771.375-1.111,1.4-3.574a47.871,47.871,0,0,0,2.193-6.167c.032-.129.1-.323.194-.587a11.43,11.43,0,0,0,2.766.017q.335-.063,1.576-.4a16.043,16.043,0,0,1,1.951-.416,23.907,23.907,0,0,0,3.333-.6c-.242,1.2-.416,2.107-.509,2.729a27.259,27.259,0,0,0-.3,3.179,8.279,8.279,0,0,0,.118,1.5,7.028,7.028,0,0,1,.09,1.633c-.037.249-.109.656-.218,1.217a10.471,10.471,0,0,0-.2,1.443,4.651,4.651,0,0,0,.053,1.125,7.775,7.775,0,0,0,.288,1.211q.283,1.032.418,1.054a.181.181,0,0,0,.166.056c.4-.013.866-.92,1.412-2.712.227-.768.627-2.025,1.221-3.771q.376-1.111,1.449-3.582a57.5,57.5,0,0,0,2.2-6.168q.483-1.725,1.65-4.918c.777-2.121,1.283-3.515,1.5-4.16.124-.388.318-.942.579-1.674s.457-1.29.584-1.672.877-3.3.877-3.3l-7.55.909s-2.827,9.4-3.011,10.493q-.8.289-1.516.61c-.373.159-1.171.524-2.393,1.089s-2.167,1-2.855,1.322q-1.476.645-2.794,1.17c.121-.357.455-1.282,1-2.776s.969-2.7,1.278-3.618.578-1.837.813-2.761c.095-.382,1.553-5.459,1.553-5.459s-5.993,2.148-6.4,2.317c-.106.051-.243.112-.434.192s-.352.151-.486.208-.275.124-.433.2a2.446,2.446,0,0,0-.405.235,2.957,2.957,0,0,0-.348.314,1.538,1.538,0,0,0-.283.394,6.469,6.469,0,0,0-.352,1.042c-.1.4-.2.838-.289,1.324S140.759,254.512,140.7,254.736Zm-23.29,4.338c.105.009,4.656.5,5.759.472-.056.341-.121.652-.192.938a45.636,45.636,0,0,0-1.085,4.833c-.085.468-.174,1.241-.266,2.314a22.763,22.763,0,0,1-.313,2.5,12.487,12.487,0,0,0-.171,2.117,18.976,18.976,0,0,1-.109,2.061,10.783,10.783,0,0,0-.145,1.2q-.036.6-.028,1.456c.009.57.015.964.023,1.174a6.659,6.659,0,0,0-.034.681c-.02.188-.061.5-.129.959a7.085,7.085,0,0,0-.105,1.038,16.942,16.942,0,0,0,0,2.511c.067.937.294,1.354.687,1.252a5.478,5.478,0,0,0,.935-1.993q.68-1.893.958-2.809c.649-2.328,1.005-3.573,1.078-3.74a66.826,66.826,0,0,0,2.073-6.962q1.117-4.431,2.9-10.386c.142-.082.336-.214.571-.381s.459-.313.658-.442.382-.239.561-.332c.289-.178.611-.35.975-.527s.677-.322.952-.434.585-.255.949-.431a10.336,10.336,0,0,0,.974-.525c.029-.006.312-.159.843-.458.475-.264.857-.48,1.145-.635.033-.018-.405.7-.374.681.3-.165,4.65-4.594,4.65-4.594s-4.642.319-5.043.335a30.522,30.522,0,0,0-7.866.919c-.3.083-.932.268-.932.268l-2.748.255-.659.986-3.975,1.714-.887.351-4.553,2.644s4.195.8,4.313.811S117.293,259.064,117.413,259.074ZM65.893,402.707s5.008-11.814,5.235-12.224c.442-.8-4.117,20.551-4.117,20.551S83.1,370.1,83.911,368.452a68.855,68.855,0,0,0,3.546-8.2c1.564-.479,5.019-1.814,9.321-3.548,2.413-.972,16.568-5.232,16.568-5.232l-3.66-.081,24.041-8.692s-9.013-1.011-14.4-1.994c-1.024-.187-9.938-3.116-9.938-3.116s.495,1.411-.11,1.333c-1.669-.217-11.729-.67-13.187-.375,2.9-7.053,5.621-15.87,6.9-18.622.553-1.131,1.224-3.324,2.027-4.686,3.76-1.318,7.8-3.775,9.419-4.289,3.116-.956-1.488,1.7-1.488,1.7s35.566-13.676,35.835-14.471c-3.422.215-15.7-.072-20.509,0-1.986.092,3.93.636,1.754.749-5.458.25-11.5.849-16.984.614-1.387.094,1.52.326.191.425-6.286.464-11.753.984-14.759,1.514-.419.026-5.624-.126-5.624-.126l.362.9-1.832.3s-5.944,19.083-5.64,19.944q-4.107,12.471-5.613,18.042-1.76,6.313-5.447,18.5C72.223,367.15,64.4,403,64.4,403l1.406-1.772ZM674.664,169.03c2.3-1.31,4.3-2.455,6.02-3.454,2.591-1.659,5.676-3.632,8.881-5.682a101.063,101.063,0,0,0-9.951,5.595l-4.042,2.794C675.24,168.541,674.93,168.793,674.664,169.03ZM512.977,267.843a55.245,55.245,0,0,1-1.629,11.554,55.7,55.7,0,0,0-1.546,7.931q-.512,4.128-.743,8.951t-.562,7.666c-.391,3.4-.583,5.336-.565,5.8.143,1.079-1.6,2.99-1.6,2.99a28.211,28.211,0,0,1,3.927-.832c.182-.036.318-.063.411-.083q3.915-.652,5.378-1.02t5.771-1.8q4.3-1.422,5.722-1.85,2.1-.565,4.924-1.554t5.73-2.063c1.943-.717,24.13-8.722,24.13-8.722l-32.473.646-5.816.625s2.615-7.967,4.694-13.839q.353-1.039.945-2.407c.39-.91.753-1.726,1.08-2.437s.686-1.524,1.083-2.436,1.082-2.436,1.082-2.436,2.941-7.8,5.257-14.367,4.468-12.361,6.47-17.388,6.506-14.482,6.506-14.482a84.7,84.7,0,0,1,12.136-3.847c1.549-.315,20.9-6.04,20.9-6.04s-22.645-4.767-39.923-6.159c-.425-.007,2.75,1.435,1.446,1.285s-2.552-.176-2.552-.176l-2.071.281-5.216,1.776-.99.324.427.667-11.432,4.688,4.616-.189s-2.235,1.584-3.555,2.593c-.9.691-5.515,3.3-5.515,3.3l1.993-.229-4.959,5.342,1.805-1.074-.7,3.942-.762,4.346.779-1.247-5.384,26.06s1.8-5.749,1.41-3.086Q513.362,260.7,512.977,267.843Zm117.553,12.11c-.367-1.172,18.963,43.363,18.973,43.085a38.56,38.56,0,0,0-.967-7.287c-.491-1.562-4.489-9.707-5.227-13.16s-19.857-42.613-20.368-44.357c-1.294-4.449,3.733,3.068.675-2.687-1.18-2.53-9.351-17.121-10.1-18.542s-1.427-2.621-2.026-3.608c1.332-.915,2.1-1.442,2.32-1.579,5.287-3.566,12.48-9.592,16.849-11.956a77.542,77.542,0,0,0,8.085-5.244q5.132-3.667,6.292-4.46c2.717-1.753,14.44-12.547,14.4-13.048s-3.735.765-3.735.765l-4.323,1.279,1.694-2.544s23.844-19.6,23.911-19.8a1.433,1.433,0,0,1,.091-.641c.083-.247.144-.42.176-.52a4.183,4.183,0,0,0,.108-1.824c-.1-.44,21.634-14.377,21.634-14.377l6.04-3.976-1.534.418,13.086-10.6s-13.619,6.48-27.021,14.6c1.665-.73.07.494-8.881,5.682-4.144,2.653-7.017,4.5-7.017,4.5a6.964,6.964,0,0,1,1-1.041c-.358.2-.68.388-1.054.6-.633.361.4-.311,0,0-.056.044.683-.465,1.962-1.346,1.1-.859,2.514-1.824,4.042-2.794,10.823-7.484-25.873,16.454-27.763,18.266S638.9,194.211,638.281,194.8c-.571.671-8.55,6.965-10.323,8.94s-17.412,14.567-18.569,15.722c.221-.518.339-.779.4-.908-.085.112-.123-.12.99-3.731,1.15-3.739,3.171-9.827,4.7-14.551.3-.928.62.966.62.966l1.232-6.823,10.894-34.45,3.411-8.756L202.812,254.96l327.935-66.4-17.614,10.123,83.288-22.127-4.956,24.612c-.463-.143-.966-.266-1.047-.153a10.035,10.035,0,0,0,.587,2.436l-1.056,3.214c-.145.44-.548-.958-.711-.46-1.041,3.168-2.106,9.037-2.262,9.5q-2.991,10.3-3.371,14.815a137.366,137.366,0,0,1-3.163,17.964,25.929,25.929,0,0,1-.795,3.276q-.564,1.85-1.108,3.827t-.863,3.293c-.146.677-.289,1.356-.431,2.029-.434,2.025-10.733,57.75-11.155,62.794,1.788-3.253,2.017-4.051,3.277-6.344,1.886-3.06,7.563-23,10.489-28.852,2.7-5.443,14.764-31.631,15.42-33.056a41.356,41.356,0,0,1,3.5,3.583q.649.7,1.673,2.018c.677.881,1.159,1.518,1.451,1.923q.48.458,1.471,1.293c.658.558,1.146.994,1.47,1.3,1.358,1.757,50.356,79.9,50.356,79.9-3.273-8.928-20.25-51.7-24.035-62.1A13.683,13.683,0,0,0,630.53,279.953Zm-20.74-61.4c.046-.06.1-.21,0,0ZM327.243,259.723l-11.64,7.921,2.85-.611-1.565,3.865-.414,3.479-.149,2.316-1.6,7.928-.428-6.51-2.575,30.553-1.627,11.556-1.543,7.931L307.8,337.1l-.563,7.666-.563,5.8-2.383,3.979L309,352.722l5.789-1.1,5.769-1.793-2.774,1.837,8.5-3.69s3.042-.895,4.923-1.552,5.731-2.065,5.731-2.065l.506-.158-1.906,1.457,1.571-.633c4.209-1.715,22.958-9.456,22.621-9.317,0,0-26.238.412-31.134.577a36.422,36.422,0,0,0-5.82.625q1.578-5.028,4.7-13.839.353-1.039.945-2.409c.39-.91.753-1.724,1.082-2.436s.684-1.523,1.08-2.435.753-1.724,1.081-2.438q1.784-4.518,5.259-14.367c2.309-6.563-3.473,12.909-1.466,7.882s14.444-39.75,14.444-39.75l12.134-3.849-2.5,2.117,23.4-8.157s-8.64-2.45-8.7-2.532c-.842-.011,12.815.035-4.463-1.357-.428-.006-25.314-.983-25.314-.983l-2.555-.178,1.212-1.61ZM663,321l90.348-23.854-93.565,18.144ZM780.937,204.619c-2.367,1.225-23.777,15.144-23.777,15.144l-2.664,1.611s2.775-2.465-2.337.027a8.683,8.683,0,0,1-.786.435,7.67,7.67,0,0,0,.117,1.917c.27,1.7,1.758,15.6,1.758,15.6l0,.392-.925-3.6s-.1.02-.1.487q0,3.739.238,6.047c.093.722,7.229,19.784,7.592,21.1s2.485,8.193,2.445,9.306,1.988,10.273,1.322,11.24c-.812-.113,1.52,3.556.851,3.277s4.632,14.822,4.632,14.822-8.043-17.3-14.586-31.341c-4.4-9.435-12.622-26.48-12.769-26.747-.142-.34-.357-.967-.637-1.879a4.929,4.929,0,0,0-1-1.947c-.17-.242-.846,1.309-.846,1.309l-1.386-2.242-1.183-.451-.128,1.426s-1.8-3.322-2.174-4.218-.286,2.528-.639,1.445a19.266,19.266,0,0,0-.912-2.378c-.118-.16-.247-.343-.387-.547s-.32-.441-.521-.724-.472-.667-.472-.667-3.462,6.938-5.4,10.657c-.882,1.841-4.684,13.242-4.684,13.242l-1.862,6.105-.364-7.438s-1.583,6.487-2.2,7.812-5.827,20.928-5.827,20.928l2.564-15.972-2.337,3.662s.723-5.641.8-6.12c.143-.675.344-4.911.37-5.109.326-2.418,2.273-13.926,3-16.634q1.167-4.393,1.619-6.841,1.26-6.353,3.21-13.4t4.808-16.423q2.86-9.38,4.19-13.668.567-2.052,1.354-5.678t1.374-6.306c.392-1.787,4.5-11.928,4.5-11.928l-1.346-.331,15.956-4.774s-5.5,2.475-2.288,1.637,7.249-2.024,7.249-2.024l5.272-3.148,1.458.4,1.625,1.4,1.077.958a113.75,113.75,0,0,1,8.932,7.474q8.214,8.447,11.1,12.712c.137.342.413-3.454.413-3.454l3.651,8.934.9-.886s.732,6.769.121,7.812c-.71,1.349-2.953,2.988.027,1.776S783.306,203.4,780.937,204.619Zm-11.685-7.6a24.589,24.589,0,0,0-1.982-1.676,16.62,16.62,0,0,0-2.37-1.46q-1.36-.691-2.406-1.175a18.86,18.86,0,0,0-2.8-.957c-1.166-.317-2.082-.569-2.734-.761s-1.632-.453-2.916-.793a24.468,24.468,0,0,0-2.787-.614q-6.562,16.713-16.673,37.885,3.466-3.477,5.428-5.12,1.768-1.468,6.017-4.963t6.576-5.488q2.84-2.378,8.322-7.441Q766.4,199.4,769.252,197.015ZM324.138,387.306l33.676-16.046L231.426,403.5l3.375,7.216,59.985-12L258.332,417.2S620.738,331.3,627.954,330.764l-4.448-5.971C553.721,339.7,324.138,387.306,324.138,387.306ZM465.4,253.728c1.641-3.332,5.771-10.674,5.771-10.674l-3.294,2.635-.929.708.479-.761s12.367-18.565,13.5-20.413.912-5.106.912-5.106l8.628,1.022,4.849.542-.694-.342,2.519.386,3.211.581.278-.676s2.484,13.8,2.506,13.983c.066,1.557,1.418-4.4,1.418-4.4l-.91,32.053-.947,1.052s-.99,8.305-1.809,10.966c-.971,3.616-5.455,43.334-5.455,43.334l-.8-6.871-1.14,4.109a3.646,3.646,0,0,1-1.375-.828c-.9-1.085-.638,16.169-.638,16.169-.539-3.652-4.785-36.116-5.526-41.938l-4.065,1.1s-24.648,6.8-25.557,6.985c-.184.037-2.651.675-2.651.675l-15.8,20.38.288-3.376s-3.789,4.094-5.955,6.471-10.278,10.4-10.278,10.4,11.987-25.568,14.7-30.552c2.2-4.05-2.1-.789-2.1-.789l13.548-18.3S455.9,270.6,460.873,262.2Q462.937,258.733,465.4,253.728Zm1.608,27.179-4.315,5.587,4.148-2.09,4.8-2.5,5.667-2.811,6.643-3.429L482.8,270.43,480.63,261.8Zm-73.333-42.874c3.214-.838,16.543-2.786,18.165-3.3q3.27-2.882,5.274-3.148a1.889,1.889,0,0,1,1.458.4,11.544,11.544,0,0,1,1.625,1.4c.569.577-3.167-7.52-3.013-7.461,2.767,1.845,9.835,12.75,13.02,15.894q8.214,8.446,11.1,12.712a14.546,14.546,0,0,0,1.639,2.3c1.78,2.347,3.218,3.671,3.891,6.553a4.64,4.64,0,0,1-.44,3.552,11.49,11.49,0,0,1-3.737,3.877,54.074,54.074,0,0,1-6.217,3.685c-2.371,1.223-3.877,2.034-4.525,2.445A199.847,199.847,0,0,1,411.6,288.406a8.519,8.519,0,0,1-.785.435,7.714,7.714,0,0,0,.114,1.918,55.066,55.066,0,0,1,.566,5.843q.153,3.3.161,7.035t.239,6.046a11.7,11.7,0,0,1-.1,2.933q-.824,5.432-.544,6.481a58.342,58.342,0,0,1,1.061,8.516q.159.66.7,2.628c.361,1.312,2.427,11.7,2.427,11.7l-3-4.932,6.434,18.853s-14.09-25.012-14.333-25.424-.575-1.062-.993-1.949a10.844,10.844,0,0,1-.79-1.987q-.906-1.479-2.594-4.182t-2.25-3.7c-.138-.34-.352-.966-.636-1.88a4.971,4.971,0,0,0-.993-1.948,1.781,1.781,0,0,0-.957-.566c-.461-.135-.891-.256-1.275-.365a4.075,4.075,0,0,1-2.046-1.11,5.878,5.878,0,0,1-1.443-2.132q-.569-1.336-1.1-2.965a19.6,19.6,0,0,0-.912-2.378c-.118-.158-.249-.34-.389-.544s-.318-.441-.519-.725-.362-.5-.474-.666q-2.488,5.076-5.4,10.657-1.323,2.76-3.83,8.464c-1.358,3.091-12.257,32.967-12.257,32.967a23.289,23.289,0,0,1,.954-4.538c.271-1,.918-4.384.19-3.359s.91-5.7.23-5.2a3.172,3.172,0,0,1-.216-1.618,12.068,12.068,0,0,1,.493-2.387,20.4,20.4,0,0,0,.526-2.117,11.407,11.407,0,0,0,.234-2.195q.021-1.181.09-2.511c.046-.885.092-1.658.147-2.315a50.668,50.668,0,0,1,.954-6.569q.762-3.755,1.939-8.151t1.621-6.841q1.262-6.351,3.208-13.4c1.3-4.7-7.114,17.554-5.2,11.3s13.316-38.529,14.2-41.391q.564-2.052,1.352-5.677t1.376-6.307a45.559,45.559,0,0,1,4.491-11.928,28.527,28.527,0,0,1,4.213-1.338C398.676,238.305,390.465,238.87,393.678,238.033Zm-3.586,59.308q3.472-3.476,5.433-5.12c1.178-.979,12.543-12.613,15.373-14.942s-4.339,5.824-2.783,4.489q2.842-2.374,8.32-7.438t8.324-7.439a24.715,24.715,0,0,0-1.982-1.675,16.6,16.6,0,0,0-2.372-1.459q-1.357-.693-2.4-1.175a84.7,84.7,0,0,0-8.447-2.513,24.527,24.527,0,0,0-2.785-.613Q400.2,276.169,390.092,297.341Zm237.915,33.476c.105-.047.078-.063-.053-.053ZM210.4,416.354l-2.755-6.788L47.663,450.377Zm36.167-108.519-1.968.033-10.06,8.668.1-1.107-11.03,7.445,1.032-1.547-19.88,14.395,4.267,19.858-3.04-5.141,12.7,43.206,9.007,30.931c-.265-.523-6.2-13.607-6.2-13.607,0,.074,6.036,18.533,6.036,18.533l-3.083-6.866s-11.873-26.058-12.044-26.353q-.681-1.178-1.046-1.8t-1-1.947c-.424-.884-6.885-13.312-7.262-13.7-.174-.241-9.582-23.686-9.582-23.686l-.406,3.068-7.748-13.953-5.4,10.656-3.829,8.465-11.827,22.819,1.216-6.95s6.2-27.341,3.1-18.99.794-4.868.794-4.868,1.32-5.209,1.621-6.841q1.261-6.353,3.208-13.4t4.806-16.423q2.864-9.379,4.194-13.668.564-2.052,1.352-5.677t1.375-6.307c.394-1.787-2.638,4.943-1.851,2.753s5.313-12.9,6.343-14.681c.615-.306,5.972-1.984,5.972-1.984l-4.721-1.225,2.611-.323s14.089-1.447,15.711-1.959a20.9,20.9,0,0,1,5.274-3.149s4.007,2.7,4.157,2.757a61.78,61.78,0,0,1,8.933,7.475q8.214,8.445,11.1,12.711c.14.34,1.639,2.3,1.639,2.3Zm-23.611-.011s-6.057-3.988-6.754-4.31a19.091,19.091,0,0,0-2.794-.957c-1.167-.317-2.085-.57-2.739-.761s-1.628-.453-2.914-.793-2.785-.614-2.785-.614-9.936,23.769-16.677,37.885q3.472-3.48,5.433-5.12,1.767-1.468,6.012-4.962t6.579-5.489q2.841-2.377,8.319-7.441C218.284,311.892,222.956,307.824,222.956,307.824Z" transform="translate(-47.663 -145.293)"/></svg>