<?xml version="1.0" encoding="UTF-8"?>
<svg xmlns="http://www.w3.org/2000/svg" id="a" viewBox="0 0 830.861 534.027">
  <path d="m588.272,421.071c-.241-5.972-.589-11.944-.658-17.918-.051-4.448.309-8.9.405-13.351.056-2.622-.014-5.247-.086-7.87-.075-2.748-.162-5.498-.363-8.238-.077-1.044-.66-2.056-.708-3.097-.089-1.924.071-3.858.083-5.788.018-2.932-.156-5.874.037-8.793.206-3.117.832-6.204,1.11-9.318.252-2.818.252-5.657.42-8.483.116-1.95.473-3.896.442-5.84-.019-1.193-.782-2.369-.833-3.568-.082-1.92.222-3.855.192-5.782-.007-.443-.628-1.127-1.098-1.27-1.92-.585-3.89-1.004-5.087-1.299-1.12.296-1.629.555-2.13.539-1.617-.053-3.231-.29-4.847-.302-2.162-.016-4.33.232-6.487.148-2.942-.114-5.875-.447-8.815-.645-.328-.022-.786.125-.993.362-1.283,1.465-2.491,2.815-3.047,4.928-.957,3.638-2.649,7.086-4.066,10.6-1.415,3.508-2.857,7.005-4.311,10.496-2.372,5.698-4.748,11.394-7.152,17.079-1.959,4.633-4.065,9.206-5.916,13.882-1.878,4.745-3.523,9.582-5.27,14.378-1.815-2.735-3.074-5.24-4.124-7.829-2.406-5.929-4.587-11.952-7.086-17.841-3.606-8.499-6.962-17.053-8.988-26.107-1.198-5.351-2.858-10.6-4.36-15.881-.535-1.88-3.927-3.966-5.537-3.68-1.305.232-2.659.323-3.985.277-4.922-.171-9.84-.454-14.761-.625-1.258-.044-2.545.356-3.785.227-3.812-.396-6.103,1.751-5.766,5.559.05.567.066,1.141.047,1.711-.284,8.615-.637,17.229-.844,25.846-.116,4.826,0,9.658.027,14.487.03,5.254.117,10.508.109,15.761-.014,9.395-.178,18.791-.092,28.185.055,5.991.488,11.978.666,17.97.053,1.788-.273,3.586-.26,5.377.012,1.577.142,3.175.454,4.717.119.588.829,1.404,1.376,1.5,2.593.45,5.236,1.034,7.836.93,5.827-.235,11.639-.856,17.458-1.305,1.207-.093,2.419-.12,3.891-.19.172-.822.667-1.834.526-2.748-.568-3.675-1.623-7.294-1.96-10.982-.546-5.978-.67-11.995-.961-17.996-.004-.076.137-.159.224-.254.114.381.22.731.325,1.081.082-.01.165-.02.247-.03.143-3.242.286-6.485.429-9.727.187-.027.375-.053.562-.08.324.844.671,1.68.969,2.533.768,2.201,1.501,4.414,2.274,6.613.729,2.076,1.517,4.133,2.23,6.214.785,2.292.571,4.727,1.565,7.094,2.166,5.154,3.73,10.563,5.512,15.876.172.514.376,1.195.18,1.621-.556,1.206-.663,1.35.437,1.523,2.998.471,6.016,1.023,9.036,1.087,4.799.102,9.606-.17,14.41-.274,1.41-.03,2.924.295,4.206-.116,1.56-.501,3.118-.957,3.781-3.197,1.377-4.65,3.538-9.062,5.108-13.663,1.622-4.752,2.833-9.643,4.406-14.413.779-2.363,1.965-4.592,2.967-6.881.72,4.015,1.128,7.946,1.408,11.886.105,1.482-.147,2.986-.132,4.478.056,5.782.311,11.567.175,17.344-.078,3.309.28,4,3.713,3.97,6.297-.057,12.595-.112,18.892-.202,1.345-.019,2.693-.309,4.031-.255,2.396.096,3.111-.253,3.058-2.44-.146-6.002-.472-12-.714-18Z"></path>
  <path d="m672.48,411.095c-2.588-.679-5.056.121-7.578.174-7.441.157-14.882.329-22.323.425-5.095.065-10.192.013-15.631.013v-13.005c.927-.111,1.994-.353,3.058-.344,3.285.027,6.568.195,9.853.227,5.473.053,10.946.067,16.419.017.442-.004,1.214-.584,1.264-.97.456-3.525,1.276-6.943.926-10.64-.52-5.489-.276-11.061-.159-16.594.041-1.948-.52-2.593-2.443-2.509-5.321.234-10.647.355-15.972.493-3.806.098-7.616.096-11.42.253-1.428.059-1.721-.551-1.708-1.793.042-4.188.016-8.377.016-12.573,5.041-.233,10.058-.592,15.08-.657,4.147-.054,8.299.329,12.449.346,2.266.009,4.531-.472,6.8-.497,3.697-.04,7.396.169,11.094.135.71-.007,1.978-.579,2.03-1.008.317-2.6.456-5.233.469-7.856.029-5.853-.088-11.706-.064-17.559.008-1.939-1.231-4.129-2.776-4.191-1.655-.066-3.319.095-4.978.175-5.013.242-10.026.5-15.039.739-5.467.261-10.932.568-16.402.736-2.86.088-5.728-.142-8.59-.09-.839.015-1.662.537-2.507.771-.729.201-1.48.323-2.587.558.512-.467.702-.64.969-.884-.28-.09-.47-.201-.662-.206-8.116-.202-16.245.063-24.455-1.207-.148,2.627-.265,4.701-.382,6.775-.428,7.549.94,15.203-1.181,22.141.547.992,1.143,1.622,1.224,2.312.165,1.422.057,2.877.057,4.318,0,7.508.048,15.017-.022,22.524-.048,5.084,1.073,10.288-.992,14.437.517,1.718,1.108,2.836,1.142,3.97.073,2.437-.191,4.883-.219,7.326-.018,1.575.27,3.158.194,4.726-.299,6.204-.758,12.402-1.011,18.608-.13,3.191-.033,6.4.137,9.591.057,1.071.433,2.284,2.016,2.259,1.126-.018,2.254.083,3.382.121,7.473.253,14.945.53,22.419.732,1.499.041,3.003-.255,4.508-.314,3.567-.138,7.136-.237,10.705-.329.775-.02,1.557.009,2.327.092,1.546.166,3.091.575,4.629.539,2.488-.058,4.966-.431,7.453-.601,2.725-.186,5.455-.315,8.185-.427,1.94-.08,4.297-.809,5.736.021,2.711,1.565,4.726.089,6.992-.502.359-.094.782-.707.822-1.115.12-1.225.057-2.468.08-3.704.082-4.53.179-9.06.253-13.59.042-2.577-.021-5.159.097-7.732.1-2.185-1.516-4.09-3.681-4.658Z"></path>
  <path d="m825.57,1.109C816.02.558,806.455.016,796.896,0c-7.93-.013-15.858,1.015-23.791,1.089-31.003.291-50.158.482-81.163.602-.651-.329-1.403-.533-2.271-.583C680.122.558,670.557.016,660.997,0c-7.93-.013-15.858,1.015-23.791,1.089-29.633.278-59.267.461-88.901.583-10.694-.247-21.387-.657-32.082-.722-23.825-.145-47.652-.006-71.478.034-14.803.025-29.607.028-44.41.15-4.813.04-9.625.093-14.438.148-5.807-.158-11.614-.297-17.422-.332-23.825-.145-47.652-.006-71.478.034-14.803.025-29.607.028-44.41.15-14.092.116-28.184.313-42.276.464-13.363,0-26.726.002-40.09-.005-8.123-.214-16.245-.523-24.369-.538-15.456-.027-30.913.46-46.37.505-30.572.089-56.007.026-86.578.026C6.573,1.038,6.049.739,3.013,6.064c-1.523,2.671-1.125,6.685-.901,10.045.334,5.003,1.726,9.954,1.858,14.948.165,6.233-1.006,12.529-.513,18.711.169,2.122,3.329,5.179,5.616,5.718,4.949,1.167,10.215,1.269,15.355,1.302,22.25.143,39.367.362,61.613.061,21.594-.291,43.178-1.255,64.771-1.669.299.135.592.24.872.306,4.949,1.167,10.215,1.269,15.355,1.302,22.25.143,44.504.362,66.751.061,14.272-.193,28.54-.682,42.81-1.111,3.065.077,6.131.152,9.196.216,14.67.31,29.339.787,44.01.903,7.941.063,15.885-.663,23.829-.683,6.759-.017,13.526.809,20.278.67,15.143-.311,30.281-.821,45.422-1.234,4.736.122,9.473.243,14.209.343,14.67.31,29.339.787,44.01.903,7.941.063,15.885-.663,23.829-.683,6.759-.017,13.526.809,20.278.67,13.675-.281,27.347-.722,41.019-1.111,3.495.08,6.991.155,10.486.208,9.901.151,19.807.105,29.71.064,3.622-.015,7.245-.07,10.867-.139,1.919.051,3.838.087,5.757.075,12.125-.071,24.248-.501,36.372-.75,4.396.139,8.785.505,13.182.635,5.032.149,10.083-.071,15.097.28,1.068.075,2.396-.284,3.706-.903,11.019.219,22.038.569,33.058.737,9.901.151,19.807.105,29.71.064,6.476-.027,12.953-.171,19.427-.322,6.986-.163,2.12-.447,9.106-.579,4.143-.079,8.292-.045,12.433.08,4.456.135,8.905.511,13.36.643,5.032.149,10.083-.071,15.097.28,3.294.23,9.068-3.622,9.133-6.734.138-6.613.077-13.232.342-19.838.267-6.644.771-13.28,1.282-19.911.391-5.071-1.307-8.292-5.237-8.518Z"></path>
  <path d="m825.57,478.136c-9.549-.55-19.115-1.093-28.674-1.109-7.93-.013-15.858,1.015-23.791,1.089-31.003.291-50.158.482-81.163.602-.651-.329-1.403-.533-2.271-.583-9.549-.55-19.115-1.093-28.674-1.109-7.93-.013-15.858,1.015-23.791,1.089-29.633.278-59.267.461-88.901.583-10.694-.247-21.387-.657-32.082-.722-23.825-.145-47.652-.006-71.478.034-14.803.025-29.607.028-44.41.15-4.813.04-9.625.093-14.438.148-5.807-.158-11.614-.297-17.422-.332-23.825-.145-47.652-.006-71.478.034-14.803.025-29.607.028-44.41.15-14.092.116-28.184.313-42.276.464-13.363,0-26.726.002-40.09-.005-8.123-.214-16.245-.523-24.369-.538-15.456-.027-30.913.46-46.37.505-30.572.089-56.007.026-86.578.026-6.33-.55-6.854-.849-9.89,4.477-1.523,2.671-1.125,6.685-.901,10.045.334,5.003,1.726,9.954,1.858,14.948.165,6.233-1.006,12.529-.513,18.711.169,2.122,3.329,5.179,5.616,5.718,4.949,1.167,10.215,1.269,15.355,1.302,22.25.143,39.367.362,61.613.061,21.594-.291,43.178-1.255,64.771-1.669.299.135.592.24.872.306,4.949,1.167,10.215,1.269,15.355,1.302,22.25.143,44.504.362,66.751.061,14.272-.193,28.54-.682,42.81-1.111,3.065.077,6.131.152,9.196.216,14.67.31,29.339.787,44.01.903,7.941.063,15.885-.663,23.829-.683,6.759-.017,13.526.809,20.278.67,15.143-.311,30.281-.821,45.422-1.234,4.736.122,9.473.243,14.209.343,14.67.31,29.339.787,44.01.903,7.941.063,15.885-.663,23.829-.683,6.759-.017,13.526.809,20.278.67,13.675-.281,27.347-.722,41.019-1.111,3.495.08,6.991.155,10.486.208,9.901.151,19.807.105,29.71.064,3.622-.015,7.245-.07,10.867-.139,1.919.051,3.838.087,5.757.075,12.125-.071,24.248-.501,36.372-.75,4.396.139,8.785.505,13.182.635,5.032.149,10.083-.071,15.097.28,1.068.075,2.396-.284,3.706-.903,11.019.219,22.038.569,33.058.737,9.901.151,19.807.105,29.71.064,6.476-.027,12.953-.171,19.427-.322,6.986-.163,2.12-.447,9.106-.579,4.143-.079,8.292-.045,12.433.08,4.456.135,8.905.511,13.36.643,5.032.149,10.083-.071,15.097.28,3.294.23,9.068-3.622,9.133-6.734.138-6.613.077-13.232.342-19.838.267-6.644.771-13.28,1.282-19.911.391-5.071-1.307-8.292-5.237-8.518Z"></path>
  <path d="m759.973,410.934c-1.558.285-3.165.408-4.751.42-8.2.064-16.401.074-24.601.092-5.048.011-10.096.002-15.599.002,0-6.437-.023-12.626.01-18.815.016-2.936.355-5.885.163-8.803-.343-5.24-1.306-10.454-1.411-15.691-.158-7.825.297-15.661.306-23.492.006-5.024-.404-10.047-.463-15.072-.033-2.788.833-5.84-3.31-6.257-1.894,0-3.789.013-5.683-.004-1.476-.014-2.953-.108-4.428-.089-1.882.024-3.763.184-5.644.18-2.998-.006-6-.203-8.993-.096-1.03.037-2.513.168-2.492,1.862.069,5.462.137,10.925.262,16.386.225,9.813.546,19.623.714,29.437.07,4.108-.233,8.222-.221,12.333.041,13.653.117,27.307.247,40.96.053,5.541.279,11.08.428,16.676,3.311.42,6.257,1.02,9.22,1.126,8.101.289,16.208.405,24.314.521,4.751.068,9.505.047,14.257-.008,8.055-.093,16.109-.249,24.163-.363,1.288-.018,2.596.199,3.86.034,1.466-.191,2.386-.951,1.38-2.574.522-.239,1.023-.469,1.24-.569,0-2.037-.037-3.824.008-5.608.082-3.205.204-6.408.327-9.612.106-2.763-.072-5.586.448-8.271.471-2.432-1.051-5.197-3.751-4.704Z"></path>
  <path d="m829.158,334.462c-.019-.961-.06-1.921-.052-2.881.02-2.555.097-5.111.041-7.664-.006-.285-.712-.781-1.105-.794-2.871-.09-5.746-.112-8.619-.091-1.581.011-3.163.242-4.742.209-4.978-.105-9.953-.417-14.93-.412-9.49.01-18.98.212-28.471.28-6.815.049-13.63.009-20.692.009-.368,1.158-1.357,2.48-.85,4.461.226.885.389,2.614.113,3.15-1.412,2.735.227,5.192.197,7.751-.002.198-.087.393-.102.592-.051.697-.088,1.398-.156,2.518-.082.034-.35.253-.347.47.053,3.372.146,6.745.346,10.111.02.337.79.858,1.248.9,2.053.19,4.125.181,6.18.354,1.722.145,3.428.602,5.147.639,4.382.094,8.767.031,12.872.031,0,14.921-.063,29.532.018,44.142.081,14.66-.475,29.344,1.035,43.975,1.258,0,2.124-.069,2.977.011,7.804.73,15.608.584,23.403-.074,3.716-.314,3.711-.409,3.488-4.08-.035-.575-.147-1.148-.154-1.722-.114-10.718-.224-21.436-.318-32.155-.032-3.651-.031-7.303-.017-10.954.009-2.562.187-5.13.071-7.686-.167-3.679-.704-7.346-.775-11.024-.131-6.796-.037-13.595-.037-20.522,3.159,0,6.568-.045,9.976.012,3.941.065,7.88.258,11.82.288.503.004,1.183-.523,1.488-.994,2.049-3.167.523-6.749,1.02-10.128.418-2.843-.017-5.811-.074-8.724Z"></path>
  <path d="m1.719,360.594c.436,15.206.426,30.424.752,45.634.212,9.911.961,19.816.93,29.722-.012,3.868,1.347,4.856,4.755,4.884,4.698.039,9.392.443,14.09.505,3.488.046,6.986-.122,10.465-.386.704-.053,1.869-.913,1.926-1.49.333-3.35.609-6.732.514-10.092-.308-10.863-.786-21.72-1.198-32.58.336-.141.672-.283,1.008-.424,1.476,2.19,3.169,4.266,4.377,6.595,1.826,3.519,4.06,7.085,4.711,10.874.529,3.078,1.818,5.311,3.319,7.801,2.741,4.548,5.278,9.242,7.559,14.038,2.521,5.298,5.556,7.496,11.072,7.505,6.396.011,12.792.126,19.188.239,2.701.048,4.86-2.718,4.405-5.496-.413-2.524-.785-5.087-.808-7.636-.055-6.259.185-12.52.157-18.779-.051-11.221-.124-22.444-.365-33.662-.122-5.701-.836-11.392-.904-17.091-.078-6.46.26-12.926.433-19.389.147-5.505.37-11.008.423-16.514.008-.845-.614-2.355-1.127-2.438-2.862-.463-5.777-.642-8.68-.799-2.131-.115-4.272-.038-6.409-.06-4.172-.044-8.345-.143-12.517-.128-2.398.009-3.324,1.638-3.317,3.735.023,6.912.063,13.827.278,20.735.272,8.743.721,17.48,1.094,26.219-3.61-6.161-6.64-12.389-9.589-18.654-2.81-5.97-5.54-11.978-8.299-17.972-2.408-5.232-2.82-11.646-8.718-14.809-1.044-.56-2.162-1.296-3.272-1.346-2.033-.091-4.085.392-6.132.42-5.78.079-11.561.068-17.342.05-1.723-.005-2.714.461-2.832,2.467-.247,4.196-.737,8.378-1.118,12.567-.2,2.193-.668,4.407-.515,6.577.453,6.402,1.506,12.776,1.689,19.179Z"></path>
  <path d="m347.125,283.704c13.872.634,26.891-1.176,39.679-6.402,11.729-4.794,22.215-16.414,21.508-30.152-.571-11.103-.13-22.284-1.182-33.33-.955-10.023.341-20.997-7.921-27.846,2.622-9.058,5.478-16.756,6.941-24.71,1.051-5.713-.407-11.859.407-17.65,1.342-9.55-.717-18.443-4.478-26.849-3.822-8.542-10.461-16.039-18.924-19-10.213-3.574-21.515-5.122-32.406-5.439-19.861-.578-39.772.241-59.645.964-1.977.072-5.427,3.455-5.485,5.384-.381,12.623.011,25.268.097,37.906.065,9.546.204,19.095.029,28.638-.173,9.464-.795,18.918-1.044,28.381-.322,12.255-.486,24.515-.688,36.774-.245,14.905-.932,29.824-.503,44.71.247,8.582,1.377,8.827,10.233,8.769,17.798-.118,35.628-.959,53.383-.147Zm-12.87-140.873c7.358-.552,14.189-1.152,21.032-1.47.895-.042,2.624,1.33,2.664,2.114.253,4.928.323,9.884.075,14.812-.154,3.063-1.865,5.194-5.26,5.471-5.908.482-11.813,1.009-18.512,1.585v-22.513Zm-.955,70.831c7.023-.606,13.591-1.246,20.171-1.71,3.671-.259,6.492,1.685,6.617,5.214.19,5.358-.359,10.786-1.179,16.095-.141.911-3.214,1.991-4.895,1.932-6.724-.237-13.434-.892-20.715-1.434v-20.096Z"></path>
  <path d="m97.135,437.658c-.003,3.751,1.437,5.206,5.139,5.156,6.926-.094,13.853-.309,20.773-.615,1.939-.086,4.006-.362,5.696-1.196.532-.262-.024-2.626.01-4.026.172-7.237.381-14.474.56-21.712.038-1.548.006-3.098.006-4.678h15.326c0,9.181-.043,18.024.023,26.865.024,3.235,1.173,4.233,4.421,4.236,3.275.004,6.551-.093,9.824-.028,4.83.097,9.658.386,14.488.425,3.503.028,4.46-1.224,4.088-4.816-.162-1.559-.547-3.128-.471-4.674.42-8.489-.089-16.984.208-25.489.19-5.444,1.155-10.86.238-16.647-1.478-9.327-.424-19.052-.493-28.609-.022-3.045-.101-6.098-.357-9.131-.395-4.686.039-9.76-1.648-13.959-5.183-12.903-15.142-19.118-28.909-19.567-5.37-.175-10.781.477-16.128.101-8.905-.626-17.06.657-23.924,6.895-4.31,3.917-7.75,8.493-8.775,14.229-.567,3.172.493,6.6.446,9.907-.127,9.053-.594,18.103-.657,27.156-.062,8.974.291,17.951.303,26.926.015,11.083-.179,22.165-.187,33.248Zm31.27-85.679h16.093v25.385h-16.093v-25.385Z"></path>
  <path d="m271.01,354.728c-.309,1.998.536,4.091.569,6.198.196,12.544.34,25.092.238,37.636-.105,12.865-.538,25.728-.77,38.592-.068,3.746.985,4.617,4.651,4.543,5.445-.11,10.892-.118,16.338-.164,1.964-.017,3.948.149,5.886-.081,1.664-.197,3.275-.838,5.647-1.484,1.652-6.833-.64-14.443-.322-22.034.316-7.567.069-15.158.069-22.689h18.347c.293,4.542.751,8.723.796,12.908.105,9.875.024,19.751-.006,29.627-.006,1.92.566,3.207,2.756,3.346,3.723.238,7.436.65,11.16.846,4.176.221,8.37.527,12.539.357,5.581-.228,6.657-1.4,6.467-7-.235-6.95-.87-13.886-1.196-20.834-.271-5.778-.235-11.571-.542-17.347-.291-5.48-1.039-10.938-1.238-16.418-.197-5.412.119-10.841.062-16.26-.034-3.201-.581-6.405-.504-9.598.247-10.261.693-20.517,1.026-30.777.097-2.994-1.437-4.674-4.443-4.812-2.957-.135-5.925-.229-8.881-.132-4.659.152-9.313.476-13.969.732-3.691.202-4.615,1.346-4.36,5.146.084,1.244-.094,2.505-.155,3.758-.196,4.041-.515,8.08-.565,12.122-.092,7.456-.026,14.913-.026,22.318h-16.982c0-13.092-.024-25.801.025-38.509.008-1.998-.453-3.155-2.749-3.196-5.508-.098-11.012-.403-16.52-.528-3.53-.08-7.065.022-10.597.025-2.244.002-3.352,1.342-3.264,3.344.391,8.899.971,17.789,1.366,26.688.054,1.21-.552,2.449-.852,3.675Z"></path>
  <path d="m560.852,142.195c.976.768,1.293,2.818,1.286,4.285-.009,2.088-.855,4.169-.886,6.26-.324,21.422-.517,42.847-.824,64.269-.255,17.79-.715,35.577-.894,53.367-.135,13.521-.002,13.523,13.107,14.848.331.034.664.077.996.082,11.693.204,23.385.417,35.079.599,4.59.072,9.182.147,13.771.079,2.245-.033,4.485-.555,6.729-.574,8.533-.072,17.067.003,25.6-.039,7.37-.036,14.763-.54,22.104-.117,5.703.329,9.914-2.64,10.096-8.652.236-7.786.399-15.581.307-23.368-.075-6.314-.574-12.624-.914-19.545-26.494.553-51.595,1.077-77.258,1.612-.36-6.417-.744-13.259-1.169-20.832h49.744c.751-5.054,2.041-10.159,2.154-15.29.188-8.559-.49-17.132-.593-25.702-.103-8.566.01-8.52-8.386-8.446-10.276.09-20.554.013-30.828.17-3.708.057-7.409.582-11.768.949v-23.306c.731-.126,1.989-.511,3.251-.53,6.72-.101,13.442-.043,20.16-.177,3.96-.079,7.929-.72,11.868-.54,3.759.172,7.489,1.593,11.223,1.557,7.782-.076,15.557-1.057,23.336-1.077,5.205-.013,7.163-1.449,7.08-6.821-.073-4.721-.092-9.443-.079-14.164.021-7.317.265-14.64.062-21.95-.099-3.57-.956-6.776-6.13-5.814-3.83.712-7.84.467-11.77.636-21.278.917-42.55,2.264-63.837,2.574-11.682.17-23.402-1.267-35.08-2.273-4.966-.427-7.194.691-7.381,5.524-.26,6.73.04,13.48-.152,20.214-.164,5.743-.189,11.573-1.282,17.167-.472,2.416-.716,3.455,1.28,5.025Z"></path>
  <path d="m528.637,284.136c2.636-.187,5.362,1.208,8.035,1.168,2.803-.042,5.667-.712,8.345-1.593.815-.268,1.522-2.126,1.566-3.282.511-13.523,1.067-27.051,1.164-40.58.023-3.258-1.359-6.332-6.169-5.839-5.016.514-10.125.067-15.192.16-18.73.345-37.458.741-56.722,1.128v-20.901h48.799c.485-3.607,1.281-7.013,1.341-10.432.202-11.412-.015-22.833.26-34.243.102-4.211-1.537-4.928-5.354-4.871-15.054.224-30.113.092-45.233.092-.326-5.968-.725-12.402-1.008-18.842-.126-2.876.285-5.289,4.21-3.381.838.407,1.948.247,2.93.365,10.837,1.308,21.548-3.352,32.569-.268,3.815,1.067,8.374-.806,12.599-.862,6.824-.091,13.655.148,20.478.379,2.509.085,4.261.102,3.532-3.387-.363-1.736.601-3.708.683-5.586.302-6.915.7-13.836.652-20.753-.044-6.362-.615-12.72-.997-19.877-10.714.739-20.505,1.8-30.315,2.012-23.012.498-46.032.679-69.049.783-5.817.026-11.736-.194-17.424-1.271-4.433-.839-6.355.883-6.556,4.543-.419,7.609-1.016,15.333-.165,22.854.834,7.379-1.631,14.326-.293,22.021,1.987,11.427.575,23.452.524,35.222-.027,6.158-.916,12.398-.174,18.449.718,5.851-1.151,11.346-.485,17.314,1.13,10.128-.065,20.524-.4,30.803-.292,8.963-1.442,17.958-.958,26.871.646,11.897,1.159,11.989,12.935,12.82,9.692.684,19.406,1.401,29.113,1.438,10.425.04,20.85-.79,31.28-1.022,2.344-.052,4.746,1.32,7.055,1.148,9.486-.706,18.936-1.907,28.423-2.58Z"></path>
  <path d="m364.385,359.024v-6.898c.096-.044.192-.088.288-.133.536,6.524,1.297,13.04,1.549,19.575.3,7.755.358,15.531.164,23.29-.242,9.667-1.303,19.332-1.133,28.982.105,5.964,3.284,11.026,8.736,14.139,6.974,3.982,14.273,5.917,22.401,4.021,2.811-.655,5.95-.731,8.795-.239,5.827,1.009,11.375-.055,16.838-1.605,9.284-2.636,15.518-8.619,17.006-18.312.982-6.398.884-12.967,1.161-19.464.162-3.806.137-7.62.15-11.431.027-8.097.065-16.194.02-24.29-.033-6.009-.139-12.019-.31-18.026-.095-3.336.122-6.798-.688-9.977-3.041-11.938-14.663-20.165-28.222-18.58-3.743.438-7.559.239-11.339.388-4.729.187-9.559-.113-14.16.768-8.711,1.669-15.587,6.179-18.396,15.151-1.267,4.048-2.024,8.257-3.012,12.392-.121-.017-.241-.034-.362-.052-.083-.995-.166-1.99-.249-2.986-.177.015-.354.03-.53.045.297,4.416.595,8.831.892,13.247l.4-.006Zm31.642,45.972c.057-16.805.052-33.611.053-50.417,0-4.046,1.335-5.154,5.51-4.571,2.336.326,4.683.576,7.551.924.262,2.813.737,6.113.845,9.425.221,6.791.36,13.589.31,20.383-.03,4.045-.535,8.084-.735,12.13-.298,6.008-.512,12.02-.774,18.03-.017.401-.13.799-.194,1.173h-13.151c.224-2.6.578-4.838.585-7.076Z"></path>
  <path d="m184.387,417.832c.664,6.234,2.666,12.308,7.513,17.2,4.977,5.023,11.011,6.735,17.56,7.125,6.486.386,13.01.103,19.516.195,6.471.092,13.145.268,18.748-3.249,7.527-4.724,14.185-10.595,14.652-20.456.29-6.117.054-12.259.054-18.878-4.039,0-7.964-.012-11.889.003-5.257.021-10.513.082-15.77.087-2.66.003-4.167.877-3.647,3.923.245,1.435.24,2.998-.073,4.41-.197.886-1.113,2.213-1.817,2.287-4.002.422-8.037.525-12.709.771-.733-20.445.087-40.35.27-60.638,4.976.249,9.349.469,13.932.698.126.438.289.74.287,1.04-.016,2.431-.067,4.863-.1,7.294-.053,3.867,1.395,5.703,5.149,5.723,7.66.041,15.321-.247,22.982-.244,2.602,0,3.485-1.805,3.494-3.568.033-6.659-.132-13.331-.551-19.978-.351-5.58-2.13-11.284-6.083-14.855-5.147-4.649-11.519-8.103-19.099-7.585-1.77.121-3.555.044-5.333.03-9.089-.071-18.217-1.757-27.208,1.254-9.565,3.203-16.783,8.933-18.555,19.137-1.243,7.158-.945,14.594-1.186,21.911-.216,6.538-.326,13.083-.297,19.625.023,5.253.484,10.505.464,15.757-.027,7.001-1.04,14.077-.305,20.979Z"></path>
  <path d="m699.653,213.953c.008,21.076-.061,42.152-.143,63.228-.026,6.831,1.595,8.558,8.506,8.244,4.864-.221,9.765-1.333,14.563-.954,8.697.688,17.309,1.769,25.44-1.299v-63.427c6.246,0,12.538-.001,18.831,0,8.57.002,17.18-.493,25.697.178,6.134.483,8.592-.989,8.487-7.404-.102-6.298-.152-12.597-.22-18.896-.066-6.146-.123-12.293-.191-18.439-.033-2.99-1.25-4.193-4.528-4.14-12.08.197-24.166.05-36.25.035-3.921-.005-7.842,0-11.984,0v-26.984h81.451c0-7.276-.02-13.521.005-19.765.036-9.254.195-18.509.002-27.757-.018-.839-2.187-2.276-3.41-2.335-4.968-.239-9.957-.07-14.937-.013-13.086.151-26.187-.013-39.252.593-10.036.465-20.036,2.74-29.964-.758-1.914-.674-3.929-1.372-5.922-1.455-7.346-.307-14.707-.568-22.054-.429-4.126.078-8.237.973-13.153,1.603-.243,1.195-1.023,3.416-1.089,5.659-.174,5.948-.038,11.904-.029,17.857.052,32.219.132,64.439.144,96.659Z"></path>
  <path d="m40.441,279.768c24.357-.211,48.714-.508,73.072-.671,19.438-.13,38.878-.159,58.316-.117,3.263.007,6.53.925,9.785.868,10.327-.183,20.648-.699,30.974-.923,2.731-.059,5.477.703,8.212.681,5.496-.044,11.011-.759,16.479-.468,5.419.288,7.544-1.097,7.797-6.705.406-9.023.978-18.048,1.016-27.074.015-3.546-1.09-6.516-6.26-6.223-9.18.518-18.411.06-27.621.123-20.942.143-41.883.408-62.825.523-23.704.13-47.409.178-71.113.213-23.217.034-46.435.008-69.652.008-5.586-.971-6.823.201-6.721,5.895.149,8.362.719,16.727.556,25.08-.133,6.803,1.449,8.909,8.542,8.919,9.815.013,19.631-.041,29.445-.126Z"></path>
  <path d="m85.859,133.354c.193,10.411-.159,20.835-.38,31.25-.263,12.42-.795,24.838-.851,37.258-.013,2.932,1.415,5.772,5.382,5.741,8.213-.064,16.427-.019,25.393-.019v-42.572h16.399c0,11.616.164,22.797-.065,33.97-.125,6.079.837,7.655,6.771,8.039,5.563.359,11.132.669,16.703.824,6.581.183,7.147-.271,7.04-7.057-.106-6.733-.777-13.456-.978-20.19-.178-5.953.186-11.927-.11-17.87-.585-11.737-1.856-23.453-2.089-35.192-.181-9.138.724-18.301,1.268-27.446.187-3.137-1.16-4.831-4.172-4.866-7.216-.085-14.446-.173-21.644.218-1.418.077-3.795,2.222-3.891,3.547-.438,6.021-.224,12.09-.233,18.141-.008,5.893-.002,11.786-.002,17.84h-15.366v-38.436c-8.355,0-16.154-.134-23.947.043-6.16.139-7.096,1.344-6.764,7.564.521,9.738,1.355,19.469,1.536,29.213Z"></path>
  <path d="m168.605,203.602c-.076,2.769.961,4.31,4.121,4.249,5.731-.109,11.469.103,17.204.165,3.11.034,6.22.043,9.331.048,6.178.01,12.358.073,18.535-.006,6.202-.079,12.404-.484,18.602-.407,4.74.059,6.762-1.44,6.833-6.262.098-6.661.199-13.334-.13-19.981-.072-1.463-1.947-4.069-2.982-4.065-12.42.055-24.913-.169-37.217,1.204-4.43.494-4.697-.66-5.112-3.67-.249-1.808-.865-3.761-.422-5.408.352-1.309,2.031-3.175,3.172-3.213,8.325-.274,16.663-.147,25.949-.147.241-7.834.397-16.016.786-24.186.17-3.576-.788-4.985-4.751-4.812-8.227.359-16.482.108-24.886.108v-12.449c13.468,0,26.53-.144,39.584.094,3.571.065,4.7-1.364,4.735-4.469.081-7.127.338-14.263.025-21.374-.055-1.247-2.533-3.406-3.9-3.412-9.371-.047-18.742.459-28.116.608-10.99.175-21.994.499-32.97.12-6.798-.235-7.76.161-7.776,7.159-.031,13.362-.029,26.725-.222,40.085-.099,6.905-.828,13.804-.819,20.706.007,5.171,1.05,10.339,1.073,15.511.034,7.933-.43,15.868-.647,23.803Z"></path>
  <path d="m11.161,124.76c5.29.052,10.581.01,16.217.01v83.049c6.774,0,12.649.086,18.521-.019,10.052-.18,10.051-.23,10.234-10.357.006-.333.034-.665.032-.998-.044-11.293-.146-22.585-.119-33.878.027-11.143.237-22.285.221-33.427-.002-1.34-.917-2.679-1.524-4.331,6.494,0,13.134.148,19.756-.128,1.281-.053,3.541-1.731,3.573-2.716.282-8.726.164-17.465.164-26.668H3.653c-.302,7.4-1.064,14.919-.779,22.397.257,6.752,1.037,6.995,8.287,7.067Z"></path>
</svg>
