<svg xmlns="http://www.w3.org/2000/svg" viewBox="0 0 253.436 53.438"><defs><style>.a{fill:none;}</style></defs><rect class="a" width="253.436" height="53.438"/><path d="M66.731,12.58h-14.3a.8.8,0,0,0-.909.908V42.542a.8.8,0,0,0,.909.908h4.313a.8.8,0,0,0,.907-.908V31.511a.8.8,0,0,1,.908-.909h4.994a.8.8,0,0,0,.908-.907V26.017a.8.8,0,0,0-.908-.908H58.559a.8.8,0,0,1-.908-.908v-5.22a.8.8,0,0,1,.908-.908h8.172a.8.8,0,0,0,.908-.908V13.488A.8.8,0,0,0,66.731,12.58Z"/><rect x="70.071" y="12.58" width="6.083" height="30.87" rx="0.908"/><path d="M93.347,30.24a.907.907,0,0,1,.408-1.136,8.853,8.853,0,0,0,2.678-2.814,9.425,9.425,0,0,0,1.181-4.722,8.807,8.807,0,0,0-2.5-6.582,9.5,9.5,0,0,0-6.81-2.406h-7.49a.8.8,0,0,0-.908.908V42.542a.8.8,0,0,0,.908.908H85.13a.8.8,0,0,0,.907-.908V31.511q0-.636.682-.636a.851.851,0,0,1,.862.59l4.086,11.4a.849.849,0,0,0,.862.59h4.722a.8.8,0,0,0,.817-1.226Zm-2.861-5.63A3.316,3.316,0,0,1,87.9,25.79h-.954a.8.8,0,0,1-.908-.907V18.89a.8.8,0,0,1,.908-.908H87.9a3.514,3.514,0,0,1,2.587,1.044,3.838,3.838,0,0,1,1,2.769A4.106,4.106,0,0,1,90.486,24.61Z"/><path d="M115.55,12.58H101.522a.8.8,0,0,0-.908.908V42.542a.8.8,0,0,0,.908.908H115.55a.8.8,0,0,0,.908-.908V38.865a.8.8,0,0,0-.908-.908h-7.9a.8.8,0,0,1-.908-.908V31.511a.8.8,0,0,1,.908-.909h3.133a.8.8,0,0,0,.907-.907V26.017a.8.8,0,0,0-.907-.908h-3.133a.8.8,0,0,1-.908-.908v-5.22a.8.8,0,0,1,.908-.908h7.9a.8.8,0,0,0,.908-.908V13.488A.8.8,0,0,0,115.55,12.58Z"/><path d="M166.85,26.438a2.582,2.582,0,0,0-1.438-.688,1.836,1.836,0,0,0-.562.125,6.589,6.589,0,0,0-1.688,2.438c-.036.08-.068.162-.105.243-.7.352-1.435.9-1.893,1.069a25.639,25.639,0,0,1-4.125,1.188,2.2,2.2,0,0,1-2-1.375,5.445,5.445,0,0,0-1-1.438c-.067-.067-.139-.133-.2-.2-.056-.162-.115-.333-.165-.481,0-.717-.644-1.243-.818-1.821a4.963,4.963,0,0,0-1.625-.5c-.5,0-.812.25-1.312.938a5.353,5.353,0,0,0-.813,1.25c-.035.07-.067.147-.1.218-1.368.068-2.7.171-4.083.282l-4.562.187h-.313a1.226,1.226,0,0,1-.937-.312,3.85,3.85,0,0,1,.625-1.5c2.187-4.25,4.875-8.313,7.5-12.438.312-.437.687-.875,1.062-1.312a1.308,1.308,0,0,1,1.063-.563,2.653,2.653,0,0,0,.312.063c.125,0,.313.062.438.062a75.183,75.183,0,0,0,13.5,1.688,14.728,14.728,0,0,0,8.937-2.5,6.352,6.352,0,0,0,2.813-6.75c-.75-2.75-2.875-4-5.75-4.313a3.888,3.888,0,0,0-1.438.25c-1.187.563-1.75,2.188-.75,2.938a1.921,1.921,0,0,0,1.313.375h.437c1.438,0,2.688.562,3,2.062.313,1.188-.25,2.313-1.625,3.188a9.108,9.108,0,0,1-3.312,1.375,25.362,25.362,0,0,1-3.75.312,16.5,16.5,0,0,1-1.75-.062l-5.25-.75c-2.063-.313-4.125-.625-6.125-1.063a41.947,41.947,0,0,0-8.875-.937c-3.25,0-8.438.437-11.563,1.625a9.32,9.32,0,0,0-3.875,3.062c-1.125,1.563-.625,3.25,1,3.813a3.288,3.288,0,0,0,1.063.25h.187c.438-.313.875-.563.875-1.125,0-.625.75-1.063.625-1.688-.125-.562.313-.875.75-1.125,1.875-1.125,8.063-1.687,10.688-1.687.75,0,1.5.062,2.25.125a1.613,1.613,0,0,1,1.375.437,1.008,1.008,0,0,1-.188.375,11.518,11.518,0,0,1-.687,1.188,145.4,145.4,0,0,0-8.125,13.812,2.559,2.559,0,0,0-.313.563,1.352,1.352,0,0,1-1.375.875h-.5c-1.875.187-3.812.312-5.75.5a11.737,11.737,0,0,0-3.437.75,1.144,1.144,0,0,0-.75,1.75,3.328,3.328,0,0,0,1.125,1.375,38.332,38.332,0,0,1,7.125-1,3.638,3.638,0,0,1,1.187.187,1.027,1.027,0,0,1-.125.875c-.312.75-.625,1.5-1,2.25-2.062,4.813-4.187,9.563-5.875,14.5a17.354,17.354,0,0,0-.687,3,.873.873,0,0,0,.812,1.063h.188a3.019,3.019,0,0,1,.75-.063h.625a1.389,1.389,0,0,0,.5-.062,1.62,1.62,0,0,0,.562-1.125,19.351,19.351,0,0,1,1.438-4.813c1.5-4.187,3.312-8.25,5.062-12.312.438-1,.938-1.938,1.313-2.938a1.478,1.478,0,0,1,1.312-.875c.75,0,1.438,0,2.125-.062,1.938-.125,3.875-.188,5.75-.313l1.745-.092c-1.39,3.781-2.7,7.562-4,11.342-.188.438-.25.813-.375,1.188-.125.687.062,1.062.75,1.5.375.25,1,.187,1.312.625.375-.063.688-.063,1.125-.125a138.767,138.767,0,0,1,6.5-12.5,2.771,2.771,0,0,1,1.375.562,5.444,5.444,0,0,0,3,.813,11.892,11.892,0,0,0,3.6-.674c-1.412,3.514-2.7,7.061-4.041,10.611A7.148,7.148,0,0,0,156.537,46a3.254,3.254,0,0,0,1,1.188,1.681,1.681,0,0,0,1,.5,1.813,1.813,0,0,0,1-.375,8.43,8.43,0,0,0,2-2.188c-.437-.312-.187-.875-.562-1.25-.125.063-.188,0-.125-.125a2.2,2.2,0,0,1,.25-1.062c1.437-3.875,2.812-7.75,4.5-11.5.015-.031.028-.063.042-.094a1.343,1.343,0,0,0,.058-.129,2.539,2.539,0,0,1,.712-1.152c.5-.313.625-.813.875-1.25A1.52,1.52,0,0,0,166.85,26.438Z"/><path d="M170.475,16.75c-.5,0-.875.375-1.125.938-.188.562-.375,1.062-.563,1.562.938,1.063,1.375,1.375,2.375,1.375a5.446,5.446,0,0,0,.938-.062,3.991,3.991,0,0,0,.812-2.625,18.056,18.056,0,0,0-1.812-1A1.4,1.4,0,0,0,170.475,16.75Z"/><path d="M200.348,24.5a6.555,6.555,0,0,0-3.375-.937,6.678,6.678,0,0,0-1.563.187,4.44,4.44,0,0,0-3.812,4.875,7.094,7.094,0,0,0,.687,2.5,18.639,18.639,0,0,1,1.938,6.25,12.528,12.528,0,0,1-.563,6.063,4.65,4.65,0,0,1-4.062,2.875,3.277,3.277,0,0,1-3-1.938,6.471,6.471,0,0,1-.563-4.187,10.829,10.829,0,0,1,.757-2.005,4.243,4.243,0,0,0,.494-.745.976.976,0,0,0-.023-.1,10.322,10.322,0,0,1,3.21-3.213c.062-.375.062-.812.125-1.25-1-.125-.688-1.125-1.188-1.625a3.849,3.849,0,0,0-2.75,1.313,16.745,16.745,0,0,0-2.92,3.891l-3.829,4.171a8.229,8.229,0,0,1-6.187,3.125,2.322,2.322,0,0,1-1.375-.625,3.442,3.442,0,0,1-1.063-3.375,7.218,7.218,0,0,1,2.125-1c4.25-1.562,7.688-4.5,9.063-8.937a5.885,5.885,0,0,0-.188-3.875,3.041,3.041,0,0,0-3-2.188,6.865,6.865,0,0,0-4.5,1.625c-5.062,4.313-7.625,9.688-6.937,16.438.25,2.375,2.875,5.25,5.312,5.437a11.334,11.334,0,0,0,9.125-4.125c.067-.073.136-.147.2-.221a10.327,10.327,0,0,0,1.359,3.6,6.2,6.2,0,0,0,5.562,3.188c5.188,0,8-4.25,8.313-9a21.218,21.218,0,0,0-1.75-10,16.117,16.117,0,0,1-.688-1.5c-.375-1.313.25-2.063,1.5-2.063h.25a2.328,2.328,0,0,1,1.375.625,7.85,7.85,0,0,0,.75.625,1.2,1.2,0,0,0,.75.25A1.611,1.611,0,0,0,201.1,28c.25-.375.562-.75.812-1.187A2.515,2.515,0,0,0,200.348,24.5Zm-21.562,2.813a1.205,1.205,0,0,1,.313,1.312,6.838,6.838,0,0,1-1.313,2.813A11.7,11.7,0,0,1,172.1,35.5C172.1,32.75,176.036,28,178.786,27.313Z"/></svg>