<?xml version="1.0" encoding="UTF-8"?>
<svg xmlns="http://www.w3.org/2000/svg" id="b" viewBox="0 0 1715.781 501.708">
  <defs>
    <style>.c{stroke-width:0px;}</style>
  </defs>
  <path class="c" d="m702.889,437.774c0,18.502-5.33,33.785-15.983,45.845-10.657,12.059-24.152,18.089-40.485,18.089-10.594,0-19.237-3.254-25.937-9.763-6.7-6.508-10.049-14.739-10.049-24.692,0-4.086.766-7.753,2.297-11.007s3.35-6.062,5.455-8.423c2.106-2.362,4.179-4.851,6.221-7.465,2.04-2.617,3.667-5.904,4.881-9.858,1.211-3.957,1.562-8.551,1.053-13.782-1.148-12.634-7.307-22.653-18.472-30.053-11.168-7.402-25.683-11.102-43.548-11.102-21.696,0-44.538,1.465-68.528,4.402-23.993,2.934-45.145,6.093-63.456,9.475-18.313,3.38-41.316,6.284-69.006,8.71-27.693,2.423-56.085,3.254-85.181,2.488-59.085-1.531-109.812-11.677-152.178-30.436-42.369-18.759-74.624-45.145-96.762-79.151C11.069,257.045,0,216.686,0,169.979c0-47.215,12.792-85.148,38.379-113.798C63.964,27.534,97.815,13.208,139.927,13.208c35.604,0,63.614,6.987,84.033,20.96,20.416,13.974,32.413,34.425,35.987,61.35,1.148,9.188-1.627,16.974-8.327,23.353-6.7,6.383-15.475,9.571-26.32,9.571-9.188,0-16.687-2.614-22.492-7.848-5.809-5.231-8.71-11.993-8.71-20.29,0-14.931-2.234-28.456-6.699-40.581-4.469-12.122-10.624-21.564-18.472-28.33-7.848-6.763-16.624-10.08-26.32-9.954-12.891.129-24.535,6.733-34.934,19.812-10.402,13.082-18.538,31.201-24.406,54.363-5.871,23.162-8.805,49.036-8.805,77.62,0,67.125,17.578,119.35,52.736,156.677,35.155,37.326,85.277,56.946,150.359,58.86,24.373.766,48.587-.224,72.643-2.967,24.053-2.745,45.908-6.35,65.561-10.814,19.65-4.469,38.954-8.967,57.904-13.495,18.951-4.531,39.175-8.423,60.68-11.677,21.501-3.254,42.399-4.881,62.689-4.881,30.37,0,55.607,8.805,75.706,26.415,20.099,17.61,30.148,39.75,30.148,66.423Zm-325.049-116.383c-12.25-6.763-18.376-18.95-18.376-36.561v-112.363c2.68-9.313,6.092-15.888,10.241-19.716,4.146-3.829,9.475-5.743,15.983-5.743,6.251,0,11.548,3.191,15.888,9.571,4.337,6.383,6.508,14.293,6.508,23.736v104.515c0,17.484-6,29.67-17.993,36.561v2.68h110.832v-2.68c-12.251-6.763-18.376-18.95-18.376-36.561v-101.069c0-22.33-5.712-39.687-17.132-52.066-11.422-12.376-27.406-18.568-47.951-18.568-12.762,0-24.247,3.542-34.455,10.624-10.211,7.083-18.059,16.877-23.544,29.383V52.448c0-8.676-1.501-17.386-4.499-26.128-3-8.739-5.967-13.112-8.901-13.112-2.043,0-5.521,1.182-10.432,3.542-4.914,2.363-13.304,5.808-25.172,10.336-11.868,4.531-25.841,8.775-41.92,12.729-1.406.383-2.105.957-2.105,1.723,0,.64.7,1.406,2.105,2.297,10.974,5.743,16.462,16.591,16.462,32.542v208.455c0,17.484-6.191,29.67-18.567,36.561v2.68h111.405v-2.68Zm181.393-224.343c11.228,0,20.895-4.02,29-12.059,8.103-8.04,12.155-17.545,12.155-28.521,0-11.739-3.924-21.564-11.772-29.479-7.848-7.911-17.643-11.868-29.382-11.868-10.977,0-20.515,4.085-28.617,12.25-8.105,8.168-12.155,17.868-12.155,29.096,0,11.359,3.954,20.96,11.868,28.809,7.911,7.848,17.544,11.772,28.904,11.772Zm65.848,224.343c-12.25-6.763-18.376-18.95-18.376-36.561v-132.462c0-8.677-1.501-17.386-4.499-26.129-3-8.739-5.967-13.112-8.901-13.112-1.789,0-4.499.766-8.135,2.297-3.637,1.531-7.881,3.479-12.729,5.838-4.851,2.363-12.379,5.297-22.587,8.805-10.211,3.511-21.567,6.795-34.072,9.858-1.406.383-2.105.894-2.105,1.531s.7,1.406,2.105,2.297c10.974,7.403,16.462,18.251,16.462,32.542v108.535c0,17.484-6.191,29.67-18.567,36.561v2.68h111.405v-2.68Zm208.687-65.848c-.957-.509-1.947.128-2.967,1.914-6.508,10.082-14.422,17.835-23.736,23.257-9.317,5.426-19.462,8.136-30.436,8.136-22.587,0-40.231-8.485-52.927-25.459-12.7-16.971-19.046-40.261-19.046-69.868,0-48.363,10.528-72.548,31.584-72.548,3.317,0,5.964.927,7.944,2.776,1.977,1.851,3.284,4.785,3.924,8.805.637,4.02,1.02,7.657,1.148,10.911.125,3.254.03,7.881-.287,13.878-.32,6-.479,10.337-.479,13.017,0,9.571,3.987,17.739,11.964,24.501,7.974,6.766,17.706,10.146,29.191,10.146,9.825,0,17.769-2.551,23.832-7.657,6.06-5.103,9.092-11.868,9.092-20.291,0-19.396-7.818-34.901-23.449-46.515-15.634-11.611-36.594-17.419-62.881-17.419-30.118,0-54.937,10.05-74.461,30.148-19.525,20.099-29.287,45.653-29.287,76.664,0,31.904,9.409,57.904,28.234,78.002,18.822,20.1,43.228,30.148,73.217,30.148,22.97,0,43.261-6.029,60.871-18.089,17.611-12.06,30.627-28.809,39.049-50.247.892-2.297.862-3.7-.096-4.211Zm185.945-107.386c3.445,0,6.986,1.086,10.624,3.254,3.637,2.172,6.825,4.594,9.57,7.274,2.743,2.68,6.126,5.105,10.146,7.274,4.02,2.171,8.135,3.254,12.347,3.254,7.273,0,13.749-3.221,19.429-9.667,5.677-6.443,8.519-13.812,8.519-22.109,0-7.528-2.298-13.462-6.892-17.802-4.594-4.337-10.785-6.508-18.567-6.508-6.509,0-13.528,1.373-21.057,4.116-7.53,2.746-15.313,6.828-23.353,12.251-8.04,5.425-15.379,10.656-22.014,15.696-6.637,5.042-14.039,11.485-22.204,19.333-8.168,7.848-14.326,13.848-18.472,17.994s-9.476,9.604-15.984,16.366c-2.425,2.554-4.148,4.34-5.168,5.359V52.448c0-8.676-1.501-17.386-4.499-26.128-3-8.739-5.967-13.112-8.901-13.112-3.574,0-7.785,1.086-12.634,3.254-4.851,2.171-9.795,4.723-14.835,7.657-5.042,2.937-12.475,6.382-22.3,10.336-9.828,3.957-20.419,7.34-31.775,10.145-12.25,3.063-22.043,5.139-29.383,6.221-7.336,1.086-15.409,1.627-24.214,1.627-6.762,0-13.046-1.307-18.854-3.924-5.806-2.614-10.687-5.838-14.644-9.667-3.954-3.829-8.07-8.04-12.347-12.634-4.274-4.594-8.198-8.805-11.772-12.634-3.571-3.828-7.911-7.049-13.017-9.667-5.103-2.614-10.462-3.924-16.079-3.924-10.974,0-20.066,3.191-27.277,9.571-7.208,6.382-10.815,14.422-10.815,24.119,0,12.762,6.062,23.323,18.185,31.68,12.125,8.36,27.501,12.538,46.132,12.538,8.168,0,17.356-.957,27.564-2.872,10.211-1.914,18.888-3.891,26.033-5.934,7.148-2.04,16.495-4.881,28.043-8.518,11.551-3.637,19.621-6.093,24.214-7.37,4.594-1.274,8.805-1.914,12.634-1.914,10.719,0,16.079,8.36,16.079,25.076v208.455c0,17.484-6.191,29.67-18.567,36.561v2.68h111.405v-2.68c-12.25-6.763-18.376-18.95-18.376-36.561v-71.208l72.93,110.448h89.01l-107.386-163.471c5.997-8.294,15.505-12.442,28.521-12.442Zm680.755,40.293c-10.211-20.099-24.311-35.825-42.304-47.185-17.993-11.356-38.158-17.036-60.488-17.036-10.594,0-19.303,3.416-26.128,10.241-6.829,6.829-10.241,15.667-10.241,26.512,0,11.231,3.795,20.386,11.39,27.468,7.591,7.083,17.386,10.624,29.383,10.624,28.455,0,50.788,6.669,66.996,20.003,16.205,13.337,24.311,31.746,24.311,55.225,0,19.016-4.499,36.723-13.495,53.118-8.997,16.396-21.185,29.413-36.562,39.05-15.379,9.634-32,14.452-49.864,14.452-21.95,0-39.211-8.742-51.778-26.225-12.571-17.484-18.855-41.409-18.855-71.782v-99.154c0-22.33-5.712-39.687-17.132-52.066-11.422-12.376-27.405-18.568-47.95-18.568-12.763,0-24.247,3.542-34.455,10.624-10.102,7.007-17.887,16.673-23.364,28.987-.055-5.718-1.322-13.678-3.818-23.914-2.554-10.462-5.742-15.696-9.57-15.696-.033,0-.073.005-.109.007-.028,0-.055-.007-.083-.007-1.788,0-4.498.766-8.135,2.297-3.638,1.531-7.881,3.479-12.729,5.838-4.852,2.363-12.38,5.297-22.588,8.805-2.794.961-5.682,1.903-8.648,2.83-1.834.217-3.61.328-5.325.328-8.552,0-16.558-2.135-24.023-6.413-7.465-4.274-13.94-9.825-19.429-16.653-5.485-6.825-10.782-14.356-15.888-22.587-5.103-8.231-10.176-16.462-15.218-24.693-5.04-8.231-10.271-15.759-15.696-22.587-5.423-6.825-11.739-12.376-18.951-16.653-7.208-4.274-14.96-6.413-23.257-6.413-11.61,0-21.182,3.287-28.713,9.858-7.528,6.574-11.294,14.901-11.294,24.98,0,9.571,3.287,17.644,9.858,24.215,6.574,6.574,15.155,10.241,25.746,11.006,38.795,4.723,70.729,18.663,95.805,41.825,23.319,21.539,35.788,46.473,37.422,74.798v80.921c0,17.484-6.191,29.67-18.567,36.561v2.68h111.598v-2.68c-12.251-6.763-18.377-18.95-18.377-36.561v-112.363c2.681-9.188,6.093-15.726,10.241-19.62,3.749-3.519,8.478-5.432,14.16-5.769v-.007c.539-.029,1.075-.062,1.632-.062,6.251,0,11.548,3.191,15.888,9.571,4.337,6.383,6.508,14.293,6.508,23.736v98.772c0,35.096,11.165,62.528,33.499,82.311,22.33,19.778,53.34,29.67,93.029,29.67,20.161,0,38.983-3.351,56.468-10.05,17.482-6.7,32.413-15.983,44.792-27.852,12.377-11.868,22.076-26.194,29.096-42.974,7.017-16.778,10.528-34.868,10.528-54.267,0-24.885-5.105-47.376-15.313-67.476Zm-400.948,71.304c-8.423,21.438-21.439,38.188-39.05,50.247s-37.9,18.089-60.871,18.089c-29.99,0-54.396-10.049-73.218-30.148-18.824-20.099-28.234-46.099-28.234-78.002,0-31.136,9.667-56.723,29-76.759,19.334-20.033,43.994-30.053,73.983-30.053,27.436,0,49.673,9.476,66.71,28.426,17.036,18.951,25.554,43.614,25.554,73.983l-121.168,3.062c3.317,22.205,11.037,39.465,23.162,51.779,12.122,12.316,27.756,18.472,46.897,18.472,10.974,0,21.119-2.71,30.436-8.136,9.313-5.422,17.228-13.175,23.736-23.257,1.02-1.786,2.01-2.423,2.967-1.914.957.511.986,1.914.096,4.211Zm-128.442-49.386l18.759-.383c11.229.129,19.076-2.614,23.545-8.231,4.466-5.614,6.699-15.63,6.699-30.053,0-.766.03-3.125.096-7.083.063-3.954.063-7.049,0-9.284-.065-2.231-.224-5.36-.479-9.379-.257-4.02-.766-7.241-1.531-9.667-.766-2.423-1.788-4.944-3.062-7.562-1.277-2.614-3-4.561-5.168-5.838-2.172-1.274-4.723-1.915-7.657-1.915-10.082,0-17.931,6.35-23.544,19.046-5.617,12.699-8.423,30.531-8.423,53.501,0,3.829.254,9.445.766,16.845Z"></path>
  <path class="c" d="m816.408,446.086c-2.68,1.218-6.333,1.826-10.961,1.826-6.138,0-11.814-.852-17.026-2.558h3.142c13.542,0,24.211-2.946,32.006-8.842,7.794-5.894,11.692-13.884,11.692-23.968,0-9.109-4.019-16.466-12.057-22.068-8.038-5.602-18.537-8.403-31.495-8.403h-50.348v1.023c4.725,2.63,7.088,7.283,7.088,13.957v87.176c0,6.675-2.364,11.327-7.088,13.957v1.023h42.529v-1.023c-4.677-2.581-7.015-7.234-7.015-13.957v-38.875h7.015c4.189,6.869,10.022,16.332,17.501,28.39,7.478,12.057,12.726,20.546,15.748,25.466h34.125l-34.856-53.124Zm-39.533-3.728v-57.289h14.542c4.969,0,8.769,2.643,11.399,7.929,2.631,5.286,3.946,12.922,3.946,22.908,0,8.623-1.498,15.188-4.494,19.693-2.996,4.507-7.369,6.759-13.117,6.759h-12.276Z"></path>
  <path class="c" d="m896.716,499.21v-1.023c-4.677-2.581-7.015-7.234-7.015-13.957v-50.566c0-3.312-.573-6.637-1.717-9.975-1.145-3.336-2.278-5.006-3.398-5.006-.683,0-1.717.293-3.105.877-1.388.585-3.009,1.328-4.859,2.229-1.852.901-4.726,2.021-8.623,3.361-3.898,1.34-8.233,2.594-13.007,3.763-.537.146-.804.342-.804.585s.267.536.804.877c4.189,2.825,6.285,6.967,6.285,12.422v41.433c0,6.675-2.364,11.327-7.088,13.957v1.023h42.529Z"></path>
  <path class="c" d="m882.795,385.8c-2.996-3.02-6.735-4.53-11.217-4.53-4.19,0-7.832,1.56-10.924,4.677-3.094,3.118-4.641,6.82-4.641,11.107,0,4.336,1.51,8.001,4.531,10.997,3.02,2.996,6.698,4.494,11.034,4.494,4.286,0,7.977-1.535,11.07-4.604,3.093-3.069,4.641-6.698,4.641-10.888,0-4.482-1.498-8.232-4.494-11.254Z"></path>
  <path class="c" d="m911.623,430.192c-7.453,7.672-11.18,17.428-11.18,29.266,0,12.18,3.592,22.104,10.778,29.777,7.186,7.673,16.502,11.509,27.951,11.509,8.769,0,16.515-2.302,23.238-6.905s11.691-10.997,14.906-19.182c.34-.877.33-1.412-.037-1.607-.365-.194-.742.049-1.131.73-2.486,3.849-5.506,6.809-9.062,8.879s-7.43,3.105-11.617,3.105c-8.623,0-15.359-3.239-20.206-9.719-4.848-6.479-7.271-15.37-7.271-26.672,0-18.463,4.019-27.695,12.057-27.695,1.266,0,2.277.354,3.033,1.06.754.707,1.254,1.827,1.498,3.361.242,1.535.389,2.923.438,4.165.049,1.243.012,3.009-.109,5.298-.121,2.291-.182,3.946-.182,4.97,0,3.653,1.521,6.771,4.566,9.354s6.76,3.872,11.145,3.872c3.75,0,6.783-.974,9.098-2.923,2.312-1.947,3.471-4.53,3.471-7.745,0-7.404-2.984-13.323-8.951-17.757-5.969-4.433-13.971-6.65-24.005-6.65-11.498,0-20.972,3.837-28.426,11.51Z"></path>
  <path class="c" d="m1058.976,473.05c-.365-.194-.743.049-1.132.73-2.485,3.849-5.506,6.809-9.062,8.879-3.557,2.07-7.43,3.105-11.618,3.105-7.308,0-13.275-2.35-17.903-7.052-4.629-4.701-7.576-11.29-8.842-19.767l46.255-1.169c0-11.594-3.251-21.009-9.755-28.243s-14.992-10.852-25.466-10.852c-11.449,0-20.862,3.825-28.243,11.473-7.381,7.649-11.07,17.417-11.07,29.303,0,12.18,3.592,22.104,10.778,29.777,7.185,7.673,16.502,11.509,27.95,11.509,8.769,0,16.515-2.302,23.237-6.905s11.691-10.997,14.907-19.182c.34-.877.329-1.412-.037-1.607Zm-49.288-23.676c0-8.769,1.071-15.576,3.216-20.424,2.143-4.848,5.139-7.271,8.988-7.271,1.12,0,2.094.244,2.923.731.827.487,1.485,1.23,1.973,2.229.486.999.877,1.961,1.169,2.886.293.927.486,2.156.585,3.69.097,1.535.157,2.729.183,3.581.024.853.024,2.034,0,3.544-.025,1.511-.036,2.411-.036,2.703,0,5.506-.854,9.33-2.558,11.473-1.706,2.145-4.702,3.191-8.988,3.143l-7.161.146c-.195-2.825-.293-4.97-.293-6.431Z"></path>
  <path class="c" d="m1178.743,447.62c-5.384-5.212-12.678-8.72-21.886-10.522,7.161-1.9,12.666-5.018,16.515-9.354,3.848-4.335,5.773-9.743,5.773-16.223,0-8.622-3.361-15.686-10.085-21.191-6.723-5.504-15.321-8.257-25.795-8.257h-50.347v1.023c4.725,2.63,7.088,7.283,7.088,13.957v87.176c0,6.675-2.363,11.327-7.088,13.957v1.023h50.201c13.542,0,24.211-2.935,32.006-8.806,7.794-5.869,11.692-13.848,11.692-23.932,0-7.354-2.692-13.64-8.075-18.853Zm-50.165-62.551h10.157c3.654-.146,6.564,2.327,8.732,7.417,2.167,5.091,3.252,11.947,3.252,20.57,0,7.259-.877,12.91-2.631,16.953-1.754,4.044-4.165,6.064-7.234,6.064h-12.422l.146-51.005Zm25.247,104.385c-2.996,4.507-7.369,6.76-13.116,6.76h-12.423l.292-57.144h13.007l1.827-.146h.877c4.578.438,8.062,3.302,10.449,8.587,2.387,5.286,3.581,12.703,3.581,22.251,0,8.622-1.498,15.188-4.494,19.692Z"></path>
  <path class="c" d="m1257.406,429.754c-6.967-7.381-16.247-11.071-27.841-11.071s-20.875,3.69-27.841,11.071c-6.967,7.38-10.449,17.208-10.449,29.484,0,13.105,3.349,23.3,10.047,30.582,6.698,7.283,16.113,10.924,28.243,10.924,11.204,0,20.388-3.884,27.549-11.655,7.161-7.77,10.742-17.72,10.742-29.851,0-12.276-3.484-22.104-10.45-29.484Zm-19.511,59.079c-1.364,5.944-4.141,8.915-8.33,8.915-1.607,0-2.984-.365-4.129-1.096s-2.059-2.021-2.74-3.873c-.683-1.851-1.23-3.592-1.644-5.225-.415-1.632-.707-4.104-.877-7.417-.172-3.312-.269-6.003-.293-8.074-.024-2.07-.036-5.226-.036-9.463v-9.427c-.049-11.302.413-18.95,1.389-22.945,1.363-5.699,4.14-8.55,8.33-8.55,2.339,0,4.213.743,5.627,2.229,1.412,1.487,2.398,4.081,2.959,7.783.56,3.702.901,7.003,1.023,9.901.121,2.898.157,7.393.109,13.481v10.377c.048,11.448-.414,19.243-1.389,23.383Z"></path>
  <path class="c" d="m1338.226,499.21l-5.554-14.469,10.815-27.402,16.148,41.871h30.472l-5.48-14.469,16.149-40.702c2.874-6.966,5.883-12.507,9.024-16.624,3.143-4.116,5.979-6.175,8.514-6.175v-1.022h-28.353v1.022c2.484,0,4.737,1.268,6.759,3.8,2.021,2.534,3.032,5.359,3.032,8.477,0,3.313-.804,6.821-2.411,10.522l-14.396,36.464-17.172-44.721c-.438-1.315-.658-2.752-.658-4.312,0-2.289.523-4.359,1.571-6.211,1.047-1.851,2.423-3.19,4.129-4.02v-1.022h-47.278v1.022c2.289.976,4.299,2.474,6.028,4.494,1.729,2.022,3.422,4.859,5.078,8.514l7.161,18.706-10.741,27.549-17.245-44.721c-.391-1.169-.585-2.605-.585-4.312,0-2.289.523-4.359,1.571-6.211,1.047-1.851,2.423-3.19,4.129-4.02v-1.022h-47.352v1.022c2.289.976,4.298,2.474,6.028,4.494,1.729,2.022,3.422,4.859,5.078,8.514l24.991,64.962h30.545Z"></path>
  <path class="c" d="m1428.472,484.23c0,6.675-2.363,11.327-7.088,13.957v1.023h42.528v-1.023c-4.677-2.581-7.015-7.234-7.015-13.957v-88.711c0-3.312-.573-6.637-1.718-9.975-1.146-3.336-2.277-5.005-3.397-5.005-.78,0-2.108.45-3.982,1.352-1.876.901-5.079,2.217-9.609,3.946s-9.865,3.35-16.003,4.859c-.537.146-.804.365-.804.657,0,.244.267.536.804.877,4.188,2.192,6.284,6.333,6.284,12.423v79.576Z"></path>
  <path class="c" d="m984.108,4.411h50.928v27.325h-1.883c-.818-8.291-3.241-14.618-7.27-18.983-4.028-4.363-9.444-6.547-16.246-6.547h-1.883v59.424c0,4.028,1.401,6.816,4.204,8.363v.613h-25.442v-.613c2.803-1.547,4.204-4.335,4.204-8.363V6.206h-6.612c-4.672,0-8.919.876-12.743,2.628-3.825,1.752-6.831,4.182-9.021,7.291s-3.284,6.562-3.284,10.356c0,4.496,1.562,8.079,4.686,10.75,3.123,2.672,7.298,4.007,12.523,4.007,2.744,0,4.984.811,6.722,2.431s2.605,3.715,2.605,6.284c0,2.423-.781,4.423-2.343,5.999s-3.554,2.364-5.977,2.364c-3.475,0-6.729-.649-9.766-1.948s-5.627-3.087-7.772-5.364-3.839-5.014-5.08-8.211c-1.24-3.196-1.861-6.634-1.861-10.312,0-4.087.767-7.875,2.3-11.363,1.532-3.488,3.664-6.459,6.393-8.911,2.729-2.452,6.043-4.364,9.94-5.736s8.123-2.059,12.678-2.059Z"></path>
  <path class="c" d="m1041.035,17.943c0-3.649-1.255-6.131-3.766-7.444-.321-.204-.481-.379-.481-.525,0-.176.16-.307.481-.395,3.679-.904,6.875-1.875,9.59-2.912,2.715-1.035,4.635-1.824,5.759-2.364,1.123-.54,1.919-.811,2.387-.811.671,0,1.35,1.001,2.036,3,.686,2,1.029,3.992,1.029,5.978v23.033c1.255-2.86,3.05-5.102,5.386-6.722,2.335-1.62,4.963-2.431,7.882-2.431,4.7,0,8.356,1.417,10.97,4.248,2.612,2.832,3.919,6.803,3.919,11.911v23.121c0,4.028,1.401,6.816,4.204,8.363v.613h-25.354v-.613c2.744-1.576,4.116-4.363,4.116-8.363v-23.909c0-2.16-.497-3.971-1.488-5.431-.993-1.459-2.205-2.189-3.635-2.189-1.489,0-2.708.438-3.656,1.313-.949.876-1.73,2.38-2.343,4.511v25.705c0,4.028,1.4,6.816,4.203,8.363v.613h-25.485v-.613c2.831-1.576,4.247-4.363,4.247-8.363V17.943Z"></path>
  <path class="c" d="m1137.329,49.778l-27.719.701c.759,5.079,2.524,9.028,5.298,11.845,2.773,2.817,6.35,4.226,10.729,4.226,2.511,0,4.832-.619,6.963-1.86s3.941-3.015,5.43-5.321c.233-.408.46-.554.679-.438.22.117.227.438.022.964-1.927,4.904-4.904,8.735-8.934,11.494-4.028,2.759-8.67,4.139-13.925,4.139-6.861,0-12.444-2.299-16.75-6.897-4.307-4.598-6.459-10.546-6.459-17.844,0-7.123,2.212-12.977,6.634-17.561,4.423-4.583,10.064-6.875,16.926-6.875,6.275,0,11.363,2.168,15.261,6.503,3.896,4.335,5.846,9.978,5.846,16.925Zm-28.157-5.035c0,.875.059,2.16.175,3.854l4.292-.088c2.568.029,4.364-.598,5.386-1.883,1.021-1.284,1.533-3.576,1.533-6.875,0-.176.007-.715.021-1.62s.015-1.613,0-2.124-.051-1.227-.109-2.146c-.059-.92-.175-1.657-.351-2.212-.175-.554-.409-1.131-.7-1.729-.292-.598-.687-1.044-1.183-1.336-.496-.291-1.08-.438-1.751-.438-2.307,0-4.103,1.452-5.387,4.356-1.285,2.905-1.927,6.985-1.927,12.24Z"></path>
</svg>
