<?xml version="1.0" encoding="UTF-8"?><svg id="a" xmlns="http://www.w3.org/2000/svg" viewBox="0 0 1002.511 539.019"><g><path d="M137.709,135.346V52.68c0-8.282,1.485-15.669,4.457-22.152s7.024-11.976,12.157-16.479c5.133-4.499,11.118-7.969,17.965-10.4,6.842-2.432,14.225-3.647,22.152-3.647,8.104,0,15.486,1.216,22.152,3.647,6.66,2.432,12.427,5.901,17.289,10.4,4.862,4.504,8.645,10.042,11.347,16.614,2.701,6.576,4.052,13.913,4.052,22.018v4.322c0,3.064-1.443,4.593-4.322,4.593h-32.418c-3.423,0-5.133-1.71-5.133-5.133v-4.863c0-4.141-1.262-7.652-3.782-10.535-2.524-2.521-5.766-3.782-9.726-3.782-4.145,0-7.476,1.351-9.995,4.052-2.524,2.702-3.782,6.125-3.782,10.266v84.827c0,4.146,1.351,7.564,4.053,10.266,2.338,2.883,5.58,4.322,9.725,4.322s7.43-1.527,9.86-4.592c2.432-3.061,3.647-6.572,3.647-10.536v-5.133c0-3.419,1.71-5.133,5.133-5.133h32.418c2.879,0,4.322,1.443,4.322,4.322v4.322c0,8.286-1.397,15.715-4.188,22.287-2.794,6.577-6.618,12.203-11.481,16.885-4.862,4.686-10.717,8.286-17.56,10.806-6.847,2.521-14.317,3.782-22.422,3.782-7.746,0-15.04-1.216-21.883-3.646-6.847-2.432-12.789-5.943-17.829-10.536-5.045-4.593-9.008-10.131-11.887-16.614-2.883-6.483-4.322-13.777-4.322-21.882Z"/><path d="M265.108,7.564c0-3.601,1.798-5.403,5.402-5.403h31.607c3.601,0,5.403,1.803,5.403,5.403v61.594c0,3.605,1.798,5.403,5.403,5.403h17.02c3.601,0,5.402-1.798,5.402-5.403V7.564c0-3.601,1.799-5.403,5.403-5.403h31.878c3.601,0,5.402,1.803,5.402,5.403V180.46c0,3.605-1.802,5.403-5.402,5.403h-31.878c-3.604,0-5.403-1.798-5.403-5.403v-63.484c0-3.601-1.802-5.403-5.402-5.403h-17.02c-3.605,0-5.403,1.803-5.403,5.403v63.484c0,3.605-1.803,5.403-5.403,5.403h-31.607c-3.604,0-5.402-1.798-5.402-5.403V7.564Z"/><path d="M406.095,2.161h31.608c3.601,0,5.402,1.803,5.402,5.403V180.46c0,3.605-1.802,5.403-5.402,5.403h-31.608c-3.604,0-5.402-1.798-5.402-5.403V7.564c0-3.601,1.798-5.403,5.402-5.403Z"/><path d="M463.205,135.346V52.68c0-8.282,1.485-15.669,4.457-22.152s7.024-11.976,12.157-16.479c5.133-4.499,11.118-7.969,17.965-10.4,6.842-2.432,14.225-3.647,22.152-3.647,8.104,0,15.486,1.216,22.152,3.647,6.66,2.432,12.427,5.901,17.289,10.4,4.862,4.504,8.645,10.042,11.347,16.614,2.701,6.576,4.052,13.913,4.052,22.018v4.322c0,3.064-1.443,4.593-4.322,4.593h-32.418c-3.423,0-5.133-1.71-5.133-5.133v-4.863c0-4.141-1.262-7.652-3.782-10.535-2.524-2.521-5.766-3.782-9.726-3.782-4.145,0-7.476,1.351-9.995,4.052-2.524,2.702-3.782,6.125-3.782,10.266v84.827c0,4.146,1.351,7.564,4.053,10.266,2.338,2.883,5.58,4.322,9.725,4.322s7.43-1.527,9.86-4.592c2.432-3.061,3.647-6.572,3.647-10.536v-5.133c0-3.419,1.71-5.133,5.133-5.133h32.418c2.879,0,4.322,1.443,4.322,4.322v4.322c0,8.286-1.397,15.715-4.188,22.287-2.794,6.577-6.618,12.203-11.481,16.885-4.862,4.686-10.717,8.286-17.56,10.806-6.847,2.521-14.317,3.782-22.422,3.782-7.746,0-15.04-1.216-21.883-3.646-6.847-2.432-12.789-5.943-17.829-10.536-5.045-4.593-9.008-10.131-11.887-16.614-2.883-6.483-4.322-13.777-4.322-21.882Z"/><path d="M590.604,7.564c0-3.601,1.798-5.403,5.402-5.403h31.607c3.601,0,5.403,1.803,5.403,5.403l.271,42.144c0,7.564,1.08,11.346,3.241,11.346,1.799,0,4.141-3.06,7.024-9.185l21.342-46.466c.898-2.161,2.52-3.242,4.862-3.242h31.338c5.58,0,7.201,2.613,4.862,7.835l-37.821,75.371c-.54,1.621-.54,3.242,0,4.863l42.414,88.068c1.258,2.343,1.439,4.188,.54,5.538-.903,1.351-2.613,2.026-5.133,2.026h-34.85c-2.343,0-3.963-1.081-4.862-3.242l-22.692-49.707c-2.884-6.121-5.314-9.186-7.294-9.186s-2.972,3.782-2.972,11.347l-.271,45.385c0,3.605-1.803,5.403-5.403,5.403h-31.607c-3.604,0-5.402-1.798-5.402-5.403V7.564Z"/><path d="M724.597,7.564c0-3.601,1.798-5.403,5.402-5.403h88.609c3.601,0,5.403,1.803,5.403,5.403v26.475c0,3.604-1.803,5.403-5.403,5.403h-46.195c-3.605,0-5.403,1.802-5.403,5.402v24.313c0,3.605,1.798,5.403,5.403,5.403h18.1c3.601,0,5.403,1.803,5.403,5.403v26.204c0,3.604-1.803,5.403-5.403,5.403h-18.1c-3.605,0-5.403,1.803-5.403,5.403v26.475c0,3.604,1.798,5.402,5.403,5.402h46.195c3.601,0,5.403,1.803,5.403,5.403v26.204c0,3.605-1.803,5.403-5.403,5.403h-88.609c-3.604,0-5.402-1.798-5.402-5.403V7.564Z"/><path d="M840.113,180.46V7.564c0-3.601,1.798-5.403,5.402-5.403h28.906c2.52,0,4.229,1.174,5.133,3.513l28.366,73.21c3.06,7.928,5.491,11.887,7.294,11.887,2.338,0,3.33-4.681,2.972-14.048l-1.081-69.158c0-3.601,1.798-5.403,5.403-5.403h27.825c3.601,0,5.403,1.803,5.403,5.403V180.46c0,3.605-1.803,5.403-5.403,5.403h-29.176c-2.524,0-4.234-1.169-5.133-3.512l-28.096-72.94c-2.884-7.923-5.403-11.887-7.564-11.887-1.984,0-2.883,4.686-2.701,14.048l1.08,68.888c0,3.605-1.803,5.403-5.403,5.403h-27.825c-3.604,0-5.402-1.798-5.402-5.403Z"/></g><path d="M101.993,2.392H5.713C2.558,2.392,0,4.949,0,8.105V179.77c0,3.155,2.558,5.713,5.713,5.713H101.993c3.155,0,5.713-2.558,5.713-5.713V8.105c0-3.155-2.558-5.713-5.713-5.713Zm-11.746,148.525c0,1.44-.718,2.158-2.158,2.158H33.915c-1.439,0-2.158,.721-2.158,2.159v10.36c0,1.44-.719,2.158-2.159,2.158h-10.575c-1.438,0-2.158-.718-2.158-2.158v-42.195c0-1.438,.72-2.158,2.158-2.158h10.575c1.44,0,2.159,.72,2.159,2.158v10.468c0,1.44,.72,2.159,2.158,2.159h54.174c1.44,0,2.158,.72,2.158,2.158v12.735Zm0-66.152c0,1.44-.718,2.159-2.158,2.159h-25.36c-1.439,0-2.159,.72-2.159,2.158v6.799c0,1.44,.72,2.159,2.159,2.159h25.36c1.44,0,2.158,.72,2.158,2.158v12.626c0,1.44-.718,2.159-2.158,2.159H19.023c-1.438,0-2.158-.719-2.158-2.159v-12.626c0-1.438,.72-2.158,2.158-2.158h24.605c1.44,0,2.158-.719,2.158-2.159v-6.799c0-1.438-.719-2.158-2.158-2.158H19.023c-1.438,0-2.158-.719-2.158-2.159v-12.734c0-1.438,.72-2.159,2.158-2.159H88.089c1.44,0,2.158,.721,2.158,2.159v12.734Zm0-26.007c0,1.44-.718,2.159-2.158,2.159H19.023c-1.438,0-2.158-.719-2.158-2.159V23.363c0-1.439,.72-2.159,2.158-2.159h10.575c1.44,0,2.159,.72,2.159,2.159v18.453c0,1.44,.72,2.159,2.158,2.159h9.712c1.44,0,2.158-.719,2.158-2.159v-7.23c0-1.438,.72-2.158,2.158-2.158h10.468c1.44,0,2.158,.72,2.158,2.158v7.23c0,1.44,.72,2.159,2.159,2.159h10.575c1.44,0,2.158-.719,2.158-2.159V23.363c0-1.439,.72-2.159,2.158-2.159h10.468c1.44,0,2.158,.72,2.158,2.159V58.758Z"/><g><path d="M849.869,272.309h-1.582c-.845,0-1.267,.423-1.267,1.267v23.229c0,.845,.422,1.266,1.267,1.266h1.582c1.181,0,2.035-.411,2.563-1.234,.527-.822,.791-1.782,.791-2.88v-17.533c0-1.097-.253-2.057-.759-2.88-.507-.822-1.372-1.234-2.596-1.234Z"/><path d="M921.892,271.803c-.76,0-1.361,.169-1.805,.506-.442,.339-.781,.76-1.013,1.267-.232,.506-.379,1.075-.442,1.709-.063,.633-.096,1.245-.096,1.835v16.015c0,.591,.032,1.202,.096,1.835s.21,1.214,.442,1.741c.231,.527,.57,.96,1.013,1.297,.443,.339,1.045,.507,1.805,.507,1.097,0,1.919-.358,2.468-1.076,.549-.717,.823-1.582,.823-2.595v-17.724c0-1.898-.253-3.249-.76-4.051-.591-.844-1.435-1.266-2.531-1.266Z"/><path d="M69.381,292.712h3.778c4.241,0,7.488-1.423,9.744-4.274,2.252-2.849,3.38-6.265,3.38-10.242,0-4.375-1.193-7.755-3.579-10.142-2.386-2.386-5.767-3.579-10.142-3.579h-3.579c-2.386,0-3.579,1.193-3.579,3.579v20.681c0,2.654,1.323,3.977,3.977,3.977Z"/><path d="M265.227,265.074h-3.182c-2.121,0-3.182,1.062-3.182,3.18v25.454c0,2.121,1.061,3.18,3.182,3.18h3.182c4.771,0,8.317-1.721,10.638-5.17,2.317-3.445,3.479-7.289,3.479-11.532,0-4.505-1.193-8.153-3.579-10.937-2.386-2.784-5.901-4.176-10.538-4.176Z"/><path d="M72.96,317.768h-3.778c-2.52,0-3.778,1.262-3.778,3.778v22.073c0,2.52,1.258,3.778,3.778,3.778h3.778c4.375,0,7.919-1.423,10.638-4.276,2.715-2.849,4.076-6.393,4.076-10.638,0-4.375-1.361-7.919-4.076-10.638-2.719-2.715-6.263-4.076-10.638-4.076Z"/><path d="M899.936,339.084c.166,.379,.408,.688,.726,.93,.317,.242,.748,.362,1.292,.362,.785,0,1.375-.256,1.768-.771,.393-.514,.59-1.133,.59-1.858v-12.692c0-1.359-.182-2.326-.544-2.901-.424-.604-1.028-.906-1.813-.906-.544,0-.975,.121-1.292,.362-.317,.243-.56,.544-.726,.907-.166,.362-.271,.771-.317,1.224-.045,.453-.067,.892-.067,1.314v11.469c0,.423,.022,.861,.067,1.314,.046,.453,.151,.869,.317,1.246Z"/><path d="M542.598,265.074h-3.182c-2.121,0-3.182,1.062-3.182,3.18v25.454c0,2.121,1.061,3.18,3.182,3.18h3.182c4.771,0,8.318-1.721,10.638-5.17,2.317-3.445,3.479-7.289,3.479-11.532,0-4.505-1.193-8.153-3.579-10.937-2.386-2.784-5.901-4.176-10.539-4.176Z"/><path d="M533.167,391.744c7.07-8.36,15.531-15.478,25.15-21.223l-16.515-46.986c-.53-1.457-1.591-2.188-3.182-2.188s-2.386,.797-2.386,2.388v45.933c0,2.654-1.327,3.977-3.977,3.977h-23.465c-2.654,0-3.977-1.323-3.977-3.977v-127.264c0-2.65,1.323-3.977,3.977-3.977h34.401c6.627,0,12.693,.764,18.195,2.288,5.499,1.524,10.205,3.944,14.117,7.257,3.91,3.316,6.96,7.492,9.148,12.528,2.187,5.039,3.28,11.071,3.28,18.096,0,6.761-1.193,13.058-3.579,18.89-2.386,5.834-6.363,10.806-11.93,14.914-1.859,1.327-2.388,2.983-1.591,4.971l16.57,42.002c2.282-.424,4.581-.757,6.898-.993,.63-.064,1.267-.096,1.895-.096,5.394,0,10.461,2.4,13.898,6.576,3.584,4.349,4.926,9.928,3.72,15.386-.392,2.125-1.078,4.101-2.017,5.888,1.962,1.053,3.852,2.271,5.665,3.65,4.417,3.36,7.961,7.536,10.619,12.494h56.826c2.786-1.844,6.051-3.021,9.625-3.385,.833-.083,1.667-.126,2.479-.126,4.343,0,8.379,1.217,11.767,3.511h70.646c.683-2.012,1.666-3.933,2.979-5.713,3.406-4.61,8.59-7.487,14.614-8.101,.836-.084,1.674-.127,2.489-.127,4.79,0,9.217,1.469,12.814,4.256,3.262,2.533,5.599,5.888,6.816,9.684h67.467c5.417-3.074,10.664-4.372,15.014-4.814,1.297-.133,2.597-.2,3.864-.2,3.167,0,6.226,.416,9.123,1.242,1.219-.381,2.422-.631,3.632-.754,.72-.074,1.449-.112,2.167-.112,3.808,0,7.563,1.066,10.878,3.096,.463,.284,.91,.585,1.342,.901,5.552-19.474,9.763-33.291,12.525-41.089l.014-.038,.014-.038c3.426-9.469,9.724-12.739,13.951-13.86V218.369c0-5.635-4.568-10.204-10.203-10.204H11.184c-5.635,0-10.203,4.568-10.203,10.204v173.702c0,5.635,4.568,10.203,10.203,10.203H525.165c2.498-3.657,5.165-7.176,8.002-10.531Zm402.017-97.028c0,1.941-.338,3.682-1.013,5.222-.676,1.541-1.614,2.849-2.816,3.925-1.203,1.076-2.617,1.898-4.241,2.469-1.625,.569-3.365,.854-5.222,.854s-3.599-.285-5.223-.854c-1.624-.57-3.038-1.393-4.24-2.469-1.203-1.076-2.143-2.384-2.816-3.925-.676-1.54-1.014-3.28-1.014-5.222v-19.115c0-1.94,.338-3.682,1.014-5.223,.674-1.539,1.613-2.848,2.816-3.924,1.202-1.076,2.604-1.899,4.209-2.469,1.604-.569,3.354-.854,5.254-.854s3.66,.285,5.285,.854c1.624,.569,3.027,1.383,4.209,2.438,1.181,1.055,2.109,2.353,2.785,3.893,.675,1.541,1.013,3.302,1.013,5.285v19.115Zm-13.703,39.042l.182,11.56c0,.604-.303,.906-.907,.906h-4.669c-.604,0-.906-.302-.906-.906v-29.011c0-.604,.302-.907,.906-.907h4.851c.423,0,.71,.197,.861,.59l4.76,12.284c.513,1.33,.921,1.994,1.224,1.994,.393,0,.559-.785,.498-2.357l-.181-11.604c0-.604,.302-.907,.906-.907h4.669c.604,0,.906,.303,.906,.907v29.011c0,.604-.302,.906-.906,.906h-4.896c-.424,0-.71-.196-.861-.589l-4.714-12.239c-.484-1.329-.907-1.994-1.27-1.994-.333,0-.483,.786-.453,2.356Zm-33.571-27.079c-.845,0-1.267-.421-1.267-1.266v-31.775c0-.843-.422-1.266-1.266-1.266h-6.076c-.845,0-1.266-.421-1.266-1.266v-6.203c0-.844,.421-1.266,1.266-1.266h24.749c.843,0,1.266,.422,1.266,1.266v6.203c0,.845-.423,1.266-1.266,1.266h-6.14c-.845,0-1.267,.423-1.267,1.266v31.775c0,.845-.422,1.266-1.266,1.266h-7.469Zm.835,9.628v29.011c0,.604-.303,.906-.907,.906h-5.303c-.605,0-.907-.302-.907-.906v-29.011c0-.604,.302-.907,.907-.907h5.303c.604,0,.907,.303,.907,.907Zm-24.392,5.349h-4.352c-.604,0-.906-.302-.906-.906v-4.442c0-.604,.302-.907,.906-.907h17.724c.604,0,.907,.303,.907,.907v4.442c0,.604-.303,.906-.907,.906h-4.396c-.605,0-.907,.303-.907,.906v22.756c0,.604-.302,.906-.906,.906h-5.349c-.605,0-.907-.302-.907-.906v-22.756c0-.604-.302-.906-.906-.906Zm-14.939,.271c-.424-.423-.968-.634-1.632-.634-.695,0-1.254,.227-1.677,.68-.424,.453-.635,1.027-.635,1.723v14.233c0,.695,.227,1.269,.68,1.723,.393,.483,.937,.725,1.632,.725s1.247-.256,1.654-.771c.408-.514,.612-1.103,.612-1.768v-.861c0-.574,.287-.861,.861-.861h5.439c.483,0,.726,.242,.726,.726v.725c0,1.391-.235,2.637-.703,3.74-.469,1.104-1.11,2.047-1.927,2.833-.815,.786-1.798,1.391-2.946,1.812-1.148,.423-2.402,.635-3.762,.635-1.3,0-2.524-.204-3.672-.611-1.149-.408-2.146-.997-2.992-1.769-.846-.771-1.511-1.699-1.994-2.787s-.726-2.312-.726-3.672v-13.871c0-1.39,.25-2.629,.748-3.717,.499-1.088,1.179-2.009,2.04-2.765,.861-.755,1.865-1.338,3.015-1.745,1.147-.408,2.387-.612,3.717-.612,1.359,0,2.599,.204,3.717,.612,1.118,.407,2.085,.99,2.901,1.745,.815,.756,1.45,1.685,1.903,2.787,.453,1.104,.681,2.335,.681,3.694v.726c0,.515-.242,.771-.726,.771h-5.439c-.574,0-.861-.287-.861-.861v-.815c0-.695-.212-1.284-.635-1.769Zm6.563-16.039c-1.456,.528-3.049,.791-4.779,.791h-12.849c-.845,0-1.267-.421-1.267-1.266v-40.51c0-.844,.422-1.266,1.267-1.266h12.849c1.73,0,3.333,.274,4.811,.822,1.477,.549,2.754,1.319,3.83,2.311,1.075,.992,1.908,2.205,2.5,3.64,.59,1.435,.886,3.038,.886,4.811v19.938c0,1.771-.307,3.365-.918,4.778-.612,1.414-1.455,2.627-2.531,3.64s-2.342,1.783-3.798,2.311Zm36.457,18.079c0-1.39,.242-2.636,.726-3.739,.483-1.103,1.156-2.04,2.018-2.811,.86-.771,1.865-1.36,3.014-1.768,1.148-.408,2.402-.612,3.763-.612s2.621,.204,3.785,.612c1.163,.407,2.168,.99,3.014,1.745,.846,.756,1.511,1.685,1.995,2.787,.482,1.104,.725,2.365,.725,3.785v13.689c0,1.391-.242,2.637-.725,3.74-.484,1.104-1.156,2.039-2.018,2.81-.861,.771-1.874,1.36-3.037,1.769-1.163,.407-2.41,.611-3.739,.611s-2.577-.204-3.74-.611c-1.163-.408-2.176-.997-3.036-1.769-.861-.771-1.534-1.706-2.018-2.81s-.726-2.35-.726-3.74v-13.689Zm-157.523-83.673c0-.914,.741-1.654,1.654-1.654h197.061c.914,0,1.654,.741,1.654,1.654v5.801c0,.914-.741,1.654-1.654,1.654h-197.061c-.914,0-1.654-.741-1.654-1.654v-5.801Zm92.096,87.254h3.037c.604,0,.906,.303,.906,.906v4.397c0,.604-.302,.906-.906,.906h-3.037c-.604,0-.906,.303-.906,.907v4.442c0,.604,.302,.906,.906,.906h7.752c.604,0,.906,.303,.906,.906v4.397c0,.604-.303,.906-.906,.906h-14.868c-.605,0-.907-.302-.907-.906v-29.011c0-.604,.302-.907,.907-.907h14.868c.604,0,.906,.303,.906,.907v4.442c0,.604-.303,.906-.906,.906h-7.752c-.604,0-.906,.303-.906,.906v4.08c0,.604,.302,.906,.906,.906Zm-19.936,0h4.442c.604,0,.906,.303,.906,.906v4.397c0,.604-.302,.906-.906,.906h-4.442c-.604,0-.906,.303-.906,.907v10.652c0,.604-.303,.906-.906,.906h-5.304c-.605,0-.907-.302-.907-.906v-29.011c0-.604,.302-.907,.907-.907h15.23c.604,0,.906,.303,.906,.907v4.442c0,.604-.302,.906-.906,.906h-8.114c-.604,0-.906,.303-.906,.906v4.08c0,.604,.302,.906,.906,.906Zm-42.269,0h3.037c.604,0,.906,.303,.906,.906v4.397c0,.604-.302,.906-.906,.906h-3.037c-.604,0-.906,.303-.906,.907v4.442c0,.604,.302,.906,.906,.906h7.752c.604,0,.906,.303,.906,.906v4.397c0,.604-.303,.906-.906,.906h-14.868c-.605,0-.907-.302-.907-.906v-29.011c0-.604,.302-.907,.907-.907h14.868c.604,0,.906,.303,.906,.907v4.442c0,.604-.303,.906-.906,.906h-7.752c-.604,0-.906,.303-.906,.906v4.08c0,.604,.302,.906,.906,.906Zm-17.884-46.947h6.203c.844,0,1.266,.423,1.266,1.266v6.141c0,.844-.422,1.266-1.266,1.266h-6.203c-.845,0-1.266,.422-1.266,1.266v14.875c0,.845-.422,1.266-1.266,1.266h-7.406c-.845,0-1.266-.421-1.266-1.266v-40.51c0-.844,.421-1.266,1.266-1.266h21.268c.844,0,1.266,.422,1.266,1.266v6.203c0,.845-.422,1.266-1.266,1.266h-11.33c-.845,0-1.266,.423-1.266,1.266v5.697c0,.845,.421,1.266,1.266,1.266Zm26.324,10.19v14.622c0,.845-.422,1.266-1.266,1.266h-7.469c-.845,0-1.267-.421-1.267-1.266v-40.51c0-.844,.422-1.266,1.267-1.266h10.95c2.109,0,4.04,.243,5.791,.728,1.751,.485,3.249,1.256,4.494,2.311,1.244,1.055,2.216,2.384,2.912,3.987,.696,1.604,1.044,3.524,1.044,5.76,0,2.152-.38,4.157-1.139,6.014-.76,1.857-2.026,3.439-3.798,4.747-.592,.422-.76,.949-.507,1.582l6.393,16.204c.211,.507,.211,.918,0,1.234s-.591,.475-1.139,.475h-7.976c-.592,0-.992-.274-1.202-.823l-5.317-15.127c-.169-.464-.506-.696-1.013-.696s-.76,.253-.76,.759Zm3.259,25.516c0-.604,.302-.907,.907-.907h7.842c1.511,0,2.894,.175,4.147,.521,1.254,.348,2.327,.899,3.219,1.654,.891,.756,1.586,1.708,2.085,2.856,.498,1.148,.748,2.523,.748,4.125,0,1.541-.272,2.977-.816,4.306-.544,1.33-1.45,2.464-2.72,3.4-.424,.302-.544,.68-.362,1.133l4.578,11.604c.15,.362,.15,.657,0,.884-.151,.227-.424,.34-.816,.34h-5.711c-.424,0-.711-.196-.861-.589l-3.808-10.834c-.121-.332-.362-.499-.726-.499s-.544,.182-.544,.544v10.472c0,.604-.302,.906-.906,.906h-5.349c-.605,0-.907-.302-.907-.906v-29.011Zm19.242-9.628c-.844,0-1.266-.421-1.266-1.266v-40.51c0-.844,.422-1.266,1.266-1.266h7.406c.844,0,1.266,.422,1.266,1.266v40.51c0,.845-.422,1.266-1.266,1.266h-7.406Zm15.381,0c-.845,0-1.266-.421-1.266-1.266v-40.51c0-.844,.421-1.266,1.266-1.266h20.762c.844,0,1.266,.422,1.266,1.266v6.203c0,.845-.422,1.266-1.266,1.266h-10.824c-.845,0-1.266,.423-1.266,1.266v5.697c0,.845,.421,1.266,1.266,1.266h4.241c.844,0,1.266,.423,1.266,1.266v6.141c0,.844-.422,1.266-1.266,1.266h-4.241c-.845,0-1.266,.422-1.266,1.266v6.203c0,.845,.421,1.266,1.266,1.266h10.824c.844,0,1.266,.423,1.266,1.267v6.14c0,.845-.422,1.266-1.266,1.266h-20.762Zm-76.361,9.628c0-.604,.302-.907,.906-.907h7.706c1.541,0,2.953,.189,4.238,.567,1.284,.378,2.38,.951,3.286,1.722,.907,.771,1.616,1.753,2.131,2.947,.514,1.193,.771,2.606,.771,4.238s-.257,3.052-.771,4.261c-.515,1.209-1.231,2.221-2.153,3.037-.922,.815-2.024,1.428-3.309,1.836-1.285,.407-2.697,.611-4.238,.611h-.726c-.483,0-.726,.242-.726,.726v9.973c0,.604-.302,.906-.906,.906h-5.304c-.604,0-.906-.302-.906-.906v-29.011Zm-.066,46.912c0-.814,.66-1.474,1.475-1.474h197.42c.814,0,1.475,.66,1.475,1.474v6.16c0,.814-.66,1.475-1.475,1.475h-197.42c-.814,0-1.475-.66-1.475-1.475v-6.16Zm-128.937-66.485c.299-.054,.555-.089,.652,.29,.044,.141,.158,.176,.291,.238,.124,.038,.21,.153,.211,.282-.079,.432,.168,.793,.238,1.181,.198,.683,.508,1.322,.878,1.925-.048-.174-.088-.35-.139-.524-.104-.582-.169-1.171-.194-1.762-.097-.882-.123-1.763-.212-2.644-.13-.721-.13-1.459-.001-2.18-.039,.037-.076,.078-.12,.109-.127,.098-.305,.098-.432,0-.013-.005-.025-.011-.037-.017-.092-.054-.123-.173-.069-.265,.056-.146,.189-.249,.344-.265,.117-.032,.245-.007,.361-.011-.004-.109-.015-.218-.045-.323-.009-.081-.004-.161-.013-.241-.05,0-.098,.01-.162-.033-.185-.124-.608-.167-.547-.353,.038-.327,.112-.649,.22-.961,.062-.079,.15-.061,.22,0,.071,.046,.124,.114,.15,.194,.026,.098,.033,.201,.071,.277-.013-.293-.051-.584-.047-.876-.053-.264,.15-.484,.124-.758-.022-.185-.01-.371-.02-.556-.035,.015-.063,.046-.102,.044-.133-.009-.234-.122-.229-.255,.01-.133,.122-.234,.256-.229,.029,0,.038,.02,.061,.026,0-.167-.008-.333,.002-.5-.008,.002-.012,.006-.019,.007-.079,.009-.159-.009-.159-.071v-.053l.002-.011c.01-.042,.052-.069,.095-.059,.04,.002,.067,.033,.098,.058,.028-.365,.063-.729,.139-1.088,.019-.048-.004-.098,0-.149-.009-.021-.025-.039-.025-.063-.003-.017,.021-.02,.025-.037-.005-.044,.017-.089,0-.13-.034-.05-.052-.108-.053-.168,0-.273,.467-.159,.458-.475-.365,0-.249-.277-.232-.487-.068-.079-.113-.179-.119-.289l-.002-.02c-.006-.098,.051-.172,.126-.225-.001-.09-.002-.182-.002-.266,0-.467,.159-.881,.15-1.392,0-.238,.22-.388,.493-.406,.502-.044,.979,.221,1.207,.67,.211,.555,.59,1.023,.881,1.551,.116,.225,.282,.421,.485,.573,.476,.379,.573,1.014,.881,1.516,.037,.074,.006,.164-.068,.201-.009,.004-.019,.008-.029,.011-.09,.037-.193-.006-.23-.097l-.008-.027c-.009-.061-.009-.124,0-.185,0-.106,0-.237-.15-.228-.15,.009-.22,.123-.176,.211,.159,.326-.079,.379-.282,.405-.379,0-.379,.141-.3,.529,.124,.59,.573,.688,.961,.881,.079,0,.176,0,.097,.141-.221,.137-.493,.169-.74,.088-.079-.071-.07-.299-.247-.115-.176,.185-.282,.22-.115,.424,.167,.202,.15,.15,.211,.237,.062,.089,.062,.168-.07,.229-.273,.141-.503,.351-.67,.608-.092,.098-.113,.242-.053,.362,.088,.15,.264,.097,.414,.062,.15-.036,.106-.062,.159-.106,.282-.256,.555-.432,.776,.07,.767,.097,.185,.882,.634,1.217,.106,.07-.423,.308-.079,.484,.176,.097,.273-.309,.432-.291,.233,.056,.456,.148,.661,.273-.062,.071-.106,.141-.203,.141-.316-.052-.638,.038-.881,.247-.09,.066-.217,.047-.283-.043l-.007-.011v-.053c-.097-.502-.643-.141-.881-.441,0,0-.176,.071-.141,.159,.026,.126,.091,.24,.185,.326,.264,.168,.502,.274,.308,.67-.079,.158,.132,.371,.308,.432,.176,.062,.238-.176,.344-.282,.106-.106,.079-.511,.485-.485,.405,.027,.723,.265,.59,.67-.132,.406,.097,.38,.256,.485,.159,.106,.176,0,.229-.132,.053-.133,.22-.485,0-.599-.22-.115-.203-.211-.273-.362-.07-.15,0-.29,.203-.282h.388c.13,.015,.249-.079,.263-.21v-.011c.001-.127-.082-.171-.182-.198l-.018,.013-.035-.035,.003-.003c-.047-.019-.094-.039-.137-.068,0,0-.185,0-.106-.15,.079-.15,.15-.141,.22-.089,.203,.185,.388,.326,.67,.133,.071-.053,.159,0,.159,.115s-.079,.353,.15,.353c.169,.007,.332-.033,.489-.09-.085-.009-.152-.049-.152-.165,.022-.132,.14-.227,.273-.22,.095,.034,.175,.095,.208,.18,.082-.092,.165-.189,.284-.251,.167-.088,.088-.291,0-.406s-.22-.106-.335,0c-.206,.223-.55,.246-.784,.053-.214-.095-.435-.174-.661-.238-.159-.079-.432-.22-.388,.212,0,.097-.097,.132-.185,.079-.125-.082-.17-.244-.106-.379,.097-.141,.335-.141,.115-.309-.22-.167-.229,0-.317,.124-.08,.096-.183,.168-.299,.211-.282,.132-.503,0-.423-.282,.079-.282-.062-.405-.115-.608-.106-.379-.361-.211-.555-.255-.171-.041-.276-.212-.235-.382,.017-.073,.06-.138,.12-.182,.273-.229,.247-.775,.52-1.11,.168-.185-.097-.502-.441-.502-.26,.046-.512-.115-.582-.371,0-.07,0-.238,.053-.22,.335,.203,.573-.238,.837-.133,.265,.106,.732,.115,.881,.52,.053,.115,.132,.291,.273,.167,.141-.123,0-.193-.115-.264-.114-.071,0-.194,.079-.264,.503-.362,.689-1.024,.449-1.596-.161-.645-.073-1.329,.247-1.912,.172-.344,.252-.727,.229-1.11-.015-.574,.077-1.144,.273-1.683,.273-.67,.282-1.401,.582-2.062,.079-.176,.106-.397,.247-.511s.115-.371,.167-.555c.194-.758,.079-1.595,.635-2.238,.239-.298,.405-.649,.485-1.023,.211-.836,.619-1.609,1.19-2.256l.097-.159c-.238-.493,.167-.723,.432-1.014,.176-.214,.286-.474,.317-.749,.082-.367,.244-.71,.475-1.005l2.406-3.428c.277-.364,.759-.507,1.19-.352,.174,.089,.295,.256,.326,.449,.3,1.163,.52,2.335,.881,3.525,.106,.37,.282,.696,.397,1.057,.153,.309,.181,.666,.079,.996-.098,.173-.052,.391,.106,.511,.382,.432,.589,.992,.582,1.569,.018,.308,.102,.609,.247,.881,.295,.547,.484,1.145,.555,1.763,.062,.418,.165,.828,.308,1.225,.133,.345,.52,.519,.865,.385l.016-.006,.106-.053c.326-.211,.67-.564,.617-.881,.018-.753,.211-1.493,.564-2.159,.326-1.111,.987-2.089,1.322-3.208,.062-.247,.15-.538,.494-.608,.203,0,.211-.203,.264-.38,.07-.396,.22-.774,.44-1.11,.531-.81,1.014-1.652,1.445-2.52,.39-.497,.749-1.018,1.075-1.56,.156-.293,.462-.473,.793-.467,.328-.071,.652,.138,.723,.467h0c.186,.428,.273,.892,.255,1.357-.009,.572,.078,1.141,.256,1.684,.085,.846,.214,1.687,.388,2.52,.193,.67,.423,1.329,.687,1.974,.326,.619,.53,1.296,.599,1.992-.007,.103,.014,.207,.062,.299,.747,1.249,1.39,2.559,1.921,3.914,.344,.881,.943,1.516,1.251,2.353,.509,1.114,1.213,2.13,2.08,2.996,.138,.237,.265,.481,.379,.732,.881,1.207,1.683,2.442,2.644,3.569,.52,.617,.943,1.305,1.507,1.878,.079,.102,.114,.232,.097,.361,0,.089,.053,.176,.159,.124,.317-.185,.511,.053,.749,.185,.328,.232,.73,.332,1.128,.282,.329-.117,.695-.05,.961,.176,.056,.027,.121,.027,.176,0,.706-.141,1.436-.089,2.115,.15,.661,.019,1.322-.028,1.974-.141,.518-.014,1.033-.091,1.534-.229,.344-.106,.687,.079,1.049,0,.875-.101,1.728-.339,2.529-.706,.116-.05,.237-.089,.361-.115,.564-.046,1.108-.228,1.586-.528,.502-.37,1.163-.22,1.683-.484,.159-.08,.37-.106,.529-.194,.958-.535,1.961-.986,2.996-1.348,.812-.325,1.558-.794,2.203-1.383,.74-.636,1.561-1.173,2.441-1.596,.088,0,.247,0,.282-.115,.282-.723,1.005-1.154,1.198-1.93,.014-.302,.074-.598,.176-.882,.061-.185,.153-.358,.273-.511,.784-.775,.758-1.93,1.269-2.846,.08-.287,.121-.583,.123-.881,.051-.315,.168-.615,.344-.882,.111-.203,.189-.423,.229-.652,.115-.388-.115-.511-.405-.555-.338-.077-.694,0-.969,.211-.145,.127-.301,.239-.467,.335-.29,.141-.639,.023-.784-.264-.042-.088-.063-.185-.061-.282-.006-.328,.117-.645,.344-.882,.371-.39,.565-.916,.537-1.454-.011-.445,.143-.878,.432-1.216,.174-.215,.292-.469,.344-.74,.421-1.19,.777-2.402,1.066-3.631,.264-.844,.579-1.67,.943-2.477,.256-.732,.485-1.471,.67-2.229,.07-.273,.158-.652-.194-.837-.3-.184-.678-.184-.978,0-.188,.098-.396,.15-.608,.15-.194,0-.423,0-.485-.221-.081-.202-.043-.432,.097-.599,.828-1.1,1.542-2.281,2.133-3.525,.458-.827,.964-1.628,1.516-2.397,.074-.101,.163-.189,.264-.264,.274-.172,.48-.433,.582-.74,.008-.088,.028-.174,.062-.255,.467-.697,0-1.235-.326-1.763-.053-.095-.148-.16-.255-.176-.743-.186-1.412-.591-1.921-1.163-1.225-1.064-2.12-2.455-2.582-4.01-.209-.462-.334-.957-.37-1.463,0-.229-.203-.317-.255-.511-.25-.833-.19-1.728,.168-2.52,.19-.401,.405-.789,.643-1.163,.465-.658,1.294-.955,2.071-.74,.624,.015,1.211,.297,1.613,.775,.044,.077,.134,.117,.22,.097,.547-.167,.943,.176,1.401,.371,.159,.07,.265,.202,.423,.282,.211,.144,.44,.249,.676,.332-.013-.02-.032-.033-.032-.067v-.002c-.01-.111,.073-.21,.185-.219,.088-.009,.185,.017,.185,.141,.004,.097-.064,.167-.152,.197,.538,.153,1.11,.169,1.658,.005,.67-.238,.723-.194,.996-.979,.073-.398,.263-.766,.546-1.057,.045-.044,.079-.099,.097-.159,0-.961,.723-1.489,1.331-2.053,.238-.229,.353-.573,.776-.688,.771-.195,1.588-.061,2.256,.371,.857,.41,1.609,1.014,2.194,1.762,.05,.046,.106,.085,.167,.115,.441,.291,1.014,.449,1.163,1.083,.708,.584,1.615,.868,2.529,.793,.813-.21,1.602-.505,2.353-.881,.63-.319,1.365-.36,2.027-.115,.414,.215,.73,.581,.881,1.023,.3,.626,.52,1.287,.767,1.938,.148,.545,.213,1.109,.194,1.674-.109,.82,.226,1.636,.882,2.142,0,.066,.024,.129,.07,.176,.079,.053,.264,.397,.361,.388,.247,0,.15-.308,.159-.493,.009-.134,.106-.246,.238-.273,.36-.116,.707-.273,1.031-.467,.455-.106,.929-.106,1.384,0,.467,.185,.529,.643,.661,1.022,.282,.714,.343,1.497,.176,2.247-.111,.554-.153,1.119-.123,1.682-.069,.8-.187,1.595-.353,2.38-.101,.477,.107,.966,.52,1.225,.75,.48,1.584,.815,2.459,.988,.23,.033,.45,.117,.643,.246,.74,.432,1.498,.882,2.256,1.261,.132,.062,.299,0,.432,.106,.69,.21,1.334,.551,1.895,1.005,.551,.437,1.197,.739,1.886,.881,.198,.063,.389,.142,.573,.238,.317,.167,.599,.335,.59,.758-.034,.346-.269,.639-.599,.749-.326,.124-.634,.388-1.031,.3-.247-.053-.37,.185-.564,.255-1.163,.406-2.221,1.014-3.367,1.481-.44,.193-.897,.343-1.366,.45-.724,.259-1.343,.749-1.763,1.392-.141,.141-.185,.37-.388,.476-.203,.106-.185,.167-.141,.264,.194,.379,0,.749,0,1.119-.015,.514,.078,1.024,.273,1.499,.29,.68,.469,1.404,.529,2.142,.175,.91,.456,1.798,.837,2.643,.21,.537,.32,1.107,.326,1.683-.018,.255,.009,.512,.079,.758,.096,.506,.035,1.028-.176,1.498-.296,.888-.166,1.864,.353,2.644,.675,.951,1.265,1.96,1.763,3.014,.116,.284,.204,.58,.264,.881,.24,.696,.534,1.37,.881,2.018,.088,.3,.194,.6,.273,.882,.053,.224,.149,.436,.282,.626,.496,.61,.802,1.351,.881,2.133,.248,.902,.56,1.786,.934,2.643,.376,.985,.671,1.999,.881,3.032,.089,.751,.273,1.489,.546,2.195,.009,.041,.009,.083,0,.124,.045,.993,.22,1.978,.52,2.925,.081,.354,.122,.714,.123,1.075-.023,.695,.094,1.387,.344,2.036,.07,.25,.07,.516,0,.766-.053,.604-.053,1.211,0,1.816,.15,1.042,.167,2.099,.053,3.146-.234,.73-.276,1.507-.123,2.258h.009c.106,.308-.115,.572-.123,.881-.091,1.262-.315,2.512-.67,3.727-.211,1.032-.521,2.042-.925,3.015-.291,.661-.467,1.356-.732,2.018-.238,.675-.57,1.313-.987,1.895-.327,.388-.572,.837-.723,1.322-.133,.484-.591,.881-.652,1.348,0,.309-.59,.133-.529,.423,.058,.243,.01,.499-.133,.705-.083,.223-.223,.42-.405,.573-.504,.381-.894,.893-1.128,1.48-.381,.63-.824,1.221-1.322,1.763-.652,.881-1.41,1.621-2.115,2.432-.468,.539-.978,1.04-1.525,1.499-.837,.679-1.56,1.542-2.415,2.221-.769,.734-1.614,1.384-2.521,1.939-.573,.299-.996,.881-1.569,1.189-1.155,.662-2.141,1.578-3.287,2.283l-2.776,1.683c-.472,.202-.914,.469-1.313,.793-.454,.384-.974,.682-1.533,.881-.87,.478-1.785,.871-2.732,1.172-.099,.036-.183,.104-.238,.193-.4,.584-1.055,.941-1.763,.961-.168,.02-.329,.08-.467,.176-.663,.342-1.349,.636-2.054,.882-.74,.352-1.463,.74-2.177,1.127-.307,.193-.644,.336-.996,.424-1.155,.336-2.263,.818-3.296,1.436-.397,.258-.769,.553-1.11,.881-.267,.19-.406,.513-.361,.837,.07,.371-.133,.706-.133,1.066-.093,1.327-.013,2.66,.238,3.967,.115,.379-.176,.775,0,1.189,.176,.415,.256,.758,.423,1.12,.243,.506,.797,.785,1.348,.678,.88-.095,1.734-.352,2.52-.757,.688-.264,1.384-.555,2.08-.758,.74-.141,1.499-.141,2.238,0,.348,.095,.647,.319,.837,.626,.154,.276,.056,.624-.221,.779l-.008,.005-.141,.054c-.319,.091-.643,.166-.969,.228l.053,.053h-.124l-.034-.034c-.324,.059-.651,.104-.979,.133-.265,0-.511,.202-.881,.141-.214-.05-.428,.079-.485,.291,0,.167,.176,.3,.379,.353,.508,.145,1.032,.224,1.56,.238,1.278,0,2.521,.202,3.833,.158,.755-.005,1.37,.602,1.375,1.357v.15c0,.352-.176,.511-.502,.502-.849,.011-1.696-.065-2.529-.229-.226-.018-.453-.018-.679,0-1.075-.124-2.168-.124-3.234-.309-.517-.095-1.043-.134-1.569-.115h-1.516c-.326,0-.414,.406-.176,.697,.22,.299,.528,.521,.882,.635,.697,.302,1.304,.778,1.763,1.383,.359,.364,.359,.949,0,1.313-.15,.158-.383,.204-.582,.114-1.144-.445-2.194-1.104-3.093-1.938-.193-.167-.403-.314-.626-.44-.881-.406-1.595-.837-2.415-1.269-.995-.476-2.151-.476-3.146,0-.664,.263-1.298,.594-1.895,.987-.133,.09-.257,.193-.37,.309-.383,.587-1.165,.763-1.763,.397-.105-.062-.198-.143-.273-.238-.549-.408-1.14-.757-1.763-1.041-.111-.069-.24-.1-.37-.088-.661,.006-1.312-.165-1.886-.493-.627-.255-1.319-.302-1.974-.133-.203,0-.282,.432-.088,.634,.326,.344,.573,.776,1.049,.934,.988,.389,1.479,1.502,1.102,2.495-.045,.105-.095,.208-.15,.308h-.652c-.546-.546-1.135-1.047-1.763-1.498-.273-.211-.52-.432-.776-.661-.752-.462-1.529-.883-2.327-1.261-.99-.936-2.432-1.218-3.701-.723-.097,0-.211,.08-.308,.053-.66-.081-1.33,.029-1.93,.318-.061,0-.123,.07-.176,.061-.762-.016-1.513,.173-2.177,.547-.442,.203-.965,.011-1.169-.432l-.012-.027c-.052-.12-.079-.249-.079-.379v-.582c-.061-.581,.36-1.101,.941-1.163h.002c.099-.014,.2-.014,.299,0,.193,.071,.41,.037,.573-.089,.098-.05,.208-.072,.317-.062,.951-.016,1.894-.167,2.802-.449,.48-.036,.953-.142,1.401-.318,.299-.185,.449-.273,.388-.714-.099-.977-.051-1.963,.141-2.926,0-.124,.106-.238,0-.361-.39-.703-.642-1.475-.74-2.273-.185-.583-.424-1.146-.714-1.684-.353-.792-.793-1.542-1.066-2.361-.042-.146-.16-.258-.308-.291-.221-.079-.397-.25-.485-.467-.397-.584-.827-1.147-1.287-1.683-.214-.263-.463-.493-.74-.688-.27-.182-.457-.464-.52-.784,0-.193-.185-.211-.299-.299-.961-.636-1.832-1.398-2.591-2.264-.239-.258-.523-.47-.837-.626-.543-.345-1.033-.766-1.454-1.252-.608-.626-1.348-1.119-1.93-1.763-.187-.177-.413-.307-.661-.379-.435-.178-.826-.449-1.146-.793-.079-.071-.15-.202-.238-.211-.934-.115-1.542-.952-2.459-1.11-.261-.086-.503-.221-.714-.397-.612-.267-1.201-.583-1.763-.943-.467-.504-1.086-.842-1.763-.961-.317,0-.52-.282-.784-.415-.881-.423-1.683-.881-2.477-1.296-.502-.273-.881-.731-1.375-1.013-.209-.14-.427-.266-.652-.379-.954-.527-1.841-1.166-2.644-1.904-.226-.192-.464-.368-.714-.528-.46-.23-.854-.573-1.146-.996-.15-.175-.325-.326-.52-.449-1.036-.74-1.993-1.585-2.855-2.521-.665-.587-1.257-1.253-1.763-1.982-.339-.707-.855-1.314-1.498-1.763-.186-.145-.334-.332-.432-.546-.219-.466-.517-.889-.881-1.252-.098-.08-.168-.187-.203-.308-.141-.882-.793-1.243-1.269-1.763-.263-.331-.463-.707-.591-1.11-.234-.616-.574-1.186-1.005-1.683-.034-.029-.061-.065-.079-.106-.329-.679-.623-1.373-.881-2.08-.083-.482-.26-.943-.52-1.357-.123-.218-.221-.447-.332-.671,.081,.527,.155,1.056,.298,1.57,.203,.828,.37,1.648,.493,2.529,.107,.553,.245,1.101,.414,1.639,.053,.221-.352,.864-.582,.882-.229,.017-.511-.044-.511-.282,.011-.456-.183-.892-.529-1.19-.107-.157-.182-.334-.22-.52-.282-1.005-.934-1.86-1.198-2.846-.044-.124-.132-.212-.132-.353-.053-1.146-.254-2.281-.599-3.375-.387-1.416-.681-2.855-.881-4.309-.159-1.622-.37-3.225-.467-4.856v-6.628c.205-.194,.462-.325,.74-.379Zm-491.938,53.148c-2.321,4.972-5.468,9.215-9.445,12.727-3.977,3.513-8.585,6.232-13.82,8.153-5.239,1.924-10.772,2.884-16.604,2.884H38.559c-2.654,0-3.977-1.323-3.977-3.977v-127.264c0-2.65,1.323-3.977,3.977-3.977h35.793c5.568,0,10.868,.896,15.907,2.684,5.038,1.79,9.445,4.344,13.225,7.657,3.778,3.314,6.761,7.356,8.947,12.13,2.188,4.771,3.282,10.075,3.282,15.907,0,4.641-.831,9.016-2.485,13.123-1.66,4.111-4.145,7.825-7.458,11.136-2.255,2.52-2.187,4.842,.199,6.96,3.709,3.182,6.527,6.994,8.451,11.434,1.919,4.442,2.884,9.116,2.884,14.018,0,5.966-1.162,11.435-3.481,16.405Zm97.596-12.03c0,6.1-1.03,11.503-3.083,16.206-2.056,4.708-4.905,8.62-8.551,11.733-3.647,3.115-7.988,5.468-13.024,7.059-5.039,1.589-10.475,2.386-16.306,2.386-5.702,0-11.036-.829-16.009-2.485-4.971-1.656-9.315-4.076-13.024-7.259-3.713-3.182-6.63-7.09-8.75-11.731-2.121-4.639-3.18-9.943-3.18-15.909v-95.447c0-2.65,1.323-3.977,3.977-3.977h23.265c2.65,0,3.977,1.327,3.977,3.977v92.267c0,4.507,.86,7.823,2.585,9.941,1.591,2.255,3.977,3.381,7.159,3.381,3.843,0,6.428-1.392,7.755-4.176,1.323-2.784,1.987-5.832,1.987-9.147v-92.267c0-2.65,1.325-3.977,3.979-3.977h23.264c2.652,0,3.979,1.327,3.979,3.977v95.447Zm102.127,34.302c-.664,.994-1.857,1.492-3.579,1.492h-25.056c-1.857,0-3.117-.86-3.778-2.585l-16.704-47.525c-.53-1.457-1.591-2.188-3.182-2.188s-2.386,.797-2.386,2.388v45.933c0,2.654-1.327,3.977-3.977,3.977h-23.465c-2.654,0-3.977-1.323-3.977-3.977v-127.264c0-2.65,1.323-3.977,3.977-3.977h34.401c6.627,0,12.693,.764,18.195,2.288,5.499,1.524,10.205,3.944,14.117,7.257,3.91,3.316,6.96,7.492,9.148,12.528,2.187,5.039,3.28,11.071,3.28,18.096,0,6.761-1.193,13.058-3.579,18.89-2.386,5.834-6.363,10.806-11.93,14.914-1.859,1.327-2.388,2.983-1.591,4.971l20.083,50.906c.663,1.591,.663,2.884,0,3.877Zm92.026-92.365c0,2.255-1.13,3.38-3.381,3.38h-23.265c-2.52,0-3.778-1.258-3.778-3.778v-3.579c0-3.58-.994-6.43-2.983-8.551-2.121-1.987-4.771-2.983-7.954-2.983-3.052,0-5.637,.996-7.755,2.983-2.123,1.989-3.182,4.574-3.182,7.755v62.042c0,3.05,1.059,5.637,3.182,7.755,2.118,2.123,4.703,3.182,7.755,3.182s5.633-1.059,7.755-3.182c2.12-2.118,3.182-4.704,3.182-7.755v-7.159c0-2.65-1.327-3.977-3.977-3.977h-2.784c-2.654,0-3.977-1.323-3.977-3.977v-16.903c0-2.65,1.323-3.977,3.977-3.977h33.207c2.652,0,3.979,1.327,3.979,3.977v31.418c0,6.1-1.063,11.534-3.182,16.305-2.121,4.773-5.039,8.819-8.75,12.13-3.713,3.316-8.122,5.867-13.223,7.657-5.105,1.788-10.573,2.684-16.405,2.684-5.702,0-11.105-.896-16.206-2.684-5.104-1.79-9.545-4.375-13.322-7.756-3.778-3.379-6.795-7.456-9.049-12.229-2.255-4.771-3.379-10.14-3.379-16.106v-60.847c0-6.096,1.124-11.534,3.379-16.306,2.254-4.773,5.302-8.815,9.148-12.13,3.843-3.313,8.352-5.867,13.522-7.657,5.17-1.788,10.604-2.684,16.306-2.684,5.964,0,11.465,.896,16.505,2.684,5.036,1.79,9.376,4.409,13.024,7.856,3.646,3.448,6.495,7.59,8.551,12.428,2.053,4.84,3.083,10.374,3.083,16.602v3.381Zm87.392-17.897c0,2.654-1.327,3.977-3.979,3.977h-34.003c-2.652,0-3.977,1.327-3.977,3.977v17.897c0,2.654,1.325,3.977,3.977,3.977h13.324c2.65,0,3.977,1.327,3.977,3.977v19.289c0,2.654-1.327,3.977-3.977,3.977h-13.324c-2.652,0-3.977,1.327-3.977,3.977v19.488c0,2.654,1.325,3.977,3.977,3.977h34.003c2.652,0,3.979,1.327,3.979,3.977v19.289c0,2.654-1.327,3.977-3.979,3.977h-65.222c-2.654,0-3.977-1.323-3.977-3.977v-127.264c0-2.65,1.323-3.977,3.977-3.977h65.222c2.652,0,3.979,1.327,3.979,3.977v19.488Z"/><path d="M742.697,328.682h.815c.544,0,1.013-.105,1.405-.317,.393-.211,.726-.499,.997-.861,.272-.363,.469-.778,.59-1.247,.12-.468,.182-.944,.182-1.428,0-1.058-.266-1.881-.794-2.471-.529-.589-1.322-.884-2.38-.884h-.815c-.544,0-.816,.272-.816,.816v5.575c0,.544,.272,.816,.816,.816Z"/><path d="M775.269,282.246c1.52,0,2.647-.548,3.387-1.646,.737-1.097,1.107-2.32,1.107-3.671,0-1.435-.38-2.596-1.139-3.481-.76-.886-1.879-1.329-3.355-1.329h-1.013c-.675,0-1.013,.338-1.013,1.013v8.102c0,.676,.338,1.013,1.013,1.013h1.013Z"/><path d="M784.39,328.727h.726c1.088,0,1.896-.393,2.425-1.179,.528-.785,.793-1.661,.793-2.629,0-1.027-.271-1.858-.815-2.493s-1.346-.952-2.402-.952h-.726c-.483,0-.726,.242-.726,.726v5.802c0,.484,.242,.726,.726,.726Z"/></g><g><path d="M813.74,424.243l-.061,.052,.013,.114,.048-.165Z"/><path d="M987.572,424.648c-1.329-.896-2.81-1.36-4.342-1.36-.256,0-.513,.013-.771,.039-2.322,.237-4.177,1.519-5.24,3.643-5.945,12.284-13.013,18.926-21.008,19.74-.329,.034-.644,.05-.948,.05-1.372,0-2.486-.345-3.376-1.047-1.405-1.107-1.652-2.062-1.716-2.685-.21-2.158,2.131-14.54,20.15-73.121,.61-1.775,.835-3.505,.668-5.138-.197-1.957-.871-3.572-2.005-4.805-1.175-1.274-2.675-1.957-4.293-1.957-.198,0-.398,.01-.6,.031-2.946,.299-5.176,2.484-6.633,6.512-2.775,7.837-7.111,22.12-12.888,42.452-2.972,10.457-4.895,17.958-6.12,23.393-.162,.252-.313,.517-.446,.801-2.174,4.896-5.216,9.515-9.041,13.728-4.398,4.845-7.24,6.056-8.853,6.22-.025,.003-.056,.004-.094,.004-.156,0-.418-.032-.779-.167-.246-.102-.461-.711-.547-1.551-.158-1.562,.053-4.603,1.961-10.215,1.642-4.831,3.416-9.324,5.273-13.355,2.906-6.314,3.003-6.567,3.068-6.739,.33-.873,.432-1.873,.311-3.055-.217-2.147-1.359-3.913-3.308-5.11-1.432-.876-2.975-1.319-4.595-1.319-.31,0-.623,.016-.938,.049-.728,.074-1.514,.304-2.402,.702l-.229,.115c-.542,.302-1.036,.724-1.507,1.301-.973-.624-2.086-1.144-3.337-1.555-2.009-.657-4.189-.988-6.508-.988-.862,0-1.744,.046-2.644,.138-9.283,.944-17.129,6.549-23.318,16.657-2.443,3.99-4.313,7.911-5.626,11.75-2.544,5.082-5.626,9.737-9.178,13.831-4.083,4.71-6.758,5.884-8.281,6.039-.15,.014-.28,.02-.391,.02-.326,0-.492-.049-.527-.069-.053-.053-.222-.363-.294-1.077-.113-1.117,.152-4.397,3.212-13.805,2.628-8.088,3.729-13.754,3.367-17.322-.506-4.977-3.036-7.467-5.07-8.681-2.175-1.295-4.673-1.949-7.447-1.949-.628,0-1.27,.033-1.925,.101-3.384,.344-6.343,1.317-8.837,2.902-.234-.155-.489-.306-.766-.448-1.449-.746-2.958-1.122-4.506-1.122-.325,0-.653,.017-.981,.05-3.242,.331-5.473,2.104-6.136,4.87l-6.807,23.484c-2.684,5.396-5.505,9.765-8.4,12.973-2.84,3.146-6.014,4.857-9.703,5.233-.488,.05-.931,.072-1.334,.072-2.637,0-3.556-.945-3.885-1.287-1.229-1.27-1.903-2.632-2.06-4.166-.132-1.297-.104-2.832,.08-4.567,.189-1.788,.58-3.836,1.161-6.087,.604-2.343,1.115-4.195,1.522-5.51,.414-1.35,1.065-3.38,1.948-6.092,1.175-3.606,1.378-4.194,1.406-4.272l.059-.17c.589-1.877,.804-3.483,.658-4.911-.215-2.108-.979-3.827-2.279-5.117-1.269-1.25-2.797-1.901-4.447-1.901-.217,0-.435,.011-.656,.034-2.276,.232-5.295,1.564-6.8,6.578-.194,.53-.596,1.749-1.691,5.537-.864,2.976-1.547,5.395-2.029,7.188-.483,1.785-1.041,3.982-1.705,6.719-.238,.983-.44,1.933-.626,2.865-6.911,14.635-13.918,23.817-20.901,27.376,1.404-4.366,3.383-10.69,5.974-19.093,4.636-15.035,5.721-19.39,5.871-21.087,.256-.881,.341-1.767,.251-2.64-.21-2.067-1.294-3.751-3.052-4.741-1.203-.679-2.512-1.026-3.902-1.026-.299,0-.601,.016-.907,.048-1.838,.187-3.422,.829-4.681,1.873-2.514-1.884-5.818-2.833-9.883-2.833-.967,0-1.978,.054-3.031,.161-8.835,.898-16.645,6.367-23.214,16.255-3.155,4.752-5.427,9.489-6.818,14.18-2.507,4.864-5.13,8.833-7.816,11.81-2.84,3.146-6.014,4.857-9.703,5.233-.488,.049-.931,.071-1.333,.071-2.646,0-3.555-.945-3.885-1.287-1.23-1.269-1.903-2.631-2.06-4.165-.132-1.301-.105-2.836,.08-4.567,.189-1.787,.579-3.835,1.161-6.087,.603-2.343,1.115-4.195,1.521-5.51,.414-1.351,1.065-3.381,1.948-6.092,1.201-3.689,1.387-4.219,1.406-4.272l.059-.17c.589-1.878,.804-3.484,.658-4.912-.215-2.107-.979-3.826-2.279-5.116-1.269-1.25-2.795-1.901-4.448-1.901-.216,0-.435,.011-.655,.033-2.275,.232-5.295,1.564-6.8,6.577-.194,.529-.596,1.748-1.691,5.538-.868,2.987-1.551,5.407-2.029,7.187-.483,1.786-1.041,3.983-1.705,6.72-.25,1.033-.461,2.029-.653,3.005-5.489,12.172-12.196,18.753-19.942,19.542-.289,.03-.565,.046-.827,.046-1.093,0-1.952-.265-2.603-.797-.803-.653-1.272-1.749-1.436-3.353-.462-4.541,1.958-10.688,7.195-18.277,2.405-2.719,3.483-5.481,3.205-8.213-.197-1.944-1.312-4.669-5.512-6.608-1.937-.887-4.43-1.796-7.415-2.702-1.26-.382-2.179-.686-2.845-.92,.016-.582-.01-1.201-.077-1.862-.265-2.601-1.25-4.777-2.929-6.471-1.128-1.138-3.094-2.4-6.249-2.4-.408,0-.835,.021-1.284,.066-3.019,.308-5.544,1.682-7.503,4.084-1.959,2.402-2.806,5.051-2.518,7.87,.224,2.196,1.19,5.071,4.315,7.266-1.174,4.877-3.32,10.789-6.386,17.591-.509,1.088-1.366,3.909,1.637,6.604,1.531,1.379,3.308,2.098,5.181,2.098,.253,0,.508-.013,.764-.04,2.166-.219,3.951-1.397,4.999-3.272,2.021-3.468,4.22-9.591,6.701-18.668,.987,.293,1.649,.546,2.084,.74l-.009,.015c-5.136,9.519-7.373,17.95-6.649,25.061,.521,5.124,2.479,9.102,5.814,11.818,2.822,2.304,6.254,3.465,10.226,3.465,.724,0,1.465-.039,2.224-.116,8.515-.867,15.998-4.839,22.385-11.83,.994,1.454,2.185,2.777,3.597,3.946,3.512,2.911,7.51,4.38,11.909,4.38,.688,0,1.388-.036,2.096-.108,6.819-.694,13.107-3.839,18.831-9.357,.998,1.582,2.334,2.931,4.025,4.015,1.5,.965,3.056,1.645,4.654,2.037-3.718,2.243-6.806,4.787-9.207,7.589-3.022,3.528-5.287,7.211-6.729,10.945-1.489,3.858-2.061,7.629-1.697,11.208,.438,4.308,2.152,7.736,5.093,10.192,2.484,2.074,5.628,3.119,9.367,3.119,.722,0,1.466-.039,2.231-.117h.001c2.814-.285,5.516-.994,8.03-2.107,2.575-1.141,4.9-2.77,6.91-4.843,1.817-1.878,3.425-3.7,4.778-5.419,1.439-1.831,2.828-4.184,4.129-6.995,1.29-2.794,2.169-4.744,2.766-6.137,.652-1.516,1.423-3.61,2.356-6.406,.473-1.418,.81-2.395,1.047-3.065,10.657-1.938,20.409-9.37,29.133-22.165,.811,1.011,1.73,1.948,2.765,2.805,3.512,2.911,7.51,4.38,11.91,4.38,.689,0,1.388-.036,2.096-.108,4.782-.487,9.305-2.175,13.555-5.04,.518,.729,1.165,1.38,1.945,1.942,1.369,.987,2.868,1.498,4.372,1.498,.224,0,.448-.011,.673-.034,1.678-.171,4.657-1.106,5.78-5.472,3.056-12.208,5.888-21.592,8.439-27.947,1.215-3.207,3.197-6.302,5.893-9.198,3.211-3.451,5.065-4.106,5.886-4.189,.062-.006,.106-.007,.126-.011,.083,.103,.321,.46,.515,1.354,.039,.324,.075,2.384-3.078,11.188-2.668,7.448-3.761,13.064-3.343,17.172,.375,3.674,1.833,6.884,4.334,9.541,2.329,2.475,5.428,3.728,9.213,3.728,.623,0,1.265-.034,1.925-.102,5.052-.514,10.339-3.478,16.16-9.061,.291-.279,.57-.577,.857-.863,.62,1.119,1.357,2.13,2.226,3.019,2.26,2.317,5.257,3.485,8.929,3.485,.622,0,1.265-.033,1.925-.101,4.265-.434,8.531-2.275,12.683-5.474,1.885-1.453,3.612-2.972,5.172-4.546,.851,1.994,2.208,3.614,4.023,4.779,2.288,1.467,4.717,2.211,7.231,2.211,.443,0,.889-.023,1.337-.07,7.587-.771,14.646-4.731,21.109-11.797,1.027,1.523,2.29,2.888,3.8,4.077,3.331,2.622,7.091,3.945,11.2,3.945,.665,0,1.34-.035,2.023-.104,13.394-1.363,24.598-10.971,33.327-28.61,.484-1.029,.681-2.033,.584-2.982-.127-1.256-.736-3.061-2.916-4.532Zm-252.253,80.493c-3.351,5.312-6.703,8.28-9.695,8.586-.298,.029-.562,.044-.794,.044-1.502,0-1.732-.62-1.866-1.936-.376-3.7,1.638-7.931,5.987-12.575,3.517-3.758,7.674-6.035,12.625-6.9-1.372,4.073-3.467,8.356-6.257,12.781Zm9.549-47.181c-7.931,9.534-12.539,11.835-15.009,12.087-.086,.009-.157,.012-.213,.012-.047,0-.085-.002-.113-.005-.079-.149-.215-.521-.283-1.194-.278-2.729,.359-5.995,1.884-9.756,.054-.107,.109-.206,.162-.313,.137-.29,.245-.577,.336-.862,1.01-2.285,2.326-4.738,3.959-7.362,4.52-7.262,9.361-11.203,14.393-11.715,.13-.013,.256-.02,.377-.02,.589,0,1.073,.158,1.529,.491,.594,.438,.945,.928,1.083,1.449,.606,2.668-.309,7.815-8.104,17.188Zm156.775-16.237c-7.515,9.219-12.186,11.665-14.831,12.043-.078-.22-.178-.602-.241-1.22-.495-4.874,1.397-11.142,5.625-18.629,4.057-7.192,8.857-11.249,14.323-12.067,.112-.019,.224-.03,.335-.03,.38,0,.767,.135,1.257,.571,.755,.673,1.234,1.359,1.425,2.041,.593,2.761-.312,7.992-7.893,17.291Z"/><path d="M611.197,399.332c-5.47-4.161-11.942-6.257-19.286-6.257-1.362,0-2.754,.072-4.175,.217-10.681,1.087-20.688,6.034-29.747,14.705-8.984,8.601-15.496,20.864-19.369,36.504-.219,.956-.29,1.705-.224,2.359,.222,2.184,1.25,3.399,2.075,4.035,.959,.739,2.138,1.11,3.516,1.11,.271,0,.55-.014,.836-.043,2.004-.203,5.581-1.333,7.03-6.666,3.023-12.105,7.939-21.559,14.613-28.098,6.574-6.446,13.715-10.103,21.224-10.867,.96-.098,1.89-.146,2.794-.146,4.632,0,8.535,1.287,11.868,3.902,3.893,3.058,6.23,8.187,6.949,15.243,.509,4.999,.183,10.419-.976,16.146-1.858,9.854-4.767,19.036-8.643,27.291-3.857,8.215-8.247,15.064-13.047,20.359-4.791,5.284-9.869,9.527-15.092,12.61-5.108,3.015-10.164,4.794-15.027,5.289-.969,.097-1.915,.146-2.839,.146-5.853,0-10.823-1.962-15.132-5.973-5.032-4.678-8.102-12.149-9.125-22.208-.706-6.941-.288-15.066,1.241-24.145,3.002-17.643,10.696-33.605,22.869-47.444,12.029-13.675,26.456-21.455,42.879-23.127,3.625-.367,6.037-2.707,6.641-6.43,.483-1.919,.055-3.813-1.218-5.357-1.184-1.439-2.81-2.208-4.637-2.208-.224,0-.452,.012-.682,.035-10.218,1.04-20.088,4.231-29.339,9.484-9.193,5.227-17.217,11.852-23.847,19.691-6.568,7.768-12.172,16.483-16.655,25.905-4.485,9.426-7.663,19.298-9.442,29.337-1.724,9.645-2.176,18.679-1.344,26.852,1.37,13.47,5.965,23.78,13.654,30.646,6.719,5.996,14.655,9.021,23.646,9.021,1.406,0,2.84-.074,4.298-.223,8.92-.907,17.748-4.423,26.237-10.448,8.4-5.966,16.201-14.981,23.188-26.798,6.951-11.765,11.873-25.63,14.622-41.17,1.373-7.193,1.76-13.876,1.15-19.863-1.075-10.559-4.939-18.438-11.487-23.419Z"/><path d="M691.671,425.751c1.043,.939,2.792,1.984,5.41,1.984,.338,0,.69-.018,1.058-.055,2.721-.277,4.888-1.384,6.44-3.288,1.534-1.88,2.221-4.083,1.986-6.37-.225-2.217-1.295-4.127-3.097-5.524-1.49-1.156-3.322-1.734-5.457-1.734-.417,0-.844,.022-1.284,.066-3.336,.34-5.191,1.977-6.162,3.291-1.344,1.821-1.908,3.893-1.678,6.154,.219,2.164,1.154,4.005,2.783,5.476Z"/><path d="M794.16,415.321c1.042,.939,2.791,1.985,5.41,1.985,.338,0,.69-.018,1.059-.055,2.721-.277,4.888-1.384,6.439-3.287,1.534-1.879,2.222-4.083,1.987-6.371-.225-2.217-1.295-4.126-3.097-5.525-1.488-1.153-3.316-1.734-5.453-1.734-.418,0-.847,.022-1.289,.067-3.334,.34-5.19,1.976-6.162,3.291-1.344,1.821-1.908,3.893-1.678,6.154,.216,2.135,1.178,4.027,2.782,5.475Z"/></g></svg>