<svg xmlns="http://www.w3.org/2000/svg" viewBox="0 0 595.593 595.593"><path d="M307.409,395.213a5.416,5.416,0,0,1-1.559,7.769,65.9,65.9,0,0,1-75.109-107.688,5.416,5.416,0,0,1,7.829,1.221Z" transform="translate(0.558)"/><path d="M274.687,182.479a5.618,5.618,0,0,1,2.047-8.168,53.671,53.671,0,0,1,61.336,87.162,5.619,5.619,0,0,1-8.381-.831Z" transform="translate(0.558)"/><path d="M395.058,403.881h0A5.445,5.445,0,0,0,396.4,396.3L254.505,192.372a5.447,5.447,0,0,0-7.584-1.343h0a45.525,45.525,0,0,0-11.223,63.4l95.963,138.232A45.524,45.524,0,0,0,395.058,403.881Z" transform="translate(0.558)"/><path d="M109.291,214.269a13.7,13.7,0,0,1,8.356,7.763,16.255,16.255,0,0,1,.2,12.263l-4.484,12.83a1.258,1.258,0,0,1-.681.728,1.328,1.328,0,0,1-1.067.054L67.333,232.426a1.363,1.363,0,0,1-.8-.7,1.274,1.274,0,0,1-.077-1l4.534-12.971a15.567,15.567,0,0,1,7.435-8.974,13.088,13.088,0,0,1,10.944-.857,12.533,12.533,0,0,1,4.592,2.807,13.21,13.21,0,0,1,3.067,4.517,1.02,1.02,0,0,0,.536.574.811.811,0,0,0,.705-.139,13.047,13.047,0,0,1,5.381-1.99A12.066,12.066,0,0,1,109.291,214.269ZM89.235,226.687l.627-1.791a4.675,4.675,0,0,0-.233-3.991,5.844,5.844,0,0,0-3.346-2.6,5.206,5.206,0,0,0-4.15.02,5.527,5.527,0,0,0-2.6,3.347l-.506,1.447a1.3,1.3,0,0,0-.051.914,1.071,1.071,0,0,0,.7.553l8.069,2.821a1.036,1.036,0,0,0,1.492-.719Zm18.969,6.636.581-1.656a5.407,5.407,0,0,0-.169-4.4,5.683,5.683,0,0,0-3.357-2.8,5.554,5.554,0,0,0-4.311.041,5.455,5.455,0,0,0-2.763,3.366l-.6,1.728A1.032,1.032,0,0,0,98.3,231.1l8.485,2.966a1.059,1.059,0,0,0,.891,0A1.289,1.289,0,0,0,108.2,233.323Z" transform="translate(0.558)"/><path d="M163.9,149.377a3.29,3.29,0,0,0,1.238-2.884,6.585,6.585,0,0,0-1.883-3.516L140.638,117.81a1.338,1.338,0,0,1-.361-1,1.257,1.257,0,0,1,.412-.907l6.521-5.864a1.375,1.375,0,0,1,1.964.1l23.544,26.2q4.3,4.782,3.7,10.181t-5.927,10.192q-5.106,4.59-10.7,4.6a12.663,12.663,0,0,1-9.74-4.6l-23.548-26.2a1.348,1.348,0,0,1-.361-1,1.273,1.273,0,0,1,.412-.911l6.524-5.86a1.371,1.371,0,0,1,1.961.1l22.616,25.164a6.586,6.586,0,0,0,3.3,2.246A3.214,3.214,0,0,0,163.9,149.377Z" transform="translate(0.558)"/><path d="M269.507,108.823l-9.176,2.166a1.356,1.356,0,0,1-.8-.037,1.217,1.217,0,0,1-.614-.53L249.735,96a2.486,2.486,0,0,0-.719-.806,1.086,1.086,0,0,0-.85-.1l-.709.169a1.068,1.068,0,0,0-.752.479,1.565,1.565,0,0,0-.013,1.052l3.579,15.151a1.352,1.352,0,0,1-.165,1.053,1.263,1.263,0,0,1-.8.6l-8.606,2.031a1.244,1.244,0,0,1-.981-.179,1.332,1.332,0,0,1-.618-.867L228.319,68.916a1.338,1.338,0,0,1,.165-1.052,1.255,1.255,0,0,1,.8-.6l12.375-2.921q8.178-1.934,13.241.739t6.774,9.925a16.793,16.793,0,0,1,.314,7.057,14.466,14.466,0,0,1-3.164,6.306,1.135,1.135,0,0,0-.351.907,2.711,2.711,0,0,0,.607,1.134l11.258,16.19a1.465,1.465,0,0,1,.212,1.376A1.372,1.372,0,0,1,269.507,108.823ZM245.4,85.909l1.353-.32a4.75,4.75,0,0,0,3.357-2.632,7.119,7.119,0,0,0,.357-4.854,6.337,6.337,0,0,0-2.351-3.91,4.993,4.993,0,0,0-4.2-.624l-1.349.32a1.213,1.213,0,0,0-.85.536,1.451,1.451,0,0,0-.058,1.029l2.234,9.46a1.445,1.445,0,0,0,.519.928A1.319,1.319,0,0,0,245.4,85.909Z" transform="translate(0.558)"/><path d="M350.68,105.51a4.188,4.188,0,0,0,3.175-.374,3.9,3.9,0,0,0,2.02-2.51l.878-3.172a1.142,1.142,0,0,0-.867-1.528l-1.691-.465a1.371,1.371,0,0,1-.917-1.62l1.636-5.917a1.334,1.334,0,0,1,.648-.844,1.269,1.269,0,0,1,.988-.145l12.4,3.428a1.278,1.278,0,0,1,.773.631,1.351,1.351,0,0,1,.125,1.059l-3.118,11.268a13.415,13.415,0,0,1-6.909,8.819,15.726,15.726,0,0,1-11.767.88,16.219,16.219,0,0,1-9.821-6.848,13.267,13.267,0,0,1-1.508-11.147l5.9-21.341a13.323,13.323,0,0,1,7.061-8.812,16.272,16.272,0,0,1,11.99-.857q6.618,1.832,9.689,6.774A13.528,13.528,0,0,1,372.7,84a3.862,3.862,0,0,1-.813,1.707,1.142,1.142,0,0,1-1.168.246l-8.312-2.3a1.217,1.217,0,0,1-.763-.665,1.453,1.453,0,0,1-.114-1.093,6.742,6.742,0,0,0,.06-4.193,3.628,3.628,0,0,0-2.614-2.2,4.217,4.217,0,0,0-3.2.327,3.937,3.937,0,0,0-1.994,2.557l-6.075,21.976a3.933,3.933,0,0,0,.4,3.219A4.2,4.2,0,0,0,350.68,105.51Z" transform="translate(0.558)"/><path d="M437.919,169.018,420.15,152.177a1.253,1.253,0,0,1-.385-.921,1.334,1.334,0,0,1,.385-.992l32.275-34.053a1.348,1.348,0,0,1,.972-.438,1.253,1.253,0,0,1,.938.337L472.1,132.951a1.33,1.33,0,0,1,.439.968,1.349,1.349,0,0,1-.385,1l-4.928,5.2a1.253,1.253,0,0,1-.921.388,1.336,1.336,0,0,1-.992-.388l-9.389-8.9a1.37,1.37,0,0,0-.965-.361,1.283,1.283,0,0,0-1,.411l-4.828,5.094a1.309,1.309,0,0,0-.334.989,1.324,1.324,0,0,0,.388.975l3.924,3.718a1.378,1.378,0,0,1,.054,1.963l-4.879,5.145a1.244,1.244,0,0,1-.917.388,1.354,1.354,0,0,1-1-.388l-3.924-3.721a1.383,1.383,0,0,0-.965-.361,1.285,1.285,0,0,0-1,.415L435.264,151a1.328,1.328,0,0,0-.385.991,1.253,1.253,0,0,0,.385.921l9.442,8.947a1.344,1.344,0,0,1,.439.972,1.251,1.251,0,0,1-.337.938l-4.977,5.252a1.261,1.261,0,0,1-.921.388A1.343,1.343,0,0,1,437.919,169.018Z" transform="translate(0.558)"/><path d="M482.987,253.238,480,244.3a1.363,1.363,0,0,1-.037-.8,1.238,1.238,0,0,1,.472-.658l13.535-10.455a2.453,2.453,0,0,0,.743-.786,1.092,1.092,0,0,0,.02-.853l-.23-.7a1.076,1.076,0,0,0-.546-.7,1.574,1.574,0,0,0-1.049.084l-14.763,4.932a1.348,1.348,0,0,1-1.063-.071,1.248,1.248,0,0,1-.671-.739l-2.8-8.386a1.259,1.259,0,0,1,.091-.992,1.34,1.34,0,0,1,.81-.695l44.5-14.868a1.352,1.352,0,0,1,1.063.071,1.254,1.254,0,0,1,.671.739l4.028,12.061q2.667,7.969.462,13.251t-9.274,7.645a16.774,16.774,0,0,1-7,.951,14.437,14.437,0,0,1-6.562-2.584,1.132,1.132,0,0,0-.938-.263,2.713,2.713,0,0,0-1.073.705l-15.107,12.675a1.447,1.447,0,0,1-1.349.334A1.363,1.363,0,0,1,482.987,253.238Zm20.643-26.082.439,1.319a4.748,4.748,0,0,0,2.924,3.1,7.1,7.1,0,0,0,4.865-.084,6.331,6.331,0,0,0,3.684-2.693,4.982,4.982,0,0,0,.24-4.24l-.439-1.319a1.208,1.208,0,0,0-.614-.8,1.435,1.435,0,0,0-1.029.037l-9.216,3.076a1.431,1.431,0,0,0-.878.6A1.3,1.3,0,0,0,503.63,227.156Z" transform="translate(0.558)"/><path d="M110.171,426.2a4.214,4.214,0,0,0,1.643-2.014,12.311,12.311,0,0,0,.553-3.92l.338-8.471a22.528,22.528,0,0,1,1.744-8.532,12.844,12.844,0,0,1,4.659-5.465,13.108,13.108,0,0,1,10.765-2.025,15.367,15.367,0,0,1,9.291,6.856,14.871,14.871,0,0,1,2.682,11.028,13.435,13.435,0,0,1-6.255,9.072l-1.1.728a1.383,1.383,0,0,1-1.012.193,1.3,1.3,0,0,1-.911-.581l-4.409-6.632a1.265,1.265,0,0,1-.172-.985,1.333,1.333,0,0,1,.6-.881l.972-.647a4.54,4.54,0,0,0,2.041-2.672,3.749,3.749,0,0,0-.614-3.1,2.94,2.94,0,0,0-2.227-1.373,3.9,3.9,0,0,0-2.638.655,4.642,4.642,0,0,0-1.673,2.037,10.124,10.124,0,0,0-.726,3.334q-.041.727-.3,5.286a62,62,0,0,1-.708,7.054,18.757,18.757,0,0,1-1.974,6.4,11.664,11.664,0,0,1-3.775,4.089,13.175,13.175,0,0,1-10.856,2.082,15.759,15.759,0,0,1-9.386-7.055,15.262,15.262,0,0,1-2.773-11.234,13.614,13.614,0,0,1,6.366-9.233l1.1-.729a1.29,1.29,0,0,1,1.066-.179,1.394,1.394,0,0,1,.86.567l4.328,6.511a1.265,1.265,0,0,1,.169.985,1.34,1.34,0,0,1-.6.881l-1.1.728a4.258,4.258,0,0,0-1.244,6.181,3.746,3.746,0,0,0,5.269,1.059Z" transform="translate(0.558)"/><path d="M197.19,516.5l-7.971-4.309a1.133,1.133,0,0,1-.584-.688,1.89,1.89,0,0,1-.017-.965l1.441-4.2a1.284,1.284,0,0,0,.03-.982,1.472,1.472,0,0,0-.7-.708l-5.978-3.232a1.325,1.325,0,0,0-.942-.176,1.352,1.352,0,0,0-.772.581l-2.79,3.474a1.308,1.308,0,0,1-.79.614,1.6,1.6,0,0,1-.988-.246l-7.523-4.062a1.266,1.266,0,0,1-.722-.971,1.5,1.5,0,0,1,.5-1.228l31.648-35.977a1.569,1.569,0,0,1,.867-.529,1.374,1.374,0,0,1,.911.162l8.872,4.794a1.13,1.13,0,0,1,.584.688,1.94,1.94,0,0,1-.017,1.029l-13.069,46.016a1.524,1.524,0,0,1-.783.988A1.253,1.253,0,0,1,197.19,516.5Zm-3.441-20.381,5.972-17.043c.023-.152.016-.24-.027-.263s-.122.017-.233.125L188.348,493.2a1.333,1.333,0,0,0-.307.955,1,1,0,0,0,.584.688l3.471,1.876a1.207,1.207,0,0,0,.992.162A1.225,1.225,0,0,0,193.749,496.121Z" transform="translate(0.558)"/><path d="M297.981,528.444a3.281,3.281,0,0,0,2.827-1.359,6.608,6.608,0,0,0,.887-3.89l-.546-33.831a1.342,1.342,0,0,1,.384-.992,1.265,1.265,0,0,1,.908-.418l8.768-.142a1.376,1.376,0,0,1,1.41,1.367l.57,35.22q.106,6.427-3.893,10.111t-11.157,3.8q-6.867.111-11.092-3.549a12.669,12.669,0,0,1-4.325-9.868l-.574-35.221a1.362,1.362,0,0,1,.388-.992,1.256,1.256,0,0,1,.908-.415l8.768-.145a1.362,1.362,0,0,1,.992.388,1.341,1.341,0,0,1,.418.979l.547,33.83a6.581,6.581,0,0,0,1.012,3.86A3.21,3.21,0,0,0,297.981,528.444Z" transform="translate(0.558)"/><path d="M408.433,499.927a3.57,3.57,0,0,0,1.815-2.321,4.22,4.22,0,0,0-.472-3.158l-.769-1.41a1.357,1.357,0,0,1-.122-1.059,1.265,1.265,0,0,1,.611-.79l7.57-4.126a1.344,1.344,0,0,1,1.06-.121,1.357,1.357,0,0,1,.826.675q3.5,6.416,1.93,12.013t-7.79,8.994a15.656,15.656,0,0,1-11.565,1.768,13.291,13.291,0,0,1-8.731-6.936l-10.633-19.5a13.524,13.524,0,0,1-1.2-11.207,15.739,15.739,0,0,1,7.847-8.816q5.965-3.253,11.514-1.781a13.625,13.625,0,0,1,8.623,7.115l.526.965a1.389,1.389,0,0,1,.1,1.026,1.275,1.275,0,0,1-.657.856l-7.571,4.13a1.262,1.262,0,0,1-1,.084,1.339,1.339,0,0,1-.823-.675l-.665-1.218a4.17,4.17,0,0,0-2.415-2.138,3.69,3.69,0,0,0-2.979.334,3.645,3.645,0,0,0-1.879,2.354,4.2,4.2,0,0,0,.472,3.158l10.947,20.083a4,4,0,0,0,2.412,2.055A3.816,3.816,0,0,0,408.433,499.927Z" transform="translate(0.558)"/><path d="M504.645,419.247,491.087,439.63a1.249,1.249,0,0,1-.84.54,1.351,1.351,0,0,1-1.046-.213l-39.063-25.983a1.34,1.34,0,0,1-.6-.881,1.261,1.261,0,0,1,.168-.985l13.562-20.383a1.372,1.372,0,0,1,1.923-.385l5.965,3.964a1.265,1.265,0,0,1,.536.84,1.341,1.341,0,0,1-.212,1.046l-7.162,10.769a1.391,1.391,0,0,0-.193,1.015,1.291,1.291,0,0,0,.581.911l5.839,3.886a1.52,1.52,0,0,0,1.927-.388l3-4.5a1.374,1.374,0,0,1,1.923-.388l5.9,3.927a1.264,1.264,0,0,1,.537.84,1.343,1.343,0,0,1-.213,1.045l-3,4.5a1.383,1.383,0,0,0-.189,1.012,1.285,1.285,0,0,0,.577.911l6.329,4.21a1.341,1.341,0,0,0,1.043.213,1.258,1.258,0,0,0,.843-.54l7.2-10.829a1.357,1.357,0,0,1,.88-.6,1.266,1.266,0,0,1,.985.172l6.022,4.008a1.249,1.249,0,0,1,.54.84A1.342,1.342,0,0,1,504.645,419.247Z" transform="translate(0.558)"/><path d="M74.619,328.25a2.075,2.075,0,0,1-2.07-2.46,11.121,11.121,0,0,1,21.689,0,2.075,2.075,0,0,1-2.071,2.46Z" transform="translate(0.558)"/><path d="M519.563,317.132a2.105,2.105,0,0,1,2.1,2.5,11.121,11.121,0,0,1-21.671,0,2.105,2.105,0,0,1,2.1-2.5Z" transform="translate(0.558)"/><path d="M297.239,595.593c-164.2,0-297.8-133.591-297.8-297.8S133.034,0,297.239,0s297.8,133.59,297.8,297.8S461.443,595.593,297.239,595.593Zm0-585.809C138.429,9.784,9.226,138.985,9.226,297.8s129.2,288.013,288.013,288.013S585.251,456.608,585.251,297.8,456.048,9.784,297.239,9.784Z" transform="translate(0.558)"/></svg>