<?xml version="1.0" encoding="UTF-8"?>
<svg xmlns="http://www.w3.org/2000/svg" id="a" viewBox="0 0 475.19 251">
  <defs>
    <style>.b{stroke-width:0px;}</style>
  </defs>
  <path class="b" d="m289.272,221.311c-2.813.387-6.105.142-9.88-.735-3.775-.878-8.807-2.318-15.099-4.314-8.828-2.726-16.302-4.725-22.423-5.995-6.122-1.27-12.098-1.502-17.935-.699-7.662,1.055-13.928,2.9-18.794,5.542-4.865,2.64-8.294,5.708-10.283,9.205-1.989,3.499-2.737,7.04-2.244,10.624.445,3.234,1.798,6.163,4.057,8.791,2.261,2.624,5.237,4.597,8.927,5.916,3.693,1.319,7.753,1.672,12.183,1.062,5.625-.774,9.622-2.56,11.994-5.358,2.374-2.798,3.332-5.849,2.877-9.153-.32-2.322-1.338-4.259-3.056-5.812-1.718-1.555-3.597-2.191-5.636-1.911-1.124.155-1.961.593-2.506,1.312-.545.719-.756,1.535-.63,2.45.135.984.633,1.722,1.488,2.214.857.489,2.162.615,3.918.373,1.409-.194,2.53-.098,3.373.288.84.386,1.304.896,1.391,1.528.097.703-.325,1.406-1.268,2.109-.939.703-2.324,1.18-4.154,1.432-3.374.465-6.166-.424-8.371-2.662-2.206-2.24-3.554-5.117-4.038-8.631-.542-3.938.149-7.506,2.072-10.708,1.925-3.202,4.96-5.089,9.107-5.66,2.882-.397,5.783.118,8.701,1.544,2.92,1.423,6.643,3.759,11.174,7.003,4.039,2.81,7.542,5.086,10.504,6.829,2.961,1.74,6.283,3.11,9.966,4.106,3.684.999,7.565,1.216,11.643.655,6.765-.931,13.401-4.084,19.906-9.457l4.755-5.047-1.168-2.163c-2.325,2.899-5.84,4.673-10.55,5.322Z"></path>
  <path class="b" d="m191.138,126.369c.303-2.085,1.115-3.862,2.433-5.33,1.318-1.463,2.954-2.517,4.91-3.156,1.955-.635,3.996-.8,6.123-.491,1.642.238,3.584.736,5.181,1.585,5.183,2.613,13.411,10.145,13.411,10.145,1.374,1.384,2.683,2.171,3.928,2.352.8.116,1.472-.064,2.01-.537.541-.473.889-1.252,1.046-2.336.222-1.525-.106-2.802-.978-3.828-.877-1.026-1.874-1.625-2.997-1.788-.48-.07-.897-.028-1.246.129-.351.153-.55.41-.602.771-.14.964.752,1.584,2.677,1.864.36.052.645.204.855.459.208.255.289.544.242.865-.047.324-.218.585-.515.787-.295.202-.705.266-1.225.19-1.002-.146-1.763-.616-2.282-1.406-.521-.791-.713-1.648-.578-2.572.18-1.24.888-2.245,2.124-3.005,1.237-.764,2.918-.99,5.045-.681,2.134.31,3.936.927,5.413,1.851.454-.085.917-.195,1.398-.35.596-.193,1.377-.475,2.342-.849,1.223-.48,2.3-.871,3.231-1.17.932-.3,1.919-.529,2.963-.687,1.8-.272,3.368-.192,4.707.242,1.338.434,2.383,1.11,3.136,2.031.753.919,1.216,1.958,1.391,3.112.168,1.112.062,2.201-.322,3.27-.384,1.07-1.04,1.986-1.969,2.752-.929.767-2.072,1.252-3.426,1.457-1.089.165-2.261.051-3.303-.139-3.523-.643-4.179-3.807-4.179-3.807-.41-2.71.151-4.181,1.684-4.413.488-.074.889-.016,1.202.176.314.191.496.453.546.786s-.045.637-.289.913c-.241.275-.607.45-1.096.524-.511.077-.891.232-1.141.463-.248.231-.352.491-.308.78.108.711.482,1.228,1.121,1.551.641.324,1.36.425,2.159.304,1.312-.199,2.271-.758,2.882-1.68.611-.921.833-1.926.668-3.015-.168-1.11-.69-2.014-1.569-2.711-.878-.696-1.983-.944-3.316-.742-1.266.192-2.493.906-3.679,2.142-.571.594-1.094,1.358-1.572,2.284.146.249.283.501.399.762.631,1.419.844,2.856.634,4.296-.285,1.965-1.231,3.539-2.834,4.716-1.606,1.18-3.631,1.593-6.075,1.238-1.564-.227-3.023-.746-4.38-1.56-1.355-.81-2.563-1.733-3.621-2.765-1.057-1.036-2.381-2.425-3.971-4.168-2.189-2.41-4.05-4.237-5.59-5.482-1.539-1.245-3.271-2.011-5.195-2.291-1.925-.28-3.496.035-4.711.946-1.218.906-1.933,2.101-2.149,3.585-.204,1.404.11,2.688.944,3.855.834,1.163,2.114,1.872,3.839,2.122,1.12.163,2.088.058,2.902-.318.81-.373,1.278-.979,1.401-1.823.204-1.4-.517-2.224-2.161-2.463-.962-.14-1.64-.41-2.031-.814-.392-.408-.55-.868-.474-1.393.07-.48.346-.902.829-1.261.481-.359,1.064-.491,1.746-.392,1.362.198,2.379.95,3.049,2.257.671,1.303.882,2.8.638,4.485-.297,2.045-1.085,3.728-2.361,5.058-1.28,1.33-2.825,2.253-4.641,2.766-1.815.513-3.663.637-5.548.363-1.805-.262-3.428-.858-4.869-1.782-1.442-.929-2.542-2.163-3.3-3.707-.759-1.54-.993-3.315-.702-5.319Z"></path>
  <circle class="b" cx="177.705" cy="218.274" r="5.938"></circle>
  <circle class="b" cx="436.097" cy="57.25" r="5.938"></circle>
  <circle class="b" cx="37.087" cy="144.363" r="5.938"></circle>
  <circle class="b" cx="81.766" cy="106.073" r="3.736"></circle>
  <circle class="b" cx="366.309" cy="128.543" r="3.736"></circle>
  <circle class="b" cx="439.833" cy="102.801" r="3.736"></circle>
  <circle class="b" cx="307.638" cy="125.131" r="1.868"></circle>
  <circle class="b" cx="418.253" cy="128.543" r="1.868"></circle>
  <path class="b" d="m87.693,215.423c-5.405-1.901-9.728-4.752-12.971-8.554-3.242-3.802-4.863-8.459-4.863-13.977,0-5.144,1.565-9.578,4.696-13.306,3.131-3.727,7.173-6.559,12.132-8.498,4.956-1.938,10.081-2.907,15.375-2.907,6.709,0,12.393,1.548,17.052,4.64,4.658,3.094,6.988,7.511,6.988,13.25,0,4.324-1.436,8.014-4.305,11.07-2.87,3.058-6.84,4.584-11.908,4.584-4.399,0-7.679-.987-9.84-2.963-2.163-1.974-3.243-4.229-3.243-6.765,0-1.789.465-3.26,1.397-4.417.932-1.155,2.143-1.733,3.635-1.733.819,0,1.509.243,2.068.727.559.486.839,1.026.839,1.622.148.746-.075,1.361-.671,1.845-.598.486-1.529.727-2.796.727-.97,0-1.771.187-2.404.559-.634.374-.95.783-.95,1.23.148.598.596,1.101,1.342,1.509.744.411,1.789.615,3.131.615,2.46,0,4.361-1.062,5.703-3.187s2.013-4.713,2.013-7.771c0-3.802-.615-6.67-1.846-8.61-1.229-1.938-2.814-2.907-4.752-2.907-1.864,0-3.729.858-5.591,2.572-1.864,1.716-3.41,4.101-4.641,7.156-1.229,3.058-1.845,6.561-1.845,10.511,0,4.696.932,8.685,2.796,11.964,1.862,3.279,4.305,5.739,7.323,7.38,3.02,1.639,6.318,2.46,9.896,2.46,4.025,0,7.883-1.137,11.572-3.41,3.69-2.275,6.69-5.554,9.002-9.84,2.31-4.286,3.466-9.336,3.466-15.151,0-5.888-1.342-10.752-4.025-14.592-2.684-3.838-6.149-6.634-10.398-8.386-4.249-1.75-8.761-2.627-13.53-2.627-4.473,0-8.536.709-12.188,2.125.372-2.013.688-4.658.95-7.939.26-3.279.392-6,.392-8.163,0-5.292-.877-9.522-2.628-12.691-1.753-3.167-4.269-4.752-7.548-4.752-2.236,0-4.455.559-6.653,1.677-2.199,1.118-4.008,2.722-5.423,4.808-1.417,2.087-2.124,4.473-2.124,7.156s.838,4.958,2.516,6.821c1.677,1.864,3.857,2.795,6.541,2.795,2.086,0,3.819-.447,5.199-1.342,1.379-.895,2.069-2.125,2.069-3.69,0-2.608-1.529-3.914-4.585-3.914-1.789,0-3.094-.316-3.913-.951-.821-.632-1.23-1.435-1.23-2.404s.392-1.826,1.174-2.572c.783-.745,1.807-1.118,3.075-1.118,2.533,0,4.585,1.101,6.15,3.298,1.565,2.2,2.348,4.864,2.348,7.995,0,4.025-.914,7.455-2.739,10.287-1.828,2.833-4.193,4.976-7.101,6.429s-5.965,2.181-9.169,2.181c-3.131,0-5.965-.708-8.498-2.125-2.535-1.416-4.511-3.335-5.926-5.759-1.417-2.421-2.125-5.049-2.125-7.883,0-4.696,1.993-9.206,5.982-13.53,3.986-4.323,10.38-7.92,19.177-10.791,8.795-2.869,20.015-4.305,33.656-4.305,7.38,0,13.418.802,18.114,2.404,4.696,1.604,8.088,3.709,10.176,6.318,2.086,2.61,3.131,5.405,3.131,8.386,0,3.131-1.045,6.057-3.131,8.777-2.088,2.722-4.959,4.679-8.61,5.871,6.857,1.641,12.094,4.752,15.711,9.336,3.614,4.584,5.423,9.896,5.423,15.934,0,6.337-1.977,12.542-5.927,18.617-3.952,6.075-9.71,11.051-17.275,14.928-7.566,3.875-16.568,5.814-27.004,5.814-6.485,0-12.431-.95-17.835-2.851Zm33.21-62.618c2.348-1.454,4.118-3.391,5.312-5.814,1.191-2.421,1.789-4.976,1.789-7.659,0-3.727-.989-7.025-2.964-9.896-1.976-2.869-4.79-4.305-8.441-4.305-.821,0-1.454.038-1.901.112-.299,3.802-.634,7.566-1.006,11.293-.671,7.53-1.045,13.605-1.118,18.226,3.204.15,5.981-.503,8.33-1.957Z"></path>
  <path class="b" d="m222.152,142.015c-1.118,10.063-1.677,20.165-1.677,30.302,0,10.063.559,20.202,1.677,30.414h-22.922c.447-4.099.782-8.051,1.006-11.853-2.312,4.249-5.255,7.511-8.833,9.784-3.578,2.273-7.269,3.411-11.07,3.411-5.666,0-10.194-1.658-13.586-4.976-3.393-3.316-5.087-9.225-5.087-17.723,0-7.677-.28-15.336-.839-22.979-.56-7.64-1.286-13.1-2.181-16.381-8.646-2.609-15.039-5.665-19.177-9.169-4.137-3.503-6.206-7.827-6.206-12.971s2.312-9.113,6.933-11.908c4.623-2.795,10.214-4.193,16.773-4.193,4.621,0,9.001.69,13.138,2.069,4.138,1.38,7.51,3.41,10.12,6.094,2.608,2.684,3.913,5.89,3.913,9.617,0,2.46-.746,4.604-2.236,6.429-1.492,1.828-3.393,3.225-5.702,4.193-2.312.969-4.696,1.454-7.156,1.454-3.802,0-6.617-.82-8.442-2.46-1.828-1.639-2.739-3.578-2.739-5.814,0-1.565.483-2.944,1.453-4.138.968-1.191,2.161-1.789,3.578-1.789.819,0,1.435.224,1.845.671.409.447.615.97.615,1.565,0,1.492-1.118,2.237-3.354,2.237-.97,0-1.716.15-2.236.447-.522.298-.782.671-.782,1.118,0,.522.335.969,1.006,1.342.671.374,1.639.559,2.907.559,2.161,0,3.875-.783,5.144-2.348,1.267-1.565,1.901-3.428,1.901-5.591,0-4.099-.989-7.268-2.964-9.504-1.976-2.236-4.343-3.354-7.1-3.354-1.864,0-3.673.542-5.424,1.622-1.75,1.082-3.167,2.666-4.249,4.752-1.079,2.088-1.621,4.548-1.621,7.38,0,3.653,1.156,7.12,3.466,10.399,2.312,3.281,6,5.982,11.07,8.106,5.068,2.125,11.479,3.187,19.232,3.187-.97,11.332-1.453,20.389-1.453,27.171,0,7.902.838,14.368,2.516,19.4,1.677,5.032,3.857,7.548,6.541,7.548,1.267,0,2.646-.688,4.138-2.069,1.49-1.378,2.832-3.316,4.025-5.814,1.191-2.497,2.086-5.311,2.684-8.442.073-1.639.111-4.137.111-7.492,0-10.137-.559-20.239-1.677-30.302h22.922Z"></path>
  <path class="b" d="m279.29,144.587c2.684,2.386,4.025,5.554,4.025,9.504,0,4.473-1.51,7.902-4.529,10.287-3.019,2.386-6.541,3.578-10.566,3.578-3.802,0-6.616-.819-8.442-2.46-1.827-1.639-2.739-3.578-2.739-5.814,0-1.565.484-2.944,1.454-4.137.968-1.192,2.161-1.789,3.578-1.789.819,0,1.434.224,1.845.671.409.447.615.97.615,1.565,0,1.492-1.118,2.236-3.354,2.236-.97,0-1.716.15-2.236.447-.522.299-.783.671-.783,1.118,0,.746.316,1.342.95,1.789.633.447,1.435.671,2.404.671,1.789,0,3.372-.708,4.752-2.125,1.379-1.416,2.069-3.54,2.069-6.374,0-1.639-.542-2.963-1.622-3.97-1.081-1.006-2.403-1.509-3.969-1.509-2.163,0-4.306.914-6.43,2.739-2.125,1.828-3.933,4.752-5.423,8.778-1.492,4.025-2.312,9.132-2.46,15.319.073,9.096.632,18.301,1.677,27.619h-22.922c1.118-10.137,1.677-20.275,1.677-30.414s-.559-20.239-1.677-30.302h22.922c-.299,3.057-.671,7.268-1.118,12.635,2.385-4.473,5.423-7.864,9.113-10.175,3.689-2.31,7.436-3.466,11.237-3.466,3.95,0,7.269,1.193,9.952,3.578Z"></path>
  <path class="b" d="m314.231,221.461c-2.646-2.499-3.969-5.462-3.969-8.89,0-2.684.727-5.014,2.18-6.988,1.454-1.976,3.316-3.467,5.591-4.473,2.273-1.006,4.603-1.509,6.989-1.509,2.98,0,5.516.765,7.604,2.292,2.086,1.527,3.131,3.708,3.131,6.542,0,1.565-.486,2.944-1.454,4.137-.97,1.191-2.163,1.789-3.578,1.789-.821,0-1.436-.224-1.845-.671-.411-.447-.615-.97-.615-1.565,0-1.492,1.118-2.236,3.354-2.236.968,0,1.714-.15,2.236-.447.521-.299.783-.671.783-1.118,0-.821-.374-1.473-1.118-1.957-.746-.486-1.641-.727-2.684-.727-1.864,0-3.522.652-4.977,1.957-1.453,1.303-2.18,3.187-2.18,5.646,0,2.533.688,4.473,2.068,5.814,1.378,1.342,3.075,2.013,5.088,2.013,2.608,0,4.92-.783,6.933-2.348s3.578-3.597,4.696-6.094c1.118-2.499,1.677-5.051,1.677-7.66,0-3.503-1.025-6.466-3.075-8.89-2.051-2.421-5.051-3.634-9.001-3.634-3.131,0-6.113.653-8.945,1.957-2.834,1.305-6.448,3.299-10.846,5.982-3.281,2.088-5.89,3.615-7.827,4.584-1.939.968-3.802,1.454-5.591,1.454-3.354,0-5.982-.877-7.884-2.627-1.9-1.751-2.851-3.931-2.851-6.542,0-3.279,1.471-6.447,4.416-9.504,2.944-3.056,7.138-5.144,12.58-6.262-6.337-1.415-11.165-3.97-14.48-7.66-3.318-3.69-4.976-8.106-4.976-13.25,0-4.174,1.415-7.771,4.249-10.791,2.832-3.019,6.559-5.273,11.182-6.765,4.621-1.491,9.577-2.273,14.871-2.348.521-5.292,1.845-9.709,3.97-13.25,2.124-3.54,4.696-6.15,7.715-7.827,3.02-1.677,6.168-2.516,9.449-2.516,3.875,0,7.192,1.118,9.951,3.355,2.757,2.236,4.138,5.182,4.138,8.833,0,3.131-1.175,5.889-3.522,8.274-2.349,2.386-5.498,3.578-9.448,3.578-2.46,0-4.567-.671-6.318-2.013-1.752-1.342-2.627-3.168-2.627-5.479,0-.671.148-1.192.447-1.565.297-.373.632-.559,1.006-.559.297,0,.577.167.839.503.26.335.392.802.392,1.398,0,1.342.315,2.386.95,3.131.633.746,1.397,1.118,2.292,1.118.968,0,1.807-.428,2.516-1.286.708-.856,1.062-2.03,1.062-3.522,0-1.863-.782-3.354-2.348-4.473s-3.43-1.677-5.591-1.677c-3.131,0-5.854,1.174-8.163,3.522-2.312,2.348-3.466,5.871-3.466,10.567,5.144.298,9.876,1.249,14.2,2.851,4.322,1.604,7.808,3.896,10.455,6.877,2.646,2.982,3.97,6.523,3.97,10.623,0,4.623-1.473,8.554-4.417,11.796-2.945,3.243-6.784,5.686-11.518,7.324-4.734,1.641-9.822,2.46-15.263,2.46-10.214,0-15.318,1.118-15.318,3.354,0,1.193,2.684,1.789,8.051,1.789,1.639,0,4.696-.073,9.169-.224,3.802-.224,7.64-.335,11.517-.335,4.546,0,8.423.802,11.629,2.404,3.204,1.604,5.608,3.729,7.212,6.374,1.603,2.647,2.404,5.499,2.404,8.554,0,3.503-1.006,6.821-3.019,9.952s-4.977,5.684-8.89,7.66c-3.914,1.974-8.629,2.963-14.145,2.963-4.696,0-8.369-1.249-11.015-3.746Zm10.511-46.852c2.198-3.092,3.299-7.472,3.299-13.138,0-5.739-1.193-10.081-3.578-13.027-2.387-2.944-5.255-4.417-8.609-4.417-3.131,0-5.798,1.324-7.995,3.969-2.2,2.647-3.299,6.653-3.299,12.021,0,4.025.596,7.492,1.789,10.399,1.191,2.907,2.721,5.107,4.585,6.597,1.862,1.492,3.838,2.236,5.926,2.236,3.056,0,5.684-1.546,7.883-4.641Z"></path>
  <path class="b" d="m366.059,201.054c-4.92-2.236-8.929-5.739-12.021-10.511-3.095-4.77-4.641-10.771-4.641-18.002,0-6.857,1.658-12.672,4.976-17.443,3.316-4.77,7.641-8.311,12.971-10.623,5.329-2.31,10.939-3.466,16.829-3.466,5.217,0,10.081.877,14.592,2.627,4.509,1.752,8.124,4.343,10.846,7.771,2.721,3.43,4.082,7.455,4.082,12.076h-41.596c-.447,2.46-.671,5.07-.671,7.827,0,6.262.819,11.592,2.46,15.99,1.639,4.399,3.727,7.679,6.262,9.84,2.533,2.163,5.144,3.243,7.827,3.243,2.907,0,5.328-1.211,7.268-3.634,1.938-2.421,2.907-5.795,2.907-10.119,0-2.907-.598-5.367-1.789-7.38-1.193-2.013-2.945-3.019-5.255-3.019-1.269,0-2.236.187-2.907.559-.671.374-1.007.821-1.007,1.342,0,.447.261.821.783,1.118.521.299,1.267.447,2.236.447,2.236,0,3.354.746,3.354,2.236,0,.598-.206,1.118-.615,1.565-.411.447-1.025.671-1.845.671-1.417,0-2.61-.596-3.578-1.789-.97-1.191-1.454-2.572-1.454-4.137,0-3.056,1.08-5.423,3.243-7.101,2.161-1.677,4.808-2.516,7.938-2.516,2.533,0,4.976.578,7.324,1.733,2.348,1.157,4.267,2.871,5.759,5.144,1.49,2.275,2.236,5.015,2.236,8.219,0,4.025-1.437,7.604-4.306,10.734-2.87,3.131-6.652,5.573-11.349,7.324-4.696,1.751-9.655,2.628-14.872,2.628-5.741,0-11.069-1.118-15.989-3.354Zm27.395-42.378c0-4.249-.933-7.696-2.795-10.343-1.864-2.645-4.101-3.969-6.709-3.969-2.982,0-5.424,1.397-7.324,4.193-1.901,2.795-3.262,6.542-4.081,11.238l20.909-1.118Z"></path>
  <path class="b" d="m416.264,202.731c1.118-10.137,1.677-20.275,1.677-30.414s-.559-20.239-1.677-30.302c3.578,0,6.726-.745,9.448-2.236,2.72-1.491,5.013-3.316,6.877-5.479,1.862-2.162,4.025-5.032,6.485-8.61,2.533-3.579,4.696-6.391,6.485-8.442,1.789-2.049,3.986-3.802,6.597-5.255,2.608-1.454,5.628-2.181,9.058-2.181,3.95,0,7.268,1.193,9.951,3.578,2.684,2.387,4.025,5.554,4.025,9.505,0,4.473-1.51,7.902-4.528,10.287-3.02,2.386-6.541,3.578-10.566,3.578-3.802,0-6.617-.82-8.442-2.46-1.827-1.639-2.739-3.578-2.739-5.814,0-1.565.483-2.944,1.453-4.137.968-1.192,2.161-1.79,3.578-1.79.819,0,1.435.224,1.845.671.409.447.615.969.615,1.565,0,1.492-1.118,2.236-3.354,2.236-.97,0-1.716.15-2.236.447-.522.298-.782.671-.782,1.118,0,.746.315,1.342.95,1.789.633.447,1.435.671,2.404.671,1.789,0,3.372-.708,4.752-2.125,1.378-1.416,2.068-3.54,2.068-6.374,0-1.565-.578-2.944-1.733-4.137-1.156-1.191-2.591-1.789-4.305-1.789-2.61,0-5.237,1.622-7.883,4.864-2.647,3.243-4.864,8.778-6.653,16.605s-2.684,18.114-2.684,30.861c0,10.511.744,21.768,2.236,33.769h-22.922Z"></path>
  <path class="b" d="m285.746,43.805c2.066.942,4.303,1.408,6.718,1.408,2.521,0,4.922-.508,7.202-1.525,2.281-1.022,4.13-2.521,5.551-4.507,1.421-1.986,2.133-4.347,2.133-7.082,0-2.253-.565-4.17-1.691-5.754-1.127-1.579-2.601-2.371-4.424-2.371-.966,0-1.715.268-2.253.803-.536.541-.806,1.156-.806,1.852s.297,1.274.886,1.729c.591.455,1.528.685,2.815.685,2.2,0,3.3.937,3.3,2.816,0,1.124-.495,2.012-1.488,2.655-.993.642-2.24.964-3.742.964-2.307,0-4.116-.75-5.43-2.248-1.314-1.504-1.973-3.276-1.973-5.31,0-2.093.49-4.089,1.892-5.637,2.54-2.803,8.647-3.859,8.647-3.859-1.983-.268-4.049-.402-6.196-.402-3.377,0-6.447.643-9.212,1.927-2.762,1.29-4.933,3.062-6.517,5.31-1.582,2.253-2.374,4.747-2.374,7.483,0,2.687.645,4.962,1.932,6.841,1.287,1.879,2.965,3.287,5.029,4.224Z"></path>
  <path class="b" d="m14.815,128.478c-4.884-2.535-8.573-5.814-11.07-9.84-2.498-4.025-3.745-8.274-3.745-12.747,0-4.025,1.043-7.771,3.131-11.238,2.086-3.466,5.217-6.262,9.393-8.386,4.174-2.125,9.242-3.187,15.207-3.187,4.322,0,8.051.97,11.182,2.907,3.131,1.939,4.696,4.771,4.696,8.498,0,2.982-.951,5.311-2.852,6.988-1.901,1.677-4.12,2.516-6.653,2.516-2.312,0-4.324-.708-6.038-2.125-1.716-1.415-2.571-3.354-2.571-5.814,0-1.191.297-2.181.895-2.963.596-.783,1.378-1.174,2.348-1.174.521,0,.932.15,1.23.447.297.299.483.671.559,1.118,0,1.045-.709,1.565-2.124,1.565-.671,0-1.193.094-1.565.279-.374.187-.56.43-.56.727,0,.299.241.598.727.895.484.299,1.175.447,2.069.447,1.565,0,2.757-.54,3.578-1.622.819-1.08,1.229-2.44,1.229-4.081,0-1.938-.559-3.466-1.677-4.584s-2.424-1.677-3.914-1.677c-2.312,0-4.081,1.361-5.312,4.081-1.229,2.722-1.845,6.206-1.845,10.455,0,4.324.596,8.648,1.789,12.971,1.191,4.322,2.925,7.92,5.199,10.791,2.273,2.869,4.938,4.305,7.995,4.305,4.993,0,8.739-2.795,11.237-8.386,2.497-5.591,3.746-12.784,3.746-21.581,0-6.634-.709-13.436-2.124-20.407-1.417-6.969-3.354-13.212-5.814-18.729-7.083,0-13.027-1.174-17.835-3.522-4.809-2.348-8.369-5.479-10.679-9.393-2.312-3.914-3.466-8.255-3.466-13.026,0-3.875.8-7.492,2.403-10.847,1.603-3.354,3.97-6.038,7.101-8.051s6.857-3.019,11.182-3.019c3.503,0,6.839.709,10.008,2.125,3.167,1.417,5.739,3.505,7.715,6.262,1.975,2.759,2.964,6.038,2.964,9.84,0,3.131-.783,5.797-2.349,7.995-1.565,2.2-3.616,3.299-6.149,3.299-1.269,0-2.293-.392-3.075-1.174-.783-.783-1.174-1.621-1.174-2.516,0-.968.408-1.77,1.229-2.404.819-.632,2.125-.95,3.914-.95,3.056,0,4.584-1.304,4.584-3.914,0-1.789-.746-3.223-2.236-4.305-1.492-1.08-3.317-1.622-5.479-1.622-3.131,0-5.814.839-8.051,2.516s-3.914,3.84-5.032,6.485c-1.118,2.647-1.677,5.423-1.677,8.331,0,3.952,1.023,7.324,3.074,10.119,2.05,2.795,4.938,4.193,8.666,4.193,4.322,0,9.337-1.807,15.039-5.423,5.703-3.615,11.462-8.814,17.276-15.598,4.397-5.144,8.498-9.354,12.3-12.636,3.802-3.279,7.995-5.832,12.579-7.659,4.585-1.826,9.82-2.74,15.71-2.74,5.739,0,10.492.821,14.257,2.46,3.764,1.641,6.522,3.785,8.274,6.43,1.751,2.647,2.628,5.498,2.628,8.554,0,2.759-.783,5.368-2.349,7.828s-3.802,4.436-6.709,5.926c-2.907,1.492-6.225,2.236-9.951,2.236-4.771,0-8.313-1.024-10.623-3.075-2.312-2.049-3.466-4.454-3.466-7.212,0-1.938.632-3.671,1.9-5.2,1.267-1.527,2.757-2.292,4.473-2.292.968,0,1.714.28,2.236.839.521.559.783,1.212.783,1.957,0,1.864-1.381,2.796-4.138,2.796-1.193,0-2.124.206-2.795.615-.671.411-1.007.877-1.007,1.398,0,.597.429,1.137,1.286,1.621.856.486,2.068.727,3.634.727,1.789,0,3.635-.912,5.535-2.74,1.901-1.826,3.484-4.043,4.752-6.653,1.267-2.608,1.901-4.993,1.901-7.156,0-1.714-.447-3.075-1.342-4.081s-2.312-1.51-4.249-1.51c-2.088,0-4.492,1.101-7.212,3.299-2.723,2.2-6.469,5.685-11.238,10.455-4.995,4.92-9.3,8.946-12.914,12.077-3.617,3.131-7.587,5.833-11.909,8.106-4.324,2.275-8.609,3.411-12.858,3.411,3.131,4.623,5.479,10.661,7.044,18.114h3.354c4.099,0,7.827-.503,11.182-1.51s6.335-2.739,8.945-5.199v16.772c-2.61-2.534-5.573-4.286-8.889-5.255-3.318-.968-7.064-1.454-11.238-1.454h-2.795c.596,4.025.895,7.978.895,11.853,0,8.201-1.306,15.841-3.914,22.922-2.61,7.081-6.672,12.84-12.188,17.276-5.518,4.434-12.45,6.653-20.798,6.653-6.709,0-12.507-1.269-17.388-3.802Z"></path>
  <path class="b" d="m109.914,111.146c-4.92-2.236-8.929-5.739-12.021-10.511-3.095-4.77-4.641-10.771-4.641-18.002,0-6.857,1.658-12.672,4.976-17.443,3.316-4.77,7.641-8.311,12.971-10.623,5.329-2.31,10.939-3.466,16.829-3.466,5.217,0,10.081.877,14.592,2.627,4.509,1.752,8.124,4.343,10.846,7.771,2.721,3.43,4.082,7.455,4.082,12.076h-41.596c-.447,2.46-.671,5.07-.671,7.827,0,6.262.819,11.592,2.46,15.99,1.639,4.399,3.727,7.679,6.262,9.84,2.533,2.163,5.144,3.243,7.827,3.243,2.907,0,5.328-1.211,7.268-3.634,1.938-2.421,2.907-5.795,2.907-10.119,0-2.907-.598-5.367-1.789-7.38-1.193-2.013-2.945-3.019-5.255-3.019-1.269,0-2.236.187-2.907.559-.671.374-1.007.821-1.007,1.342,0,.447.261.821.783,1.118.521.299,1.267.447,2.236.447,2.236,0,3.354.746,3.354,2.236,0,.598-.206,1.118-.615,1.565-.411.447-1.025.671-1.845.671-1.417,0-2.61-.596-3.578-1.789-.97-1.191-1.454-2.572-1.454-4.137,0-3.056,1.08-5.423,3.243-7.101,2.161-1.677,4.808-2.516,7.938-2.516,2.533,0,4.976.578,7.324,1.733,2.348,1.157,4.267,2.871,5.759,5.144,1.49,2.275,2.236,5.015,2.236,8.219,0,4.025-1.437,7.604-4.306,10.734-2.87,3.131-6.652,5.573-11.349,7.324-4.696,1.751-9.655,2.628-14.872,2.628-5.741,0-11.069-1.118-15.989-3.354Zm27.395-42.378c0-4.249-.933-7.696-2.795-10.343-1.864-2.645-4.101-3.969-6.709-3.969-2.982,0-5.424,1.397-7.324,4.193-1.901,2.795-3.262,6.542-4.081,11.238l20.909-1.118Z"></path>
  <path class="b" d="m173.593,112.488c-4.213-1.342-7.586-3.372-10.119-6.094-2.535-2.72-3.802-5.982-3.802-9.784,0-2.46.819-4.696,2.46-6.709,1.639-2.013,3.727-3.596,6.262-4.752,2.533-1.155,5.031-1.733,7.491-1.733,3.802,0,6.614.821,8.442,2.46,1.825,1.641,2.739,3.578,2.739,5.814,0,1.565-.485,2.946-1.453,4.137-.97,1.193-2.163,1.789-3.578,1.789-.821,0-1.437-.224-1.846-.671-.41-.447-.614-.968-.614-1.565,0-1.49,1.118-2.236,3.354-2.236.968,0,1.714-.148,2.236-.447.521-.297.782-.671.782-1.118,0-.521-.335-.968-1.006-1.342-.671-.372-1.641-.559-2.907-.559-3.952,0-5.927,2.2-5.927,6.597,0,2.759.708,5.331,2.125,7.715,1.415,2.387,3.298,4.288,5.646,5.703,2.348,1.417,4.825,2.125,7.436,2.125,2.98,0,5.46-.632,7.436-1.901,1.975-1.267,2.964-3.131,2.964-5.591,0-3.354-.951-6.522-2.852-9.504-1.901-2.98-4.231-5.703-6.988-8.163-2.759-2.46-6.374-5.404-10.847-8.833-4.324-3.279-7.715-6.019-10.175-8.219-2.46-2.198-4.529-4.584-6.206-7.156-1.678-2.572-2.516-5.273-2.516-8.106,0-3.802,1.342-7.473,4.025-11.014,2.684-3.54,6.335-6.41,10.958-8.61,4.621-2.198,9.652-3.298,15.095-3.298,3.354,0,6.522.298,9.505.895-2.312-3.205-3.467-6.933-3.467-11.182s1.08-7.976,3.243-11.182c2.161-3.204,5.049-5.664,8.665-7.38,3.615-1.714,7.473-2.572,11.573-2.572,4.92,0,9.598,1.286,14.033,3.858,4.435,2.572,8.031,6.58,10.79,12.02,2.757,5.442,4.138,12.227,4.138,20.351,0,4.249-.374,9.542-1.118,15.878l4.808.112c5.144.075,9.449.838,12.915,2.292,3.467,1.454,6,3.281,7.604,5.479,1.603,2.2,2.404,4.567,2.404,7.101,0,2.46-.746,4.604-2.236,6.429-1.492,1.828-3.394,3.226-5.703,4.193-2.312.97-4.696,1.454-7.156,1.454-3.802,0-6.616-.819-8.441-2.46-1.828-1.639-2.74-3.578-2.74-5.814,0-1.565.484-2.944,1.454-4.137.968-1.192,2.161-1.789,3.578-1.789.819,0,1.435.224,1.845.671.409.447.615.97.615,1.565,0,1.492-1.118,2.236-3.354,2.236-.97,0-1.716.15-2.236.447-.522.299-.783.671-.783,1.118,0,.522.336.97,1.007,1.342.671.374,1.639.559,2.907.559,2.161,0,3.875-.783,5.144-2.348,1.267-1.565,1.9-3.428,1.9-5.591,0-2.981-1.118-5.273-3.354-6.877-2.236-1.602-4.511-2.44-6.82-2.516l-3.467-.112c-.374,4.995-.559,10.958-.559,17.891,0,8.425.671,15.246,2.013,20.462,1.342,5.219,3.036,8.928,5.088,11.125,2.049,2.2,4.266,3.299,6.652,3.299s4.473-.895,6.262-2.684,2.684-3.763,2.684-5.926-.709-3.95-2.124-5.367c-1.417-1.415-3.505-2.125-6.262-2.125-1.193,0-2.125.187-2.796.559-.671.374-1.006.821-1.006,1.342,0,.447.26.838.782,1.174.521.335,1.267.503,2.236.503,2.086,0,3.131.671,3.131,2.013,0,1.492-.782,2.236-2.348,2.236-1.342,0-2.499-.577-3.467-1.733-.97-1.155-1.453-2.477-1.453-3.969,0-2.832,1.099-5.105,3.299-6.821,2.197-1.714,4.788-2.572,7.771-2.572,3.279,0,5.814.914,7.604,2.739,1.789,1.828,2.684,4.157,2.684,6.989,0,2.684-.82,5.406-2.46,8.163-1.641,2.759-4.063,5.163-7.268,7.212-3.206,2.051-7.045,3.372-11.518,3.97-2.013.372-3.877.559-5.591.559-4.548,0-8.872-.989-12.971-2.963-4.101-1.974-7.398-4.9-9.896-8.777-2.498-3.875-3.746-8.459-3.746-13.753,0-11.106-.43-19.25-1.286-24.432-.857-5.18-2.403-9.336-4.64-12.467,5.44-.297,10.063-1.677,13.865-4.137s6.634-5.516,8.498-9.169c1.862-3.652,2.795-7.417,2.795-11.294,0-5.217-.913-9.597-2.739-13.138-1.827-3.54-4.176-6.15-7.045-7.827-2.87-1.677-5.87-2.516-9.001-2.516-3.729,0-6.896,1.101-9.504,3.299-2.61,2.2-3.914,5.126-3.914,8.777,0,3.952,1.304,6.916,3.914,8.89,2.608,1.976,5.702,2.963,9.28,2.963,2.757,0,5.125-.559,7.101-1.677,1.975-1.118,2.963-2.533,2.963-4.249,0-1.415-.43-2.552-1.286-3.41-.857-.856-2.068-1.286-3.634-1.286-1.789,0-3.094-.316-3.913-.95-.821-.632-1.23-1.435-1.23-2.404s.392-1.826,1.174-2.572c.783-.744,1.807-1.118,3.075-1.118,2.533,0,4.585,1.101,6.15,3.299,1.565,2.2,2.348,4.864,2.348,7.995,0,5.741-1.883,10.343-5.646,13.81-3.765,3.466-8.741,5.2-14.928,5.2,1.267,1.864,1.901,3.988,1.901,6.374,0,2.46-.746,4.604-2.236,6.429-1.492,1.828-3.394,3.225-5.703,4.193-2.312.97-4.696,1.454-7.156,1.454-2.61,0-4.939-.409-6.988-1.23-2.051-.819-3.634-1.863-4.752-3.131-1.118-1.267-1.678-2.572-1.678-3.914,0-1.565.484-2.944,1.454-4.137.968-1.192,2.161-1.789,3.578-1.789.819,0,1.434.224,1.845.671.409.447.615.969.615,1.565,0,1.492-1.118,2.236-3.354,2.236-.97,0-1.716.15-2.236.447-.522.298-.783.671-.783,1.118,0,.522.336.969,1.007,1.342.671.374,1.639.559,2.907.559,2.161,0,3.875-.783,5.144-2.348,1.267-1.565,1.9-3.428,1.9-5.591,0-3.428-1.193-6.038-3.578-7.827-2.387-1.789-5.255-2.684-8.609-2.684-3.058,0-5.759.746-8.107,2.236-2.348,1.492-3.521,3.429-3.521,5.814s.855,4.791,2.571,7.212c1.714,2.423,3.857,4.752,6.43,6.989,2.571,2.236,6.019,5.032,10.343,8.386,4.77,3.802,8.571,6.952,11.405,9.448,2.832,2.499,5.236,5.2,7.212,8.107,1.975,2.907,2.964,5.853,2.964,8.833,0,4.847-1.641,9.021-4.92,12.523-3.281,3.505-7.512,6.15-12.691,7.939-5.182,1.789-10.605,2.684-16.27,2.684-4.92,0-9.487-.671-13.697-2.013Z"></path>
  <path class="b" d="m331.198,112.823c-5.144-20.574-12.375-40.813-21.692-60.716h22.923c1.639,7.902,3.503,15.059,5.591,21.469,2.086,6.412,4.92,13.121,8.498,20.127l3.242-9.393c1.342-3.802,2.59-8.144,3.746-13.027,1.154-4.881,1.733-9.149,1.733-12.803,0-2.757-.374-4.882-1.118-6.374h12.188c-9.021,19.903-15.916,40.142-20.686,60.716h-14.425Z"></path>
  <path class="b" d="m417.018,82.018c2.869,1.454,5.199,3.709,6.988,6.765,1.789,3.058,2.684,6.821,2.684,11.293,0,4.025-1.212,7.939-3.634,11.741-2.423,3.802-5.945,6.914-10.566,9.337-4.623,2.421-9.99,3.634-16.102,3.634-7.754,0-14.407-1.808-19.96-5.423-5.554-3.617-9.747-8.331-12.579-14.145-2.834-5.814-4.249-11.964-4.249-18.45,0-6.262,1.342-12.094,4.025-17.5,2.684-5.404,6.689-9.784,12.021-13.138,5.328-3.354,11.797-5.032,19.4-5.032,5.217,0,10.081.877,14.592,2.627,4.509,1.752,8.124,4.343,10.846,7.771,2.721,3.43,4.082,7.455,4.082,12.076h-42.49l.335-3.019c-.522,3.057-.782,6.561-.782,10.511,0,8.722.931,16.177,2.795,22.363,1.862,6.188,4.229,10.827,7.101,13.921,2.869,3.092,5.759,4.64,8.666,4.64,3.354,0,5.943-1.436,7.771-4.305,1.826-2.871,2.74-6.318,2.74-10.343,0-4.621-1.193-8.666-3.578-12.132-2.387-3.466-5.703-5.199-9.952-5.199-1.417,0-2.554.299-3.41.895-.858.598-1.286,1.417-1.286,2.46,0,.447.261.821.783,1.118.521.299,1.267.447,2.236.447,2.236,0,3.354.746,3.354,2.236,0,.598-.206,1.118-.615,1.565-.411.447-1.025.671-1.845.671-1.417,0-2.61-.596-3.578-1.789-.97-1.191-1.454-2.572-1.454-4.137,0-4.099,1.639-7.397,4.92-9.896,3.279-2.497,7.118-3.746,11.518-3.746,3.279,0,6.354.727,9.225,2.18Zm-30.079-23.705c-2.051,2.871-3.521,6.729-4.416,11.573l21.804-1.118c0-2.832-.447-5.385-1.342-7.66-.895-2.273-2.068-4.025-3.522-5.255-1.453-1.23-3.001-1.845-4.64-1.845-3.206,0-5.834,1.436-7.884,4.305Z"></path>
  <path class="b" d="m277.067,139.324c-5.068,0-9.001-1.286-11.796-3.857-2.796-2.572-4.193-5.722-4.193-9.449,0-2.907.857-5.685,2.571-8.33,1.716-2.647,4.249-4.808,7.604-6.486,3.354-1.677,7.38-2.516,12.076-2.516.746-6.41,1.118-13.379,1.118-20.91,0-7.006-.279-13.846-.838-20.519-.56-6.67-1.136-11.721-1.733-15.151h22.922c-1.118,10.063-1.677,20.165-1.677,30.302s.559,20.277,1.677,30.414c-6.038-1.789-11.218-2.684-15.542-2.684-5.217,0-9.187,1.157-11.908,3.466-2.721,2.31-4.082,5.404-4.082,9.281,0,2.608.989,4.677,2.964,6.206,1.976,1.527,5.014,2.292,9.112,2.292,1.641,0,2.907-.243,3.802-.727.895-.486,1.342-1.062,1.342-1.733,0-.522-.335-.97-1.006-1.342-.671-.374-1.603-.559-2.796-.559-1.342,0-2.328-.243-2.963-.727-.632-.486-.95-1.101-.95-1.845,0-.821.279-1.529.839-2.125.559-.598,1.36-.895,2.403-.895,1.641,0,3.02.652,4.138,1.957,1.118,1.303,1.677,2.924,1.677,4.864,0,2.907-1.21,5.479-3.634,7.715-2.421,2.236-6.131,3.354-11.126,3.354Z"></path>
  <path class="b" d="m58.063,178.714c-.731.086-1.593-.044-2.593-.391-.994-.342-2.602-1-4.813-1.973-2.804-1.276-12.428-4.346-14.357-4.98-1.925-.639-3.77-.852-5.537-.643-2.612.309-4.561,1.59-5.835,3.837-1.278,2.252-1.764,4.653-1.462,7.207.209,1.767.794,3.193,1.755,4.28.962,1.092,2.201,1.546,3.724,1.365,1.155-.137,1.964-.465,2.426-.979.466-.52.657-1.114.578-1.782-.058-.487-.245-.881-.556-1.183s-.685-.427-1.11-.377c-.181.021-.339.118-.474.288-.135.166-.195.314-.181.438.05.425.41.6,1.078.521.244-.029.449-.01.613.063.163.073.248.169.262.293.029.243-.096.457-.384.646s-.641.308-1.071.359c-1.151.136-2.114-.152-2.876-.861-.762-.714-1.204-1.586-1.327-2.622-.094-.793.044-1.472.408-2.038s.911-.892,1.642-.978c.788-.093,1.765.067,2.924.487,1.162.414,2.819,1.114,4.968,2.095,2.676,1.223,12.191,4.263,14.021,4.879,1.83.616,3.507.834,5.025.655,2.865-.339,4.934-1.711,6.223-4.115,1.289-2.404,1.767-5.036,1.429-7.895-.201-1.704-.776-3.041-1.723-4.008-.947-.968-2.179-1.359-3.703-1.179-1.098.13-1.892.456-2.383.974-.495.523-.7,1.119-.621,1.787.058.487.24.882.556,1.183.312.302.68.428,1.11.377.487-.058.7-.301.65-.726-.05-.425-.405-.601-1.078-.521-.243.029-.444.009-.608-.064-.163-.073-.253-.173-.267-.293-.029-.244.1-.462.388-.646.287-.189.641-.308,1.066-.358,1.093-.129,2.014.207,2.758,1.015.744.808,1.181,1.758,1.31,2.852.094.793-.03,1.47-.365,2.033-.331.562-.863.891-1.593.977Z"></path>
  <path class="b" d="m468.478,78.153c-.731.086-1.593-.044-2.593-.391-.994-.342-2.602-1-4.813-1.973-2.804-1.276-12.428-4.346-14.357-4.98-1.925-.639-3.77-.852-5.537-.643-2.612.309-4.561,1.59-5.835,3.837-1.278,2.252-1.764,4.653-1.462,7.207.209,1.767.794,3.193,1.755,4.28.962,1.092,2.201,1.546,3.724,1.365,1.155-.137,1.964-.465,2.426-.979.466-.52.657-1.114.578-1.782-.058-.487-.245-.881-.556-1.183s-.685-.427-1.11-.377c-.181.021-.339.118-.474.288-.135.166-.195.314-.181.438.05.425.41.6,1.078.521.244-.029.449-.01.613.063.163.073.248.169.262.293.029.243-.096.457-.384.646s-.641.308-1.071.359c-1.151.136-2.114-.152-2.876-.861-.762-.714-1.204-1.586-1.327-2.622-.094-.793.044-1.472.408-2.038s.911-.892,1.642-.978c.788-.093,1.765.067,2.924.487,1.162.414,2.819,1.114,4.968,2.095,2.676,1.223,12.191,4.263,14.021,4.879,1.83.616,3.507.834,5.025.655,2.865-.339,4.934-1.711,6.223-4.115,1.289-2.404,1.767-5.036,1.429-7.895-.201-1.704-.776-3.041-1.723-4.008-.947-.968-2.179-1.359-3.703-1.179-1.098.13-1.892.456-2.383.974-.495.523-.7,1.119-.621,1.787.058.487.24.882.556,1.183.312.302.68.428,1.11.377.487-.058.7-.301.65-.726-.05-.425-.405-.601-1.078-.521-.243.029-.444.009-.608-.064-.163-.073-.253-.173-.267-.293-.029-.244.1-.462.388-.646.287-.189.641-.308,1.066-.358,1.093-.129,2.014.207,2.758,1.015.744.808,1.181,1.758,1.31,2.852.094.793-.03,1.47-.365,2.033-.331.562-.863.891-1.593.977Z"></path>
  <path class="b" d="m280.634,187.102c-.611-1.636-1.575-3.106-2.888-4.419-1.371-1.371-2.953-2.4-4.746-3.087-1.796-.684-3.617-.875-5.47-.568-1.853.307-3.524,1.204-5.011,2.691-1.225,1.225-1.96,2.575-2.21,4.049-.246,1.471.125,2.704,1.117,3.696.525.525,1.079.787,1.662.789.585-.003,1.067-.191,1.445-.569s.531-.854.458-1.422c-.074-.569-.458-1.204-1.158-1.904-1.196-1.196-1.285-2.304-.263-3.326.611-.611,1.363-.825,2.253-.635.889.191,1.742.694,2.559,1.511,1.255,1.255,1.831,2.646,1.73,4.176-.103,1.533-.709,2.854-1.815,3.96-1.138,1.138-2.49,1.957-4.094,2.036-2.906.143-6.801-2.604-6.801-2.604.933,1.224,1.984,2.42,3.151,3.588,1.837,1.837,3.856,3.157,6.058,3.962,2.204.8,4.348,1.017,6.432.656,2.085-.365,3.873-1.291,5.36-2.779,1.461-1.461,2.348-3.049,2.669-4.771.322-1.722.175-3.4-.438-5.032Z"></path>
  <path class="b" d="m147.365,33.687c-.747-.31-1.343-.771-1.787-1.382-.445-.612-.668-1.347-.668-2.204,0-.588.135-1.14.405-1.656.27-.516.667-.929,1.192-1.239.524-.31,1.144-.465,1.859-.465s1.319.195,1.811.584.739.925.739,1.609c0,.381-.111.707-.333.977-.223.27-.493.405-.81.405-.175,0-.314-.052-.417-.155-.103-.104-.155-.227-.155-.369s.063-.262.191-.358c.127-.095.326-.143.596-.143.206,0,.373-.036.5-.107.127-.071.191-.155.191-.25,0-.254-.08-.449-.238-.584-.159-.135-.366-.202-.619-.202-.413,0-.791.182-1.132.548-.342.365-.513.874-.513,1.525,0,.969.338,1.676,1.013,2.121.675.444,1.418.667,2.228.667.731,0,1.251-.274,1.561-.822.31-.548.465-1.347.465-2.395,0-1.017-.048-2.197-.143-3.539-.096-1.343-.199-2.657-.31-3.944-.302-3.193-.453-5.608-.453-7.245,0-1.938.182-3.456.548-4.552-1.334,0-2.439.187-3.312.56-.874.373-1.51.854-1.907,1.442-.397.588-.595,1.2-.595,1.835,0,.699.203,1.295.608,1.788.405.493.909.739,1.513.739.334,0,.608-.067.822-.203.215-.135.322-.322.322-.56,0-.095-.056-.175-.167-.238-.111-.063-.27-.095-.477-.095-.477,0-.715-.159-.715-.477,0-.127.044-.238.131-.334.087-.095.218-.143.393-.143.397,0,.711.187.942.56.23.373.346.83.346,1.37,0,1.048-.306,1.871-.918,2.467-.612.596-1.347.894-2.205.894-.667,0-1.307-.179-1.918-.536-.612-.357-1.112-.87-1.501-1.537-.39-.667-.584-1.438-.584-2.312,0-1.557.532-2.784,1.596-3.682,1.064-.897,2.347-1.513,3.849-1.847,1.501-.334,3.031-.5,4.588-.5,1.7,0,3.075-.167,4.123-.5,1.048-.334,1.795-.751,2.24-1.251s.668-1.013.668-1.537c0-.572-.127-.993-.382-1.263-.254-.27-.564-.405-.929-.405-.35,0-.671.111-.965.334-.294.223-.441.477-.441.763,0,.095.055.175.167.238.111.064.27.095.477.095.477,0,.715.159.715.477,0,.127-.044.238-.131.334-.088.095-.219.143-.393.143-.508,0-.926-.21-1.251-.632-.326-.421-.489-.925-.489-1.513,0-.508.131-.993.393-1.454.262-.46.679-.838,1.251-1.132.572-.294,1.279-.441,2.121-.441s1.569.167,2.181.5c.611.334,1.076.775,1.394,1.323.317.548.477,1.14.477,1.776,0,1.033-.314,1.887-.942,2.562-.628.676-1.438,1.172-2.431,1.49-.993.318-2.046.477-3.158.477-.254,0-.604-.016-1.049-.048-.366,1.637-.548,3.369-.548,5.195,0,.938.039,1.947.119,3.027.08,1.081.127,1.756.143,2.026.111,1.255.194,2.344.25,3.265.056.922.075,1.867.059,2.836,0,1.398-.413,2.693-1.239,3.885-.826,1.192-1.847,2.137-3.062,2.836-1.215.699-2.371,1.048-3.467,1.048-.874,0-1.685-.155-2.431-.465Z"></path>
  <path class="b" d="m169.148,26.383c.095-1.192.17-2.351.226-3.48.056-1.128.084-2.542.084-4.242,0-1.112-.171-1.966-.513-2.562s-.774-.894-1.299-.894c-.461,0-.929.231-1.406.691-.477.461-.89,1.12-1.239,1.978,0,2.828.119,5.664.357,8.508h-4.886c.238-2.78.357-5.569.357-8.365s-.119-3.962-.357-6.743l.502-.065c1.339-.174,2.643-.734,3.864-1.311l.52-.246c-.191,2.336-.31,4.663-.357,6.983.477-1.128,1.128-1.99,1.954-2.586.826-.596,1.7-.894,2.621-.894,1.207,0,2.172.354,2.896,1.06.723.707,1.084,1.966,1.084,3.778,0,1.859.028,3.412.083,4.659.056,1.248.187,2.491.393,3.73h-4.886Z"></path>
  <path class="b" d="m178.704,26.025c-1.049-.477-1.903-1.223-2.562-2.24-.66-1.017-.989-2.296-.989-3.837,0-1.462.353-2.701,1.06-3.718.707-1.017,1.628-1.771,2.765-2.264,1.136-.492,2.332-.739,3.587-.739,1.112,0,2.149.187,3.11.56.961.373,1.732.926,2.312,1.656.58.731.87,1.589.87,2.574h-8.866c-.096.524-.143,1.081-.143,1.668,0,1.335.175,2.471.524,3.408.349.938.795,1.637,1.335,2.097.54.461,1.096.691,1.668.691.619,0,1.136-.258,1.549-.775.413-.516.619-1.235.619-2.157,0-.62-.127-1.144-.381-1.573-.255-.429-.628-.643-1.12-.643-.27,0-.477.04-.619.119-.143.08-.214.175-.214.286,0,.096.055.175.167.238.111.064.27.096.477.096.477,0,.715.159.715.477,0,.127-.044.238-.131.334-.088.095-.219.143-.393.143-.302,0-.556-.127-.763-.381-.206-.254-.309-.548-.309-.882,0-.651.23-1.156.691-1.513.461-.357,1.025-.536,1.692-.536.54,0,1.06.123,1.561.369.5.247.909.612,1.228,1.096.317.485.477,1.069.477,1.752,0,.858-.306,1.621-.918,2.288-.612.667-1.418,1.188-2.419,1.561s-2.058.56-3.17.56c-1.224,0-2.359-.238-3.408-.715Zm5.839-9.033c0-.906-.198-1.641-.595-2.204-.398-.564-.874-.846-1.43-.846-.635,0-1.155.298-1.561.894-.405.596-.695,1.394-.87,2.395l4.457-.238Z"></path>
</svg>
