<?xml version="1.0" encoding="UTF-8"?>
<svg xmlns="http://www.w3.org/2000/svg" id="a" viewBox="0 0 213.952 134.127">
  <defs>
    <style>.b{stroke-width:0px;}</style>
  </defs>
  <path class="b" d="m19.27,132.299c.174.418.174.757,0,1.018-.174.261-.488.392-.94.392h-4.334c-.488,0-.819-.226-.992-.678l-5.065-13.84c-.175-.452-.505-.678-.992-.678h-.157c-.592,0-.888.296-.888.887v13.265c0,.697-.348,1.045-1.044,1.045H1.044c-.697,0-1.044-.348-1.044-1.045v-33.422c0-.696.348-1.045,1.044-1.045h8.251c2.82,0,5.135.959,6.946,2.873,1.845,1.95,2.768,4.352,2.768,7.207,0,1.984-.47,3.76-1.41,5.326-.871,1.358-1.985,2.42-3.343,3.186-.522.348-.678.801-.47,1.357l5.483,14.153Zm-13.369-20.106c0,.697.348,1.045,1.045,1.045h1.514c1.323,0,2.419-.47,3.29-1.411.87-.869,1.306-2.001,1.306-3.393s-.436-2.524-1.306-3.395c-.871-.87-1.968-1.306-3.29-1.306h-1.514c-.697,0-1.045.349-1.045,1.045v7.416Z"></path>
  <path class="b" d="m40.054,132.664c0,.697-.348,1.045-1.044,1.045h-15.197c-.697,0-1.044-.348-1.044-1.045v-33.422c0-.696.348-1.045,1.044-1.045h15.197c.696,0,1.044.349,1.044,1.045v3.446c0,.697-.348,1.045-1.044,1.045h-9.244c-.697,0-1.044.349-1.044,1.045v7.154c0,.697.348,1.045,1.044,1.045h3.708c.696,0,1.045.349,1.045,1.045v3.446c0,.697-.349,1.045-1.045,1.045h-3.708c-.697,0-1.044.349-1.044,1.044v7.572c0,.697.348,1.045,1.044,1.045h9.244c.696,0,1.044.349,1.044,1.045v3.446Z"></path>
  <path class="b" d="m49.141,132.664c0,.697-.349,1.045-1.045,1.045h-3.864c-.697,0-1.044-.348-1.044-1.045v-33.422c0-.696.348-1.045,1.044-1.045h15.458c.696,0,1.045.349,1.045,1.045v3.446c0,.697-.349,1.045-1.045,1.045h-9.505c-.697,0-1.044.349-1.044,1.045v7.154c0,.697.348,1.045,1.044,1.045h6.319c.696,0,1.045.349,1.045,1.045v3.446c0,.697-.349,1.045-1.045,1.045h-6.319c-.697,0-1.044.349-1.044,1.044v13.108Z"></path>
  <path class="b" d="m83.033,132.299c.174.418.174.757,0,1.018-.174.261-.488.392-.94.392h-4.334c-.488,0-.819-.226-.992-.678l-5.065-13.84c-.175-.452-.505-.678-.992-.678h-.157c-.592,0-.888.296-.888.887v13.265c0,.697-.348,1.045-1.044,1.045h-3.813c-.697,0-1.044-.348-1.044-1.045v-33.422c0-.696.348-1.045,1.044-1.045h8.251c2.82,0,5.135.959,6.946,2.873,1.845,1.95,2.768,4.352,2.768,7.207,0,1.984-.47,3.76-1.41,5.326-.871,1.358-1.985,2.42-3.343,3.186-.522.348-.678.801-.47,1.357l5.483,14.153Zm-13.369-20.106c0,.697.348,1.045,1.045,1.045h1.514c1.323,0,2.419-.47,3.29-1.411.87-.869,1.306-2.001,1.306-3.393s-.436-2.524-1.306-3.395c-.871-.87-1.968-1.306-3.29-1.306h-1.514c-.697,0-1.045.349-1.045,1.045v7.416Z"></path>
  <path class="b" d="m103.765,132.664c0,.697-.348,1.045-1.044,1.045h-15.197c-.697,0-1.044-.348-1.044-1.045v-33.422c0-.696.348-1.045,1.044-1.045h15.197c.696,0,1.044.349,1.044,1.045v3.446c0,.697-.348,1.045-1.044,1.045h-9.244c-.697,0-1.044.349-1.044,1.045v7.154c0,.697.348,1.045,1.044,1.045h3.708c.696,0,1.045.349,1.045,1.045v3.446c0,.697-.349,1.045-1.045,1.045h-3.708c-.697,0-1.044.349-1.044,1.044v7.572c0,.697.348,1.045,1.044,1.045h9.244c.696,0,1.044.349,1.044,1.045v3.446Z"></path>
  <path class="b" d="m118.386,122.167c-.488-.696-1.324-1.462-2.506-2.297l-5.326-3.813c-1.637-1.184-2.855-2.489-3.655-3.916-.766-1.323-1.149-2.89-1.149-4.701,0-2.994.905-5.344,2.716-7.049,1.845-1.741,4.16-2.611,6.946-2.611,2.749,0,4.961.835,6.631,2.506,1.672,1.706,2.506,3.934,2.506,6.684v.888c0,.592-.295.888-.888.888h-4.229c-.419,0-.627-.21-.627-.627v-.575c0-1.287-.332-2.316-.994-3.081-.695-.801-1.6-1.201-2.714-1.201-1.046,0-1.899.331-2.558.993-.663.661-.994,1.567-.994,2.715,0,.731.191,1.445.575,2.141.349.627.888,1.237,1.618,1.828l6.424,4.856c1.776,1.358,3.029,2.663,3.76,3.916.732,1.289,1.098,2.751,1.098,4.387,0,2.96-.94,5.362-2.82,7.206-1.88,1.881-4.249,2.821-7.102,2.821-2.648,0-4.893-.888-6.737-2.664-1.811-1.705-2.716-3.916-2.716-6.631v-.836c0-.556.278-.835.835-.835h4.387c.348,0,.523.174.523.522v.575c0,1.253.382,2.28,1.149,3.081.73.835,1.652,1.253,2.766,1.253,1.185,0,2.106-.365,2.768-1.097.662-.696.994-1.706.994-3.029,0-.869-.228-1.636-.681-2.298Z"></path>
  <path class="b" d="m148.049,132.664c0,.697-.349,1.045-1.044,1.045h-3.917c-.697,0-1.046-.348-1.046-1.045v-13.108c0-.695-.347-1.044-1.044-1.044h-5.64c-.697,0-1.046.349-1.046,1.044v13.108c0,.697-.347,1.045-1.044,1.045h-3.863c-.697,0-1.046-.348-1.046-1.045v-33.422c0-.696.349-1.045,1.046-1.045h3.863c.697,0,1.044.349,1.044,1.045v12.69c0,.697.349,1.045,1.046,1.045h5.64c.697,0,1.044-.348,1.044-1.045v-12.69c0-.696.349-1.045,1.046-1.045h3.917c.695,0,1.044.349,1.044,1.045v33.422Z"></path>
  <path class="b" d="m169.983,132.664c0,.697-.349,1.045-1.046,1.045h-15.197c-.697,0-1.044-.348-1.044-1.045v-33.422c0-.696.347-1.045,1.044-1.045h15.197c.697,0,1.046.349,1.046,1.045v3.446c0,.697-.349,1.045-1.046,1.045h-9.244c-.695,0-1.044.349-1.044,1.045v7.154c0,.697.349,1.045,1.044,1.045h3.708c.697,0,1.046.349,1.046,1.045v3.446c0,.697-.349,1.045-1.046,1.045h-3.708c-.695,0-1.044.349-1.044,1.044v7.572c0,.697.349,1.045,1.044,1.045h9.244c.697,0,1.046.349,1.046,1.045v3.446Z"></path>
  <path class="b" d="m192.386,132.299c.174.418.174.757,0,1.018-.174.261-.488.392-.94.392h-4.334c-.488,0-.818-.226-.992-.678l-5.067-13.84c-.174-.452-.504-.678-.992-.678h-.156c-.593,0-.888.296-.888.887v13.265c0,.697-.349,1.045-1.046,1.045h-3.812c-.697,0-1.044-.348-1.044-1.045v-33.422c0-.696.347-1.045,1.044-1.045h8.252c2.82,0,5.135.959,6.945,2.873,1.845,1.95,2.768,4.352,2.768,7.207,0,1.984-.469,3.76-1.409,5.326-.871,1.358-1.986,2.42-3.343,3.186-.523.348-.678.801-.471,1.357l5.484,14.153Zm-13.369-20.106c0,.697.347,1.045,1.044,1.045h1.515c1.324,0,2.419-.47,3.291-1.411.869-.869,1.305-2.001,1.305-3.393s-.436-2.524-1.305-3.395c-.871-.87-1.967-1.306-3.291-1.306h-1.515c-.697,0-1.044.349-1.044,1.045v7.416Z"></path>
  <path class="b" d="m207.321,122.167c-.488-.696-1.324-1.462-2.506-2.297l-5.326-3.813c-1.637-1.184-2.857-2.489-3.656-3.916-.768-1.323-1.149-2.89-1.149-4.701,0-2.994.905-5.344,2.716-7.049,1.845-1.741,4.16-2.611,6.945-2.611,2.751,0,4.961.835,6.633,2.506,1.67,1.706,2.506,3.934,2.506,6.684v.888c0,.592-.297.888-.888.888h-4.231c-.417,0-.627-.21-.627-.627v-.575c0-1.287-.33-2.316-.992-3.081-.697-.801-1.602-1.201-2.716-1.201-1.044,0-1.899.331-2.558.993-.662.661-.992,1.567-.992,2.715,0,.731.191,1.445.575,2.141.347.627.886,1.237,1.618,1.828l6.424,4.856c1.774,1.358,3.027,2.663,3.76,3.916.73,1.289,1.096,2.751,1.096,4.387,0,2.96-.94,5.362-2.82,7.206-1.88,1.881-4.247,2.821-7.102,2.821-2.645,0-4.891-.888-6.737-2.664-1.809-1.705-2.714-3.916-2.714-6.631v-.836c0-.556.278-.835.834-.835h4.388c.347,0,.521.174.521.522v.575c0,1.253.384,2.28,1.149,3.081.73.835,1.654,1.253,2.768,1.253,1.183,0,2.106-.365,2.768-1.097.66-.696.992-1.706.992-3.029,0-.869-.226-1.636-.678-2.298Z"></path>
  <path class="b" d="m187.942,68.75v.272c-.18.337-.269.609-.269.813h-.272v-.272c.18-.361.272-.633.272-.813h.269Zm-.813-.541v.272c-.541,1.219-.811,1.941-.811,2.166h-.272v-.269c.541-1.219.813-1.943.813-2.168h.269Zm2.71-.269v.269c-1.263,2.417-1.896,3.772-1.896,4.065h-.269v-.272c1.263-2.414,1.896-3.769,1.896-4.062h.269Zm1.627-8.399v.269c-.905,1.671-1.355,2.665-1.355,2.982h-.272v-.272c.902-1.671,1.355-2.665,1.355-2.979h.272Zm-1.896-.272v.272c-.18.337-.272.609-.272.811h-.269v-.269c.18-.361.269-.633.269-.813h.272Zm-4.878-6.503h.541v-1.896h-.541v1.896Zm11.109-4.334v.269c-1.331,2.754-2.506,4.923-3.521,6.503h-.272v-.269c.385-1.062,1.559-3.23,3.523-6.503h.269Zm-6.772-1.627v1.355h-.272c0-.405-.092-.766-.272-1.083l.544-.272Zm10.023,0v.541c.293,0,.745-.63,1.355-1.896v-.541c-.293,0-.745.633-1.355,1.896m-4.334-1.624c0,.248-.361.97-1.086,2.166h-.269v-.269c0-.476.45-1.106,1.355-1.896m-5.148.811h-.272v-1.355h.272v1.355Zm-4.065-1.355h-.272v-.541h.272v.541Zm10.295-1.083h-.272v-.541h.272v.541Zm1.627-1.083v.269c-.725.905-1.086,1.535-1.086,1.896h-.269v-.269c.722-.902,1.083-1.535,1.083-1.896h.272Zm4.062.269v.272h.272c.272,0,.541-.361.813-1.083v-.272h-.541c0,.272-.183.633-.544,1.083m-11.92.541h-.272v-1.355h.272v1.355Zm8.127-1.896h-.272v-.541h.272v.541Zm-14.901,3.523h-.272v-5.148h.272v5.148Zm20.863-5.42v.272h.541v-.813c-.293,0-.473.18-.541.541m-2.168.813v.541c.429-.18,1.154-1.263,2.168-3.251v-.269c-.654.361-1.378,1.355-2.168,2.979m-4.334-2.71h.541v-.541c-.293,0-.473.18-.541.541m7.585-2.71v.272h.272c.361,0,.541-.18.541-.541v-.541c-.541.269-.813.541-.813.811m-22.487-1.355c0,.183.089.453.272.813v1.896h-.272c0-.654-.092-1.467-.272-2.438v-.272h.272Zm25.469-.269v.269h.541v-.811c-.293,0-.473.18-.541.541m-24.114,1.355h-.272v-1.896h.272v1.896Zm19.236-1.896h-.541v-.272h.541v.272Zm-18.422-.541c0,.18.089.45.269.811v1.086h-.269c0-.544-.092-1.174-.272-1.896h.272Zm22.217,0v.541c.382-.092.743-.541,1.083-1.355v-.541c-.248,0-.609.45-1.083,1.355m-.813-1.627c-.18.34-.272.609-.272.813h-.541l.541-.813h.272Zm-1.086-2.71h.272v-.541h-.272v.541Zm1.627-.541v.272h.541v-.813c-.293,0-.473.18-.541.541m.813-.813h.541v-.272h-.541v.272Zm-1.896,0v.541c.541-.293.811-.562.811-.811v-.272h-.269c-.296,0-.473.18-.541.541m-20.863-2.71h-1.355v.544c-1.716.902-2.89,1.355-3.523,1.355,0,.654-.089,1.467-.269,2.438,1.624,3.296,2.438,7,2.438,11.109,0,1.331-.092,2.325-.272,2.979.18,1.58.272,2.935.272,4.065v3.793c0,1.896.089,4.787.269,8.671h.544c0-.745.089-1.467.269-2.168-.361-3.16-.541-5.781-.541-7.857,0-.157.089-.879.272-2.166h.269l.272,1.896v8.94l.269.541c.361,0,.541-.18.541-.541v-10.837c0-2.485-.089-5.736-.269-9.756v-.269h.269l.272,3.793h.541v-2.979h.272l.269,3.251v3.251h-.541v2.979h.272c.18.902.541,1.355,1.083,1.355v2.168h.541v-.813c0-2.529-.089-5.961-.269-10.295l.269-1.627h.272v5.689c0,2.621.18,5.331.541,8.129-.18.722-.272,1.355-.272,1.896h-.269l-.272-1.896h-.541l.272,2.438v1.085c-3.319,5.328-5.127,9.029-5.42,11.109-.112,0-2.911,4.604-8.399,13.816v.813c1.444.497,2.168.858,2.168,1.083,1.852,0,4.109.725,6.772,2.168,1.086-.541,1.627-1.083,1.627-1.624,3.34-4.789,7.313-12.103,11.92-21.948,6.254-10.973,9.777-16.753,10.567-17.339,4.133-6.843,6.932-11.266,8.399-13.277v-.811c-3.882,5.328-6.322,9.029-7.313,11.106-5.488,7.837-9.641,14.52-12.464,20.052h-.272v-.272c2.349-4.899,6.142-11.041,11.381-18.425,3.024-5.553,5.281-9.346,6.772-11.378l-.269-.541c-1.378,1.985-2.192,2.979-2.44,2.979-.068,1.219-1.512,3.479-4.334,6.775-7.112,11.085-12.171,19.756-15.173,26.01h-.269v-.272c2.775-5.781,5.305-10.476,7.585-14.088v-.541c-1.083,1.127-1.624,1.941-1.624,2.438h-.272v-.272c1.062-1.805,1.692-2.707,1.896-2.707v.541h.272c.18-1.198.45-2.1.811-2.71,1.242-1.92,1.964-3.183,2.168-3.793l.541.269c.361,0,.541-.18.541-.541v-.272c-.902,0-1.352.272-1.352.813h-.272v-.269l.272-.544v-.541l-1.899,2.168c1.106-3.094,3.727-7.337,7.857-12.733,1.038-2.553,1.763-3.908,2.168-4.065,0-.204-.092-.473-.272-.813l1.355-2.438v-.272h-.269c-2.393,3.479-5.014,7.541-7.857,12.192h-.272v-.269c.272-.722.541-1.083.813-1.083l-.272-1.355c.296-.544.565-.813.813-.813,0,.18-.089.453-.269.813v.269c.18,0,1.355-1.716,3.521-5.148v-.269c-1.648,1.985-2.55,2.979-2.71,2.979,0-.633.544-1.716,1.627-3.251v-.541c-1.807,2.1-2.71,3.364-2.71,3.793h-.272v-.541h-.541c0,.497-1.083,2.213-3.251,5.148v.269h.272c.361,0,.541-.269.541-.811h.272v.269c-.793,1.807-1.514,2.982-2.168,3.523,0-.34.18-.881.541-1.627v-.269c-3.432,4.695-5.148,7.224-5.148,7.585h-.272v-3.251c0-3.003-.089-5.26-.269-6.772-1.266-9.032-2.349-13.549-3.251-13.549-1.671.228-2.935.861-3.793,1.896m-34.527,51.547h.541v-.272h-.541v.272Zm1.627,0c.18,0,.272.092.272.272.361,0,.63-.541.811-1.627v-.269h-.541c0,.497-.18,1.038-.541,1.624m-6.503,5.42v.272h.541c.541-1.559,1.174-3.997,1.896-7.316v-.272c-.97,1.174-1.784,3.612-2.438,7.316m7.585-8.129v.272h.541c0-.204.092-.473.272-.813h-.272c-.293,0-.473.18-.541.541m-5.148,0v.544c.272,0,.541-.364.813-1.086v-.541c-.272,0-.541.361-.813,1.083m9.484-2.707v.269c-.18.316-.272.677-.272,1.086h-.272v-.544c.183-.361.272-.63.272-.811h.272Zm-3.523.269v.541h.541v-1.083c-.293,0-.473.18-.541.541m4.606.541h-.272v-1.083h.272v1.083Zm-8.94-1.896v.541c.361,0,.541-.18.541-.541v-.541c-.293,0-.473.18-.541.541m11.65-1.083h-.272v-.541h.272v.541Zm-2.438-1.627v.272c0,.225-.364,1.31-1.085,3.251h-.269v-.272c.722-1.535,1.083-2.618,1.083-3.251h.272Zm-7.857-.811v.541c.361,0,.541-.18.541-.541v-.541c-.293,0-.473.18-.541.541m2.979.811h.541c0-.316.18-.766.541-1.352v-.544c-.722.293-1.083.926-1.083,1.896m1.627-.541v1.086h.541c.541-1.402.811-2.393.811-2.982h-.541c0,.609-.269,1.242-.811,1.896m7.585-3.251h.541c0-.316-.18-.497-.541-.541v.541Zm-7.585-.269v.541c.361,0,.541-.18.541-.541v-.541c-.293,0-.476.18-.541.541m1.083-2.982v.272c.361,0,.633-.541.813-1.627h-.544l-.269,1.355Zm1.083-3.793h.541v-.272h-.541v.272Zm6.233.272h-.272v-.541h.272v.541Zm-1.086-1.086v.272c-.361,1.151-.541,1.873-.541,2.168h-.269v-.544l.541-1.896h.269Zm2.168-3.251v.272c-.18.337-.272.609-.272.813h-.269v-.272c.18-.361.269-.63.269-.813h.272Zm-2.71-1.624h-.272v-.541h.272v.541Zm-1.896,0h-.272v-.541h.272v.541Zm2.71-1.896h-.272v-.541h.272v.541Zm-.541-3.523v.272c-.541,1.219-.813,1.941-.813,2.166h-.272v-.269c.544-1.219.813-1.941.813-2.168h.272Zm.541-.813h-.272v-.541h.272v.541Zm1.624-7.857v.272c-.926,3.115-1.917,5.284-2.979,6.503l.272,1.355c-.657,0-1.106.541-1.355,1.624l.269.544c0,.18-.18.269-.541.269,0,.18.089.272.272.272,0,.337-.364,1.423-1.086,3.251h-.269v-.272c0-.361.089-.541.269-.541,0-2.053,1.627-6.479,4.878-13.277h.269Zm.272-.269h-.272v-.541h.272v.541Zm-1.083-1.355h-.272v-.541h.272v.541Zm4.606-7.316v.541c-1.988,4.201-2.982,6.458-2.982,6.775h-.269v-.272l1.355-4.062c1.083-1.603,1.624-2.597,1.624-2.982h.272Zm-17.07-6.772v.269c-.18,0-.453.092-.813.272h-.272l.272-.541h.813Zm2.438-.544h.541v.272c-.405,0-.766.092-1.083.272h-.541v-.272c.405,0,.766-.089,1.083-.272m3.793,0h-.813v-.272h.813v.272Zm1.627-.269h-.813v-.272h.813v.272Zm1.083-.272h-.813v-.272h.813v.272Zm-6.775-.813h.272v.272c-.18,0-.453.092-.813.272h-1.624v-.272c.745,0,1.467-.089,2.166-.272m1.086,0h-.541v-.272h.541v.272Zm-2.168-.541h-1.355v-.272h1.355v.272Zm16.528-.811h.269c0,.405-1.083.766-3.251,1.083h-.811v-.272c.562,0,1.828-.269,3.793-.811m-14.632,0h.272v.269c-.18,0-.453.092-.813.272h-1.083v-.272l1.624-.269Zm10.295-1.355h-.541v-.272h.541v.272Zm5.692-.813h.269c0,.813-4.606,1.807-13.819,2.979h-.269v-.269c.293,0,1.467-.272,3.521-.813,1.174-.722,1.988-1.083,2.44-1.083h.269l-.269.541c2.799,0,5.417-.453,7.857-1.355m.269-.541h-.813v-.272h.813v.272Zm15.715-.541v.541c2.438-.361,3.973-.541,4.606-.541h.813v-.544c-1.355,0-3.162.183-5.42.544m-22.217-.544h.541v.272l-1.355.272h-1.083v-.272c.541,0,1.174-.089,1.896-.272m1.627,0h-.813v-.272h.813v.272Zm1.896-.269h-.813v-.272h.813v.272Zm26.01-.272h-.272v.541c1.378,0,3.183-.18,5.42-.541v-.541c-2.168.361-3.884.541-5.148.541m-22.49-.813h.272v.272c-1.739.361-2.733.541-2.979.541h-.544v-.269c.453,0,1.535-.18,3.251-.544m29.264-.269v.541l2.438-.272v-.541l-2.438.272Zm-40.373-.813h1.086v.272c-.541,0-1.174.089-1.896.269h-.272v-.269c.408,0,.769-.092,1.083-.272m26.282-.269v.541l3.251-.272h.541v-.541h-1.083l-2.71.272Zm-14.629-.544h-.813v-.272h.813v.272Zm-2.168-.811h.272v.541h-.813c0-.316.18-.497.541-.541m-5.148-.272h-.813v-.272h.813v.272Zm27.635-.272h1.355v-.541h-1.355v.541Zm-21.945-.811h-.541v-.272h.541v.272Zm1.627-.813h.269v.272c-.18,0-.453.089-.813.269h-.269v-.269c.204,0,.473-.092.813-.272m19.236-1.896h-.272v-.541h.272v.541Zm9.484-.813h-.541v-.272h.541v.272Zm-1.627-.541v.541h.541v.272c-.745,0-1.739.089-2.979.269v.541h1.355l2.71.272c.157-.609.97-.97,2.438-1.083v-.541h-1.355c-.293,0-.473-.18-.541-.544-.994.183-1.716.272-2.168.272m-7.585-.813h1.083v.272c-.881,0-2.958.361-6.231,1.083h-.272v-.541l5.42-.813Zm-17.342.272c0,2.529-1.896,3.793-5.689,3.793-13.615,2.529-21.653,3.793-24.114,3.793-2.778-.361-4.763-.541-5.961-.541-1.603,0-2.506.361-2.71,1.083v.272c0,.361.183.541.544.541.18,2.168.541,3.251,1.083,3.251,0,.405-.092.769-.272,1.083.296.544.565.813.813.813v1.896c0,.361.18.541.541.541,0,.657-.089,1.106-.269,1.355,0,.183.089.453.269.813.18,0,.272-.089.272-.272,2.979.544,4.695.813,5.148.813,3.094,0,11.493-1.355,25.197-4.065h.272c0,.565-.905,2.372-2.71,5.42-1.671,5.509-3.568,9.934-5.689,13.277-2.147,6.074-3.68,9.866-4.606,11.378,0,.183.089.453.269.813-.18,1.219-1.624,5.825-4.334,13.819v.269l.541-.269c2.145-6.911,3.5-10.523,4.065-10.839-.18,1.582-.902,4.29-2.168,8.13-4.041,10.138-6.299,16.46-6.772,18.966h.541c1.805-5.781,4.154-12.192,7.044-19.238,1.512-4.944,2.686-8.014,3.523-9.21h.269v.269c-.541,1.423-.813,2.325-.813,2.71l.544,3.793c-.725,1.828-1.355,3.636-1.899,5.42v.269h.544c2.166-6.05,3.251-9.39,3.251-10.023l.541.269c-1.446,5.375-3.251,10.431-5.42,15.174-1.985,7.112-3.251,11.266-3.793,12.464.18.316.272.677.272,1.083v.813c0,.361-.18.541-.544.541.183.293.272.745.272,1.355h.541c0-.204.092-.473.272-.813,1.083-1.556,1.624-2.822,1.624-3.793v-.541c-.429,0-.698.633-.813,1.896h-.269v-.269c0-.497.361-1.671,1.083-3.523l-.269-1.355c.361-.722.541-1.355.541-1.896h.269v.272l-.541,1.896v.269c.497,0,.949-1.083,1.355-3.251h.272v.272l-.272,1.624v.272c.541,0,1.174-1.174,1.896-3.523h.272v.272c-1.807,5.373-2.71,8.354-2.71,8.94v.272h.541c1.491-5.375,3.115-9.89,4.878-13.547h.269v.269c-1.263,2.665-1.896,4.29-1.896,4.878v.269h.541l2.71-7.316-.269-1.352c.722-1.671,1.083-3.207,1.083-4.606h.269v1.083h.272c.361,0,.541-.18.541-.541,3.094-10.251,9.144-24.522,18.153-42.811.633-2.527,1.807-3.793,3.523-3.793v-.541l-1.896.272v-.272c0-.609,5.6-1.784,16.798-3.521v-.544c-2.325.183-5.216.725-8.671,1.627l-.541-.272c-.745,0-2.822.361-6.231,1.085h-.813v-.813c.204,0,.473-.089.813-.272,0-.314-.18-.494-.541-.541,0-.79,1.355-1.24,4.062-1.355v-.541c-2.234.18-3.408.272-3.521.272h-.272v-.544c8.851-1.488,13.277-2.391,13.277-2.707v-.272h-1.355l-1.627.272h-.269v-.272h.813v-.541c-3.186.722-5.352,1.083-6.503,1.083h-.813v-.269c4.198-.725,6.547-1.085,7.044-1.085v-.541c-.405,0-.769-.089-1.083-.269l-1.896.541h-.272c2.236-1.266,4.674-1.896,7.316-1.896h.269v-.544c-.745,0-3.092.272-7.044.813v-.269c-3.476,0-5.645.18-6.503.541-.317,0-.586-.813-.813-2.438l-2.438.269-.813-.541h-.269l-1.086.813-.811-.541h-.541c-.296,0-.476.18-.544.541-1.263-.112-1.896-.385-1.896-.813-.317,0-.766.18-1.355.541l-.811-.541c-.317,0-.677.902-1.086,2.71m-37.791,72.002v.272c-.18.337-.272.609-.272.813h-.269v-.272c.18-.361.269-.633.269-.813h.272Zm-3.251-3.793h.272v-.541h-.272v.541Zm1.355.813h.541l.541-1.896v-.272c-.497.092-.858.813-1.083,2.168m.269-4.606h.541l.272-1.355h-.541l-.272,1.355Zm2.168-.541h.541c0-.16.18-.881.541-2.168v-.272c-.722.248-1.083,1.062-1.083,2.44m.813-3.251l.269.541c.361,0,.541-.18.541-.541v-.541l-.811.541Zm5.148-2.71h-.272v-.541h.272v.541Zm-5.148-1.083v.811h.541c0-.112.18-.745.541-1.896h-.541c0,.272-.18.633-.541,1.086m7.585-2.71c-.541,1.083-.813,1.716-.813,1.896h-.269v-.272c.361-.586.541-1.13.541-1.624h.541Zm-7.585-1.627h-.272v-.541h.272v.541Zm.269-.813h-.272v-.541h.272v.541Zm9.754-4.334v.272c-.429,1.624-.79,2.438-1.083,2.438h-.272c.725-1.58,1.086-2.485,1.086-2.71h.269Zm1.086-.269h-.272v-.541h.272v.541Zm-.541-.544h-.272v-.541h.272v.541Zm-1.627-4.062v.269c0,.34-.722,2.145-2.168,5.42h-.269v-.272l2.166-5.417h.272Zm3.523-.272v.272c-.183.337-.272.609-.272.811h-.272v-.269c.18-.361.272-.633.272-.813h.272Zm-8.402,0c0,.272-.541,1.627-1.624,4.065h-.272v-.272c.837-2.527,1.467-3.793,1.896-3.793m6.233-8.94v.541l-.541,1.624h-.272v-.269c.361-.722.541-1.355.541-1.896h.272Zm-2.71-.272v.272c-.902,2.234-1.355,3.5-1.355,3.793h-.269v-.272c.902-2.166,1.355-3.432,1.355-3.793h.269Zm.272-.269h-.272v-.541h.272v.541Zm10.837-10.567l-1.896-.272-1.355.272-1.355-.272c-.18,0-.269.18-.269.541-.453,0-1.627-.18-3.523-.541-.837.725-1.378,1.085-1.627,1.085-.97,5.734-2.775,11.695-5.417,17.881-8.49,19.756-12.736,29.871-12.736,30.344h.541c3.387-8.15,6.097-14.112,8.13-17.881h.272v.272c-1.334,3.204-2.056,4.831-2.168,4.876-2.145,5.668-3.68,9.28-4.606,10.837v1.086h.541v-.272c1.875-3.026,3.319-6.367,4.334-10.023,2.958-5.216,5.396-10.996,7.316-17.342,1.943-3.636,3.207-6.615,3.793-8.94h.272v.269c-.361,1.988-1.083,4.426-2.168,7.316v.272l.544-.272c0,.361-.633,2.168-1.899,5.42h-.269v-.272c.541-1.444.813-2.346.813-2.707v-.272c-2.349,3.837-3.976,8.443-4.878,13.819l.272.541-.272.541v.272h.541c0-.544,1.086-2.89,3.251-7.047h.272v.272c-.701,2.574-1.423,4.29-2.168,5.148-2.257,6.278-4.065,10.612-5.42,13.005,0,.361.272.541.813.541-1.083,1.154-1.624,2.417-1.624,3.795v.269h.541l.269-1.083.544.269c.293,0,.654-.541,1.083-1.624-.18-1.242-.361-2.056-.541-2.438.18,0,.269-.453.269-1.355h.544v.541h.541c.991-3.251,1.716-4.878,2.166-4.878,0,1.106-.811,3.003-2.438,5.692v.541h.541c0-.657.453-1.378,1.355-2.168h.272c-.541,2.1-1.266,3.816-2.168,5.148v.541c.316-.044,1.399-1.852,3.251-5.417l.541.269h.272l2.438-5.689h-.269c-.296,0-.926,1.355-1.899,4.065h-.269v-.272l2.168-5.961h.269v.813h.541c.544-2.438,2.077-5.689,4.606-9.754,1.086-3.748,3.612-9.979,7.588-18.694.426-5.216.97-8.378,1.624-9.484,0-.947-.453-1.669-1.355-2.166-.293,0-.473.18-.541.541m-47.767,51.411h-.813v-.272h.813v.272Zm1.086-3.523h.541c.902-.654,1.355-1.106,1.355-1.355v-.269h-.272c-1.083.834-1.624,1.376-1.624,1.624m2.168-2.438v.272h.269c.361-.092.722-.544,1.083-1.355-.18,0-.269-.092-.269-.272-.385.068-.745.521-1.083,1.355m.811-2.168h.541c0-.316-.18-.497-.541-.541v.541Zm-15.984-.811c1.896,5.598,4.606,8.399,8.127,8.399v.269l-1.624.272-.272-.541c-2.1,0-4.266-2.529-6.503-7.588v-.811h.272Zm17.07.541v.541c.586-.248,1.127-.97,1.624-2.168v-.269h-.272c-.293,0-.743.63-1.352,1.896m-4.606-1.896h.269c-.293.541-.565.811-.813.811v-.269c0-.316.18-.497.544-.541m-12.464.269h-.272v-.541h.272v.541Zm22.217-.813c0,1.784-1.988,4.674-5.961,8.671h-.272c3.612-5.553,5.692-8.443,6.233-8.671m-13.819-.811c0,.405.089.766.269,1.083v.272h-.269c0-.204-.092-.476-.272-.813v-.541h.272Zm4.606-.541h-.272v-.541h.272v.541Zm-4.606-2.71c0,.541.089,1.172.269,1.896v.269l-.541-.269v-1.896h.272Zm-8.399-3.251v.269c-.18,2.642-.272,4.991-.272,7.044h-.269c0-1.603-.092-2.686-.272-3.251.112-.429.293-1.784.541-4.062h.272Zm5.689-1.896v1.624l-.813,7.044.272,1.355v.272h-.272c0-.16-.089-.881-.269-2.168,0-1.174.269-3.884.811-8.127h.272Zm4.065-.544h-.272v-1.355h.272v1.355Zm-5.961-1.624v.541l-.272,1.627h-.269v-.544l.269-1.624h.272Zm6.231,0h-.272v-.541h.272v.541Zm15.987-8.399v.269c-.18.317-.272.677-.272,1.086h-.269v-.541c.18-.361.269-.633.269-.813h.272Zm-23.031-1.896v.269c-.541,2.982-1.083,5.148-1.624,6.503h-.272v-.269c.497-2.754,1.038-4.923,1.627-6.503h.269Zm2.168-1.355v.269c-2.349,11.132-3.523,18.357-3.523,21.676.858,6.322,3.748,9.484,8.671,9.484,1.805-.316,2.71-.677,2.71-1.086-1.287.18-2.011.272-2.168.272h-.813v-.272c2.393,0,4.201-1.174,5.42-3.521v-.272h-.541l.541-1.083v-.541c-2.168,2.527-3.884,3.793-5.148,3.793-.453,0-1.266-.18-2.438-.541v-.272h.269l1.355.272c2.281,0,4.719-2.349,7.316-7.047,0,.881-.272,1.784-.813,2.71v.541c.902-.858,1.446-1.58,1.627-2.166.18,0,.269.089.269.269.408,0,.769-.089,1.086-.269l1.355.541v.269c-3.251,6.322-6.414,9.484-9.484,9.484-1.287,0-2.281-.18-2.979-.541-4.517-1.763-6.775-4.834-6.775-9.212v-.272c0-6.864,1.263-14.36,3.793-22.487h.272Zm22.759-.272v.272c0,.361-.18.541-.541.541v-.272c0-.314.18-.494.541-.541m-21.135-.269v.269c0,.272-.269,1.355-.811,3.251h-.272v-.269c0-.18.272-1.266.813-3.251h.269Zm-2.438-2.168h-.272v-.541h.272v.541Zm22.49-3.793l-.544,1.624h-.541c.408-1.083.769-1.624,1.086-1.624m7.044-1.086h.541v-.541h-.541v.541Zm-5.148-.541v.272c-.18.337-.272.609-.272.813h-.269v-.272c.18-.361.269-.63.269-.813h.272Zm5.961-1.355v.544h.541c0-.204.089-.476.269-.813v-.272h-.269c-.316,0-.497.18-.541.541m2.707,2.71v.541h.272c.497-.044,1.308-1.399,2.438-4.062l-.269-.544-2.44,4.065Zm-1.624-4.334h.541v-.541h-.541v.541Zm-9.212-1.083h.541v-.541h-.541v.541Zm10.295-1.086h.541v-.272h-.541v.272Zm.541-1.355h.541v-.272h-.541v.272Zm-2.166,0h.269c.361,0,.541-.18.541-.541h-.269c-.317,0-.497.18-.541.541m2.979-1.355h.541v-.272h-.541v.272Zm4.334-1.355c-.811,2.124-1.716,4.02-2.707,5.692v.269h.269c.385-.044,1.378-1.941,2.982-5.689v-.272h-.544Zm-15.443,3.523v.541c.677,0,1.491-1.355,2.438-4.065h-.269c-.248,0-.97,1.174-2.168,3.523m7.316-4.065h.272l-.813,1.086.269.541h-.541c0-.902.272-1.446.813-1.627m-1.083-1.624h.541v-.541h-.541v.541Zm-6.233,8.668h-.541v-.811h-.541c-.248,1.828-1.784,4.538-4.606,8.127-.813,3.207-1.535,5.195-2.168,5.961-1.512,3.816-3.769,7.789-6.772,11.922,0-3.319,1.805-9.369,5.417-18.153.745-5.464,1.559-9.709,2.44-12.736v-.269c0-.905-1.538-1.446-4.606-1.627-.497.473-1.038.837-1.627,1.083-.453-.722-.813-1.083-1.083-1.083l-1.355,1.083-1.355-.811c-.541,0-.813.18-.813.541-.473,0-1.106-.272-1.896-.813h-.541v.541c-1.266,2.982-1.896,4.698-1.896,5.148-4.878,17.883-7.316,29.261-7.316,34.14.18,1.242.272,2.236.272,2.979,2.459,7.408,6.343,11.109,11.65,11.109h.269c3.908,0,7.429-2.438,10.567-7.313.408-1.266,1.13-2.349,2.168-3.251,2.822-5.443,5.08-9.416,6.772-11.922,3.319-8.647,6.029-14.789,8.129-18.425v-.269h-.813c-.879,1.76-1.784,3.204-2.71,4.334l.272.541c-1.151,1.174-2.325,3.612-3.523,7.316h-.269v-.541c4.763-9.866,8.195-17.454,10.295-22.759h-.813l-.269,1.083c-1.896,3.094-4.967,8.872-9.212,17.339-1.92,4.855-3.003,7.295-3.251,7.316,0-.405.63-2.393,1.896-5.961,2.234-4.334,3.68-7.405,4.334-9.212h-.541l-2.438,5.42h-.272v-.269c1.266-3.432,2.168-5.15,2.71-5.15,0-.314-.18-.494-.541-.541v-.813c1.624-3.432,2.438-5.417,2.438-5.958h-.541c-.18,1.263-.453,1.896-.813,1.896-2.911,6.163-4.538,9.325-4.876,9.482l6.503-15.173-.272-1.352v-.272l.541.272h.272v-.544h-.272v-.811c0-.317-.18-.497-.541-.544h-.269c0,.092-1.174,2.71-3.523,7.857h-.272v-.269l.272-1.085c1.263-2.142,1.896-3.497,1.896-4.062h-.541c0,.654-.361,1.106-1.083,1.355-.34,1.624-.701,2.438-1.086,2.438,0-1.559.722-3.544,2.168-5.961v-.541h-.813c-.024.947-1.556,4.29-4.606,10.023m8.399-10.837h.541c0-.316-.18-.497-.541-.541v.541Zm-43.873,59.302h.269v-.269c0-.272-.361-.544-1.083-.813h-.269c.45.722.811,1.083,1.083,1.083m-1.896-1.355h.541v-.272h-.541v.272Zm1.896,2.982h.269v-.272c-.766-1.106-2.213-2.1-4.334-2.979h-.269c0,.337,1.444,1.42,4.334,3.251m-44.976,0h.541c0-.429.361-1.334,1.083-2.71v-.541c-.97,1.038-1.512,2.121-1.624,3.251m40.098-3.251h.272v-.544c-.316,0-.769-.18-1.355-.541h-.272c.092.361.544.722,1.355,1.086m9.212-1.899c0,.361.18.544.541.544h.272v-.272c0-.316-.18-.497-.541-.541h-.272v.269Zm-.813-.269h.544c-.068-.385-.521-.745-1.355-1.083h-.541c.089.361.541.722,1.352,1.083m-5.689-1.083h.541v-.541h-.541v.541Zm5.961.269v-.269c-.272-.544-.541-.813-.813-.813h-.541c.092.361.541.722,1.355,1.083m-9.212-.541h.813c0-.316-.18-.497-.541-.541h-.272v.541Zm-.541-.541h.272c-.429-.725-.793-1.086-1.086-1.086h-.541c.024.248.473.612,1.355,1.086m-1.624-1.627c.358,0,.541-.18.541-.541h-.541v.541Zm7.313-1.083c.361.18.633.272.813.272v.269h-.272c-.316-.18-.677-.269-1.083-.269v-.272h.541Zm-10.023,0h.269c0-.316-.18-.497-.541-.541h-.272c0,.361.18.541.544.541m-.813-.541h.269c0-.316-.18-.497-.541-.541h-.269c0,.361.18.541.541.541m-6.503-1.355c1.985.722,2.979,1.263,2.979,1.624-.337,0-1.42-.45-3.251-1.355v-.269h.272Zm-16.528,0v.269c-.18.34-.269.612-.269.813h-.272v-.269c.18-.364.272-.633.272-.813h.269Zm28.179-.272h-.541v-.272h.541v.272Zm-2.168-2.438c.361,0,.544.18.544.541h-.272c-.293,0-.473-.18-.541-.541h.269Zm-1.896-1.083v.541c-.293,0-.473-.18-.541-.541h.541Zm-5.961-.272c.136,0,1.038.453,2.71,1.355v.272h-.269c-1.402-.905-2.304-1.355-2.71-1.355v-.272h.269Zm-4.876,1.896v.272h-.272c-1.716-.745-2.89-1.559-3.521-2.438.337,0,1.603.722,3.793,2.166m3.793-9.482h.272c0,.361-.183.541-.544.541h-.269c0-.316.18-.497.541-.541m-.813-.272h-.541v-.272h.541v.272Zm10.567-4.334l-.269.541h-.272l.272-.541h.269Zm-7.044.269h-.541v-.272h.541v.272Zm-16.256-1.083v.272c-.18.337-.272.609-.272.811h-.269v-.269c.18-.361.269-.633.269-.813h.272Zm26.01-4.606c-.405.745-1.31,1.467-2.71,2.168,1.627-1.242,2.438-1.964,2.438-2.168h.272Zm-20.863-2.979v.269c-1.083,2.822-2.438,5.804-4.065,8.943h-.541l4.334-9.212h.272Zm1.355-.541v.269l-.541,1.627h-.272v-.272c0-.112.18-.654.541-1.624h.272Zm-2.438-.272v.272c-1.266,2.414-1.896,3.769-1.896,4.062h-.272v-.269c1.263-2.417,1.896-3.772,1.896-4.065h.272Zm29.261-1.627v.272c-1.154,2.189-3.05,4.449-5.692,6.775v-.272c3.612-4.086,5.42-6.343,5.42-6.775h.272Zm-8.399-.541h.269v.272c-.654.902-1.106,1.355-1.355,1.355v-.541c.453-.725.813-1.086,1.086-1.086m-31.43,0h.541v-.272h-.541v.272Zm2.979.813v.272c1.355-.361,2.621-1.174,3.793-2.44v-.269h-.269c-2.349,1.399-3.523,2.213-3.523,2.438m30.888-3.523v.272c0,.361-.18.541-.541.541v-.269c0-.316.18-.497.541-.544m-34.951,0l1.083-.269v-.541h-.272c-.541.269-.811.541-.811.811m36.033-1.083h-.541v-.541h.541v.541Zm-33.596-.269h.272v-.541h-.272v.541Zm38.202-.813v.269c-.722,1.582-1.083,2.485-1.083,2.71h-.272v-.269c.722-1.378,1.086-2.281,1.086-2.71h.269Zm.272-.272h-.272v-.541h.272v.541Zm-1.627-.541v.272c0,.361-.089.541-.269.541-1.106,3.704-3.816,7.316-8.13,10.837v-.269c.385-.725.834-1.086,1.355-1.086,4.515-4.92,6.775-8.352,6.775-10.295h.269Zm-44.704,1.627h.541c2.168-1.446,3.251-2.26,3.251-2.44v-.269h-.272c-2.278,1.423-3.453,2.325-3.521,2.71m31.158-2.71h-.541v-.272h.541v.272Zm-22.217,0v.269h.272c.541-.293.811-.562.811-.811h-.541c-.293,0-.473.18-.541.541m23.3-.272h-.813v-.272h.813v.272Zm-17.611-.541h.272v.272c-.18,0-.453.089-.813.269h-.269v-.269c.201,0,.473-.092.811-.272m21.676-.272h.541v.813h.272c.654,0,1.467.092,2.438.272h.272c0,.269-.905,1.716-2.71,4.334-5.352,5.645-9.325,8.987-11.922,10.026h-.269c2.888-7.405,4.334-11.65,4.334-12.736s2.077-1.624,6.231-1.624h.272v-.541h-.813v-.272l1.355-.272Zm-32.241.813c.902,0,1.444-.269,1.624-.813v-.269h-.269c-.881.473-1.334.834-1.355,1.083m13.005-1.624h.269v.269c-.18,0-.453.092-.813.272h-.269v-.272c.204,0,.473-.089.813-.269m-1.355-1.355h.269v.269c-.316,0-1.127.361-2.438,1.085h-.272v-.272c.317,0,1.13-.361,2.44-1.083m6.503,0h-.541v-.272h.541v.272Zm3.793-1.627h.541c0,.293-.541.565-1.624.813h-.272v-.272c.316,0,.766-.18,1.355-.541m-3.523-.813h.541v.272c-.675,0-2.843.722-6.503,2.168h-.269v-.272l6.231-2.168Zm1.627,0h-.813v-.272h.813v.272Zm20.591-.541c1.988,1.219,2.982,3.207,2.982,5.961,0,6.594-6.053,13.819-18.155,21.676h-.269v-.272c1.716-.858,3.793-2.302,6.231-4.334,7.769-7.405,11.65-12.916,11.65-16.528,0-1.716-.902-3.882-2.707-6.503h.269Zm-19.777.272h-.541v-.272h.541v.272Zm1.083-.272h-.541v-.272h.541v.272Zm19.508-1.083l1.624,1.355v.541h-.269c0-.204-.541-.834-1.627-1.896h.272Zm-23.3-.272h-.813v-.272h.813v.272Zm1.624-1.083h.813v.272l-1.355.269h-.272v-.269c.204,0,.476-.092.813-.272m4.606-.813h-.541v-.272h.541v.272Zm6.775-1.083h-.541v-.272h.541v.272Zm-6.233-.272c-12.982,3.479-20.57,6.55-22.759,9.212l6.775-3.251h.813v.272c-1.739.112-5.713,2.642-11.922,7.585.902,0,2.077-.722,3.523-2.168,7.653-4.899,17.227-8.331,28.717-10.295v.272c-1.805.541-4.154.994-7.044,1.355-9.482,2.663-15.082,5.103-16.798,7.316.204,0,.473-.092.813-.272h.269c0,.272-.63.994-1.896,2.168v.269c.429,0,1.331-.361,2.71-1.083h.272v.269c-.429,0-2.417,1.174-5.961,3.523-1.13,1.446-1.943,2.168-2.438,2.168,0,.18.089.269.269.269l-1.083,1.086v.541h.269l.544-.272v.272c1.263,0,1.896-.361,1.896-1.086v-.269c-.183,0-.272.089-.272.269h-.269l.269-.541v-.269l-.269-.541c.269,0,1.083-.18,2.438-.544h.269c0,.364-.269.544-.811.544v.541c.494,0,1.038-.18,1.624-.541h.272c-2.168,1.737-3.251,2.731-3.251,2.979h.541c4.47-3.251,7.18-4.878,8.127-4.878h.544v.272l-1.355.272v.541c.677-.024,1.849-.565,3.521-1.627h.272c0,1.423-2.349,6.843-7.044,16.256-2.89.609-4.337,1.334-4.337,2.168,0,.541.18.813.541.813l1.086,1.896c0,.79-1.988,5.216-5.961,13.275v.272h.272l1.083-1.355c-1.263,4.426-2.438,7.497-3.523,9.212v.813l1.086,1.355c.201,0,.473-.092.811-.272,1.988,0,2.982.361,2.982,1.083.766,0,1.399-.269,1.896-.811.361,0,.541.18.541.541l.541-.272h.541l1.355.272c.453-.453,1.266-1.716,2.44-3.793,2.391-9.44,4.198-14.407,5.417-14.901,4.878,3.793,10.567,7.224,17.07,10.295h.541c0-.429-.633-.881-1.896-1.355v-.272h.272l7.585,3.793h.272c-2.079-1.873-5.059-3.769-8.943-5.689-1.331-1.038-5.396-3.476-12.192-7.316v-.541c6.526,4.154,10.408,6.233,11.65,6.233h.272c-.092-.521-2.079-1.603-5.961-3.251v-.272h.269c2.529,1.083,5.15,2.529,7.857,4.334v.272h-.541c.453.722.813,1.083,1.086,1.083h.541l-.541-.811c.201,0,.473.089.811.269.204,0,.476-.089.813-.269.745.382,2.009,1.195,3.793,2.438h.541v-.541c-.429,0-2.145-.994-5.148-2.982v-.269h.272c4.266,2.098,6.523,3.272,6.775,3.521h.541v-.541c.586.361,1.038.541,1.355.541v.272h-.272l-.541-.272h-.541c0,.316.63.858,1.896,1.627l.541-.272c0-.18-.092-.269-.272-.269,0-.183.092-.272.272-.272,0-.316-1.355-1.399-4.065-3.251h.272c1.692,1.038,2.867,1.852,3.521,2.438h.544c-.725-.926-1.086-1.467-1.086-1.624.701,0,1.695.541,2.982,1.624h.269v-.269c0-.16-1.174-1.062-3.521-2.71l.269-.541c-.024-.316-.926-.949-2.71-1.896h-.269v.541h.541v.269h-.272c-1.444-.473-2.166-.926-2.166-1.355.314,0,.766.18,1.355.544h.269v-.544h-.269c-5.375-3.5-9.62-6.027-12.736-7.585v-.272c1.331-1.58,2.958-2.663,4.878-3.251,11.017-8.035,16.526-14.901,16.526-20.591v-1.624c0-1.287-.18-2.281-.541-2.982-2.665-5.42-7.449-8.127-14.36-8.127h-.269c-.973,0-2.869.269-5.692.811M11.476,85.619h.541l.272-1.355v-.272c-.429,0-.701.541-.813,1.627m-1.627,0h.544c0-.115.18-.745.541-1.899h-.541l-.544,1.899Zm-1.352-5.692h.541v-.541h-.541v.541Zm-4.337,2.168h.272c.541,0,1.083-1.266,1.624-3.793h-.541c0,.112-.453,1.376-1.355,3.793m4.878-3.793v.269h.269c.361,0,.541-.18.541-.541v-1.083h-.541l-.269,1.355Zm-.541-2.982h.541v-.541h-.541v.541Zm4.876-1.355h-.272v-.541h.272v.541Zm-4.334,0h.541l.269-1.355h-.541l-.269,1.355Zm.811-2.166h.544c0-.296.18-1.017.541-2.168h-.541c-.364,1.263-.544,1.988-.544,2.168m8.402-2.168h-.272v-.541h.272v.541Zm-1.086-1.083h-.272v-.541h.272v.541Zm-1.083-.813v.541c-.18.34-.272.609-.272.813h-.269v-.272c.18-.316.269-.677.269-1.083h.272Zm7.316-5.689h.269v.269c-.293,0-.654.18-1.083.541h-.813v-.269c.34,0,.881-.18,1.627-.541m1.083-3.793v.269c-.204,0-.473.089-.813.272l.272-.541h.541Zm.272-2.168h.269v.269c-.248,0-.79.272-1.624.813h-.272v-.269c.248,0,.79-.272,1.627-.813m7.857-1.083h.269c.34,0,1.062-.272,2.168-.813v-.541c-1.627.497-2.438.947-2.438,1.355m6.503.541c.743,0,2.37-.541,4.876-1.627v-.541c-3.251,1.015-4.876,1.739-4.876,2.168m-22.759-1.355h-.272v-.541h.272v.541Zm17.067-1.627l.272.541c.429-.361.79-.541,1.083-.541v-.541h-.541l-.813.541Zm-19.508-.269v.269c0,.18-.269,1.266-.813,3.251h-.541c.722-1.849,1.086-3.024,1.086-3.521h.269Zm14.632-.544h.269v.272c-.201,0-.473.092-.811.272h-.272v-.272c.18,0,.453-.089.813-.272m-2.168,0h.813v.272l-1.896.541v-.541l1.083-.272Zm9.754,0h.541v-.541h-.541v.541Zm-18.966-.811v.541l-.541,1.896h-.269v-.272c.358-1.151.541-1.873.541-2.166h.269Zm12.736-.541h.269v.269c-.201,0-.473.092-.811.272h-.272v-.272c.18,0,.453-.089.813-.269m3.521-.813h.272v.269c-.204,0-.473.092-.813.272h-.269v-.272c.18,0,.45-.089.811-.269m-5.689.269h-.541v-.272h.541v.272Zm10.026-1.355h.269c-.18.34-.269.612-.269.813l-.544-.269c0-.316.18-.497.544-.544m-7.857-.811v.541c1.781-.473,3.228-1.017,4.334-1.627v-.541c-.361,0-1.807.541-4.334,1.627m-12.736-4.606v.541c-.361.654-.811,1.828-1.355,3.523h-.269v-.272c.902-2.1,1.355-3.364,1.355-3.793h.269Zm1.627-.272v.272c0,1.376-1.266,5.352-3.793,11.922h-.544c1.174-4.742,2.529-8.807,4.065-12.194h.272Zm1.355-.269v.269l-.541,1.896h-.272v-.269c.361-.722.541-1.355.541-1.896h.272Zm-2.71.269h-.272v-.541h.272v.541Zm15.443-9.482h.272v.269c-1.627.497-2.44.949-2.44,1.355h-.811v-.269c.293,0,1.287-.453,2.979-1.355m9.484-2.71v.541h.541c.316,0,1.127-.269,2.438-.813v-.541l-2.979.813Zm-13.005-.813h.269v.272c-.361,0-.994.269-1.896.813v-.544c.34,0,.881-.18,1.627-.541m18.153-.269h.541v-.541h-.541v.541Zm-23.572-1.086h.541v.272c-.497,0-1.038.18-1.624.541h-.272v-.272c.316,0,.766-.18,1.355-.541m24.655.272v.541c3.047-.722,4.763-1.083,5.148-1.083v-.541h-.541l-4.606,1.083Zm-21.404-.813h-.541v-.272h.541v.272Zm13.275,0v.541c2.508-.722,3.952-1.083,4.337-1.083v-.541c-.429,0-1.875.361-4.337,1.083m-11.378-1.355c.361,0,.541.18.541.541-.204,0-.473.092-.813.272v-.813h.272Zm2.168-.541h.541v.272c-.408,0-.769.089-1.086.269h-.269v-.269c.18,0,.45-.092.813-.272m11.378-.541v.541l1.355-.272v-.541l-1.355.272Zm-13.547,0h-.541v-.272h.541v.272Zm15.984-.272h1.355v-.541h-1.355v.541Zm-7.313-.811h.269v.269c-.316,0-.766.18-1.355.541h-.541v-.269c.473,0,1.017-.18,1.627-.541m-2.982,0h.272c0,.293-.541.654-1.627,1.083v-.541c.316,0,.769-.18,1.355-.541m-4.065,0h.272v.269c-.204,0-.473.092-.813.272h-.269v-.272c.18,0,.45-.089.811-.269m7.857-.544h-.541v-.272h.541v.272Zm-1.896-.269h.272v.269c-.204,0-.473.092-.813.272h-.269v-.272c.18,0,.45-.089.811-.269m6.775-1.086h.269v.272c-.201,0-.473.092-.811.272h-.541v-.272c.405,0,.766-.089,1.083-.272m-7.857,0h.272v.272c-.204,0-.476.092-.813.272h-.272v-.272c.18,0,.453-.089.813-.272m8.671-.811h-.272v-.541h.272v.541Zm-5.42-.544h.541v-.541h-.541v.541Zm6.231-1.352h-.541v-.272h.541v.272Zm.272-.272v-.541h-.272c-2.234.722-3.769,1.083-4.606,1.083v.541h1.086v.272c-.541,0-1.446.361-2.71,1.083l-.272-.541c-2.098,0-4.177.633-6.231,1.896-3.003.541-7.881,2.168-14.632,4.878-7.224.429-11.289,1.062-12.192,1.896,0,1.556.813,3.272,2.438,5.148l-.269.541v.272c.293,0,.562.18.813.541.089,1.444.45,2.166,1.083,2.166l-.272,1.355v.272c.18,0,.453-.089.813-.272l.813.544h.813c.722,0,2.257-.272,4.606-.813h.811c-3.139,9.777-5.305,15.466-6.503,17.07h-3.521c-2.778,0-4.766.63-5.961,1.896.834,3.251,1.648,4.876,2.438,4.876l-.272.541v.272h.544c.316,1.624.858,2.438,1.624,2.438l-.269.541v.272c0,.541.722.902,2.166,1.083l-5.417,14.632v.269h.541c.902-2.89,1.444-4.334,1.624-4.334,2.372-7.224,3.905-10.837,4.606-10.837,0,.361-.633,2.527-1.896,6.503v.269c.18-.021,1.263-2.37,3.251-7.044l1.083.541,1.355-.269-2.166,6.231v.272h.541c0-.34.722-2.689,2.166-7.044h.813c-.902,3.793-2.257,7.494-4.065,11.106,0,3.071-.45,4.698-1.352,4.878l.269,1.355-.269,1.896h.541c0-.677.541-2.574,1.624-5.689h-.269c0-.408.089-.769.269-1.086,1.807-3.34,2.71-5.237,2.71-5.689h.272v.272c-.364.902-.544,1.535-.544,1.896v.269l.544-.269h.269c-.18.316-.269.677-.269,1.083l-.813-.541-1.083,2.979v.272h.269c.722-.473,1.083-1.198,1.083-2.168l.544.272c-.544,1.263-.905,2.529-1.086,3.793v.272c.361,0,.994-1.355,1.896-4.065h.272v1.083h.541l1.627-4.606c0-.316-.183-.497-.541-.541v.541h-.272v-.269c.541-1.266.813-2.44.813-3.523h.269c0,.408.092.766.272,1.083l.541-.269c1.195-4.201,2.189-6.819,2.979-7.857,8.129-3.84,12.194-5.917,12.194-6.231h-.541c-1.287,0-2.281.18-2.982.541h-.269v-.272c1.015-.204,1.556-.473,1.624-.813,6.029-2.145,9.641-3.769,10.837-4.876v-.272c-3.003.725-5.621,1.716-7.857,2.982-7.201,3.296-11.174,5.284-11.92,5.961v-.272c.089-.881,2.618-2.417,7.585-4.606v-.272l-.269-.541c.722,0,1.083-.269,1.083-.811,0-.272.813-.905,2.438-1.899v-.269c-2.281.722-4.177,1.444-5.689,2.168v-.272l.269-.541c6.254-2.257,10.049-4.065,11.381-5.42l-.272-.541h.544c.361,0,.541.18.541.541.858-.405,1.488-1.038,1.896-1.896v-.272c-.361,0-.905.183-1.627.544h-.269v-.272h.541v-.541c-.633.18-.994.269-1.083.269v.272l.269.541c-.654,0-1.467.272-2.438.813h-.272c0-.18.092-.272.272-.272l-.272-.541-1.896.541.272.541c-.204,0-.473.092-.813.272v-.813c2.799-1.444,4.334-2.166,4.606-2.166v-.544c-5.961,2.236-8.94,3.502-8.94,3.795-.316,0-.497-.18-.541-.544-1.31,0-2.396.364-3.251,1.086h-.272c2.529-7.565,3.793-12.079,3.793-13.547,5.6-1.807,9.484-3.251,11.65-4.337v-.541c-3.432.361-5.148.994-5.148,1.896h-1.355l-1.355.272v-.272c5.216-1.985,7.925-3.071,8.129-3.251,5.666-1.151,9.097-2.234,10.295-3.251v-.269c-7.813,2.166-14.949,4.426-21.404,6.772h-.272c0-.834,2.71-2.1,8.129-3.793l-.272-.541c.408,0,.769.089,1.086.269h.269c0-.337-.18-.879-.541-1.624,1.355-.541,2.349-.813,2.979-.813v-.541c-.811,0-2.707.541-5.689,1.627h-.269v-.272l7.585-3.251c4.154-.994,6.231-1.627,6.231-1.896v-.272c-.45,0-1.263.18-2.438.541h-.269v-.269c2.077-.361,3.973-.813,5.689-1.355v-.541l-1.896.269v-.541h-1.086v.541h.813v.272c-.722,0-1.716.18-2.979.541l-.813-.541-1.627.269h-.269v-.269c2.482-1.083,4.198-1.627,5.148-1.627v-.541l-4.606.813Z"></path>
</svg>
