<?xml version="1.0" encoding="UTF-8"?>
<svg xmlns="http://www.w3.org/2000/svg" id="a" viewBox="0 0 559.43 126.15">
  <defs>
    <style>.b{stroke-width:0px;}</style>
  </defs>
  <path class="b" d="m.173,120.066c-.154-.204-.206-.333-.154-.385.05-.051.141-.089.27-.115.127-.025.256-.051.385-.077.127-.025.218-.089.27-.192.102-.154.166-.397.192-.731.025-.333.025-.693,0-1.078-.026-.385-.052-.743-.077-1.078-.027-.333-.065-.525-.116-.577,0-.103.064-.18.192-.231.127-.051.166-.103.116-.154-.104-.102-.257-.166-.462-.192-.206-.025-.308-.089-.308-.192.256-.103.462-.166.616-.192.154-.025.282-.141.385-.347.102-.204.166-.577.192-1.116.025-.539.039-1.155.039-1.849s-.013-1.411-.039-2.155c-.026-.744-.039-1.425-.039-2.041,0-.564-.104-1.129-.308-1.694-.206-.563-.334-1.103-.385-1.616,0-.359.051-.693.154-1.002.103-.308.154-.589.154-.847,0-.82-.09-1.694-.27-2.618-.181-.924-.192-1.821-.039-2.695.102-.41.166-.654.192-.731.025-.076.012-.319-.039-.731-.052-.204-.052-.564,0-1.078.051-.512.103-1.001.154-1.463.05-.77.089-1.514.115-2.232.025-.719.064-1.335.116-1.849.102-.82.102-1.552,0-2.194-.104-.642-.104-1.244,0-1.81.102-.564.102-1.219,0-1.964-.104-.743-.104-1.397,0-1.963.05-.205.127-.411.231-.616.102-.205.154-.358.154-.462-.052-.051-.103-.077-.154-.077-.052-.051-.09-.103-.116-.154-.026-.051-.065-.103-.115-.154-.154-.41-.219-.77-.192-1.077.025-.309.05-.552.077-.732.025-.179-.013-.319-.115-.423-.104-.103-.334-.154-.693-.154h-.231c0-.256.154-.358.462-.308.308.052.487-.025.539-.231-.052-.103-.154-.115-.308-.038-.154.077-.308.115-.462.115-.206,0-.335-.103-.385-.308.256-.103.616-.218,1.078-.347.462-.128.744-.372.847-.731.102-.103.05-.27-.154-.501-.206-.23-.308-.448-.308-.654,0,.052.012,0,.039-.154.025-.154.012-.256-.039-.308.103-.051.205-.089.308-.116.103-.024.154-.063.154-.115.05-.153.025-.23-.077-.23-.104,0-.154-.051-.154-.154,0-.204.077-.308.231-.308-.104-.103-.27-.142-.501-.116-.231.026-.346-.012-.346-.115,0-.154.102-.231.308-.231h.154c0-.256-.154-.487-.462-.692,0-.103.05-.166.154-.192.103-.025.205-.089.308-.192h-.154c-.258,0-.373-.18-.347-.539.025-.359.166-.59.423-.693.103-.103.179-.077.231.077.051.154.128.257.231.308h4.004c.205-.103.333-.243.385-.423.051-.18.128-.295.231-.347.102-.051.358-.077.77-.077.718,0,1.655.104,2.811.308,1.155.206,2.143.335,2.964.386.462,0,.936-.013,1.425-.039.487-.025.962-.063,1.424-.115h2.541c1.334,0,2.657.064,3.966.192,1.309.129,2.502.45,3.581.963.102.104.243.257.423.462.179.205.372.359.578.462,1.18.514,2.118,1.399,2.811,2.656.693,1.259,1.167,2.632,1.425,4.12.102.615.166,1.271.192,1.963.025.693.012,1.245-.039,1.656-.104.719-.039,1.438.192,2.155.231.72.295,1.49.192,2.311,0,.154-.052.296-.154.424-.104.128-.181.27-.231.423-.104.565-.167,1.284-.192,2.156-.027.874-.142,1.669-.347,2.387-.052.258-.181.578-.385.963-.206.385-.283.706-.231.963.103.462.436.937,1.001,1.424.564.489,1.001.989,1.309,1.502.256.462.462.989.616,1.578.154.591.282,1.169.385,1.733.102.719.281,1.438.539,2.155.256.72.436,1.413.539,2.079,0,.258.025.553.077.886.051.335.051.604,0,.809,0,.104-.065.219-.192.347-.129.129-.219.27-.27.424-.154.514-.244,1.065-.27,1.655-.026.591-.026,1.193,0,1.81.025.616.039,1.207.039,1.771s-.052,1.104-.154,1.617c-.104.206-.219.385-.346.539-.129.154-.244.335-.347.539-.104.258-.129.771-.077,1.54.051.771-.052,1.438-.308,2.002-.052.154-.167.283-.347.386-.181.103-.321.23-.423.385-.258.462-.501.95-.732,1.463-.231.514-.527.924-.885,1.232-.308.257-.809.526-1.501.808-.693.283-1.438.527-2.233.732-.796.205-1.566.372-2.31.5-.745.129-1.347.192-1.81.192-1.54,0-3.247.065-5.121.192-1.875.129-3.786.192-5.736.192-.976,0-1.925-.024-2.849-.076-.924-.051-1.823-.154-2.695-.309-.154-.051-.423-.103-.809-.154-.385-.05-.796-.089-1.232-.115-.437-.025-.86-.051-1.271-.077-.412-.025-.72-.038-.924-.038-.154.104-.219.181-.193.23.025.052-.039.231-.192.539-.308-.102-.423-.256-.347-.462.077-.204.064-.41-.038-.615-.154-.051-.231-.039-.231.038v.616c0,.077-.077.09-.231.038,0-.256.039-.616.116-1.078s.115-.924.115-1.386-.065-.859-.192-1.193c-.128-.333-.373-.526-.731-.578Zm11.705-5.312c.256-.051.525-.077.808-.077h.886c.718,0,1.437.026,2.156.077.718.052,1.437.077,2.156.077s1.398-.051,2.041-.154c.642-.103,1.194-.333,1.656-.693.256-.204.513-.525.77-.962.256-.436.474-.925.654-1.464.179-.538.308-1.09.385-1.655.077-.564.063-1.078-.039-1.54,0-.154-.065-.333-.192-.539-.129-.204-.219-.436-.27-.692-.154-.873-.206-1.72-.154-2.542.051-.82-.206-1.437-.77-1.848-.462-.41-1.078-.666-1.848-.77-.77-.103-1.592-.154-2.464-.154s-1.732.026-2.58.077c-.847.052-1.579.077-2.194.077h-.616c-.104.976-.154,2.015-.154,3.118s.012,2.221.038,3.35c.025,1.13.025,2.233,0,3.312-.026,1.077-.115,2.079-.269,3.003Zm.231-32.727c-.104,1.387-.116,2.965-.039,4.736.077,1.771.089,3.426.039,4.966.205-.05.397-.076.577-.076h.5c.667,0,1.283.076,1.848.23.564.154,1.129.231,1.694.231.512,0,1.013-.154,1.501-.462.487-.309.949-.68,1.386-1.117.436-.436.782-.91,1.04-1.424.256-.513.411-1.001.462-1.464,0-.153-.065-.294-.193-.423-.128-.128-.192-.295-.192-.501-.052-.154-.013-.333.116-.539.127-.204.218-.41.27-.616v-1.116c0-.436-.013-.872-.039-1.309-.026-.436-.065-.848-.116-1.232-.052-.385-.128-.654-.231-.809-.154-.308-.475-.564-.962-.77-.489-.205-1.027-.372-1.617-.501-.591-.128-1.182-.204-1.771-.23-.591-.025-1.117-.039-1.579-.039h-.462c-.257,0-.539.014-.847.039-.308.026-.591.064-.847.115-.258.052-.437.129-.539.23-.104.154-.129.476-.077.963.05.488.077.86.077,1.116Z"></path>
  <path class="b" d="m38.751,99.122l-.462-.23c-.104-.154-.154-.386-.154-.693s-.206-.513-.616-.616c.308-.051.41-.141.308-.27-.104-.127-.181-.32-.231-.577-.103-.616-.128-1.335-.077-2.156.05-.82.115-1.681.192-2.58.077-.897.154-1.758.231-2.579.077-.82.089-1.54.039-2.156-.104-1.796-.129-3.67-.077-5.621.051-1.95.051-3.67,0-5.159-.052-.666.012-1.321.192-1.964.18-.641.27-1.271.27-1.886,0-.463-.077-.911-.231-1.348-.154-.436-.154-.911,0-1.425.513.052,1.013.077,1.501.077h1.502c1.796,0,3.581-.063,5.352-.192,1.771-.128,3.606-.192,5.505-.192.616,0,1.232.013,1.848.038.616.026,1.232.065,1.848.115.256.052.526.077.809.077h.886c.616,0,1.271-.012,1.963-.038.693-.025,1.398-.039,2.118-.039.41,0,.962-.012,1.655-.038.693-.025,1.348-.039,1.964-.039.462,0,.872.014,1.232.039.358.026.616.09.77.192.256.206.281.296.077.27-.206-.025-.283.09-.231.347.051.205.154.308.308.308.051,0,.064,0,.039,0-.026,0-.09.104-.192.309,0-.051-.052.142-.154.577-.103.437-.308.629-.616.577.564.104.782.347.654.731-.128.386-.27.707-.423.963.205.104.385.154.539.154h1.232c0,.257-.181.385-.539.385h-.539c-.257,0-.411.026-.462.077-.052.257.064.373.347.347.281-.025.397.09.346.346h-.77c.256.309.385.732.385,1.271s.281.911.847,1.116c-.258.462-.616.758-1.078.886s-1.053.192-1.771.192c-.412,0-.822-.013-1.232-.039-.411-.025-.874-.038-1.386-.038h-8.933c-.462,0-.937-.025-1.424-.077-.488-.051-.962-.077-1.424-.077-.72,0-1.284.129-1.694.385-.412.258-.488.822-.231,1.694.051.154.141.258.27.309.127.052.218.128.27.23.05.359.039.797-.039,1.31-.077.514-.167,1.053-.27,1.616-.104.565-.18,1.155-.231,1.771-.052.616-.052,1.232,0,1.848.051.565.051,1.284,0,2.156-.052.874-.129,1.694-.231,2.464,2.31.104,4.594.168,6.853.193,2.258.026,4.543.038,6.854.038.256,0,.487-.012.693-.038.205-.025.41-.039.616-.039.358,0,.628.091.808.27.18.181.32.553.424,1.116.102.412.166,1.001.192,1.771.025.77-.013,1.412-.115,1.925,0,.309-.104.874-.308,1.694-.206.821-.308,1.617-.308,2.387h-2.31c-1.335,0-2.67-.012-4.004-.038-1.335-.025-2.669-.039-4.004-.039h-1.656c-.539,0-1.066.027-1.578.077-.104,0-.398.014-.886.039-.488.026-.758.064-.809.115-.104.104-.154.296-.154.577,0,.283.012.591.039.925.025.334.05.654.077.962.025.309.039.539.039.693,0,.924-.026,1.848-.077,2.772-.052.924-.103,1.925-.154,3.003,0,.205-.013.539-.039,1.001-.026.462-.039.937-.039,1.424s.012.951.039,1.387c.025.437.089.731.192.886.103.153.642.23,1.617.23.462,0,.949-.012,1.463-.038.513-.025.924-.039,1.232-.039h13.86c.05.258.089.578.115.963.025.385.039.758.039,1.116,0,.36-.052.654-.154.886-.104.231-.283.347-.539.347.513.052.718.27.616.654-.104.385-.104.681,0,.886.05.104.154.154.308.154.103,0,.205-.013.308-.039.103-.025.205-.038.308-.038.154,0,.231.077.231.23,0,.206-.052.309-.154.309-.104,0-.206-.013-.308-.039-.104-.025-.206-.038-.308-.038h-.231c-.257.104-.257.205,0,.308.256.104.333.258.231.462,0,.052-.077.065-.231.039-.154-.025-.283.013-.385.115.051-.051.025.052-.077.308-.052.154-.104.309-.154.462,0,.154.141.412.424.771.281.359.27.693-.039,1.001-.104.104-.385.167-.847.192-.462.026-1.001.039-1.617.039-.874,0-1.784-.013-2.733-.039-.951-.025-1.784-.038-2.502-.038-1.9,0-3.684-.013-5.352-.039-1.669-.025-3.248-.038-4.736-.038h-2.156c-.719,0-1.413.026-2.079.077h-1.963c-.693,0-1.322-.051-1.887-.154-.257-.051-.488-.128-.693-.231-.206-.102-.412-.153-.616-.153-.154.104-.308.205-.462.308-.308.206-.591.309-.847.309-.154,0-.258-.025-.308-.077-.206-.154-.347-.552-.424-1.193-.077-.642-.104-1.335-.077-2.079.025-.744.063-1.437.115-2.079.051-.642.077-1.04.077-1.194.05-.512.039-1.064-.039-1.655-.077-.59-.09-1.244-.039-1.964.051-.974.077-1.988.077-3.041v-3.119c0-1.025-.013-2.002-.039-2.926-.026-.924-.039-1.719-.039-2.387v-1.001c0-.309.025-.667.077-1.078,0-.154-.026-.18-.077-.077-.052.104-.052.181,0,.231-.257-.103-.346-.218-.27-.347.077-.128.193-.27.347-.424s.32-.333.5-.539c.179-.204.27-.385.27-.539Z"></path>
  <path class="b" d="m103.973,70.478c-.308.462-.385.873-.231,1.231.154.36.231.797.231,1.31,0,.308-.027.821-.077,1.54-.052.72.025,1.231.231,1.54.05.257-.026.385-.231.385-.206,0-.308.077-.308.231,0,.104.127.153.385.153-.258.206-.385.386-.385.539,0,.154.039.309.116.462.077.154.166.335.27.539.102.206.154.514.154.925-.412.104-.822.167-1.232.192-.412.026-.822.038-1.232.038-.874,0-1.733-.038-2.58-.115-.847-.077-1.708-.115-2.58-.115-1.13,0-2.054.128-2.772.385-.052,0-.077.052-.077.154l.077.076c-.052.154-.154.231-.308.231-.104,0-.181-.012-.231-.039-.052-.024-.128-.038-.231-.038-.052,0-.104.026-.154.077-.104.206-.167.539-.192,1.001-.027.462-.027.963,0,1.502.025.539.05,1.091.077,1.655.025.565.039,1.027.039,1.386v39.426c-.154,0-.321.012-.5.038-.18.025-.346.038-.5.038-.822,0-1.309-.23-1.463-.692-.257-.103-.36-.025-.308.23.051.257-.052.358-.308.309-.257.05-.36-.014-.308-.192.051-.18.103-.295.154-.347-.154,0-.283.013-.385.038-.104.026-.206.039-.308.039-.154,0-.257-.154-.308-.463-.154.104-.219.27-.193.501.025.231-.09.372-.346.424-.258-.104-.398-.282-.424-.539-.026-.257-.09-.513-.192-.771-.104.206-.142.398-.115.578.025.18-.013.423-.116.731-.104.05-.321-.014-.654-.192-.334-.18-.552-.243-.655-.193-.104,0-.167.065-.192.193-.026.127-.09.218-.192.27-.308.102-.539.153-.693.153-.308,0-.629-.038-.962-.115-.334-.077-.681-.115-1.04-.115-.104,0-.206.012-.308.038-.104.025-.206.039-.308.039v-39.194c0-.616-.027-1.244-.077-1.887-.052-.642-.065-1.258-.039-1.849.025-.589.102-1.116.231-1.578.127-.462.347-.77.655-.924-.874-.103-1.708-.18-2.503-.231-.796-.05-1.63-.077-2.502-.077-.72,0-1.424.014-2.118.039-.693.026-1.399.038-2.118.038h-1.424c-.488,0-.989-.025-1.501-.077.256-.41.243-.743-.039-1.001-.282-.256-.449-.563-.5-.924-.051-.256-.039-.424.039-.5.077-.077.142-.243.192-.501.05-.103.039-.243-.039-.424-.077-.179-.115-.371-.115-.577.052-.358.166-.667.346-.924.179-.257.039-.436-.423-.539,0-.103.077-.154.231-.154s.256-.077.308-.23c.05-.154-.052-.231-.308-.231s-.385-.051-.385-.154c0-.102.104-.153.308-.153h.347c.127,0,.166-.077.116-.231-.104-.154-.283-.204-.539-.154-.256.052-.385-.05-.385-.308h.462c.308,0,.513-.051.616-.154-.104-.204-.27-.295-.5-.27-.231.026-.424-.012-.578-.115.104-.103.206-.154.308-.154.104,0,.181.014.231.039.05.026.127.038.231.038.103,0,.205-.051.308-.153-.052-.103-.116-.309-.192-.616-.077-.309-.065-.487.039-.539.204-.103.487-.154.847-.154h2.387c.256-.051.526-.141.809-.27.281-.128.603-.192.962-.192.103,0,.205-.012.308-.038.102-.025.205-.039.308-.039.41,0,.795.026,1.155.077.358.052.718.077,1.078.077h.385c.616-.051,1.194-.089,1.733-.115.539-.025,1.064-.039,1.579-.039h.847c.359,0,.731.014,1.117.039.385.026.744.064,1.078.115.333.052.603.104.809.154.102.051.192.128.27.23.077.104.166.154.27.154,1.026.153,2.079.23,3.157.23,1.437,0,2.875-.063,4.312-.192,1.437-.127,2.746-.192,3.927-.192h.462c.873.052,1.771.09,2.695.115.924.026,1.822.039,2.695.039Z"></path>
  <path class="b" d="m139.623,70.478c-.308.462-.385.873-.231,1.231.154.36.231.797.231,1.31,0,.308-.027.821-.077,1.54-.052.72.025,1.231.231,1.54.05.257-.026.385-.231.385-.206,0-.308.077-.308.231,0,.104.127.153.385.153-.258.206-.385.386-.385.539,0,.154.039.309.116.462.077.154.166.335.27.539.102.206.154.514.154.925-.412.104-.822.167-1.232.192-.412.026-.822.038-1.232.038-.874,0-1.733-.038-2.58-.115-.847-.077-1.708-.115-2.58-.115-1.13,0-2.054.128-2.772.385-.052,0-.077.052-.077.154l.077.076c-.052.154-.154.231-.308.231-.104,0-.181-.012-.231-.039-.052-.024-.128-.038-.231-.038-.052,0-.104.026-.154.077-.104.206-.167.539-.192,1.001-.027.462-.027.963,0,1.502.025.539.05,1.091.077,1.655.025.565.039,1.027.039,1.386v39.426c-.154,0-.321.012-.5.038-.18.025-.346.038-.5.038-.822,0-1.309-.23-1.463-.692-.257-.103-.36-.025-.308.23.051.257-.052.358-.308.309-.257.05-.36-.014-.308-.192.051-.18.103-.295.154-.347-.154,0-.283.013-.385.038-.104.026-.206.039-.308.039-.154,0-.257-.154-.308-.463-.154.104-.219.27-.193.501.025.231-.09.372-.346.424-.258-.104-.398-.282-.424-.539-.026-.257-.09-.513-.192-.771-.104.206-.142.398-.115.578.025.18-.013.423-.116.731-.104.05-.321-.014-.654-.192-.334-.18-.552-.243-.655-.193-.104,0-.167.065-.192.193-.026.127-.09.218-.192.27-.308.102-.539.153-.693.153-.308,0-.629-.038-.962-.115-.334-.077-.681-.115-1.04-.115-.104,0-.206.012-.308.038-.104.025-.206.039-.308.039v-39.194c0-.616-.027-1.244-.077-1.887-.052-.642-.065-1.258-.039-1.849.025-.589.102-1.116.231-1.578.127-.462.347-.77.655-.924-.874-.103-1.708-.18-2.503-.231-.796-.05-1.63-.077-2.502-.077-.72,0-1.424.014-2.118.039-.693.026-1.399.038-2.118.038h-1.424c-.488,0-.989-.025-1.501-.077.256-.41.243-.743-.039-1.001-.282-.256-.449-.563-.5-.924-.051-.256-.039-.424.039-.5.077-.077.142-.243.192-.501.05-.103.039-.243-.039-.424-.077-.179-.115-.371-.115-.577.052-.358.166-.667.346-.924.179-.257.039-.436-.423-.539,0-.103.077-.154.231-.154s.256-.077.308-.23c.05-.154-.052-.231-.308-.231s-.385-.051-.385-.154c0-.102.104-.153.308-.153h.347c.127,0,.166-.077.116-.231-.104-.154-.283-.204-.539-.154-.256.052-.385-.05-.385-.308h.462c.308,0,.513-.051.616-.154-.104-.204-.27-.295-.5-.27-.231.026-.424-.012-.578-.115.104-.103.206-.154.308-.154.104,0,.181.014.231.039.05.026.127.038.231.038.103,0,.205-.051.308-.153-.052-.103-.116-.309-.192-.616-.077-.309-.065-.487.039-.539.204-.103.487-.154.847-.154h2.387c.256-.051.526-.141.809-.27.281-.128.603-.192.962-.192.103,0,.205-.012.308-.038.102-.025.205-.039.308-.039.41,0,.795.026,1.155.077.358.052.718.077,1.078.077h.385c.616-.051,1.194-.089,1.733-.115.539-.025,1.064-.039,1.579-.039h.847c.359,0,.731.014,1.117.039.385.026.744.064,1.078.115.333.052.603.104.809.154.102.051.192.128.27.23.077.104.166.154.27.154,1.026.153,2.079.23,3.157.23,1.437,0,2.875-.063,4.312-.192,1.437-.127,2.746-.192,3.927-.192h.462c.873.052,1.771.09,2.695.115.924.026,1.822.039,2.695.039Z"></path>
  <path class="b" d="m143.164,99.122l-.462-.23c-.104-.154-.154-.386-.154-.693s-.206-.513-.616-.616c.308-.051.41-.141.308-.27-.104-.127-.181-.32-.231-.577-.103-.616-.128-1.335-.077-2.156.05-.82.115-1.681.192-2.58.077-.897.154-1.758.231-2.579.077-.82.089-1.54.039-2.156-.104-1.796-.129-3.67-.077-5.621.051-1.95.051-3.67,0-5.159-.052-.666.012-1.321.192-1.964.18-.641.27-1.271.27-1.886,0-.463-.077-.911-.231-1.348-.154-.436-.154-.911,0-1.425.513.052,1.013.077,1.501.077h1.502c1.796,0,3.581-.063,5.352-.192,1.771-.128,3.606-.192,5.505-.192.616,0,1.232.013,1.848.038.616.026,1.232.065,1.848.115.256.052.526.077.809.077h.886c.616,0,1.271-.012,1.963-.038.693-.025,1.398-.039,2.118-.039.41,0,.962-.012,1.655-.038.693-.025,1.348-.039,1.964-.039.462,0,.872.014,1.232.039.358.026.616.09.77.192.256.206.281.296.077.27-.206-.025-.283.09-.231.347.051.205.154.308.308.308.051,0,.064,0,.039,0-.026,0-.09.104-.192.309,0-.051-.052.142-.154.577-.103.437-.308.629-.616.577.564.104.782.347.654.731-.128.386-.27.707-.423.963.205.104.385.154.539.154h1.232c0,.257-.181.385-.539.385h-.539c-.257,0-.411.026-.462.077-.052.257.064.373.347.347.281-.025.397.09.346.346h-.77c.256.309.385.732.385,1.271s.281.911.847,1.116c-.258.462-.616.758-1.078.886s-1.053.192-1.771.192c-.412,0-.822-.013-1.232-.039-.411-.025-.874-.038-1.386-.038h-8.933c-.462,0-.937-.025-1.424-.077-.488-.051-.962-.077-1.424-.077-.72,0-1.284.129-1.694.385-.412.258-.488.822-.231,1.694.051.154.141.258.27.309.127.052.218.128.27.23.05.359.039.797-.039,1.31-.077.514-.167,1.053-.27,1.616-.104.565-.18,1.155-.231,1.771-.052.616-.052,1.232,0,1.848.051.565.051,1.284,0,2.156-.052.874-.129,1.694-.231,2.464,2.31.104,4.594.168,6.853.193,2.258.026,4.543.038,6.854.038.256,0,.487-.012.693-.038.205-.025.41-.039.616-.039.358,0,.628.091.808.27.18.181.32.553.424,1.116.102.412.166,1.001.192,1.771.025.77-.013,1.412-.115,1.925,0,.309-.104.874-.308,1.694-.206.821-.308,1.617-.308,2.387h-2.31c-1.335,0-2.67-.012-4.004-.038-1.335-.025-2.669-.039-4.004-.039h-1.656c-.539,0-1.066.027-1.578.077-.104,0-.398.014-.886.039-.488.026-.758.064-.809.115-.104.104-.154.296-.154.577,0,.283.012.591.039.925.025.334.05.654.077.962.025.309.039.539.039.693,0,.924-.026,1.848-.077,2.772-.052.924-.103,1.925-.154,3.003,0,.205-.013.539-.039,1.001-.026.462-.039.937-.039,1.424s.012.951.039,1.387c.025.437.089.731.192.886.103.153.642.23,1.617.23.462,0,.949-.012,1.463-.038.513-.025.924-.039,1.232-.039h13.86c.05.258.089.578.115.963.025.385.039.758.039,1.116,0,.36-.052.654-.154.886-.104.231-.283.347-.539.347.513.052.718.27.616.654-.104.385-.104.681,0,.886.05.104.154.154.308.154.103,0,.205-.013.308-.039.103-.025.205-.038.308-.038.154,0,.231.077.231.23,0,.206-.052.309-.154.309-.104,0-.206-.013-.308-.039-.104-.025-.206-.038-.308-.038h-.231c-.257.104-.257.205,0,.308.256.104.333.258.231.462,0,.052-.077.065-.231.039-.154-.025-.283.013-.385.115.051-.051.025.052-.077.308-.052.154-.104.309-.154.462,0,.154.141.412.424.771.281.359.27.693-.039,1.001-.104.104-.385.167-.847.192-.462.026-1.001.039-1.617.039-.874,0-1.784-.013-2.733-.039-.951-.025-1.784-.038-2.502-.038-1.9,0-3.684-.013-5.352-.039-1.669-.025-3.248-.038-4.736-.038h-2.156c-.719,0-1.413.026-2.079.077h-1.963c-.693,0-1.322-.051-1.887-.154-.257-.051-.488-.128-.693-.231-.206-.102-.412-.153-.616-.153-.154.104-.308.205-.462.308-.308.206-.591.309-.847.309-.154,0-.258-.025-.308-.077-.206-.154-.347-.552-.424-1.193-.077-.642-.104-1.335-.077-2.079.025-.744.063-1.437.115-2.079.051-.642.077-1.04.077-1.194.05-.512.039-1.064-.039-1.655-.077-.59-.09-1.244-.039-1.964.051-.974.077-1.988.077-3.041v-3.119c0-1.025-.013-2.002-.039-2.926-.026-.924-.039-1.719-.039-2.387v-1.001c0-.309.025-.667.077-1.078,0-.154-.026-.18-.077-.077-.052.104-.052.181,0,.231-.257-.103-.346-.218-.27-.347.077-.128.193-.27.347-.424s.32-.333.5-.539c.179-.204.27-.385.27-.539Z"></path>
  <path class="b" d="m172.965,87.033c0-1.591-.065-3.222-.193-4.89-.128-1.668-.065-2.938.193-3.812.05-.103.141-.205.269-.309.128-.103.218-.204.27-.308,0-.205-.077-.475-.231-.809-.154-.334-.206-.628-.154-.886,0-.41.025-.743.077-1.001.05-.256.281-.436.693-.539-.052-.154-.142-.166-.27-.038-.129.128-.27.142-.423.038.102-.103.218-.154.346-.154.127,0,.243-.025.347-.077-.257-.05-.412-.102-.462-.153-.052-.051-.065-.089-.039-.116.025-.024.039-.05.039-.076,0-.025-.104-.039-.308-.039-.104-.308-.026-.513.231-.616.256-.102.333-.281.231-.539,0-.102-.077-.141-.231-.115-.154.026-.283-.038-.385-.192-.154-.256-.167-.539-.039-.847.127-.309.346-.539.654-.693-.104.052-.167.052-.192,0-.026-.051.012-.077.115-.077.154-.103.103-.154-.154-.154s-.385-.024-.385-.076c0-.205.077-.334.231-.386.154-.05.32-.076.5-.076.179,0,.346-.039.5-.116.154-.077.179-.243.077-.5.103-.103.141-.039.116.192-.026.23.012.347.116.347.05,0,.127-.051.231-.154l.231-.231c.05,0,.05.065,0,.193-.052.128.05.244.308.346.102.052.281.039.539-.038.256-.077.513-.115.77-.115s.513.038.77.115c.256.077.539.115.847.115.513,0,1.078-.038,1.694-.115.616-.077,1.206-.115,1.771-.115h.385c.256,0,.603-.013,1.04-.039.436-.025.551-.012.347.039.41-.051.782-.077,1.116-.077h1.117c2.515,0,4.954.347,7.315,1.039,2.36.693,4.286,1.683,5.775,2.965.103,0,.141-.038.116-.115-.026-.077-.09-.141-.192-.192l-.077-.077c.05,0,.077.026.077.077,1.18.462,2.117,1.398,2.811,2.811.693,1.412,1.18,3.041,1.463,4.89.282,1.848.385,3.812.308,5.891-.077,2.079-.27,4.042-.578,5.891-.154.873-.347,1.861-.578,2.965-.231,1.104-.5,1.938-.809,2.502-.052.104-.154.167-.308.192-.154.026-.258.091-.308.192-.154.154-.258.36-.308.616-.052.258-.129.488-.231.693-.206.308-.514.629-.924.962-.411.335-.745.655-1.001.963-.052.052-.065.129-.038.231.025.104-.014.18-.116.23-.052.052-.142.077-.27.077-.129,0-.192.026-.192.077-.052.052-.052.142,0,.27.05.129.05.219,0,.27-.258.206-.539.398-.847.577-.308.181-.643.27-1.001.27-.308,0-.591-.077-.847-.23-.104-.103-.18-.257-.231-.462-.052-.205-.206-.359-.462-.463.154.515.333.938.539,1.271.205.334.333.783.385,1.347.205-.102.231-.192.077-.27-.154-.076-.181-.218-.077-.423.103.205.193.398.27.577.077.181.166.373.27.577-.104,0-.167-.038-.192-.115-.026-.077-.09-.115-.192-.115.256.924.641,1.798,1.155,2.618.513.821.975,1.669,1.386,2.541.564,1.335,1.065,2.708,1.501,4.119.436,1.413,1.013,2.761,1.732,4.043.359.616.731,1.207,1.117,1.771.385.565.603,1.335.654,2.31,0,.411.025.706.077.886.051.181.103.45.154.809-.104,0-.373-.039-.809-.115-.437-.077-.924-.154-1.463-.231s-1.053-.141-1.54-.192c-.488-.051-.86-.077-1.116-.077h-.154c-.104.052-.154.181-.154.385s-.052.282-.154.231c-.154-.052-.269-.128-.346-.231-.077-.102-.219-.204-.424-.308,0,.154-.051.23-.154.23h-.231c-.052,0-.077.052-.077.154-.104-.256-.296-.462-.577-.616-.283-.153-.553-.23-.809-.23-.412,0-.514.205-.308.616.154.052.231.128.231.23-.206-.204-.36-.333-.462-.385-.104-.051-.283-.077-.539-.077-.206,0-.385.052-.539.154-.154.104-.181.257-.077.462h-.154c-.462,0-.783-.231-.962-.693-.181-.462-.321-.872-.424-1.231-1.027-2.413-2.015-4.786-2.964-7.123-.951-2.335-1.938-4.863-2.965-7.585-.104-.358-.27-.82-.5-1.386-.231-.564-.398-.872-.5-.924-.308-.103-.488-.154-.539-.154-.411,0-.629.282-.654.847-.026.565-.065,1.053-.116,1.463-.104,1.078-.104,2.299,0,3.658.103,1.36.154,2.785.154,4.273,0,.462-.027,1.092-.077,1.887-.052.796-.077,1.63-.077,2.503,0,1.129.025,2.182.077,3.156.05.977-.308,1.514-1.078,1.617-.514,0-1.193-.142-2.041-.423-.847-.282-1.501-.424-1.963-.424-.206,0-.398.077-.578.23-.181.154-.321.206-.423.154-.206,0-.398-.063-.578-.192-.181-.128-.321-.192-.424-.192-.411.052-.835.167-1.271.347-.437.179-.885.27-1.347.27-.258,0-.591-.077-1.001-.231v-17.248c0-.462-.014-1.04-.039-1.732-.027-.693-.039-1.36-.039-2.003s.05-1.193.154-1.655c.103-.462.282-.693.539-.693-.257,0-.373-.141-.347-.423.025-.281.012-.475-.038-.578-.052-.102-.116-.141-.193-.115-.077.026-.142-.012-.192-.115,0-.103.051-.295.154-.578.102-.281.154-.474.154-.577,0-.103-.065-.192-.192-.27-.129-.077-.193-.166-.193-.27-.104-.308-.104-.666,0-1.078.103-.41.18-.872.231-1.386.102-1.129.127-2.515.077-4.158-.052-1.643-.077-3.284-.077-4.928Zm9.856,9.009h2.926c.564,0,1.051-.038,1.463-.115.41-.077.744-.27,1.001-.578.205.206.462.309.77.309.359,0,.731-.115,1.117-.347.385-.231.654-.424.809-.577.462-.462.809-1.052,1.04-1.771.231-.718.372-1.475.423-2.271.051-.795.051-1.617,0-2.464-.052-.848-.077-1.629-.077-2.349l.154-.154c.102-.103.154-.204.154-.308,0-.257-.065-.654-.192-1.193-.129-.539-.296-.963-.5-1.271-.616-1.181-1.451-1.912-2.502-2.195-1.053-.281-2.478-.5-4.274-.654-.206,0-.423-.038-.654-.115s-.476-.115-.731-.115c-.308,0-.539.128-.693.385.256.052.436.219.539.5.103.283.166.643.192,1.078.025.437.025.899,0,1.387-.026.488-.038.962-.038,1.424,0,1.849.012,3.825.038,5.93.025,2.105-.09,3.876-.346,5.312-.052.052-.116.065-.192.039-.077-.025-.142-.039-.193-.039-.154,0-.231.052-.231.154Z"></path>
  <path class="b" d="m226.635,70.016l.308.153c.205,0,.359.052.462.154.256.052.5.077.731.077h.731c.82,0,1.694-.039,2.618-.115.924-.077,1.771-.116,2.541-.116.513,0,1.026.052,1.54.154.256.052.462.115.616.192.154.077.308.115.462.115.205,0,.41-.102.616-.308.873,3.184,1.668,6.533,2.387,10.049.718,3.517,1.514,6.995,2.387,10.434.102.462.256.924.462,1.387.205.462.333.898.385,1.309,0,.104-.026.231-.077.385-.052.154-.052.283,0,.386.05.153.154.27.308.346.154.077.256.168.308.27.103.309.103.63,0,.963-.104.334-.104.629,0,.886.308-.41.564-.963.77-1.656.205-.692.385-1.397.539-2.117.154-.718.308-1.425.462-2.117.154-.693.333-1.271.539-1.732-.052.104,0,.128.154.076.154-.05.281-.204.385-.462.205-.82.436-1.988.693-3.503.256-1.514.436-2.913.539-4.197.05-.256.308-.41.77-.462.462-.051,1.001-.077,1.617-.077.513,0,1.013.014,1.501.039.487.026.911.038,1.271.038.411,0,.963-.025,1.656-.077.693-.05,1.348-.077,1.963-.077.359,0,.68.014.963.039.281.026.5.09.654.192.154.104.308.488.462,1.155.154.668.256,1.155.308,1.463,0,.104-.026.154-.077.154h-.077c-.052,0-.077.026-.077.076-.052.309.025.809.231,1.502.205.693.385,1.297.539,1.81.205.822.436,1.721.693,2.695.256.976.5,1.925.732,2.849.231.924.462,1.81.693,2.657.231.847.449,1.578.654,2.194.564-1.591,1.013-3.361,1.348-5.313.333-1.95.757-3.67,1.271-5.159.103-.308.192-.654.27-1.039.077-.386.141-.731.192-1.04.308-1.334.564-2.745.77-4.235.205-1.488.462-3.08.77-4.773.205-.872.347-1.732.424-2.58.077-.847.192-1.629.346-2.349.154-.718.616-1.078,1.386-1.078.41,0,.886.065,1.424.193.539.128,1.065.192,1.579.192h.385c.256,0,.539-.09.847-.27.308-.18.589-.243.847-.192.154,0,.27.064.347.192.077.129.243.219.5.27h1.001c.256,0,.487.038.693.115.205.077.333.296.385.654.256-.103.5-.27.731-.5.231-.231.449-.347.654-.347s.333.154.385.462c.205,0,.32-.077.347-.231.025-.153.166-.204.423-.153-.257.719-.423,1.438-.5,2.155-.077.72-.244,1.464-.5,2.233-.052.104-.129.181-.231.231-.104.052-.206.153-.308.308-.206.514-.373,1.193-.5,2.041-.129.847-.296,1.682-.5,2.502-.257,1.078-.489,2.145-.693,3.196-.206,1.053-.36,1.963-.462,2.733-.104.565-.115,1.116-.039,1.655.077.539.012.963-.192,1.271h-.077c-.052.052-.129.077-.231.077-.052.052-.128.077-.231.077-.104.257-.128.552-.077.886.05.334.025.629-.077.885-.257,1.54-.591,3.119-1.001,4.736-.412,1.616-.745,3.247-1.001,4.89-.616,3.439-1.322,6.789-2.118,10.049-.796,3.26-1.476,6.635-2.041,10.125-.052.258-.052.515,0,.771.05.258.025.514-.077.77-.052.052-.142.129-.27.231-.128.104-.219.206-.27.308-.104.258-.115.668-.039,1.232.077.565.012.898-.192,1.001-.206.104-.36.154-.462.154-.257,0-.5-.039-.731-.116-.231-.076-.476-.115-.731-.115-.154,0-.283.026-.385.077-.052-.308-.077-.5-.077-.577s-.026-.243-.077-.501c-.154.154-.308.231-.462.231-.104,0-.181-.025-.231-.077-.052-.051-.104-.077-.154-.077-.052,0-.104.104-.154.308-.206-.05-.308-.281-.308-.692-.258,0-.437.192-.539.577-.104.385-.308.629-.616.731-.052.052-.27.039-.654-.038-.385-.077-.552-.064-.5.038-.154-.154-.231-.487-.231-1.001-.258.104-.36.283-.308.539.05.258.025.437-.077.539-.462-.154-.783-.333-.962-.539-.181-.204-.321-.564-.423-1.078-.154.104-.231.192-.231.27s.039.167.116.27c.077.104.141.219.192.347.051.129.025.27-.077.424-.206,0-.36-.218-.462-.655-.104-.436-.283-.654-.539-.654-.103,0-.206.052-.308.154-.052.052-.077.167-.077.347,0,.181-.013.373-.039.577-.026.206-.065.385-.115.539-.052.154-.181.231-.385.231-.104,0-.283-.077-.539-.231-.412-.204-.565-.616-.462-1.232.102-.615.127-1.205.077-1.771-.104-.82-.296-1.745-.578-2.772-.283-1.026-.552-2.079-.809-3.157-.36-1.744-.86-3.35-1.501-4.812-.643-1.463-1.091-3.118-1.348-4.967-.412.565-.681,1.361-.809,2.388-.128,1.027-.321,2.028-.578,3.003-.103.258-.244.5-.423.731-.18.231-.296.476-.347.731-.103.359-.167.912-.192,1.655-.026.745-.142,1.348-.346,1.81-.052.104-.142.168-.27.192-.129.027-.219.091-.27.193.05.052.102.104.154.153.102.104.154.206.154.309-.052.104-.128.181-.231.23-.104.052-.154.104-.154.154-.052.154-.065.308-.039.462.025.154.039.308.039.462-.104.462-.244.912-.423,1.348-.181.437-.347.938-.5,1.502-.104.411-.154.821-.154,1.231s-.077.797-.231,1.155c-.104.206-.244.359-.423.462-.181.104-.245.283-.193.539-.257,0-.334-.103-.231-.308-.154.104-.244.257-.27.462-.026.205-.167.308-.423.308-.154,0-.283-.025-.385-.077-.104-.102-.104-.281,0-.539.102-.256.102-.539,0-.847-.258.411-.514.745-.77,1.001-.258.258-.591.437-1.001.539-.052-.41,0-.795.154-1.155-.308,0-.462.143-.462.424s-.154.398-.462.347v-.616c-.104.206-.219.398-.346.577-.129.181-.193.424-.193.731-.154-.104-.514-.153-1.078-.153h-1.001c-.462,0-.899-.039-1.309-.116-.412-.076-.72-.294-.924-.654-.308-.564-.411-1.167-.308-1.81.103-.641.077-1.321-.077-2.04-.258-.873-.539-1.732-.847-2.58-.308-.847-.591-1.783-.847-2.811-1.54-6.826-3.145-13.757-4.812-20.79-1.669-7.033-3.272-14.04-4.812-21.022-.104-.308-.181-.577-.231-.809-.052-.23-.104-.551-.154-.962,0,.104-.039-.077-.115-.539-.077-.462.012-.771.27-.924Z"></path>
  <path class="b" d="m290.621,123.301c0,.206-.077.309-.231.309s-.296-.025-.423-.077c-.129-.051-.244-.051-.347,0-.206.104-.296.23-.27.385.025.154-.065.282-.27.385-.308.154-.667.231-1.078.231-.462,0-.95-.051-1.463-.154-.514-.103-1.027-.154-1.54-.154-.412,0-.847.077-1.309.231.051-.154.051-.257,0-.309v-.076c-.154,0-.18.128-.077.385-.154.104-.245.077-.27-.077-.027-.154-.065-.256-.116-.308-.104-.051-.142,0-.116.153.025.154.012.231-.038.231l-.154-.154v-.23c-.154.052-.244.167-.27.346-.026.181-.219.245-.577.193-.154-3.851-.231-7.61-.231-11.281s.012-7.302.039-10.896c.025-3.593.039-7.148.039-10.665s-.052-7.071-.154-10.665c-.052-1.488-.013-3.183.115-5.082.127-1.898.141-3.927.039-6.083.256-.103.513-.154.77-.154h.77c.77,0,1.565.065,2.387.192.82.129,1.54.192,2.156.192h.231c.154,0,.308-.063.462-.192.154-.127.281-.192.385-.192.256.052.462.154.616.309.154.153.436.23.847.23.154-.051.423-.166.808-.347.385-.179.705-.27.963-.27.102,0,.179.026.231.077.05.052.089.27.115.654.025.386.039.835.039,1.348v3.157c0,3.439-.026,6.636-.077,9.587-.052,2.952-.027,5.788.077,8.509.103,1.438.103,3.029,0,4.774-.104,1.745-.104,3.439,0,5.082.051.873.154,1.721.308,2.541.154.821.179,1.515.077,2.079,0,.104-.065.154-.193.154s-.244.076-.346.23c-.154.411-.142,1.04.039,1.887.179.847.27,1.63.27,2.349,0,1.848-.039,3.709-.116,5.582-.077,1.875-.142,3.556-.192,5.044,0,.206.05.527.154.963.103.437.025.731-.231.886-.104.052-.231.076-.385.076-.308,0-.591-.166-.847-.5-.257-.333-.462-.628-.616-.886Z"></path>
  <path class="b" d="m329.276,70.478c-.308.462-.385.873-.231,1.231.154.36.231.797.231,1.31,0,.308-.027.821-.077,1.54-.052.72.025,1.231.231,1.54.05.257-.026.385-.231.385-.206,0-.308.077-.308.231,0,.104.127.153.385.153-.258.206-.385.386-.385.539,0,.154.039.309.116.462.077.154.166.335.27.539.102.206.154.514.154.925-.412.104-.822.167-1.232.192-.412.026-.822.038-1.232.038-.874,0-1.733-.038-2.58-.115-.847-.077-1.708-.115-2.58-.115-1.13,0-2.054.128-2.772.385-.052,0-.077.052-.077.154l.077.076c-.052.154-.154.231-.308.231-.104,0-.181-.012-.231-.039-.052-.024-.128-.038-.231-.038-.052,0-.104.026-.154.077-.104.206-.167.539-.192,1.001-.027.462-.027.963,0,1.502.025.539.05,1.091.077,1.655.025.565.039,1.027.039,1.386v39.426c-.154,0-.321.012-.5.038-.18.025-.346.038-.5.038-.822,0-1.309-.23-1.463-.692-.257-.103-.36-.025-.308.23.051.257-.052.358-.308.309-.257.05-.36-.014-.308-.192.051-.18.103-.295.154-.347-.154,0-.283.013-.385.038-.104.026-.206.039-.308.039-.154,0-.257-.154-.308-.463-.154.104-.219.27-.193.501.025.231-.09.372-.346.424-.258-.104-.398-.282-.424-.539-.026-.257-.09-.513-.192-.771-.104.206-.142.398-.115.578.025.18-.013.423-.116.731-.104.05-.321-.014-.654-.192-.334-.18-.552-.243-.655-.193-.104,0-.167.065-.192.193-.026.127-.09.218-.192.27-.308.102-.539.153-.693.153-.308,0-.629-.038-.962-.115-.334-.077-.681-.115-1.04-.115-.104,0-.206.012-.308.038-.104.025-.206.039-.308.039v-39.194c0-.616-.027-1.244-.077-1.887-.052-.642-.065-1.258-.039-1.849.025-.589.102-1.116.231-1.578.127-.462.347-.77.655-.924-.874-.103-1.708-.18-2.503-.231-.796-.05-1.63-.077-2.502-.077-.72,0-1.424.014-2.118.039-.693.026-1.399.038-2.118.038h-1.424c-.488,0-.989-.025-1.501-.077.256-.41.243-.743-.039-1.001-.282-.256-.449-.563-.5-.924-.051-.256-.039-.424.039-.5.077-.077.142-.243.192-.501.05-.103.039-.243-.039-.424-.077-.179-.115-.371-.115-.577.052-.358.166-.667.346-.924.179-.257.039-.436-.423-.539,0-.103.077-.154.231-.154s.256-.077.308-.23c.05-.154-.052-.231-.308-.231s-.385-.051-.385-.154c0-.102.104-.153.308-.153h.347c.127,0,.166-.077.116-.231-.104-.154-.283-.204-.539-.154-.256.052-.385-.05-.385-.308h.462c.308,0,.513-.051.616-.154-.104-.204-.27-.295-.5-.27-.231.026-.424-.012-.578-.115.104-.103.206-.154.308-.154.104,0,.181.014.231.039.05.026.127.038.231.038.103,0,.205-.051.308-.153-.052-.103-.116-.309-.192-.616-.077-.309-.065-.487.039-.539.204-.103.487-.154.847-.154h2.387c.256-.051.526-.141.809-.27.281-.128.603-.192.962-.192.103,0,.205-.012.308-.038.102-.025.205-.039.308-.039.41,0,.795.026,1.155.077.358.052.718.077,1.078.077h.385c.616-.051,1.194-.089,1.733-.115.539-.025,1.064-.039,1.579-.039h.847c.359,0,.731.014,1.117.039.385.026.744.064,1.078.115.333.052.603.104.809.154.102.051.192.128.27.23.077.104.166.154.27.154,1.026.153,2.079.23,3.157.23,1.437,0,2.875-.063,4.312-.192,1.437-.127,2.746-.192,3.927-.192h.462c.873.052,1.771.09,2.695.115.924.026,1.822.039,2.695.039Z"></path>
  <path class="b" d="m364.388,98.968c.256,0,.423.039.5.116.077.077.166.167.27.27,0,.257-.104.385-.308.385-.206,0-.385.052-.539.154.154.153.436.23.847.23-.258.72-.424,1.566-.5,2.541-.077.976-.116,2.002-.116,3.08,0,2.927.039,5.968.116,9.125.077,3.157.089,6.226.038,9.202h-.154c-.36,0-.643.076-.847.23-.206.154-.385.231-.539.231-.206,0-.385-.18-.539-.539-.103,0-.142.038-.115.115.025.077.012.167-.039.27-.154-.103-.231-.256-.231-.462v-.693c-.154.052-.192.206-.116.462.077.258.089.489.039.693-.104-.051-.18-.141-.231-.27-.052-.128-.104-.192-.154-.192v.308c-.258.104-.36.052-.308-.153.05-.205.05-.359,0-.462-.104-.051-.142.013-.116.192.025.18.039.321.039.423-.257-.05-.36-.23-.308-.539.051-.308.051-.589,0-.847-.103.514-.206.873-.308,1.078-.104.206-.206.514-.308.924-.257.103-.347.014-.27-.27.077-.281.089-.474.039-.577-.104.052-.154.167-.154.347s-.052.321-.154.423c-.154-.204-.181-.551-.077-1.039.103-.487-.026-.757-.385-.809-.104.104-.167.27-.193.5-.026.231-.09.424-.192.578-.206-.257-.346-.358-.423-.309-.077.052-.116-.102-.116-.462-.257.36-.514.591-.77.693-.257.104-.565.154-.924.154-.257,0-.527-.013-.809-.039-.283-.025-.578-.038-.886-.038-.411,0-.719.026-.924.077-.104-3.901-.181-7.765-.231-11.589-.052-3.824-.026-7.277.077-10.357.05-.05.154-.077.308-.077h.462c.05-.358-.09-.589-.424-.692-.334-.103-.783-.154-1.347-.154-.36,0-.72.014-1.078.038-.36.027-.72.039-1.078.039-.874.052-1.759.077-2.657.077h-2.349c-.257,0-.629-.013-1.116-.039-.489-.025-.938-.038-1.348-.038-.36,0-.565.026-.616.077-.104.104-.167.475-.192,1.116-.026.643-.026,1.374,0,2.194.025.822.051,1.656.077,2.503.025.847.039,1.528.039,2.041,0,1.592.025,3.17.077,4.735.051,1.566.103,2.914.154,4.042,0,.463-.013.989-.039,1.579-.026.591-.09,1.091-.192,1.501-.052.154-.129.309-.231.463-.104.153-.154.282-.154.385-.052.206.025.565.231,1.078.205.514.205.873,0,1.078-.052.153-.231.23-.539.23-.257,0-.514-.038-.77-.115-.257-.077-.488-.115-.693-.115-.412.052-.796.142-1.155.27-.359.128-.693.192-1.001.192-.411,0-.719-.18-.924-.539-.154,0-.231.077-.231.23,0,.154-.052.283-.154.386-.103-.051-.154-.231-.154-.539-.206,0-.27.115-.192.346.077.231-.013.297-.27.193-.104-.411-.231-.782-.385-1.117-.154-.333-.359-.5-.616-.5-.154,0-.385.077-.693.23-.154.104-.27.258-.346.462-.077.206-.167.335-.27.386-.308.104-.514.153-.616.153-.257,0-.514-.038-.77-.115-.257-.077-.514-.115-.77-.115.051-2.207.051-4.273,0-6.199-.052-1.925-.09-3.812-.115-5.659-.027-1.849-.052-3.683-.077-5.506-.026-1.821.039-3.734.192-5.736,0-.257.051-.578.154-.963.102-.385-.052-.577-.462-.577.359-.257.578-.526.655-.809s.243-.449.5-.501c-.104-.256-.462-.385-1.078-.385h-.924c-.052-.204-.039-.333.039-.385.077-.051.179-.089.308-.116.128-.024.243-.05.347-.076.102-.025.154-.116.154-.27-.257-.205-.59-.309-1.001-.309s-.589-.23-.539-.692c.104-.103.231-.154.385-.154h.924c.154,0,.282-.051.385-.154-.206-.204-.489-.308-.847-.308s-.718-.025-1.078-.077c.104-.564.514-.847,1.232-.847h.462c-.258-.205-.514-.372-.77-.501-.256-.128-.436-.347-.539-.654h1.001c.308,0,.616-.051.924-.154-.052-1.488-.115-3.131-.192-4.928s-.129-3.619-.154-5.468c-.027-1.848-.027-3.657,0-5.429.025-1.771.089-3.375.192-4.812.102-.718.077-1.321-.077-1.81-.154-.487-.026-.858.385-1.116.05-.051.154-.077.308-.077s.346.052.577.154c.231.104.526.205.886.308h.154c.205,0,.385-.012.539-.038.154-.025.308-.039.462-.039.411,0,.667.181.77.539.103.052.141.014.116-.115-.026-.128-.013-.192.039-.192l.231.23c-.104-.102-.026-.192.231-.27.256-.076.513-.115.77-.115.102,0,.192.014.27.039.077.026.141.038.192.038.103.052.179.181.231.385.051.206.231.309.539.309h.154c.154-.103.256-.205.308-.309.051-.103.128-.23.231-.385.103.104.231.154.385.154.256,0,.551-.077.886-.231.333-.154.731-.23,1.193-.23.308,0,.539.026.693.076.103,3.03.116,6.059.039,9.087-.077,3.029-.09,6.083-.039,9.163v2.426c0,.488.025.924.077,1.309.05.385.102.63.154.731.051,0,.116.014.193.039.077.026.166.038.27.038.358,0,.795-.025,1.309-.077.513-.05.821-.102.924-.153h.385c.513,0,1.104.026,1.771.076.667.052,1.36.077,2.079.077.411,0,.936.014,1.579.039.642.026,1.219.038,1.733.038.616,0,.949-.025,1.001-.077.05-1.386.077-2.668.077-3.85.051-1.026.077-2.002.077-2.927v-1.771c-.104-2.311-.154-4.671-.154-7.084v-6.931c.205-.051.32,0,.346.154.025.154.039.308.039.462.154-.257.308-.385.462-.385.205,0,.308.128.308.385l.077.154c.05,0,.063-.09.039-.27-.026-.18.012-.32.115-.424.103,0,.205.052.308.154.103.104.179.153.231.153.205-.102.32-.256.347-.462.025-.204.089-.308.192-.308.051-.051.179-.077.385-.077.204,0,.397.065.577.192.179.129.243.373.193.731.204-.103.281-.333.231-.692-.052-.359.077-.539.385-.539.051.052.103.104.154.153.102.104.179.154.231.154.154,0,.231-.103.231-.308.154,0,.205.104.154.308-.052.206-.052.359,0,.462.103-.103.154-.23.154-.385s.025-.281.077-.385c.154,0,.205.09.154.27-.052.18-.027.296.077.346.154.052.205-.012.154-.192-.052-.179-.052-.319,0-.423.05.205.127.308.231.308l.154-.077c.051,0,.077-.025.077-.077.102,0,.154.231.154.693h.308c.359,0,.757-.051,1.194-.154.436-.102.859-.153,1.271-.153.462,0,.82.104,1.078.308.051.052.154.258.308.616.154.359.231.462.231.308.103.565.141,1.374.116,2.426-.026,1.053-.065,1.887-.116,2.503-.104,1.129-.128,2.4-.077,3.812.05,1.412.077,2.862.077,4.351s-.052,2.952-.154,4.389c-.104,1.438-.052,2.67.154,3.696.103.668.27,1.336.5,2.002.231.668.27,1.284.116,1.849-.052.153-.167.257-.347.308-.18.052-.321.154-.423.308-.104.206-.104.604,0,1.194.102.59.05.962-.154,1.116.102,0,.192-.025.27-.077.077-.051.166-.077.269-.077,0,.154-.051.244-.154.27-.104.026-.231.065-.385.115Z"></path>
  <path class="b" d="m389.103,122.146c-.206-2.977-.206-5.916,0-8.816.205-2.899.205-5.968,0-9.202-.104-1.128-.115-2.283-.038-3.465.077-1.181.166-2.36.27-3.542.102-2.259.141-4.543.115-6.854-.026-2.31-.065-4.62-.115-6.93-.052-2.311-.077-4.582-.077-6.814s.077-4.376.231-6.43c.05.051.154.076.308.076.205,0,.397-.063.577-.192.18-.127.372-.27.578-.423.205-.154.424-.282.655-.386.231-.102.449-.127.654-.077.358.258.641.463.847.616.205.154.487.36.847.616h.231c.256,0,.487-.063.693-.192.205-.128.487-.192.847-.192.308,0,.577.09.809.27.231.181.474.27.731.27.05,0,.179-.051.385-.154.205.308.358.514.462.616.103.104.282.282.539.539.103-.154.077-.358-.077-.616-.154-.256-.206-.513-.154-.77.103.153.231.23.385.23.205,0,.397-.051.577-.154.18-.102.32-.127.424-.076.256.153.372.257.346.308-.026.052.012.282.116.693.667,1.644,1.359,3.414,2.079,5.312.718,1.9,1.437,3.825,2.156,5.775.718,1.951,1.424,3.889,2.117,5.813.693,1.925,1.348,3.734,1.964,5.429.924-1.694,1.694-3.516,2.31-5.467.616-1.95,1.282-3.9,2.002-5.853.358-.975.731-1.937,1.117-2.888.385-.949.731-1.911,1.04-2.888.41-.975.756-1.976,1.04-3.003.281-1.026.628-1.95,1.04-2.771.05-.103.141-.166.269-.193.128-.024.116-.192-.038-.5.102-.051.231-.077.385-.077.103,0,.282.129.539.385,0-.153.012-.256.039-.308.025-.051.039-.128.039-.231-.052-.05-.077-.153-.077-.308.051.104.077.206.077.308.154.258.462.386.924.386.308,0,.641-.025,1.001-.077.359-.051.667-.077.924-.077.82,0,1.655.038,2.502.115s1.629.27,2.349.578c.102-.462.487-.693,1.155-.693.359,0,.642.104.847.308.102.154.166.553.192,1.194.025.642.025,1.347,0,2.117-.026.77-.065,1.502-.115,2.194-.052.693-.077,1.168-.077,1.425,0,3.901.012,7.881.039,11.936.025,4.056.039,8.111.039,12.166s-.013,8.06-.039,12.013c-.026,3.953-.065,7.777-.116,11.473h-1.232c-.36,0-.693.027-1.001.077-.308.052-.539.154-.693.309v-.771l-.077.077c0,.052-.026.104-.077.154-.052.104-.104.181-.154.23v-.23c-.052-.103-.077-.051-.077.153v.386l-.154-.154v-.231c-.104,0-.142.052-.116.154.025.103.012.18-.039.231-.104.05-.231.038-.385-.039-.154-.077-.308-.115-.462-.115-.104,0-.206.077-.308.231,0-.052-.013-.091-.039-.116-.026-.026-.039-.064-.039-.115l-.077-.077c-.051,0-.077.065-.077.192,0,.128-.052.141-.154.039v-.231c0-.103-.026-.154-.077-.154-.104-.05-.412-.076-.924-.076-.565,0-1.091.064-1.579.192-.488.127-.604.347-.346.654-.258-.154-.385-.411-.385-.771,0,.104-.026.154-.077.154-.104,0-.206-.025-.308-.077-.104-.05-.206-.102-.308-.153-.052-.051-.104-.077-.154-.077-.052,0-.052.052,0,.153-.104-.153-.09-.294.038-.423.128-.128.116-.243-.038-.347-.104-.103-.154-.038-.154.192v.424c-.052-.103-.09-.257-.115-.462-.027-.205-.014-.359.038-.462-.154.153-.219.411-.192.77.025.359-.039.59-.192.693.102-.052.102-.104,0-.154-.104-.051-.206-.077-.308-.077l-.154.077.077.154-.077-.154c-.052-.154-.104-.308-.154-.462-.052-.154-.077-.18-.077-.077-.206-.872-.258-1.848-.154-2.926.103-1.078.154-2.182.154-3.312,0-1.437.012-2.977.038-4.62.025-1.643.039-3.272.039-4.89s-.013-3.195-.039-4.735c-.026-1.54-.065-2.951-.115-4.235-.412.822-.77,1.682-1.078,2.58s-.616,1.797-.924,2.694c-.308.899-.629,1.771-.963,2.618-.334.848-.758,1.631-1.271,2.349-.257.052-.398,0-.423-.154-.026-.153-.142-.204-.347-.153-.206.052-.334.153-.385.308-.052.154-.129.231-.231.231-.206,0-.462-.064-.77-.192s-.668-.193-1.078-.193h-.231c-.206,0-.424.027-.655.077-.231.052-.475.077-.731.077-.514,0-.847-.23-1.001-.692-.206.205-.412.308-.616.308-.308,0-.577-.128-.808-.385s-.476-.358-.732-.309c-.154.052-.296.231-.423.539-.129.309-.296.488-.5.539-.104,0-.154-.051-.154-.154,0-.102.025-.179.077-.23-.104,0-.321-.039-.654-.115-.334-.077-.552-.166-.655-.27-.103-.257-.065-.513.116-.771.179-.256.27-.513.27-.77,0-.205-.129-.68-.385-1.425-.257-.743-.552-1.552-.885-2.426-.334-.872-.655-1.694-.962-2.464-.308-.771-.539-1.258-.693-1.463-.154,4.004-.206,8.111-.154,12.32.05,4.21.05,8.394,0,12.551h-.462c-.924,0-1.438-.23-1.54-.692-.052.257-.129.385-.231.385h-.193c-.026,0-.065.129-.115.385-.308-.102-.514-.192-.616-.27-.104-.077-.257-.115-.462-.115h-.231c-.154.052-.27.142-.347.27-.077.129-.219.219-.423.27-.154.051-.347.025-.578-.077s-.45-.154-.654-.154h-.385c-.257,0-.475.014-.654.039-.181.026-.347.038-.5.038s-.283-.025-.385-.077c-.052-.05-.142-.127-.27-.23-.128-.103-.244-.257-.346-.462-.206.308-.385.462-.539.462l-.462-.309c-.308.36-.539.539-.693.539-.308,0-.514-.281-.616-.847-.104-.564-.181-1.129-.231-1.694Z"></path>
  <path class="b" d="m462.718,125.149c-1.027.153-2.144.358-3.35.615-1.207.257-2.375.386-3.503.386-.514,0-.874-.026-1.078-.077,0-.309-.09-.501-.27-.578-.18-.076-.398-.115-.654-.115h-.809c-.283,0-.552-.077-.809-.23-.104-.104-.181-.243-.231-.424-.052-.18-.154-.347-.308-.501-.052-.05-.142-.063-.27-.038-.128.026-.192.013-.192-.039-.104-.204-.192-.525-.27-.962-.077-.436-.142-.911-.192-1.425-.052-.513-.104-1.013-.154-1.501-.052-.487-.104-.859-.154-1.117-.052-.204-.129-.371-.231-.5-.104-.128-.154-.27-.154-.424-.052-.308-.052-.616,0-.924.051-.309-.128-.539-.539-.693,0-.256.115-.396.346-.424.231-.024.372-.141.424-.346-.566,0-1.194.052-1.887.153-.693.104-1.425.154-2.195.154h-.693c-.206,0-.437-.025-.693-.077-.206-.051-.591-.115-1.155-.192-.565-.077-1.053-.115-1.463-.115-.308,0-.514.026-.616.077-.308.308-.577.796-.809,1.463-.231.668-.423,1.399-.577,2.194-.154.797-.283,1.554-.385,2.271-.104.72-.154,1.284-.154,1.694.05.206.127.385.231.539.102.153.127.334.077.539-.104.359-.424.68-.963.962s-.912.424-1.116.424c-.154,0-.334-.038-.539-.115-.206-.077-.437-.115-.693-.115h-.308c-.052,0-.154.063-.308.192-.154.127-.257.192-.308.192-.36,0-.874-.154-1.54-.462-.668-.309-1.309-.514-1.925-.616h-.847c-.257-.052-.489-.154-.693-.309-.206-.153-.36-.179-.462-.076l-.077.076c-.052,0-.065-.038-.039-.115.025-.077.012-.089-.039-.038-.104.052-.244.219-.423.5-.181.282-.424.424-.732.424-.052,0-.179-.052-.385-.154-.256-.205-.32-.654-.192-1.348.128-.692.244-1.244.346-1.655.052-.41.205-.897.462-1.463.256-.564.487-1.181.693-1.848.256-.821.41-1.617.462-2.388.051-.77.179-1.359.385-1.771.102-.154.231-.32.385-.501.154-.18.256-.32.308-.424.102-.462.077-.897-.077-1.309-.154-.41-.104-.949.154-1.617.05,0,.089-.012.115-.038.025-.025.064-.039.116-.039.154,0,.27.039.346.116.077.076.193.09.347.038-.257.052-.423-.295-.5-1.04-.077-.743-.039-1.397.115-1.963.051-.257.166-.475.347-.654.179-.18.27-.32.27-.424.051-.154.039-.347-.039-.578-.077-.23-.09-.448-.039-.654.051-.513.154-1.026.308-1.54.154-.513.282-.975.385-1.386.154-.462.231-.949.231-1.463s.05-.975.154-1.387l.154-.153c.05,0,.077.013.077.038,0,.026.025.039.077.039.05,0,.127-.051.231-.154.308-.462.487-1.155.539-2.079.05-.924.179-1.821.385-2.695.411-1.796.886-3.58,1.425-5.352.539-1.771.988-3.631,1.348-5.583.102-.615.166-1.205.192-1.771.025-.564.089-1.129.192-1.694.154-.718.358-1.373.616-1.964.256-.589.436-1.167.539-1.732.205-.924.281-1.821.231-2.694-.052-.873.077-1.643.385-2.311.308-.564.873-1.001,1.694-1.309.82-.309,1.54-.462,2.156-.462.256.051.462.142.616.269.154.129.385.22.693.27.256,0,.526-.076.809-.23.282-.154.551-.257.809-.308.154,0,.397-.013.731-.039.333-.025.68-.038,1.04-.038.564,0,1.104.026,1.617.077.513.051.847.128,1.001.23.102.104.127.219.077.347-.052.129,0,.321.154.577.102.154.192.258.27.309.077.052.127.104.154.153.025.052.051.129.077.231.025.104.064.282.116.539.256,1.231.641,2.67,1.155,4.312.513,1.644.897,3.209,1.155,4.697.102.412.154.809.154,1.194s.051.783.154,1.193c.103.462.231.847.385,1.154.154.309.231.745.231,1.31,0,.976.089,2.04.27,3.195.179,1.155.372,2.246.578,3.272.564,2.772,1.18,5.648,1.848,8.625.667,2.978,1.206,5.725,1.617,8.239.103.719.193,1.463.27,2.232.077.771.243,1.438.5,2.002.051.104.141.206.27.309.127.104.218.205.27.308.051.154.039.335-.039.539-.077.206-.115.385-.115.539.05,1.592.358,3.171.924,4.735.564,1.567.897,3.171,1.001,4.813Zm-14.168-19.021c-.206-.102-.321-.41-.346-.924-.026-.513-.09-1.052-.192-1.617-.052-.512-.142-1.167-.27-1.963-.129-.796-.245-1.591-.347-2.388-.104-.795-.206-1.54-.308-2.232-.104-.693-.181-1.193-.231-1.502,0-.256-.026-.59-.077-1.001-.052-.41-.115-.795-.192-1.155-.077-.358-.154-.68-.231-.962s-.192-.424-.347-.424h-.154c-.257,0-.423.09-.5.27-.077.181-.116.411-.116.693s.012.552.039.809c.025.257.039.462.039.615-.052.72-.27,1.566-.654,2.541-.385.977-.629,2.003-.732,3.08-.052.258-.026.539.077.848.103.308.127.591.077.847-.052.154-.116.309-.192.462-.077.154-.142.335-.193.539-.104.36-.128.706-.077,1.04.05.334.025.629-.077.885-.052.258-.154.476-.308.655-.154.181-.181.373-.077.577.718.154,1.373.27,1.964.347.589.077,1.244.115,1.963.115h.924c.308,0,.667-.025,1.078-.077v-.153l-.077-.077c-.104,0-.193.038-.27.115-.077.077-.142.09-.193.038Z"></path>
  <path class="b" d="m464.333,124.841c-.052-8.778-.065-17.8-.039-27.066.025-9.266.039-18.492.039-27.682.205-.103.449-.167.731-.193.282-.024.372-.218.27-.577.616.258,1.155.385,1.617.385.41,0,.77-.077,1.078-.23.41.411.795.654,1.155.731.359.077.744.115,1.155.115.102,0,.179.014.231.038.051.027.127.039.231.039.103.052.205.077.308.077.102,0,.256-.103.462-.309.205-.204.358-.308.462-.308.154-.051.359-.077.616-.077h1.579c.281,0,.474.052.578.154.102.052.231.219.385.5.154.283.308.616.462,1.001.154.386.295.759.424,1.117.127.359.218.643.27.847,1.642,4.004,3.311,8.137,5.005,12.397,1.694,4.262,3.285,8.316,4.774,12.166.102-1.386.166-2.938.192-4.658.025-1.72.039-3.542.039-5.467v-11.743c0-.358-.013-.859-.039-1.502-.026-.641-.052-1.282-.077-1.925-.026-.642-.026-1.219,0-1.732.025-.513.064-.796.116-.847.05-.051.179-.077.385-.077h.539c.205,0,.282-.025.231-.077h-.077.077c.256.205.308.45.154.731-.154.282-.154.604,0,.963.154-.154.231-.386.231-.693s.05-.59.154-.847c0,.205.051.308.154.308.05,0,.115-.051.192-.154.077-.103.141-.153.192-.153.205,0,.423.038.655.115.231.077.423.115.577.115.103.052.154.026.154-.077,0-.103.05-.153.154-.153.051,0,.077.051.077.153,0,.104.05.129.154.077.103,0,.205-.051.308-.154.102-.102.205-.179.308-.23.256-.051.487-.077.693-.077h.693c.718,0,1.475.026,2.272.077.795.052,1.578.104,2.348.154v54.518c-.873,0-1.707.038-2.502.115-.796.077-1.579.115-2.349.115h-1.001c-.154,0-.346-.051-.578-.154-.231-.102-.423-.179-.577-.23-.412-.051-.899.013-1.463.192-.565.181-1.078.27-1.54.27-.206,0-.411-.051-.616-.154-.104-.05-.219-.23-.347-.539-.129-.308-.257-.654-.385-1.039-.129-.385-.245-.771-.347-1.155-.104-.385-.206-.68-.308-.886-1.592-3.952-3.261-8.059-5.005-12.32-1.746-4.26-3.363-8.265-4.852-12.012,0,.821-.065,1.771-.192,2.849-.128,1.078-.065,2.002.192,2.772v-.154c.103,0,.205.065.308.192.103.129.127.27.077.424.05.052.077.026.077-.077v-.462c0,.206.025.385.077.539,0,.153.025.282.077.385v.154c0,.104.025.205.077.308.05.104.025.206-.077.309,0,.052-.052.103-.154.153-.104.052-.181.129-.231.231-.052.257-.027.373.077.347.103-.025.154.09.154.346.05.515-.027,1.117-.231,1.81-.206.693-.334,1.399-.385,2.118-.104,2.413-.104,5.031,0,7.854.102,2.823.102,5.39,0,7.7-.206.104-.437.153-.693.153h-.77c-.462,0-.938-.012-1.425-.038-.488-.025-.937-.039-1.348-.039-.565,0-.95.027-1.155.077-.206.052-.437.143-.693.27-.258.128-.489.192-.693.192s-.308-.153-.308-.462c-.36.205-.72.309-1.078.309-.308,0-.629-.039-.963-.116-.334-.076-.706-.115-1.116-.115h-.385Z"></path>
  <path class="b" d="m502.988,122.377c-1.181-1.181-2.041-2.63-2.58-4.351-.539-1.72-.898-3.631-1.078-5.736-.181-2.104-.245-4.363-.193-6.776.051-2.413.077-4.877.077-7.393-.052-2.412-.104-4.824-.154-7.238-.052-2.412,0-4.697.154-6.854.308-4.722,1.656-8.2,4.042-10.434,2.387-2.232,5.839-3.35,10.357-3.35s7.879.989,10.087,2.965c2.207,1.977,3.619,5.197,4.235,9.664.051.411.128.976.231,1.693.102.72.102,1.182,0,1.387-.104.153-.36.282-.77.385-.412.104-.86.181-1.348.23-.489.052-.963.091-1.425.116-.462.026-.822.038-1.078.038-.257-.051-.5-.179-.731-.385-.231-.205-.423-.333-.577-.385-.104,0-.193.052-.27.153-.077.104-.245.181-.5.231l-.462-.154c-.411,0-.796-.127-1.155-.385-.154.052-.231.154-.231.308,0,.154-.052.283-.154.386-.667,0-1.104-.166-1.309-.501-.206-.333-.346-.743-.423-1.231-.077-.487-.142-1.002-.192-1.54-.052-.539-.231-.988-.539-1.348-.514-.616-1.309-.925-2.387-.925-.924,0-1.836.245-2.733.731-.899.489-1.451,1.144-1.656,1.964-.104.514-.142,1.297-.115,2.349.025,1.053.012,1.99-.039,2.811-.052,1.13-.104,2.426-.154,3.889-.052,1.463-.09,2.926-.115,4.39-.026,1.463-.013,2.837.039,4.119.05,1.284.127,2.311.231,3.08.05.258.115.437.192.539.077.104.089.283.039.539l-.154-.077-.077.154c.102,1.13.102,2.233,0,3.311-.104,1.078-.104,2.055,0,2.927.102.873.372,1.592.809,2.156.436.565,1.193.898,2.271,1.001,0-.154-.077-.231-.231-.231s-.283-.051-.385-.154c.205.052.411,0,.616-.153.205-.154.333-.231.385-.231.051.104.128.181.231.231l.154.308c.05,0,.243-.025.578-.077.333-.051.654-.127.962-.23.102-.051.115-.09.039-.116-.077-.025-.142-.012-.193.039.256-.257.667-.424,1.232-.501.564-.077.975-.295,1.232-.654.154-.204.27-.628.347-1.271.077-.642.141-1.09.192-1.348v-3.85c0-.205.012-.487.039-.848.025-.358.039-.731.039-1.116v-1.078c0-.333-.027-.551-.077-.654-.154-.205-.489-.309-1.001-.309-.462,0-.951.039-1.463.116-.514.077-.976.115-1.386.115s-.668-.051-.77-.154c-.052-.564-.116-1.039-.192-1.425-.077-.385-.129-.743-.154-1.077-.026-.334-.039-.526-.039-.578,0-.204.064-.333.193-.385.127-.051.192-.154.192-.308,0-.309-.052-.629-.154-.963-.104-.333-.154-.654-.154-.963.05-.308.154-.666.308-1.078.154-.41.231-.692.231-.847,0-.103-.116-.308-.347-.616-.231-.308-.192-.616.116-.924.102-.103.385-.18.847-.231.462-.05.975-.076,1.54-.076.667,0,1.309.013,1.925.038.616.026,1.052.038,1.309.038.82,0,1.81-.076,2.964-.23,1.155-.154,2.245-.231,3.273-.231.205,0,.397.014.577.039.18.026.347.038.5.038.256.052.564.143.924.27.358.129.564.219.616.27.204.309.192.706-.039,1.193-.231.489-.296.938-.193,1.348,0,.104.077.219.231.347.154.129.231.219.231.27,0,.104-.09.321-.27.654-.181.335-.245.553-.193.655,0,.153.089.32.27.5.18.181.474.321.886.424.102.257.05.385-.154.385-.206,0-.412.026-.616.077-.154,1.797-.231,3.555-.231,5.274s-.013,3.388-.039,5.005c-.026,1.617-.142,3.184-.347,4.697-.206,1.515-.565,2.991-1.078,4.428-.154.411-.308.822-.462,1.232-.154.411-.385.821-.693,1.231-.154.154-.347.296-.578.424-.231.129-.423.321-.578.577-.257.36-.423.693-.5,1.001-.077.309-.296.539-.654.693-.514.104-.976.258-1.386.462-.667.309-1.515.667-2.541,1.078-1.027.41-1.977.667-2.849.771h-.77c-1.078,0-2.144-.091-3.195-.27-1.053-.181-2.144-.321-3.273-.424-.257,0-.437.038-.539.115-.104.077-.258.141-.462.192-.104,0-.385-.128-.847-.385-.462-.258-.963-.564-1.502-.924-.539-.358-1.078-.731-1.617-1.116-.539-.386-.938-.705-1.194-.963Z"></path>
  <path class="b" d="m537.33,71.247c-.154.206-.18.309-.077.309.102,0,.346-.128.731-.386.385-.256.705-.436.962-.539.513-.204,1.013-.346,1.501-.423.487-.077.886-.192,1.194-.347,0,.104-.065.154-.193.154-.128,0-.192.077-.192.23.616-.204,1.232-.308,1.848-.308.41,0,.833.026,1.271.077.436.052.936.077,1.501.077h.462c.154,0,.282-.039.385-.116.102-.077.179-.115.231-.115.358.052.77.167,1.232.347.462.181.897.321,1.309.423,3.234.874,5.608,2.542,7.123,5.006,1.514,2.464,2.374,5.75,2.58,9.856.103,1.899.166,3.927.193,6.083.025,2.156.038,4.312.038,6.468s-.013,4.273-.038,6.353c-.027,2.079-.09,4.018-.193,5.814-.104,2.155-.321,4.042-.654,5.659-.334,1.617-1.014,3.094-2.041,4.428-.052-.204-.013-.41.115-.616.128-.204.089-.358-.115-.462-.206.104-.334.258-.385.462-.052.206-.065.424-.039.654.025.231.039.463.039.693s-.077.476-.231.731c-.104.206-.27.321-.5.347-.231.026-.398.09-.5.192-.462.258-.796.514-1.001.771-.206.257-.462.514-.77.77-1.182.72-2.464,1.232-3.85,1.54-1.386.309-2.799.462-4.235.462-1.951,0-3.825-.27-5.621-.809-1.797-.539-3.26-1.271-4.389-2.194-1.438-1.232-2.49-2.721-3.157-4.466-.668-1.745-1.117-3.696-1.348-5.853s-.321-4.479-.27-6.969c.05-2.489.077-5.044.077-7.661,0-3.029-.039-5.993-.116-8.895-.077-2.899.089-5.633.5-8.2.358-2.259,1.155-4.158,2.387-5.698s2.591-2.823,4.081-3.851h.154Zm3.696,13.476c-.308,2.105-.385,4.312-.231,6.622.154,2.311.231,4.774.231,7.393v7.007c0,1.078-.026,2.222-.077,3.427-.052,1.207.051,2.194.308,2.965.256.873.731,1.54,1.424,2.002.693.462,1.398.693,2.118.693.616,0,1.219-.166,1.81-.501.59-.333,1.065-.859,1.425-1.578.205-.462.346-1.014.423-1.656.077-.641.116-1.334.116-2.079s-.013-1.514-.039-2.31c-.026-.795-.039-1.527-.039-2.194v-8.933c0-1.282.039-2.759.115-4.428.077-1.668.051-3.259-.077-4.774-.129-1.514-.424-2.797-.886-3.85-.462-1.052-1.232-1.579-2.31-1.579-.462,0-.847.091-1.155.27-.308.181-.591.412-.847.693-.257.283-.527.553-.809.809-.283.258-.629.437-1.04.539-.052.154-.129.308-.231.462-.052.154-.09.321-.116.501-.026.18-.065.346-.115.5Z"></path>
  <path class="b" d="m51.571,30.493l-.462-.23c-.104-.154-.154-.386-.154-.693s-.206-.513-.616-.616c.308-.051.41-.141.308-.27-.104-.127-.181-.32-.231-.577-.103-.616-.128-1.335-.077-2.156.05-.82.115-1.681.192-2.58.077-.897.154-1.758.231-2.579.077-.82.089-1.54.039-2.156-.104-1.796-.129-3.67-.077-5.621.051-1.95.051-3.67,0-5.159-.052-.666.012-1.321.192-1.964.18-.641.27-1.271.27-1.886,0-.463-.077-.911-.231-1.348-.154-.436-.154-.911,0-1.425.513.052,1.013.077,1.501.077h1.502c1.796,0,3.581-.063,5.352-.192,1.771-.128,3.606-.192,5.505-.192.616,0,1.232.013,1.848.038.616.026,1.232.065,1.848.115.256.052.526.077.809.077h.886c.616,0,1.271-.012,1.963-.038.693-.025,1.398-.039,2.118-.039.41,0,.962-.012,1.655-.038.693-.025,1.348-.039,1.964-.039.462,0,.872.014,1.232.039.358.026.616.09.77.192.256.206.281.296.077.27-.206-.025-.283.09-.231.347.051.205.154.308.308.308.051,0,.064,0,.039,0-.026,0-.09.104-.192.309,0-.051-.052.142-.154.577-.103.437-.308.629-.616.577.564.104.782.347.654.731-.128.386-.27.707-.423.963.205.104.385.154.539.154h1.232c0,.257-.181.385-.539.385h-.539c-.257,0-.411.026-.462.077-.052.257.064.373.347.347.281-.025.397.09.346.346h-.77c.256.309.385.732.385,1.271s.281.911.847,1.116c-.258.462-.616.758-1.078.886s-1.053.192-1.771.192c-.412,0-.822-.013-1.232-.039-.411-.025-.874-.038-1.386-.038h-8.933c-.462,0-.937-.025-1.424-.077-.488-.051-.962-.077-1.424-.077-.72,0-1.284.129-1.694.385-.412.258-.488.822-.231,1.694.051.154.141.258.27.309.127.052.218.128.27.23.05.359.039.797-.039,1.31-.077.514-.167,1.053-.27,1.616-.104.565-.18,1.155-.231,1.771-.052.616-.052,1.232,0,1.848.051.565.051,1.284,0,2.156-.052.874-.129,1.694-.231,2.464,2.31.104,4.594.168,6.853.193,2.258.026,4.543.038,6.854.038.256,0,.487-.012.693-.038.205-.025.41-.039.616-.039.358,0,.628.091.808.27.18.181.32.553.424,1.116.102.412.166,1.001.192,1.771.025.77-.013,1.412-.115,1.925,0,.309-.104.874-.308,1.694-.206.821-.308,1.617-.308,2.387h-2.31c-1.335,0-2.67-.012-4.004-.038-1.335-.025-2.669-.039-4.004-.039h-1.656c-.539,0-1.066.027-1.578.077-.104,0-.398.014-.886.039-.488.026-.758.064-.809.115-.104.104-.154.296-.154.577,0,.283.012.591.039.925.025.334.05.654.077.962.025.309.039.539.039.693,0,.924-.026,1.848-.077,2.772-.052.924-.103,1.925-.154,3.003,0,.205-.013.539-.039,1.001-.026.462-.039.937-.039,1.424s.012.951.039,1.387c.025.437.089.731.192.886.103.153.642.23,1.617.23.462,0,.949-.012,1.463-.038.513-.025.924-.039,1.232-.039h13.86c.05.258.089.578.115.963.025.385.039.758.039,1.116,0,.36-.052.654-.154.886-.104.231-.283.347-.539.347.513.052.718.27.616.654-.104.385-.104.681,0,.886.05.104.154.154.308.154.103,0,.205-.013.308-.039.103-.025.205-.038.308-.038.154,0,.231.077.231.23,0,.206-.052.309-.154.309-.104,0-.206-.013-.308-.039-.104-.025-.206-.038-.308-.038h-.231c-.257.104-.257.205,0,.308.256.104.333.258.231.462,0,.052-.077.065-.231.039-.154-.025-.283.013-.385.115.051-.051.025.052-.077.308-.052.154-.104.309-.154.462,0,.154.141.412.424.771.281.359.27.693-.039,1.001-.104.104-.385.167-.847.192-.462.026-1.001.039-1.617.039-.874,0-1.784-.013-2.733-.039-.951-.025-1.784-.038-2.502-.038-1.9,0-3.684-.013-5.352-.039-1.669-.025-3.248-.038-4.736-.038h-2.156c-.719,0-1.413.026-2.079.077h-1.963c-.693,0-1.322-.051-1.887-.154-.257-.051-.488-.128-.693-.231-.206-.102-.412-.153-.616-.153-.154.104-.308.205-.462.308-.308.206-.591.309-.847.309-.154,0-.258-.025-.308-.077-.206-.154-.347-.552-.424-1.193-.077-.642-.104-1.335-.077-2.079.025-.744.063-1.437.115-2.079.051-.642.077-1.04.077-1.194.05-.512.039-1.064-.039-1.655-.077-.59-.09-1.244-.039-1.964.051-.974.077-1.988.077-3.041v-3.119c0-1.025-.013-2.002-.039-2.926-.026-.924-.039-1.719-.039-2.387v-1.001c0-.309.025-.667.077-1.078,0-.154-.026-.18-.077-.077-.052.104-.052.181,0,.231-.257-.103-.346-.218-.27-.347.077-.128.193-.27.347-.424s.32-.333.5-.539c.179-.204.27-.385.27-.539Z"></path>
  <path class="b" d="m82.294,1.849c-.154,0-.181-.051-.077-.154l.077.154c.103-.051.27-.154.5-.309.231-.153.295-.23.192-.23.359,0,.616.142.77.423.154.283.359.476.616.578.102,0,.231.013.385.038.154.026.333.039.539.039.256.052.513.077.77.077.103-.051.154-.116.154-.193,0-.076.077-.141.231-.192.102-.05.449-.166,1.04-.347.589-.179.936-.269,1.04-.269.308-.051.526.013.654.192.128.18.32.321.578.423h1.694c.154-.05.308-.166.462-.347.154-.179.333-.242.539-.192.256.052.474.347.654.886.179.539.347,1.168.5,1.887.154.72.295,1.451.423,2.194.128.745.243,1.374.347,1.887.975,3.696,1.925,7.546,2.849,11.551.924,4.004,1.745,7.931,2.464,11.781.924-3.285,1.771-6.956,2.542-11.012.77-4.055,1.59-8.085,2.464-12.089.102-.513.218-1.04.347-1.579.127-.539.27-1.167.423-1.887.102-.563.179-1.064.231-1.501.051-.436.127-.821.231-1.155.103-.333.27-.59.5-.771.231-.179.603-.269,1.117-.269h.308c.102,0,.231.038.385.115.154.077.282.115.385.115.154.052.294.038.423-.038.127-.077.243-.116.347-.116.358.052.718.154,1.078.309.358.153.589.23.693.23.513,0,1.09-.063,1.732-.192.642-.127,1.271-.192,1.887-.192h.539c.205.052.372.09.5.115.127.026.243.039.346.039.205,0,.385-.051.539-.154-.206,2.054-.539,4.185-1.001,6.392s-.962,4.454-1.501,6.737c-.539,2.285-1.078,4.595-1.617,6.931s-1.014,4.71-1.424,7.122c-.052.36-.231,1.297-.539,2.811-.308,1.515-.654,3.286-1.04,5.313-.385,2.028-.809,4.171-1.271,6.43-.462,2.26-.899,4.351-1.309,6.275-.412,1.926-.758,3.518-1.04,4.774-.283,1.259-.45,1.912-.5,1.964l-.231-.077h-2.002c-.462,0-.924-.026-1.386-.077-.257-.051-.423-.166-.5-.347-.077-.179-.167-.27-.27-.27-.104,0-.27.039-.5.115-.231.077-.321.168-.27.27-.052.104-.09.104-.115,0-.027-.102.012-.153.115-.153,0-.103-.077-.154-.231-.154-.104,0-.231.038-.385.115-.154.077-.283.091-.385.039-.36-.117-.681-.249-.962-.396-.283-.146-.527-.22-.731-.22-.206,0-.206.334,0,1.001-.052-.051-.154-.077-.308-.077-.258,0-.552.065-.886.192-.334.128-.654.192-.962.192-.154,0-.334-.052-.539-.153-.104-.052-.192-.218-.27-.501-.077-.281-.142-.59-.192-.924-.052-.333-.104-.68-.154-1.04-.052-.358-.103-.641-.154-.847-1.694-8.008-3.568-16.157-5.621-24.448-2.054-8.29-3.979-16.312-5.775-24.063-.154-.615-.283-1.128-.385-1.54-.052-.05-.077-.23-.077-.539v-.692Z"></path>
  <path class="b" d="m119.64,30.493l-.462-.23c-.104-.154-.154-.386-.154-.693s-.206-.513-.616-.616c.308-.051.41-.141.308-.27-.104-.127-.181-.32-.231-.577-.103-.616-.128-1.335-.077-2.156.05-.82.115-1.681.192-2.58.077-.897.154-1.758.231-2.579.077-.82.089-1.54.039-2.156-.104-1.796-.129-3.67-.077-5.621.051-1.95.051-3.67,0-5.159-.052-.666.012-1.321.192-1.964.18-.641.27-1.271.27-1.886,0-.463-.077-.911-.231-1.348-.154-.436-.154-.911,0-1.425.513.052,1.013.077,1.501.077h1.502c1.796,0,3.581-.063,5.352-.192,1.771-.128,3.606-.192,5.505-.192.616,0,1.232.013,1.848.038.616.026,1.232.065,1.848.115.256.052.526.077.809.077h.886c.616,0,1.271-.012,1.963-.038.693-.025,1.398-.039,2.118-.039.41,0,.962-.012,1.655-.038.693-.025,1.348-.039,1.964-.039.462,0,.872.014,1.232.039.358.026.616.09.77.192.256.206.281.296.077.27-.206-.025-.283.09-.231.347.051.205.154.308.308.308.051,0,.064,0,.039,0-.026,0-.09.104-.192.309,0-.051-.052.142-.154.577-.103.437-.308.629-.616.577.564.104.782.347.654.731-.128.386-.27.707-.423.963.205.104.385.154.539.154h1.232c0,.257-.181.385-.539.385h-.539c-.257,0-.411.026-.462.077-.052.257.064.373.347.347.281-.025.397.09.346.346h-.77c.256.309.385.732.385,1.271s.281.911.847,1.116c-.258.462-.616.758-1.078.886s-1.053.192-1.771.192c-.412,0-.822-.013-1.232-.039-.411-.025-.874-.038-1.386-.038h-8.933c-.462,0-.937-.025-1.424-.077-.488-.051-.962-.077-1.424-.077-.72,0-1.284.129-1.694.385-.412.258-.488.822-.231,1.694.051.154.141.258.27.309.127.052.218.128.27.23.05.359.039.797-.039,1.31-.077.514-.167,1.053-.27,1.616-.104.565-.18,1.155-.231,1.771-.052.616-.052,1.232,0,1.848.051.565.051,1.284,0,2.156-.052.874-.129,1.694-.231,2.464,2.31.104,4.594.168,6.853.193,2.258.026,4.543.038,6.854.038.256,0,.487-.012.693-.038.205-.025.41-.039.616-.039.358,0,.628.091.808.27.18.181.32.553.424,1.116.102.412.166,1.001.192,1.771.025.77-.013,1.412-.115,1.925,0,.309-.104.874-.308,1.694-.206.821-.308,1.617-.308,2.387h-2.31c-1.335,0-2.67-.012-4.004-.038-1.335-.025-2.669-.039-4.004-.039h-1.656c-.539,0-1.066.027-1.578.077-.104,0-.398.014-.886.039-.488.026-.758.064-.809.115-.104.104-.154.296-.154.577,0,.283.012.591.039.925.025.334.05.654.077.962.025.309.039.539.039.693,0,.924-.026,1.848-.077,2.772-.052.924-.103,1.925-.154,3.003,0,.205-.013.539-.039,1.001-.026.462-.039.937-.039,1.424s.012.951.039,1.387c.025.437.089.731.192.886.103.153.642.23,1.617.23.462,0,.949-.012,1.463-.038.513-.025.924-.039,1.232-.039h13.86c.05.258.089.578.115.963.025.385.039.758.039,1.116,0,.36-.052.654-.154.886-.104.231-.283.347-.539.347.513.052.718.27.616.654-.104.385-.104.681,0,.886.05.104.154.154.308.154.103,0,.205-.013.308-.039.103-.025.205-.038.308-.038.154,0,.231.077.231.23,0,.206-.052.309-.154.309-.104,0-.206-.013-.308-.039-.104-.025-.206-.038-.308-.038h-.231c-.257.104-.257.205,0,.308.256.104.333.258.231.462,0,.052-.077.065-.231.039-.154-.025-.283.013-.385.115.051-.051.025.052-.077.308-.052.154-.104.309-.154.462,0,.154.141.412.424.771.281.359.27.693-.039,1.001-.104.104-.385.167-.847.192-.462.026-1.001.039-1.617.039-.874,0-1.784-.013-2.733-.039-.951-.025-1.784-.038-2.502-.038-1.9,0-3.684-.013-5.352-.039-1.669-.025-3.248-.038-4.736-.038h-2.156c-.719,0-1.413.026-2.079.077h-1.963c-.693,0-1.322-.051-1.887-.154-.257-.051-.488-.128-.693-.231-.206-.102-.412-.153-.616-.153-.154.104-.308.205-.462.308-.308.206-.591.309-.847.309-.154,0-.258-.025-.308-.077-.206-.154-.347-.552-.424-1.193-.077-.642-.104-1.335-.077-2.079.025-.744.063-1.437.115-2.079.051-.642.077-1.04.077-1.194.05-.512.039-1.064-.039-1.655-.077-.59-.09-1.244-.039-1.964.051-.974.077-1.988.077-3.041v-3.119c0-1.025-.013-2.002-.039-2.926-.026-.924-.039-1.719-.039-2.387v-1.001c0-.309.025-.667.077-1.078,0-.154-.026-.18-.077-.077-.052.104-.052.181,0,.231-.257-.103-.346-.218-.27-.347.077-.128.193-.27.347-.424s.32-.333.5-.539c.179-.204.27-.385.27-.539Z"></path>
  <path class="b" d="m149.441,18.404c0-1.591-.065-3.222-.193-4.89-.128-1.668-.065-2.938.193-3.812.05-.103.141-.205.269-.309.128-.103.218-.204.27-.308,0-.205-.077-.475-.231-.809-.154-.334-.206-.628-.154-.886,0-.41.025-.743.077-1.001.05-.256.281-.436.693-.539-.052-.154-.142-.166-.27-.038-.129.128-.27.142-.423.038.102-.103.218-.154.346-.154.127,0,.243-.025.347-.077-.257-.05-.412-.102-.462-.153-.052-.051-.065-.089-.039-.116.025-.024.039-.05.039-.076,0-.025-.104-.039-.308-.039-.104-.308-.026-.513.231-.616.256-.102.333-.281.231-.539,0-.102-.077-.141-.231-.115-.154.026-.283-.038-.385-.192-.154-.256-.167-.539-.039-.847.127-.309.346-.539.654-.693-.104.052-.167.052-.192,0-.026-.051.012-.077.115-.077.154-.103.103-.154-.154-.154s-.385-.024-.385-.076c0-.205.077-.334.231-.386.154-.05.32-.076.5-.076.179,0,.346-.039.5-.116.154-.077.179-.243.077-.5.103-.103.141-.039.116.192-.026.23.012.347.116.347.05,0,.127-.051.231-.154l.231-.231c.05,0,.05.065,0,.193-.052.128.05.244.308.346.102.052.281.039.539-.038.256-.077.513-.115.77-.115s.513.038.77.115c.256.077.539.115.847.115.513,0,1.078-.038,1.694-.115.616-.077,1.206-.115,1.771-.115h.385c.256,0,.603-.013,1.04-.039.436-.025.551-.012.347.039.41-.051.782-.077,1.116-.077h1.117c2.515,0,4.954.347,7.315,1.039,2.36.693,4.286,1.683,5.775,2.965.103,0,.141-.038.116-.115-.026-.077-.09-.141-.192-.192l-.077-.077c.05,0,.077.026.077.077,1.18.462,2.117,1.398,2.811,2.811.693,1.412,1.18,3.041,1.463,4.89.282,1.848.385,3.812.308,5.891-.077,2.079-.27,4.042-.578,5.891-.154.873-.347,1.861-.578,2.965-.231,1.104-.5,1.938-.809,2.502-.052.104-.154.167-.308.192-.154.026-.258.091-.308.192-.154.154-.258.36-.308.616-.052.258-.129.488-.231.693-.206.308-.514.629-.924.962-.411.335-.745.655-1.001.963-.052.052-.065.129-.038.231.025.104-.014.18-.116.23-.052.052-.142.077-.27.077-.129,0-.192.026-.192.077-.052.052-.052.142,0,.27.05.129.05.219,0,.27-.258.206-.539.398-.847.577-.308.181-.643.27-1.001.27-.308,0-.591-.077-.847-.23-.104-.103-.18-.257-.231-.462-.052-.205-.206-.359-.462-.463.154.515.333.938.539,1.271.205.334.333.783.385,1.347.205-.102.231-.192.077-.27-.154-.076-.181-.218-.077-.423.103.205.193.398.27.577.077.181.166.373.27.577-.104,0-.167-.038-.192-.115-.026-.077-.09-.115-.192-.115.256.924.641,1.798,1.155,2.618.513.821.975,1.669,1.386,2.541.564,1.335,1.065,2.708,1.501,4.119.436,1.413,1.013,2.761,1.732,4.043.359.616.731,1.207,1.117,1.771.385.565.603,1.335.654,2.31,0,.411.025.706.077.886.051.181.103.45.154.809-.104,0-.373-.039-.809-.115-.437-.077-.924-.154-1.463-.231s-1.053-.141-1.54-.192c-.488-.051-.86-.077-1.116-.077h-.154c-.104.052-.154.181-.154.385s-.052.282-.154.231c-.154-.052-.269-.128-.346-.231-.077-.102-.219-.204-.424-.308,0,.154-.051.23-.154.23h-.231c-.052,0-.077.052-.077.154-.104-.256-.296-.462-.577-.616-.283-.153-.553-.23-.809-.23-.412,0-.514.205-.308.616.154.052.231.128.231.23-.206-.204-.36-.333-.462-.385-.104-.051-.283-.077-.539-.077-.206,0-.385.052-.539.154-.154.104-.181.257-.077.462h-.154c-.462,0-.783-.231-.962-.693-.181-.462-.321-.872-.424-1.231-1.027-2.413-2.015-4.786-2.964-7.123-.951-2.335-1.938-4.863-2.965-7.585-.104-.358-.27-.82-.5-1.386-.231-.564-.398-.872-.5-.924-.308-.103-.488-.154-.539-.154-.411,0-.629.282-.654.847-.026.565-.065,1.053-.116,1.463-.104,1.078-.104,2.299,0,3.658.103,1.36.154,2.785.154,4.273,0,.462-.027,1.092-.077,1.887-.052.796-.077,1.63-.077,2.503,0,1.129.025,2.182.077,3.156.05.977-.308,1.514-1.078,1.617-.514,0-1.193-.142-2.041-.423-.847-.282-1.501-.424-1.963-.424-.206,0-.398.077-.578.23-.181.154-.321.206-.423.154-.206,0-.398-.063-.578-.192-.181-.128-.321-.192-.424-.192-.411.052-.835.167-1.271.347-.437.179-.885.27-1.347.27-.258,0-.591-.077-1.001-.231v-17.248c0-.462-.014-1.04-.039-1.732-.027-.693-.039-1.36-.039-2.003s.05-1.193.154-1.655c.103-.462.282-.693.539-.693-.257,0-.373-.141-.347-.423.025-.281.012-.475-.038-.578-.052-.102-.116-.141-.193-.115-.077.026-.142-.012-.192-.115,0-.103.051-.295.154-.578.102-.281.154-.474.154-.577,0-.103-.065-.192-.192-.27-.129-.077-.193-.166-.193-.27-.104-.308-.104-.666,0-1.078.103-.41.18-.872.231-1.386.102-1.129.127-2.515.077-4.158-.052-1.643-.077-3.284-.077-4.928Zm9.856,9.009h2.926c.564,0,1.051-.038,1.463-.115.41-.077.744-.27,1.001-.578.205.206.462.309.77.309.359,0,.731-.115,1.117-.347.385-.231.654-.424.809-.577.462-.462.809-1.052,1.04-1.771.231-.718.372-1.475.423-2.271.051-.795.051-1.617,0-2.464-.052-.848-.077-1.629-.077-2.349l.154-.154c.102-.103.154-.204.154-.308,0-.257-.065-.654-.192-1.193-.129-.539-.296-.963-.5-1.271-.616-1.181-1.451-1.912-2.502-2.195-1.053-.281-2.478-.5-4.274-.654-.206,0-.423-.038-.654-.115s-.476-.115-.731-.115c-.308,0-.539.128-.693.385.256.052.436.219.539.5.103.283.166.643.192,1.078.025.437.025.899,0,1.387-.026.488-.038.962-.038,1.424,0,1.849.012,3.825.038,5.93.025,2.105-.09,3.876-.346,5.312-.052.052-.116.065-.192.039-.077-.025-.142-.039-.193-.039-.154,0-.231.052-.231.154Z"></path>
  <path class="b" d="m184.323,2.772c.204-.051.308-.256.308-.616.154.052.27.129.347.231.077.104.218.153.423.153.154.052.18-.038.077-.27-.104-.23-.052-.319.154-.27.103.154.308.231.616.231h.77c.358,0,.539.181.539.539.102-.256.333-.449.693-.577.359-.128.718-.193,1.078-.193.205,0,.41.052.616.154.154.104.32.385.5.848.179.462.346.988.5,1.578.154.591.295,1.168.423,1.732.127.565.218.976.27,1.232.667,2.823,1.373,5.686,2.118,8.586.744,2.9,1.398,5.634,1.963,8.2.359-.41.564-.886.616-1.425.05-.539.127-1.09.231-1.655.667-2.618,1.359-5.3,2.079-8.047.718-2.745,1.437-5.506,2.156-8.277.102-.358.231-.848.385-1.463.154-.616.282-.975.385-1.078.05-.051.154-.077.308-.077.256,0,.539.052.847.154.308.104.564.128.77.076.103,0,.205-.076.308-.23.102-.154.205-.257.308-.309.05,0,.102-.012.154-.038.051-.025.103-.038.154-.038.359,0,.705.076,1.04.23.333.154.628.231.886.231.358,0,.589-.128.693-.386.154.104.166.231.039.386-.129.153-.142.334-.039.539.103.205.218.167.347-.116.127-.281.218-.423.27-.423.102,0,.154.052.154.153.051.104.103.181.154.231.205-.103.358-.231.462-.385.102-.154.282-.282.539-.386.154-.05.41-.076.77-.076s.718.026,1.078.076c.358.052.77.104,1.232.154-.874,2.926-1.708,5.737-2.502,8.432-.797,2.695-1.63,5.403-2.503,8.124-.874,2.722-1.668,5.455-2.387,8.201-.72,2.746-1.592,5.557-2.618,8.432-.052.153-.116.23-.193.23-.077,0-.167.077-.269.231-.052.052-.142.385-.27,1.001-.129.616-.219,1.001-.27,1.155-.206,1.438-.258,2.964-.154,4.581.103,1.617.154,3.247.154,4.89,0,1.54.012,3.08.038,4.62.025,1.54-.013,3.055-.115,4.543-.154-.153-.412-.205-.77-.153-.36.05-.539-.104-.539-.462-.412.205-.719.308-.924.308-.36,0-.616-.154-.77-.462-.104.052-.142.167-.116.347.025.179-.013.295-.116.347-.154-.052-.296-.091-.423-.116-.129-.026-.27-.038-.423-.038-.36,0-.693.051-1.001.154-.308.102-.616.153-.924.153-.257,0-.437-.026-.539-.077-.257-.104-.475-.27-.654-.5-.181-.231-.398-.347-.655-.347-.052,0-.09.014-.115.038-.026.027-.065.039-.116.039-.411.258-.796.437-1.155.539-.36.103-.77.154-1.232.154v-9.626c0-1.54.05-3.118.154-4.735.102-1.617.051-3.169-.154-4.659-.104-.77-.321-1.578-.655-2.425-.334-.848-.629-1.629-.885-2.349-1.028-2.927-1.99-5.93-2.888-9.01-.899-3.08-1.81-6.237-2.734-9.471-.616-2.104-1.258-4.158-1.925-6.16-.668-2.002-1.259-3.978-1.771-5.93.154,0,.308-.012.462-.038.154-.025.333-.039.539-.039.667,0,1.348.052,2.041.154.693.104,1.244.283,1.656.539Z"></path>
  <path class="b" d="m247.54,1.849c-.308.462-.385.873-.231,1.231.154.36.231.797.231,1.31,0,.308-.027.821-.077,1.54-.052.72.025,1.231.231,1.54.05.257-.026.385-.231.385-.206,0-.308.077-.308.231,0,.104.127.153.385.153-.258.206-.385.386-.385.539,0,.154.039.309.116.462.077.154.166.335.27.539.102.206.154.514.154.925-.412.104-.822.167-1.232.192-.412.026-.822.038-1.232.038-.874,0-1.733-.038-2.58-.115-.847-.077-1.708-.115-2.58-.115-1.13,0-2.054.128-2.772.385-.052,0-.077.052-.077.154l.077.076c-.052.154-.154.231-.308.231-.104,0-.181-.012-.231-.039-.052-.024-.128-.038-.231-.038-.052,0-.104.026-.154.077-.104.206-.167.539-.192,1.001-.027.462-.027.963,0,1.502.025.539.05,1.091.077,1.655.025.565.039,1.027.039,1.386v39.426c-.154,0-.321.012-.5.038-.18.025-.346.038-.5.038-.822,0-1.309-.23-1.463-.692-.257-.103-.36-.025-.308.23.051.257-.052.358-.308.309-.257.05-.36-.014-.308-.192.051-.18.103-.295.154-.347-.154,0-.283.013-.385.038-.104.026-.206.039-.308.039-.154,0-.257-.154-.308-.463-.154.104-.219.27-.193.501.025.231-.09.372-.346.424-.258-.104-.398-.282-.424-.539-.026-.257-.09-.513-.192-.771-.104.206-.142.398-.115.578.025.18-.013.423-.116.731-.104.05-.321-.014-.654-.192-.334-.18-.552-.243-.655-.193-.104,0-.167.065-.192.193-.026.127-.09.218-.192.27-.308.102-.539.153-.693.153-.308,0-.629-.038-.962-.115-.334-.077-.681-.115-1.04-.115-.104,0-.206.012-.308.038-.104.025-.206.039-.308.039V17.326c0-.616-.027-1.244-.077-1.887-.052-.642-.065-1.258-.039-1.849.025-.589.102-1.116.231-1.578.127-.462.347-.77.655-.924-.874-.103-1.708-.18-2.503-.231-.796-.05-1.63-.077-2.502-.077-.72,0-1.424.014-2.118.039-.693.026-1.399.038-2.118.038h-1.424c-.488,0-.989-.025-1.501-.077.256-.41.243-.743-.039-1.001-.282-.256-.449-.563-.5-.924-.051-.256-.039-.424.039-.5.077-.077.142-.243.192-.501.05-.103.039-.243-.039-.424-.077-.179-.115-.371-.115-.577.052-.358.166-.667.346-.924.179-.257.039-.436-.423-.539,0-.103.077-.154.231-.154s.256-.077.308-.23c.05-.154-.052-.231-.308-.231s-.385-.051-.385-.154c0-.102.104-.153.308-.153h.347c.127,0,.166-.077.116-.231-.104-.154-.283-.204-.539-.154-.256.052-.385-.05-.385-.308h.462c.308,0,.513-.051.616-.154-.104-.204-.27-.295-.5-.27-.231.026-.424-.012-.578-.115.104-.103.206-.154.308-.154.104,0,.181.014.231.039.05.026.127.038.231.038.103,0,.205-.051.308-.153-.052-.103-.116-.309-.192-.616-.077-.309-.065-.487.039-.539.204-.103.487-.154.847-.154h2.387c.256-.051.526-.141.809-.27.281-.128.603-.192.962-.192.103,0,.205-.012.308-.038.102-.025.205-.039.308-.039.41,0,.795.026,1.155.077.358.052.718.077,1.078.077h.385c.616-.051,1.194-.089,1.733-.115.539-.025,1.064-.039,1.579-.039h.847c.359,0,.731.014,1.117.039.385.026.744.064,1.078.115.333.052.603.104.809.154.102.051.192.128.27.23.077.104.166.154.27.154,1.026.153,2.079.23,3.157.23,1.437,0,2.875-.063,4.312-.192,1.437-.127,2.746-.192,3.927-.192h.462c.873.052,1.771.09,2.695.115.924.026,1.822.039,2.695.039Z"></path>
  <path class="b" d="m282.652,30.339c.256,0,.423.039.5.116.077.077.166.167.27.27,0,.257-.104.385-.308.385-.206,0-.385.052-.539.154.154.153.436.23.847.23-.258.72-.424,1.566-.5,2.541-.077.976-.116,2.002-.116,3.08,0,2.927.039,5.968.116,9.125.077,3.157.089,6.226.038,9.202h-.154c-.36,0-.643.076-.847.23-.206.154-.385.231-.539.231-.206,0-.385-.18-.539-.539-.103,0-.142.038-.115.115.025.077.012.167-.039.27-.154-.103-.231-.256-.231-.462v-.693c-.154.052-.192.206-.116.462.077.258.089.489.039.693-.104-.051-.18-.141-.231-.27-.052-.128-.104-.192-.154-.192v.308c-.258.104-.36.052-.308-.153.05-.205.05-.359,0-.462-.104-.051-.142.013-.116.192.025.18.039.321.039.423-.257-.05-.36-.23-.308-.539.051-.308.051-.589,0-.847-.103.514-.206.873-.308,1.078-.104.206-.206.514-.308.924-.257.103-.347.014-.27-.27.077-.281.089-.474.039-.577-.104.052-.154.167-.154.347s-.052.321-.154.423c-.154-.204-.181-.551-.077-1.039.103-.487-.026-.757-.385-.809-.104.104-.167.27-.193.5-.026.231-.09.424-.192.578-.206-.257-.346-.358-.423-.309-.077.052-.116-.102-.116-.462-.257.36-.514.591-.77.693-.257.104-.565.154-.924.154-.257,0-.527-.013-.809-.039-.283-.025-.578-.038-.886-.038-.411,0-.719.026-.924.077-.104-3.901-.181-7.765-.231-11.589-.052-3.824-.026-7.277.077-10.357.05-.05.154-.077.308-.077h.462c.05-.358-.09-.589-.424-.692-.334-.103-.783-.154-1.347-.154-.36,0-.72.014-1.078.038-.36.027-.72.039-1.078.039-.874.052-1.759.077-2.657.077h-2.349c-.257,0-.629-.013-1.116-.039-.489-.025-.938-.038-1.348-.038-.36,0-.565.026-.616.077-.104.104-.167.475-.192,1.116-.026.643-.026,1.374,0,2.194.025.822.051,1.656.077,2.503.025.847.039,1.528.039,2.041,0,1.592.025,3.17.077,4.735.051,1.566.103,2.914.154,4.042,0,.463-.013.989-.039,1.579-.026.591-.09,1.091-.192,1.501-.052.154-.129.309-.231.463-.104.153-.154.282-.154.385-.052.206.025.565.231,1.078.205.514.205.873,0,1.078-.052.153-.231.23-.539.23-.257,0-.514-.038-.77-.115-.257-.077-.488-.115-.693-.115-.412.052-.796.142-1.155.27-.359.128-.693.192-1.001.192-.411,0-.719-.18-.924-.539-.154,0-.231.077-.231.23,0,.154-.052.283-.154.386-.103-.051-.154-.231-.154-.539-.206,0-.27.115-.192.346.077.231-.013.297-.27.193-.104-.411-.231-.782-.385-1.117-.154-.333-.359-.5-.616-.5-.154,0-.385.077-.693.23-.154.104-.27.258-.346.462-.077.206-.167.335-.27.386-.308.104-.514.153-.616.153-.257,0-.514-.038-.77-.115-.257-.077-.514-.115-.77-.115.051-2.207.051-4.273,0-6.199-.052-1.925-.09-3.812-.115-5.659-.027-1.849-.052-3.683-.077-5.506-.026-1.821.039-3.734.192-5.736,0-.257.051-.578.154-.963.102-.385-.052-.577-.462-.577.359-.257.578-.526.655-.809s.243-.449.5-.501c-.104-.256-.462-.385-1.078-.385h-.924c-.052-.204-.039-.333.039-.385.077-.051.179-.089.308-.116.128-.024.243-.05.347-.076.102-.025.154-.116.154-.27-.257-.205-.59-.309-1.001-.309s-.589-.23-.539-.692c.104-.103.231-.154.385-.154h.924c.154,0,.282-.051.385-.154-.206-.204-.489-.308-.847-.308s-.718-.025-1.078-.077c.104-.564.514-.847,1.232-.847h.462c-.258-.205-.514-.372-.77-.501-.256-.128-.436-.347-.539-.654h1.001c.308,0,.616-.051.924-.154-.052-1.488-.115-3.131-.192-4.928s-.129-3.619-.154-5.468c-.027-1.848-.027-3.657,0-5.429.025-1.771.089-3.375.192-4.812.102-.718.077-1.321-.077-1.81-.154-.487-.026-.858.385-1.116.05-.051.154-.077.308-.077s.346.052.577.154c.231.104.526.205.886.308h.154c.205,0,.385-.012.539-.038.154-.025.308-.039.462-.039.411,0,.667.181.77.539.103.052.141.014.116-.115-.026-.128-.013-.192.039-.192l.231.23c-.104-.102-.026-.192.231-.27.256-.076.513-.115.77-.115.102,0,.192.014.27.039.077.026.141.038.192.038.103.052.179.181.231.385.051.206.231.309.539.309h.154c.154-.103.256-.205.308-.309.051-.103.128-.23.231-.385.103.104.231.154.385.154.256,0,.551-.077.886-.231.333-.154.731-.23,1.193-.23.308,0,.539.026.693.076.103,3.03.116,6.059.039,9.087-.077,3.029-.09,6.083-.039,9.163v2.426c0,.488.025.924.077,1.309.05.385.102.63.154.731.051,0,.116.014.193.039.077.026.166.038.27.038.358,0,.795-.025,1.309-.077.513-.05.821-.102.924-.153h.385c.513,0,1.104.026,1.771.076.667.052,1.36.077,2.079.077.411,0,.936.014,1.579.039.642.026,1.219.038,1.733.038.616,0,.949-.025,1.001-.077.05-1.386.077-2.668.077-3.85.051-1.026.077-2.002.077-2.927v-1.771c-.104-2.311-.154-4.671-.154-7.084V1.155c.205-.051.32,0,.346.154.025.154.039.308.039.462.154-.257.308-.385.462-.385.205,0,.308.128.308.385l.077.154c.05,0,.063-.09.039-.27-.026-.18.012-.32.115-.424.103,0,.205.052.308.154.103.104.179.153.231.153.205-.102.32-.256.347-.462.025-.204.089-.308.192-.308.051-.051.179-.077.385-.077.204,0,.397.065.577.192.179.129.243.373.193.731.204-.103.281-.333.231-.692-.052-.359.077-.539.385-.539.051.052.103.104.154.153.102.104.179.154.231.154.154,0,.231-.103.231-.308.154,0,.205.104.154.308-.052.206-.052.359,0,.462.103-.103.154-.23.154-.385s.025-.281.077-.385c.154,0,.205.09.154.27-.052.18-.027.296.077.346.154.052.205-.012.154-.192-.052-.179-.052-.319,0-.423.05.205.127.308.231.308l.154-.077c.051,0,.077-.025.077-.077.102,0,.154.231.154.693h.308c.359,0,.757-.051,1.194-.154.436-.102.859-.153,1.271-.153.462,0,.82.104,1.078.308.051.052.154.258.308.616.154.359.231.462.231.308.103.565.141,1.374.116,2.426-.026,1.053-.065,1.887-.116,2.503-.104,1.129-.128,2.4-.077,3.812.05,1.412.077,2.862.077,4.351s-.052,2.952-.154,4.389c-.104,1.438-.052,2.67.154,3.696.103.668.27,1.336.5,2.002.231.668.27,1.284.116,1.849-.052.153-.167.257-.347.308-.18.052-.321.154-.423.308-.104.206-.104.604,0,1.194.102.59.05.962-.154,1.116.102,0,.192-.025.27-.077.077-.051.166-.077.269-.077,0,.154-.051.244-.154.27-.104.026-.231.065-.385.115Z"></path>
  <path class="b" d="m294.509,54.672c0,.206-.077.309-.231.309s-.296-.025-.423-.077c-.129-.051-.244-.051-.347,0-.206.104-.296.23-.27.385.025.154-.065.282-.27.385-.308.154-.667.231-1.078.231-.462,0-.95-.051-1.463-.154-.514-.103-1.027-.154-1.54-.154-.412,0-.847.077-1.309.231.051-.154.051-.257,0-.309v-.076c-.154,0-.18.128-.077.385-.154.104-.245.077-.27-.077-.027-.154-.065-.256-.116-.308-.104-.051-.142,0-.116.153.025.154.012.231-.038.231l-.154-.154v-.23c-.154.052-.244.167-.27.346-.026.181-.219.245-.577.193-.154-3.851-.231-7.61-.231-11.281s.012-7.302.039-10.896c.025-3.593.039-7.148.039-10.665s-.052-7.071-.154-10.665c-.052-1.488-.013-3.183.115-5.082.127-1.898.141-3.927.039-6.083.256-.103.513-.154.77-.154h.77c.77,0,1.565.065,2.387.192.82.129,1.54.192,2.156.192h.231c.154,0,.308-.063.462-.192.154-.127.281-.192.385-.192.256.052.462.154.616.309.154.153.436.23.847.23.154-.051.423-.166.808-.347.385-.179.705-.27.963-.27.102,0,.179.026.231.077.05.052.089.27.115.654.025.386.039.835.039,1.348v3.157c0,3.439-.026,6.636-.077,9.587-.052,2.952-.027,5.788.077,8.509.103,1.438.103,3.029,0,4.774-.104,1.745-.104,3.439,0,5.082.051.873.154,1.721.308,2.541.154.821.179,1.515.077,2.079,0,.104-.065.154-.193.154s-.244.076-.346.23c-.154.411-.142,1.04.039,1.887.179.847.27,1.63.27,2.349,0,1.848-.039,3.709-.116,5.582-.077,1.875-.142,3.556-.192,5.044,0,.206.05.527.154.963.103.437.025.731-.231.886-.104.052-.231.076-.385.076-.308,0-.591-.166-.847-.5-.257-.333-.462-.628-.616-.886Z"></path>
  <path class="b" d="m299.59,56.212c-.052-8.778-.065-17.8-.039-27.066.025-9.266.039-18.492.039-27.682.205-.103.449-.167.731-.193.282-.024.372-.218.27-.577.616.258,1.155.385,1.617.385.41,0,.77-.077,1.078-.23.41.411.795.654,1.155.731.359.077.744.115,1.155.115.102,0,.179.014.231.038.051.027.127.039.231.039.103.052.205.077.308.077.102,0,.256-.103.462-.309.205-.204.358-.308.462-.308.154-.051.359-.077.616-.077h1.579c.281,0,.474.052.578.154.102.052.231.219.385.5.154.283.308.616.462,1.001.154.386.295.759.424,1.117.127.359.218.643.27.847,1.642,4.004,3.311,8.137,5.005,12.397,1.694,4.262,3.285,8.316,4.774,12.166.102-1.386.166-2.938.192-4.658.025-1.72.039-3.542.039-5.467V7.47c0-.358-.013-.859-.039-1.502-.026-.641-.052-1.282-.077-1.925-.026-.642-.026-1.219,0-1.732.025-.513.064-.796.116-.847.05-.051.179-.077.385-.077h.539c.205,0,.282-.025.231-.077h-.077.077c.256.205.308.45.154.731-.154.282-.154.604,0,.963.154-.154.231-.386.231-.693s.05-.59.154-.847c0,.205.051.308.154.308.05,0,.115-.051.192-.154.077-.103.141-.153.192-.153.205,0,.423.038.655.115.231.077.423.115.577.115.103.052.154.026.154-.077,0-.103.05-.153.154-.153.051,0,.077.051.077.153,0,.104.05.129.154.077.103,0,.205-.051.308-.154.102-.102.205-.179.308-.23.256-.051.487-.077.693-.077h.693c.718,0,1.475.026,2.272.077.795.052,1.578.104,2.348.154v54.518c-.873,0-1.707.038-2.502.115-.796.077-1.579.115-2.349.115h-1.001c-.154,0-.346-.051-.578-.154-.231-.102-.423-.179-.577-.23-.412-.051-.899.013-1.463.192-.565.181-1.078.27-1.54.27-.206,0-.411-.051-.616-.154-.104-.05-.219-.23-.347-.539-.129-.308-.257-.654-.385-1.039-.129-.385-.245-.771-.347-1.155-.104-.385-.206-.68-.308-.886-1.592-3.952-3.261-8.059-5.005-12.32-1.746-4.26-3.363-8.265-4.852-12.012,0,.821-.065,1.771-.192,2.849-.128,1.078-.065,2.002.192,2.772v-.154c.103,0,.205.065.308.192.103.129.127.27.077.424.05.052.077.026.077-.077v-.462c0,.206.025.385.077.539,0,.153.025.282.077.385v.154c0,.104.025.205.077.308.05.104.025.206-.077.309,0,.052-.052.103-.154.153-.104.052-.181.129-.231.231-.052.257-.027.373.077.347.103-.025.154.09.154.346.05.515-.027,1.117-.231,1.81-.206.693-.334,1.399-.385,2.118-.104,2.413-.104,5.031,0,7.854.102,2.823.102,5.39,0,7.7-.206.104-.437.153-.693.153h-.77c-.462,0-.938-.012-1.425-.038-.488-.025-.937-.039-1.348-.039-.565,0-.95.027-1.155.077-.206.052-.437.143-.693.27-.258.128-.489.192-.693.192s-.308-.153-.308-.462c-.36.205-.72.309-1.078.309-.308,0-.629-.039-.963-.116-.334-.076-.706-.115-1.116-.115h-.385Z"></path>
  <path class="b" d="m338.245,53.748c-1.181-1.181-2.041-2.63-2.58-4.351-.539-1.72-.898-3.631-1.078-5.736-.181-2.104-.245-4.363-.193-6.776.051-2.413.077-4.877.077-7.393-.052-2.412-.104-4.824-.154-7.238-.052-2.412,0-4.697.154-6.854.308-4.722,1.656-8.2,4.042-10.434,2.387-2.232,5.839-3.35,10.357-3.35s7.879.989,10.087,2.965c2.207,1.977,3.619,5.197,4.235,9.664.051.411.128.976.231,1.693.102.72.102,1.182,0,1.387-.104.153-.36.282-.77.385-.412.104-.86.181-1.348.23-.489.052-.963.091-1.425.116-.462.026-.822.038-1.078.038-.257-.051-.5-.179-.731-.385-.231-.205-.423-.333-.577-.385-.104,0-.193.052-.27.153-.077.104-.245.181-.5.231l-.462-.154c-.411,0-.796-.127-1.155-.385-.154.052-.231.154-.231.308,0,.154-.052.283-.154.386-.667,0-1.104-.166-1.309-.501-.206-.333-.346-.743-.423-1.231-.077-.487-.142-1.002-.192-1.54-.052-.539-.231-.988-.539-1.348-.514-.616-1.309-.925-2.387-.925-.924,0-1.836.245-2.733.731-.899.489-1.451,1.144-1.656,1.964-.104.514-.142,1.297-.115,2.349.025,1.053.012,1.99-.039,2.811-.052,1.13-.104,2.426-.154,3.889-.052,1.463-.09,2.926-.115,4.39-.026,1.463-.013,2.837.039,4.119.05,1.284.127,2.311.231,3.08.05.258.115.437.192.539.077.104.089.283.039.539l-.154-.077-.077.154c.102,1.13.102,2.233,0,3.311-.104,1.078-.104,2.055,0,2.927.102.873.372,1.592.809,2.156.436.565,1.193.898,2.271,1.001,0-.154-.077-.231-.231-.231s-.283-.051-.385-.154c.205.052.411,0,.616-.153.205-.154.333-.231.385-.231.051.104.128.181.231.231l.154.308c.05,0,.243-.025.578-.077.333-.051.654-.127.962-.23.102-.051.115-.09.039-.116-.077-.025-.142-.012-.193.039.256-.257.667-.424,1.232-.501.564-.077.975-.295,1.232-.654.154-.204.27-.628.347-1.271.077-.642.141-1.09.192-1.348v-3.85c0-.205.012-.487.039-.848.025-.358.039-.731.039-1.116v-1.078c0-.333-.027-.551-.077-.654-.154-.205-.489-.309-1.001-.309-.462,0-.951.039-1.463.116-.514.077-.976.115-1.386.115s-.668-.051-.77-.154c-.052-.564-.116-1.039-.192-1.425-.077-.385-.129-.743-.154-1.077-.026-.334-.039-.526-.039-.578,0-.204.064-.333.193-.385.127-.051.192-.154.192-.308,0-.309-.052-.629-.154-.963-.104-.333-.154-.654-.154-.963.05-.308.154-.666.308-1.078.154-.41.231-.692.231-.847,0-.103-.116-.308-.347-.616-.231-.308-.192-.616.116-.924.102-.103.385-.18.847-.231.462-.05.975-.076,1.54-.076.667,0,1.309.013,1.925.038.616.026,1.052.038,1.309.038.82,0,1.81-.076,2.964-.23,1.155-.154,2.245-.231,3.273-.231.205,0,.397.014.577.039.18.026.347.038.5.038.256.052.564.143.924.27.358.129.564.219.616.27.204.309.192.706-.039,1.193-.231.489-.296.938-.193,1.348,0,.104.077.219.231.347.154.129.231.219.231.27,0,.104-.09.321-.27.654-.181.335-.245.553-.193.655,0,.153.089.32.27.5.18.181.474.321.886.424.102.257.05.385-.154.385-.206,0-.412.026-.616.077-.154,1.797-.231,3.555-.231,5.274s-.013,3.388-.039,5.005c-.026,1.617-.142,3.184-.347,4.697-.206,1.515-.565,2.991-1.078,4.428-.154.411-.308.822-.462,1.232-.154.411-.385.821-.693,1.231-.154.154-.347.296-.578.424-.231.129-.423.321-.578.577-.257.36-.423.693-.5,1.001-.077.309-.296.539-.654.693-.514.104-.976.258-1.386.462-.667.309-1.515.667-2.541,1.078-1.027.41-1.977.667-2.849.771h-.77c-1.078,0-2.144-.091-3.195-.27-1.053-.181-2.144-.321-3.273-.424-.257,0-.437.038-.539.115-.104.077-.258.141-.462.192-.104,0-.385-.128-.847-.385-.462-.258-.963-.564-1.502-.924-.539-.358-1.078-.731-1.617-1.116-.539-.386-.938-.705-1.194-.963Z"></path>
  <path class="b" d="m390.604,53.748c-1.181-1.181-2.041-2.63-2.58-4.351-.539-1.72-.898-3.631-1.078-5.736-.181-2.104-.245-4.363-.193-6.776.051-2.413.077-4.877.077-7.393-.052-2.412-.104-4.824-.154-7.238-.052-2.412,0-4.697.154-6.854.308-4.722,1.656-8.2,4.042-10.434,2.387-2.232,5.839-3.35,10.357-3.35s7.879.989,10.087,2.965c2.207,1.977,3.619,5.197,4.235,9.664.051.411.128.976.231,1.693.102.72.102,1.182,0,1.387-.104.153-.36.282-.77.385-.412.104-.86.181-1.348.23-.489.052-.963.091-1.425.116-.462.026-.822.038-1.078.038-.257-.051-.5-.179-.731-.385-.231-.205-.423-.333-.577-.385-.104,0-.193.052-.27.153-.077.104-.245.181-.5.231l-.462-.154c-.411,0-.796-.127-1.155-.385-.154.052-.231.154-.231.308,0,.154-.052.283-.154.386-.667,0-1.104-.166-1.309-.501-.206-.333-.346-.743-.423-1.231-.077-.487-.142-1.002-.192-1.54-.052-.539-.231-.988-.539-1.348-.514-.616-1.309-.925-2.387-.925-.924,0-1.836.245-2.733.731-.899.489-1.451,1.144-1.656,1.964-.104.514-.142,1.297-.115,2.349.025,1.053.012,1.99-.039,2.811-.052,1.13-.104,2.426-.154,3.889-.052,1.463-.09,2.926-.115,4.39-.026,1.463-.013,2.837.039,4.119.05,1.284.127,2.311.231,3.08.05.258.115.437.192.539.077.104.089.283.039.539l-.154-.077-.077.154c.102,1.13.102,2.233,0,3.311-.104,1.078-.104,2.055,0,2.927.102.873.372,1.592.809,2.156.436.565,1.193.898,2.271,1.001,0-.154-.077-.231-.231-.231s-.283-.051-.385-.154c.205.052.411,0,.616-.153.205-.154.333-.231.385-.231.051.104.128.181.231.231l.154.308c.05,0,.243-.025.578-.077.333-.051.654-.127.962-.23.102-.051.115-.09.039-.116-.077-.025-.142-.012-.193.039.256-.257.667-.424,1.232-.501.564-.077.975-.295,1.232-.654.154-.204.27-.628.347-1.271.077-.642.141-1.09.192-1.348v-3.85c0-.205.012-.487.039-.848.025-.358.039-.731.039-1.116v-1.078c0-.333-.027-.551-.077-.654-.154-.205-.489-.309-1.001-.309-.462,0-.951.039-1.463.116-.514.077-.976.115-1.386.115s-.668-.051-.77-.154c-.052-.564-.116-1.039-.192-1.425-.077-.385-.129-.743-.154-1.077-.026-.334-.039-.526-.039-.578,0-.204.064-.333.193-.385.127-.051.192-.154.192-.308,0-.309-.052-.629-.154-.963-.104-.333-.154-.654-.154-.963.05-.308.154-.666.308-1.078.154-.41.231-.692.231-.847,0-.103-.116-.308-.347-.616-.231-.308-.192-.616.116-.924.102-.103.385-.18.847-.231.462-.05.975-.076,1.54-.076.667,0,1.309.013,1.925.038.616.026,1.052.038,1.309.038.82,0,1.81-.076,2.964-.23,1.155-.154,2.245-.231,3.273-.231.205,0,.397.014.577.039.18.026.347.038.5.038.256.052.564.143.924.27.358.129.564.219.616.27.204.309.192.706-.039,1.193-.231.489-.296.938-.193,1.348,0,.104.077.219.231.347.154.129.231.219.231.27,0,.104-.09.321-.27.654-.181.335-.245.553-.193.655,0,.153.089.32.27.5.18.181.474.321.886.424.102.257.05.385-.154.385-.206,0-.412.026-.616.077-.154,1.797-.231,3.555-.231,5.274s-.013,3.388-.039,5.005c-.026,1.617-.142,3.184-.347,4.697-.206,1.515-.565,2.991-1.078,4.428-.154.411-.308.822-.462,1.232-.154.411-.385.821-.693,1.231-.154.154-.347.296-.578.424-.231.129-.423.321-.578.577-.257.36-.423.693-.5,1.001-.077.309-.296.539-.654.693-.514.104-.976.258-1.386.462-.667.309-1.515.667-2.541,1.078-1.027.41-1.977.667-2.849.771h-.77c-1.078,0-2.144-.091-3.195-.27-1.053-.181-2.144-.321-3.273-.424-.257,0-.437.038-.539.115-.104.077-.258.141-.462.192-.104,0-.385-.128-.847-.385-.462-.258-.963-.564-1.502-.924-.539-.358-1.078-.731-1.617-1.116-.539-.386-.938-.705-1.194-.963Z"></path>
  <path class="b" d="m424.947,2.618c-.154.206-.18.309-.077.309.102,0,.346-.128.731-.386.385-.256.705-.436.962-.539.513-.204,1.013-.346,1.501-.423.487-.077.886-.192,1.194-.347,0,.104-.065.154-.193.154-.128,0-.192.077-.192.23.616-.204,1.232-.308,1.848-.308.41,0,.833.026,1.271.077.436.052.936.077,1.501.077h.462c.154,0,.282-.039.385-.116.102-.077.179-.115.231-.115.358.052.77.167,1.232.347.462.181.897.321,1.309.423,3.234.874,5.608,2.542,7.123,5.006,1.514,2.464,2.374,5.75,2.58,9.856.103,1.899.166,3.927.193,6.083.025,2.156.038,4.312.038,6.468s-.013,4.273-.038,6.353c-.027,2.079-.09,4.018-.193,5.814-.104,2.155-.321,4.042-.654,5.659-.334,1.617-1.014,3.094-2.041,4.428-.052-.204-.013-.41.115-.616.128-.204.089-.358-.115-.462-.206.104-.334.258-.385.462-.052.206-.065.424-.039.654.025.231.039.463.039.693s-.077.476-.231.731c-.104.206-.27.321-.5.347-.231.026-.398.09-.5.192-.462.258-.796.514-1.001.771-.206.257-.462.514-.77.77-1.182.72-2.464,1.232-3.85,1.54-1.386.309-2.799.462-4.235.462-1.951,0-3.825-.27-5.621-.809-1.797-.539-3.26-1.271-4.389-2.194-1.438-1.232-2.49-2.721-3.157-4.466-.668-1.745-1.117-3.696-1.348-5.853s-.321-4.479-.27-6.969c.05-2.489.077-5.044.077-7.661,0-3.029-.039-5.993-.116-8.895-.077-2.899.089-5.633.5-8.2.358-2.259,1.155-4.158,2.387-5.698s2.591-2.823,4.081-3.851h.154Zm3.696,13.476c-.308,2.105-.385,4.312-.231,6.622.154,2.311.231,4.774.231,7.393v7.007c0,1.078-.026,2.222-.077,3.427-.052,1.207.051,2.194.308,2.965.256.873.731,1.54,1.424,2.002.693.462,1.398.693,2.118.693.616,0,1.219-.166,1.81-.501.59-.333,1.065-.859,1.425-1.578.205-.462.346-1.014.423-1.656.077-.641.116-1.334.116-2.079s-.013-1.514-.039-2.31c-.026-.795-.039-1.527-.039-2.194v-8.933c0-1.282.039-2.759.115-4.428.077-1.668.051-3.259-.077-4.774-.129-1.514-.424-2.797-.886-3.85-.462-1.052-1.232-1.579-2.31-1.579-.462,0-.847.091-1.155.27-.308.181-.591.412-.847.693-.257.283-.527.553-.809.809-.283.258-.629.437-1.04.539-.052.154-.129.308-.231.462-.052.154-.09.321-.116.501-.026.18-.065.346-.115.5Z"></path>
  <path class="b" d="m450.819,30.493l-.462-.23c-.104-.154-.154-.386-.154-.693s-.206-.513-.616-.616c.308-.051.41-.141.308-.27-.104-.127-.181-.32-.231-.577-.103-.616-.128-1.335-.077-2.156.05-.82.115-1.681.192-2.58.077-.897.154-1.758.231-2.579.077-.82.089-1.54.039-2.156-.104-1.796-.129-3.67-.077-5.621.051-1.95.051-3.67,0-5.159-.052-.666.012-1.321.192-1.964.18-.641.27-1.271.27-1.886,0-.463-.077-.911-.231-1.348-.154-.436-.154-.911,0-1.425.513.052,1.013.077,1.501.077h1.502c1.796,0,3.581-.063,5.352-.192,1.771-.128,3.606-.192,5.505-.192.616,0,1.232.013,1.848.038.616.026,1.232.065,1.848.115.256.052.526.077.809.077h.886c.616,0,1.271-.012,1.963-.038.693-.025,1.398-.039,2.118-.039.41,0,.962-.012,1.655-.038.693-.025,1.348-.039,1.964-.039.462,0,.872.014,1.232.039.358.026.616.09.77.192.256.206.281.296.077.27-.206-.025-.283.09-.231.347.051.205.154.308.308.308.051,0,.064,0,.039,0-.026,0-.09.104-.192.309,0-.051-.052.142-.154.577-.103.437-.308.629-.616.577.564.104.782.347.654.731-.128.386-.27.707-.423.963.205.104.385.154.539.154h1.232c0,.257-.181.385-.539.385h-.539c-.257,0-.411.026-.462.077-.052.257.064.373.347.347.281-.025.397.09.346.346h-.77c.256.309.385.732.385,1.271s.281.911.847,1.116c-.258.462-.616.758-1.078.886s-1.053.192-1.771.192c-.412,0-.822-.013-1.232-.039-.411-.025-.874-.038-1.386-.038h-8.933c-.462,0-.937-.025-1.424-.077-.488-.051-.962-.077-1.424-.077-.72,0-1.284.129-1.694.385-.412.258-.488.822-.231,1.694.051.154.141.258.27.309.127.052.218.128.27.23.05.359.039.797-.039,1.31-.077.514-.167,1.053-.27,1.616-.104.565-.18,1.155-.231,1.771-.052.616-.052,1.232,0,1.848.051.565.051,1.284,0,2.156-.052.874-.129,1.694-.231,2.464,2.31.104,4.594.168,6.853.193,2.258.026,4.543.038,6.854.038.256,0,.487-.012.693-.038.205-.025.41-.039.616-.039.358,0,.628.091.808.27.18.181.32.553.424,1.116.102.412.166,1.001.192,1.771.025.77-.013,1.412-.115,1.925,0,.309-.104.874-.308,1.694-.206.821-.308,1.617-.308,2.387h-2.31c-1.335,0-2.67-.012-4.004-.038-1.335-.025-2.669-.039-4.004-.039h-1.656c-.539,0-1.066.027-1.578.077-.104,0-.398.014-.886.039-.488.026-.758.064-.809.115-.104.104-.154.296-.154.577,0,.283.012.591.039.925.025.334.05.654.077.962.025.309.039.539.039.693,0,.924-.026,1.848-.077,2.772-.052.924-.103,1.925-.154,3.003,0,.205-.013.539-.039,1.001-.026.462-.039.937-.039,1.424s.012.951.039,1.387c.025.437.089.731.192.886.103.153.642.23,1.617.23.462,0,.949-.012,1.463-.038.513-.025.924-.039,1.232-.039h13.86c.05.258.089.578.115.963.025.385.039.758.039,1.116,0,.36-.052.654-.154.886-.104.231-.283.347-.539.347.513.052.718.27.616.654-.104.385-.104.681,0,.886.05.104.154.154.308.154.103,0,.205-.013.308-.039.103-.025.205-.038.308-.038.154,0,.231.077.231.23,0,.206-.052.309-.154.309-.104,0-.206-.013-.308-.039-.104-.025-.206-.038-.308-.038h-.231c-.257.104-.257.205,0,.308.256.104.333.258.231.462,0,.052-.077.065-.231.039-.154-.025-.283.013-.385.115.051-.051.025.052-.077.308-.052.154-.104.309-.154.462,0,.154.141.412.424.771.281.359.27.693-.039,1.001-.104.104-.385.167-.847.192-.462.026-1.001.039-1.617.039-.874,0-1.784-.013-2.733-.039-.951-.025-1.784-.038-2.502-.038-1.9,0-3.684-.013-5.352-.039-1.669-.025-3.248-.038-4.736-.038h-2.156c-.719,0-1.413.026-2.079.077h-1.963c-.693,0-1.322-.051-1.887-.154-.257-.051-.488-.128-.693-.231-.206-.102-.412-.153-.616-.153-.154.104-.308.205-.462.308-.308.206-.591.309-.847.309-.154,0-.258-.025-.308-.077-.206-.154-.347-.552-.424-1.193-.077-.642-.104-1.335-.077-2.079.025-.744.063-1.437.115-2.079.051-.642.077-1.04.077-1.194.05-.512.039-1.064-.039-1.655-.077-.59-.09-1.244-.039-1.964.051-.974.077-1.988.077-3.041v-3.119c0-1.025-.013-2.002-.039-2.926-.026-.924-.039-1.719-.039-2.387v-1.001c0-.309.025-.667.077-1.078,0-.154-.026-.18-.077-.077-.052.104-.052.181,0,.231-.257-.103-.346-.218-.27-.347.077-.128.193-.27.347-.424s.32-.333.5-.539c.179-.204.27-.385.27-.539Z"></path>
  <path class="b" d="m480.389,42.121c.154-.103.281-.051.385.153.102.206.205.335.308.385h.231c.256,0,.603-.038,1.04-.115.436-.077.885-.115,1.348-.115h.308c.308,0,.564.026.77.077.205.052.436.077.693.077.256,0,.487-.025.693-.077.051,0,.141-.039.27-.115.127-.077.218-.116.27-.116.102,0,.192.039.27.116.077.076.166.115.27.115.102,0,.205-.064.308-.192.102-.128.205-.192.308-.192.564-.051,1.09-.064,1.579-.039.487.026.988-.089,1.502-.347-.052.72-.116,1.322-.193,1.81-.077.488-.065.963.039,1.425.051.206.116.462.192.77.077.309.193.591.347.848.205.411.68.77,1.424,1.078.744.308,1.475.462,2.195.462s1.296-.218,1.732-.654.782-.963,1.04-1.579c.256-.616.424-1.271.5-1.963.077-.693.116-1.296.116-1.81,0-.925-.192-1.783-.578-2.58-.385-.795-.886-1.552-1.501-2.271-.616-.719-1.284-1.386-2.002-2.002-.72-.616-1.413-1.155-2.079-1.617-.258-.204-.552-.462-.886-.771-.334-.308-.681-.615-1.04-.924-.36-.308-.681-.564-.962-.77-.283-.205-.475-.309-.578-.309-.206,0-.283.065-.231.192.051.129-.026.193-.231.193-.36-.257-.629-.59-.809-1.001-.18-.411-.423-.719-.731-.925-.104-.102-.257-.141-.462-.115-.206.026-.36.014-.462-.038-.104-.103-.206-.27-.308-.501-.104-.23-.258-.474-.462-.731-.72-.872-1.451-1.938-2.195-3.195-.745-1.258-1.322-2.554-1.732-3.889-.257-.82-.385-1.54-.385-2.156s-.052-1.309-.154-2.079c-.104-1.334-.013-2.759.27-4.273.281-1.514.628-2.811,1.04-3.889.308-.924.757-1.835,1.348-2.733.589-.897,1.295-1.706,2.117-2.426.821-.719,1.745-1.321,2.772-1.81,1.026-.487,2.129-.782,3.311-.886h1.463c.154-.051.32-.141.5-.27.179-.127.347-.192.5-.192.256-.051.526-.089.809-.115.282-.025.603-.039.962-.039s.705.014,1.04.039c.333.026.628.064.886.115.308,0,.641.09,1.001.27.358.181.667.296.924.347.154,0,.282-.051.385-.154.102-.103.205-.127.308-.077.358.104.833.373,1.424.809.589.437,1.09.835,1.501,1.193.308.258.603.591.886,1.001.281.412.578.797.885,1.155.308.412.655.783,1.04,1.117.385.334.68.654.886.962.102.206.179.424.231.654.05.231.154.476.308.731.154.309.333.591.539.848.205.258.358.591.462,1.001.308,1.232.513,2.541.616,3.927.102,1.387.231,2.747.385,4.081-.616-.204-1.207-.308-1.771-.308s-1.13-.051-1.694-.154c-.154-.051-.308-.127-.462-.23-.154-.103-.334-.154-.539-.154-.308-.051-.654.026-1.04.231-.385.205-.758.308-1.116.308-.308,0-.616-.18-.924-.539-.154.462-.411.693-.77.693h-1.386c-.104,0-.181-.025-.231-.077-.258-.257-.424-.771-.5-1.54-.077-.771-.167-1.359-.27-1.771-.206-.718-.604-1.463-1.194-2.232-.591-.771-1.348-1.155-2.271-1.155-.565,0-1.207.23-1.925.692-.616.412-1.143,1.002-1.579,1.771-.437.771-.731,1.617-.886,2.541-.154.924-.154,1.836,0,2.733.154.899.462,1.708.924,2.426.204.308.603.758,1.193,1.348.589.591.988.963,1.193,1.116l.154.077c.102,0,.141-.038.115-.115-.026-.077.012-.063.116.038.205.154.308.258.308.309v.153c.256,0,.551.143.885.424.333.283.68.616,1.04,1.001.358.385.718.783,1.078,1.193.358.412.718.745,1.078,1.001.564.412,1.18.797,1.848,1.155.667.359,1.206.745,1.617,1.155.154.154.333.385.539.693.205.308.41.59.616.847.872,1.078,1.81,2.221,2.811,3.427s1.604,2.579,1.81,4.119c.102,1.027.281,2.067.539,3.119.256,1.053.358,2.221.308,3.503,0,.925-.129,1.875-.385,2.85-.257.976-.604,1.913-1.04,2.811-.437.898-.924,1.721-1.463,2.464-.539.745-1.117,1.348-1.733,1.81-.257.206-.527.321-.808.347-.283.026-.552.115-.809.27-1.182.616-2.349,1.078-3.504,1.386-1.155.309-2.554.462-4.196.462h-.963c-.334,0-.706-.026-1.116-.077-2.002-.153-3.8-.604-5.39-1.347-1.592-.744-2.953-1.783-4.081-3.119-1.13-1.334-1.964-2.965-2.503-4.89s-.731-4.145-.577-6.66Z"></path>
</svg>
