<?xml version="1.0" encoding="UTF-8"?>
<svg xmlns="http://www.w3.org/2000/svg" id="a" viewBox="0 0 320.019 115.898">
  <defs>
    <style>.b{stroke-width:0px;}</style>
  </defs>
  <path class="b" d="m38.432,50.622c.243.243.584.487,1.022.73.73.341,1.266.535,1.655.584.244.049.487.098.73.098.195,0,.438-.049.682-.146,2.044-.292,3.65-2.19,8.129-10.124,1.898-3.262,3.456-5.89,4.77-7.935,1.266-2.044,2.531-3.991,3.796-5.841,1.606-2.482,2.19-3.262,2.629-3.262.243,0,.341.195.341,1.412,0,.438,0,.974-.049,1.655v3.358c0,5.598.243,9.103.827,12.169.925,5.5,2.386,7.642,5.646,7.837h.39c1.801,0,2.92-1.022,3.699-2.288.243-.438.535-1.071.828-1.85.34-.828.779-1.947,1.265-3.311.487-1.362,1.558-4.673,3.213-9.881.682-2.288,1.314-4.186,1.898-5.743,1.363-3.895,3.018-8.275,5.014-13.143,1.996-4.819,3.553-8.47,4.673-10.952l.049-.146c.535-1.119.729-1.605.729-1.995,0-.195-.048-.341-.146-.487-.146-.341-.487-.633-.925-.876-.536-.341-1.12-.486-1.655-.486-1.119,0-1.606.682-3.456,4.673-2.969,6.279-5.695,12.704-8.129,19.227-.827,2.093-1.655,4.187-2.385,6.328-.779,2.142-1.801,5.062-3.066,8.713-.974,2.872-1.266,3.699-1.606,3.699-.049,0-.098,0-.146-.049-.292,0-.584-1.266-.876-3.846-.097-1.411-.146-2.871-.194-4.381-.049-1.509-.098-4.04-.098-7.544,0-8.032.049-8.47-.633-9.59-.243-.681-.778-1.217-1.558-1.558-.73-.389-1.363-.584-1.996-.584-.681,0-1.314.244-1.898.73-.292.243-.682.682-1.168,1.363-.828,1.119-1.898,2.677-3.261,4.624-1.412,1.947-2.531,3.553-3.358,4.818l-1.461,2.19c-1.362,2.094-2.482,3.895-3.358,5.306-1.119,1.898-1.801,2.872-1.996,2.921-.048.049-.097.049-.146.049-.098,0-.146-.098-.146-.292,0-.536.487-2.19,1.46-4.965l.73-1.947c.34-.974.633-1.753.828-2.337.194-.535.633-1.606,1.266-3.212,1.119-3.115,2.142-5.744,3.018-7.935.633-1.46,1.12-2.774,1.558-3.991,1.752-4.624,2.385-6.474,2.385-7.496,0-.438-.097-.827-.292-1.168-.535-1.12-2.044-2.094-3.212-2.094-.584,0-1.022.146-1.266.438-.244.243-.341.584-.341,1.022,0,.292,0,.584-.049.827-.098.39-.487,1.363-1.12,2.97l-.048.194c-1.996,4.722-3.456,8.421-4.479,11.098-1.022,2.678-2.093,5.55-3.164,8.616-4.332,12.022-6.474,19.227-6.474,21.709,0,.39.098.827.341,1.314.146.341.341.584.584.778Z"></path>
  <path class="b" d="m84.581,20.59c-.73,2.434-1.704,5.89-2.921,10.367-1.314,4.527-2.385,8.957-2.628,10.562v.633c0,.682.097,1.363.341,2.045.438.827,1.314,1.655,2.628,1.995.341.098.633.146.925.146.39,0,.73-.098,1.071-.341.438-.535.876-1.168,1.217-1.801,1.217-1.606,2.336-3.066,3.358-4.381.73-.974,1.412-1.898,2.142-2.823l1.071-1.46c1.411-1.898,1.85-2.142,2.093-2.142.049,0,.146.097.146.097.146.146.194.243.194,1.217v1.071c0,2.336.292,3.699.925,5.014,1.022,1.752,3.164,2.92,5.111,2.92,1.403,0,2.979-.836,4.753-2.49.053.162.104.319.165.495,1.022,2.531,3.407,4.575,6.084,5.208.146,0,.34,0,.584.049.341.049.633.049.974.049,1.558,0,2.969-.341,4.868-1.363.925-.39,1.655-.778,2.093-1.119.633-.536.925-1.071.925-1.606s-.292-1.119-.876-1.752c-.633-.73-1.412-1.022-1.996-1.022-.535,0-.827.098-1.46.729-.779.536-2.044,1.218-3.358,1.655-.828.243-1.509.39-2.044.39-.828,0-1.314-.292-1.509-.925-.146-.341-.243-.827-.243-1.363l.049-.682c.194-1.362.292-1.801.633-2.142.049-.194,0-.243,1.217-.389,3.456-.292,5.987-1.606,7.545-3.895,2.92-2.872,4.381-5.646,4.381-8.323,0-1.606-.438-2.97-1.266-4.089-.438-.633-.974-1.071-1.947-1.655-.438-.243-.779-.486-1.071-.729-.584-.438-1.12-.633-1.606-.633-.925,0-1.898.681-3.504,2.287-2.677,2.774-4.868,5.744-6.474,9.005-.401.79-.753,1.565-1.063,2.326-.526.825-1.186,1.752-2.006,2.786-1.655,2.19-2.92,3.554-3.748,4.138-.146.146-.34.194-.486.194-.049,0-.146,0-.243-.049-.341-.194-.39-.778-.39-2.19.146-2.92.974-6.425,2.385-10.465.39-1.412.633-2.239.73-2.482,0-.633-.098-1.606-.438-2.337-.34-.729-1.411-1.509-2.385-1.752-.633,0-1.12.194-1.46.535-.73.633-3.748,4.187-9.005,10.66-1.606,2.093-2.434,2.969-2.677,2.969-.146,0-.194-.146-.194-.486,0-.535.146-1.46,1.655-5.841,1.022-3.407,1.996-6.279,2.823-8.567.828-2.287,1.801-4.965,3.018-8.031.827-2.142,1.558-4.089,1.558-4.283.048-.195.097-.39.097-.535,0-.73-.389-1.363-1.12-1.947s-1.46-.876-2.093-.876c-.438,0-.828.146-1.168.438-.195.341-2.823,6.474-3.943,9.687-.925,2.434-1.704,4.867-2.434,7.302Zm29.305,8.177c.925-1.362,1.947-2.677,2.969-3.991.73-.729,1.266-1.119,1.606-1.119.244,0,.39.243.39.729,0,.536-.682,1.851-1.655,3.213-.73,1.12-2.823,3.213-3.651,3.65-.341.244-.633.39-.778.39-.195,0-.292-.146-.292-.39,0-.292.487-1.119,1.412-2.482Z"></path>
  <path class="b" d="m124.304,42.445c.535.292,1.119.438,1.655.438.146,0,.34,0,.535-.049h.73c.876-.146,3.115-2.677,6.717-7.496,3.602-4.818,5.695-7.35,6.279-7.496l.194-.048c.146,0,.244.097.244.292v.048c0,.146-.097.536-.341,1.169-.195.633-.438,1.411-.73,2.287-1.898,5.598-2.823,9.541-2.823,11.828,0,.633.098,1.169.243,1.606.341,1.12,1.412,2.19,2.726,2.629.244.146.681.194,1.022.194.536,0,.682.049.925-.292.244-.146.341-.39.341-.633,0-.438-.682-1.314-.682-2.239,0-.438.098-.974.244-1.606.292-1.313.779-2.969,1.412-4.965.633-1.995,1.704-4.867,3.164-8.615,1.996-5.062,2.336-6.279,2.336-7.302v-.438c-.146-1.363-.973-2.385-2.434-3.115-.535-.292-1.071-.438-1.606-.438-.925,0-1.947.438-3.164,1.363-2.288,1.801-4.722,4.332-7.301,7.69-2.58,3.358-3.991,5.111-4.187,5.306-.243.243-.389.341-.486.341-.146,0-.195-.098-.195-.292v-.146c0-.536.292-1.558.925-2.97.633-1.411,1.266-2.677,1.996-3.846.536-.925.779-1.46.779-1.897,0-.293-.098-.585-.244-.828-.389-.778-1.266-1.46-2.288-1.703-.244-.049-.487-.098-.73-.098-.39,0-.779.098-1.168.341-.536.438-1.266,1.509-2.142,3.213-.925,1.703-1.753,3.602-2.482,5.646-1.217,3.797-1.85,6.571-1.85,8.373,0,1.752.778,2.969,2.385,3.748Z"></path>
  <path class="b" d="m211.685,60.796c.39-.341.438-.341.682-2.143.194-1.558.438-3.066,1.362-7.106.341-1.898.584-3.115.73-3.602.146-.584.243-.73.438-.779.146-.194,0-.243,1.752-.243.779,0,1.509-.049,2.239-.146l.292-.049c5.841-1.217,11.195-5.695,14.895-12.656.633-1.313,1.022-1.509,2.531-1.85.431-.12.836-.225,1.23-.324-1.325,4.628-2.006,8.064-2.006,10.253,0,.633.048,1.12.146,1.558.633,1.851,1.996,3.067,4.187,3.651.438.049.778.049,1.119.049s.633,0,.974-.049c1.983-.339,4.257-2.316,8.681-7.548.106.644.281,1.214.52,1.901,1.022,2.531,3.407,4.575,6.084,5.208.146,0,.341,0,.584.049.341.049.633.049.974.049,1.558,0,2.97-.341,4.868-1.363.925-.39,1.655-.778,2.093-1.119.633-.536.925-1.071.925-1.606s-.292-1.119-.876-1.752c-.633-.73-1.412-1.022-1.996-1.022-.535,0-.827.098-1.46.729-.779.536-2.045,1.218-3.359,1.655-.828.243-1.509.39-2.044.39-.827,0-1.314-.292-1.509-.925-.146-.341-.243-.827-.243-1.363l.049-.682c.194-1.362.292-1.801.632-2.142.049-.194,0-.243,1.217-.389,3.456-.292,5.987-1.606,7.544-3.895,2.92-2.872,4.381-5.646,4.381-8.323,0-1.606-.438-2.97-1.266-4.089-.438-.633-.974-1.071-1.947-1.655-.438-.243-.779-.486-1.071-.729-.584-.438-1.119-.633-1.606-.633-.925,0-1.898.681-3.504,2.287-2.677,2.774-4.868,5.744-6.474,9.005-.172.339-.33.674-.485,1.007-.181.174-.395.379-.684.648-.876.876-3.066,3.213-6.571,7.01-1.363,1.509-2.385,2.53-3.018,3.115l-.341.34c-.146.049-.341.098-.487.098-.243,0-.341-.243-.341-.73,0-.34.098-.876.244-1.557.438-2.288,1.12-4.966,2.044-8.081s1.996-6.182,3.164-9.248c1.119-3.066,2.239-5.841,3.31-8.421,1.071-2.531,1.85-4.186,2.288-4.965.341-.535.486-1.022.486-1.509,0-.925-.34-1.752-1.07-2.482-.487-.535-1.022-.827-1.606-.925-.146-.049-.341-.098-.487-.098-.633,0-1.12.39-1.46,1.12-.097.243-.292.633-.584,1.266l-.682,1.46c-3.407,6.717-6.084,13.435-8.031,20.151-.036.111-.065.212-.1.322-.082.007-.158.008-.243.019-.536.049-1.12.098-1.704.098-.243-.049-.438-.292-.438-1.022,0-.243,0-.535.048-.876v-.438c0-2.142-.779-3.65-2.482-4.867-1.217-.925-2.531-1.363-3.943-1.363-1.801,0-3.942.73-6.328,2.19-.73.535-1.168.779-1.412.779-.194,0-.341-.244-.341-.341v-1.168l-.049-.341c-.048-.536-.097-.779-.292-1.022-.633-1.314-2.093-2.337-3.261-2.337-.536,0-.974.293-1.314.877-.243.438-.438,1.021-.535,1.801-.244.876-.487,1.703-.73,2.482-.618,1.874-1.192,3.714-1.736,5.529-.087.007-.17.009-.262.02-.535.049-1.119.098-1.704.098-.244-.049-.438-.292-.438-1.022,0-.243,0-.535.049-.876v-.438c0-2.142-.779-3.65-2.482-4.867-1.217-.925-2.531-1.363-3.943-1.363-1.801,0-3.943.73-6.328,2.19-.73.535-1.168.779-1.412.779-.194,0-.341-.244-.341-.341v-1.168l-.048-.341c-.048-.536-.097-.779-.292-1.022-.633-1.314-2.093-2.337-3.261-2.337-.535,0-.974.293-1.314.877-.243.438-.438,1.021-.535,1.801-.243.876-.487,1.703-.73,2.482-1.063,3.228-2.021,6.375-2.859,9.409-.675.896-1.649,2.16-3.081,3.928l-1.217,1.509c-.438.39-.633.535-.876.535-.341,0-.487-.194-.487-.925s.146-2.093.39-4.088c.098-.974.146-1.704.146-2.143,0-.486-.049-.876-.146-1.119-.438-.974-1.606-1.85-2.726-2.093-.243-.049-.438-.098-.682-.098-.73,0-1.412.39-2.434,1.363-.828.827-2.385,2.774-4.722,5.743-2.19,2.921-3.407,4.479-3.748,4.673-.194.146-.39.244-.535.244-.146,0-.244-.098-.292-.244v-.097c0-.487.292-1.461.925-2.97.633-1.46,1.314-2.92,2.093-4.332.827-1.509,2.434-3.797,3.261-4.818,1.947-2.19,3.992-3.748,5.014-3.748.34,0,.681.146,1.12.438.584.243,1.022.39,1.363.39.146,0,.292-.049.438-.098.39-.194.584-.486.584-.876,0-.438-.243-.974-.681-1.655-1.363-1.703-2.969-2.531-4.819-2.531-1.558,0-3.066.585-4.576,1.704-1.752,1.411-3.504,3.358-5.257,5.841-3.456,5.306-5.5,10.466-5.5,14.214,0,1.362.195,2.238.633,3.018.974,1.898,2.823,2.774,4.624,2.774,1.022,0,2.045-.292,2.97-.876,1.314-.779,2.628-2.239,5.013-5.501,1.266-1.85,1.606-1.995,1.898-1.995.341,0,.438.341.633,1.363.34,1.995,1.314,3.407,2.92,4.137.925.535,1.558.633,2.385.633.941,0,1.743-.217,2.582-.779v.487c-.681,2.482-1.362,5.257-2.044,8.323-.438,2.143-.73,3.748-.876,4.819-.146.633-.195,1.168-.195,1.606,0,.633.146,1.07.487,1.411.438.536.974.876,1.703,1.071.39.098.779.146,1.12.146.535,0,.778-.048,1.119-.389.39-.341.438-.341.682-2.143.194-1.558.438-3.066,1.363-7.106.341-1.898.584-3.115.73-3.602.146-.584.244-.73.438-.779.146-.194,0-.243,1.752-.243.779,0,1.509-.049,2.239-.146l.292-.049c5.841-1.217,11.195-5.695,14.895-12.656.633-1.313,1.022-1.509,2.531-1.85.458-.127.889-.238,1.306-.342-.304,1.103-.594,2.193-.865,3.263-.341,1.168-.584,1.898-.73,2.19-.097.194-.194.39-.34.633-.73.925-.73,1.07-.828,3.65v2.19c-.682,2.482-1.363,5.257-2.044,8.323-.438,2.143-.73,3.748-.876,4.819-.146.633-.195,1.168-.195,1.606,0,.633.146,1.07.487,1.411.438.536.974.876,1.704,1.071.39.098.779.146,1.12.146.536,0,.779-.048,1.12-.389Zm48.484-32.029c.925-1.362,1.947-2.677,2.969-3.991.73-.729,1.266-1.119,1.606-1.119.243,0,.39.243.39.729,0,.536-.682,1.851-1.655,3.213-.73,1.12-2.823,3.213-3.65,3.65-.341.244-.633.39-.779.39-.194,0-.292-.146-.292-.39,0-.292.487-1.119,1.412-2.482Zm-60.363,9.59c-2.288,2.19-4.527,3.699-6.766,4.478-.681.243-1.168.243-1.266.243h-.048c-.39,0-.584-.194-.584-.584,0-.341.097-.778.292-1.411.438-1.363.828-1.655,3.067-2.823,1.217-.633,3.115-1.509,4.673-2.093,1.022-.39,1.703-.584,2.093-.584.243,0,.39.097.39.292,0,.438-.633,1.266-1.85,2.482Zm6.035-9.2c-.097.146-.243.243-.389.341-.292.146-1.071.438-2.288.827-1.606.438-2.921.877-3.991,1.266-1.412.438-2.288.682-2.678.682-.243,0-.34-.098-.34-.243,0-.633,2.142-2.97,5.013-5.354,2.288-1.898,3.992-2.92,5.209-3.115.146-.049.292-.098.389-.098.487,0,.536.487.536,1.022,0,1.071-.925,4.04-1.461,4.673Zm20.105-2.482c2.288-1.898,3.991-2.92,5.208-3.115.146-.049.292-.098.39-.098.487,0,.536.487.536,1.022,0,1.071-.925,4.04-1.46,4.673-.097.146-.243.243-.39.341-.292.146-1.07.438-2.287.827-1.606.438-2.921.877-3.992,1.266-1.412.438-2.288.682-2.677.682-.243,0-.341-.098-.341-.243,0-.633,2.142-2.97,5.014-5.354Zm-1.996,9.492c1.022-.39,1.704-.584,2.093-.584.243,0,.389.097.389.292,0,.438-.633,1.266-1.85,2.482-2.288,2.19-4.527,3.699-6.766,4.478-.682.243-1.168.243-1.266.243h-.048c-.389,0-.584-.194-.584-.584,0-.341.098-.778.292-1.411.438-1.363.828-1.655,3.067-2.823,1.217-.633,3.115-1.509,4.673-2.093Z"></path>
  <path class="b" d="m32.563,70.241c-.535-2.19-1.655-3.554-3.456-4.187-.341-.146-.633-.194-.925-.194-.827,0-1.266.486-1.266.925,0,.194.098.438.244.729.925,1.606,1.022,1.801,1.314,4.673.146,1.217.195,3.456.195,5.646,0,2.531-.049,4.235-.195,5.16-.34,2.093-.876,3.894-1.509,5.451-1.363,3.164-3.358,5.452-4.526,5.452-.195,0-.39-.049-.536-.195-.536-.535-.876-1.752-1.022-3.65-.049-.438-.098-.876-.098-1.412,0-.925.098-2.336.292-4.234.146-1.266.243-2.239.243-2.921,0-.827-.097-1.362-.341-1.654-.584-1.12-2.142-2.094-3.31-2.094-.194,0-.39.049-.535.098-.438.098-.876.535-1.412,1.363-.389.633-1.119,1.606-2.19,3.018-1.07,1.412-2.142,2.823-3.212,4.138-2.19,2.677-2.872,3.407-3.212,3.407-.098,0-.146-.098-.146-.292,0-.341.146-.925.438-1.801.682-1.996,1.655-4.138,2.92-6.522,1.217-2.386,2.434-4.284,3.651-5.793.535-.633.633-1.168.633-1.801-.146-1.022-.876-1.801-2.093-2.385-.438-.195-.779-.292-1.12-.292-.73,0-1.266.389-1.996,1.217-.779,1.021-2.239,3.212-3.261,4.916-2.531,4.234-4.965,10.173-5.841,14.748-.195.974-.292,1.898-.292,2.727,0,.486.048.876.097,1.217.438,1.509,1.801,2.823,3.553,3.261.39.098.73.146,1.022.146s.584-.049.827-.146c.925-.194,1.606-.681,2.921-1.995,1.217-1.314,2.872-3.213,4.916-5.744,1.266-1.703,1.606-1.995,1.996-1.995.097,0,.195.048.244.097.146.146.292.682.486,1.558.876,3.358,2.629,5.598,5.257,6.718.925.438,1.898.633,2.823.633,2.774,0,5.16-2.045,7.155-6.085,1.363-2.579,2.045-5.402,2.288-8.858.049-.682.097-1.461.097-2.288,0-1.704-.097-3.602-.292-5.695-.244-2.044-.487-3.748-.828-5.062Z"></path>
  <path class="b" d="m75.452,89.419c-.292-.779-.536-1.412-.73-1.85l-.438-.974c0-.292.195-.584.536-.827.486-.244,1.704-.73,3.602-1.461,1.898-.729,3.115-1.119,3.7-1.217,1.022-.194,1.412-.389,1.46-.925.048-.146.097-.341.146-.584,0-.633-.292-1.362-.876-2.093-.341-.438-1.071-.779-1.655-.779-.925,0-3.943,1.022-8.957,3.019-.438.146-.827.243-1.119.341-.487.194-.828.292-.974.292-.341,0-.536-.049-.779-.146-.194-.049-1.265-.584-3.115-1.558-.438-.194-.827-.39-1.168-.584-1.509-.633-2.531-1.266-2.531-2.093,0-.487.341-1.071,1.071-1.802,1.217-1.119,2.726-2.142,4.526-3.018,1.753-.876,3.262-1.362,4.479-1.46,1.022-.146,1.411-.292,1.655-.73.097-.243.146-.584.146-.925,0-1.07-.39-1.995-1.119-2.823-.341-.39-.633-.633-.974-.729-.243-.049-.487-.098-.779-.098-.876,0-2.093.292-3.602.925-2.774,1.266-5.014,2.677-6.814,4.234-1.947,1.704-3.262,3.846-3.262,6.036,0,1.606.682,3.018,2.093,4.234.301.206.605.421.908.634-.656.862-1.545,2.004-2.76,3.503l-1.217,1.509c-.438.39-.633.535-.876.535-.341,0-.486-.194-.486-.925s.146-2.093.389-4.088c.098-.974.146-1.704.146-2.143,0-.486-.049-.876-.146-1.119-.438-.974-1.606-1.85-2.726-2.093-.243-.049-.438-.098-.682-.098-.729,0-1.411.39-2.434,1.363-.827.827-2.385,2.774-4.722,5.743-2.19,2.921-3.407,4.479-3.748,4.673-.194.146-.389.244-.535.244s-.243-.098-.292-.244v-.097c0-.487.292-1.461.925-2.97.633-1.46,1.314-2.92,2.093-4.332.828-1.509,2.434-3.797,3.262-4.818,1.947-2.19,3.991-3.748,5.014-3.748.341,0,.681.146,1.119.438.584.243,1.022.39,1.363.39.146,0,.292-.049.438-.098.39-.194.584-.486.584-.876,0-.438-.244-.974-.681-1.655-1.363-1.703-2.97-2.531-4.819-2.531-1.558,0-3.066.585-4.575,1.704-1.752,1.411-3.505,3.358-5.257,5.841-3.456,5.306-5.501,10.466-5.501,14.214,0,1.362.195,2.238.633,3.018.974,1.898,2.823,2.774,4.625,2.774,1.022,0,2.044-.292,2.969-.876,1.314-.779,2.628-2.239,5.014-5.501,1.266-1.85,1.606-1.995,1.898-1.995.341,0,.438.341.633,1.363.341,1.995,1.314,3.407,2.92,4.137.624.361,1.116.514,1.624.582-.137.53-.209,1.066-.209,1.609,0,1.753.535,3.262,1.655,4.527,1.411,1.703,3.31,2.531,5.694,2.531.779,0,1.461-.049,2.045-.146,3.261-.535,6.133-2.044,8.566-4.479,1.801-1.898,2.97-4.137,2.97-6.619,0-.73-.098-1.51-.341-2.288Zm-3.554,1.606c-.633,1.46-1.801,2.823-3.553,4.089-1.753,1.313-3.651,2.19-5.646,2.677-.682.098-1.314.146-1.947.146-.73,0-1.266-.098-1.606-.244-.243-.146-.341-.389-.341-.633,0-.681.633-1.654,1.947-2.92,1.898-1.996,4.868-3.943,8.031-5.549.536-.292,1.022-.438,1.363-.438.438,0,.827.194,1.217.633.535.535.779.876.779,1.411,0,.244-.097.487-.244.828Z"></path>
  <path class="b" d="m102.859,50.284c-.438,0-.73.097-.974.292-.438.341-1.07,1.801-1.995,4.381-.682,1.995-1.022,3.407-1.022,4.283,0,.535.097,1.07.292,1.509.39.73,1.119,1.411,1.898,1.85.438.243.827.341,1.168.341.438,0,.73-.146.925-.486.049-.098.146-.438.195-.974.146-1.314.584-2.727,1.801-5.452.584-1.509.73-2.093.73-2.726,0-.73-.244-1.363-1.071-1.996-.73-.729-1.217-1.021-1.947-1.021Z"></path>
  <path class="b" d="m124.034,91.804c0-.243-.389-1.411-.389-2.238v-1.071c.048-2.093.438-4.722,1.362-9.589.341-1.704.487-2.823.487-3.456,0-.828-.487-1.509-1.46-2.093-.73-.438-1.412-.682-2.093-.682-.535,0-.925.243-1.314.584-.632.584-2.774,3.456-5.159,6.912-3.018,4.332-4.868,6.766-5.5,7.301-.34.292-.632.438-.779.438-.194,0-.292-.195-.292-.535,0-.633.341-1.898.974-3.7.633-1.801,1.314-3.504,2.093-5.11.633-1.509,1.022-1.996,1.752-2.386.633-.34.974-.876.974-1.654,0-.682-.341-1.314-1.022-1.947-.536-.486-1.217-.827-1.947-1.022-.243-.049-.535-.097-.779-.097-.584,0-1.071.243-1.509.729-.973,1.12-2.044,3.066-3.261,5.842-1.217,2.774-2.142,5.354-2.678,7.642-.184.969-.274,1.849-.284,2.726-.735,0-1.19.011-2.149.195-.633.146-1.12.243-1.412.243-.438,0-.584-.195-.584-.633,0-.195.098-.925.341-1.704,1.12-4.04,1.752-7.837,1.898-11.341v-.925c0-1.704-.292-2.531-1.266-3.358-.73-.73-1.509-1.071-2.093-1.071-.438,0-.73.194-.974.535-.146.243-.194.974-.194,2.093-.049,2.531-.438,4.966-1.363,8.665-.779,3.261-1.606,5.694-2.823,8.858-.243.682-.39,1.12-.535,1.314-.146.243-.39.535-.73.779-.292.146-.925.535-1.947,1.168-3.796,2.19-7.009,4.624-9.589,7.204-2.628,2.628-4.478,5.014-5.598,7.155-.778,1.509-1.168,2.823-1.168,3.894,0,.195,0,.39.049.535.341,1.898,1.995,3.213,4.186,3.748.39.098.779.146,1.217.146.974,0,1.996-.243,3.067-.779,2.288-1.217,4.721-3.455,7.204-6.717,2.531-3.31,4.819-7.204,6.912-11.634.73-1.605,1.12-1.995,2.678-2.628,2.482-1.071,4.38-1.704,5.598-1.947.134-.019.27-.037.407-.053.09.1.174.202.275.296.73.73,1.606,1.266,2.726,1.606.438.098.827.146,1.168.146s.73-.049,1.12-.146c1.947-.39,3.748-2.044,7.009-6.474,1.412-1.996,1.606-2.288,1.996-2.288.341,0,.389.438.535,2.19,0,1.947.098,2.482.633,3.311.633,1.217,2.093,1.995,3.115,1.995.535,0,.876-.194,1.022-.633.048-.097.097-.194.097-.341Zm-38.308,11.926c-.827,1.266-1.801,2.531-2.92,3.748-1.704,1.898-2.823,2.823-3.359,2.823-.146,0-.243-.098-.243-.243,0-.487.487-1.412,1.46-2.727,1.022-1.362,2.19-2.677,3.505-3.991,1.168-1.07,1.947-1.606,2.288-1.606.097,0,.146.049.146.195,0,.292-.292.876-.876,1.801Z"></path>
  <path class="b" d="m173.541,66.055c1.022,0,1.168,0,1.46-.098.73-.438,1.168-1.509,1.168-2.677,0-.73-.097-1.266-.243-1.606-.243-.39-.633-.73-1.217-.974-.243-.049-.487-.098-1.266-.098h-.584c-1.898,0-4.187.487-8.421,1.461-1.12.292-1.898.438-2.288.438s-.584-.194-.584-.535c0-.049.049-.39.195-.925s.195-1.022.195-1.363-.049-.681-.195-.925c-.244-.535-.633-1.021-1.168-1.362-.681-.438-1.411-.682-2.142-.682-.389,0-.633.146-.876.39-.438.243-.535.633-.73,1.411l-1.07,2.823c-.925,2.288-1.217,3.018-1.558,3.262-.146.243-.876.535-2.093.925-2.482.778-5.598,2.044-7.301,2.823-.705.287-1.152.635-1.42,1.102-.12-.819-.475-1.554-1.064-2.222-.341-.39-.633-.633-.974-.729-.243-.049-.486-.098-.778-.098-.876,0-2.093.292-3.602.925-2.775,1.266-5.014,2.677-6.815,4.234-1.947,1.704-3.261,3.846-3.261,6.036,0,1.606.681,3.018,2.093,4.234.925.633,1.85,1.314,2.823,1.947.925.633,1.266.974,1.266,1.217,0,.098-.049.195-.098.292l-1.655,1.217c-2.093,1.217-3.212,2.239-4.381,3.359-2.044,1.946-3.066,3.942-3.066,6.035,0,1.753.536,3.262,1.655,4.527,1.412,1.703,3.31,2.531,5.695,2.531.778,0,1.46-.049,2.044-.146,3.262-.535,6.133-2.044,8.567-4.479,1.801-1.898,2.969-4.137,2.969-6.619,0-.73-.097-1.51-.341-2.288-.292-.779-.535-1.412-.729-1.85l-.438-.974c0-.292.195-.584.535-.827.487-.244,1.704-.73,3.603-1.461.235-.09.46-.176.675-.256-.061.218-.126.427-.187.646-1.704,6.279-2.531,10.173-2.531,11.779s.828,2.678,2.434,3.213c.195,0,.341,0,.487.049.048.049.097.049.146.049.341,0,.828-.195,1.071-.438.146-.194.194-.146.194-1.558.146-1.022.195-1.752.195-2.093.633-2.482,1.558-5.841,2.823-10.027,1.46-4.722,3.018-9.248,4.625-13.58.632-1.802,1.07-2.872,1.314-3.213.097-.098.292-.243.632-.438.292-.146.974-.341,2.045-.584,2.288-.535,4.818-.974,7.69-1.362,1.606-.341,2.823-.487,3.699-.487.244,0,.536,0,.779.049Zm-32.614,24.971c-.633,1.46-1.801,2.823-3.554,4.089-1.752,1.313-3.65,2.19-5.646,2.677-.681.098-1.314.146-1.947.146-.73,0-1.266-.098-1.606-.244-.244-.146-.341-.389-.341-.633,0-.681.633-1.654,1.947-2.92,1.898-1.996,4.868-3.943,8.032-5.549.535-.292,1.022-.438,1.362-.438.438,0,.828.194,1.217.633.536.535.779.876.779,1.411,0,.244-.098.487-.243.828Zm.341-9.297c-.438.146-.828.243-1.12.341-.486.194-.827.292-.974.292-.34,0-.535-.049-.778-.146-.195-.049-1.266-.584-3.115-1.558-.438-.194-.828-.39-1.168-.584-1.509-.633-2.531-1.266-2.531-2.093,0-.487.341-1.071,1.07-1.802,1.217-1.119,2.726-2.142,4.527-3.018,1.752-.876,3.261-1.362,4.478-1.46.761-.109,1.17-.218,1.431-.447.042.701.229,1.158.615,1.372.097.098.244.146.487.146.438,0,1.314-.243,2.628-.778,2.628-.974,4.137-1.46,4.527-1.46.341,0,.535.194.535.633,0,.34-.146.925-.389,1.654-.621,1.961-1.24,3.95-1.848,5.968-1.321.262-4.122,1.247-8.375,2.94Z"></path>
  <path class="b" d="m201.142,79.83c-.486,0-.876.146-1.217.486-.243.243-1.266,1.801-4.381,5.646l-1.217,1.509c-.438.39-.633.535-.876.535-.341,0-.486-.194-.486-.925s.146-2.093.389-4.088c.098-.974.146-1.704.146-2.143,0-.486-.049-.876-.146-1.119-.438-.974-1.606-1.85-2.726-2.093-.243-.049-.438-.098-.682-.098-.729,0-1.411.39-2.434,1.363-.827.827-2.385,2.774-4.722,5.743-2.19,2.921-3.407,4.479-3.748,4.673-.194.146-.389.244-.535.244s-.243-.098-.292-.244v-.097c0-.487.292-1.461.925-2.97.633-1.46,1.314-2.92,2.093-4.332.828-1.509,2.434-3.797,3.262-4.818,1.947-2.19,3.991-3.748,5.014-3.748.341,0,.681.146,1.119.438.584.243,1.022.39,1.363.39.146,0,.292-.049.438-.098.39-.194.584-.486.584-.876,0-.438-.244-.974-.681-1.655-1.363-1.703-2.97-2.531-4.819-2.531-1.558,0-3.066.585-4.575,1.704-1.752,1.411-3.505,3.358-5.257,5.841-3.456,5.306-5.501,10.466-5.501,14.214,0,1.362.195,2.238.633,3.018.974,1.898,2.823,2.774,4.625,2.774,1.022,0,2.044-.292,2.969-.876,1.314-.779,2.628-2.239,5.014-5.501,1.266-1.85,1.606-1.995,1.898-1.995.341,0,.438.341.633,1.363.341,1.995,1.314,3.407,2.92,4.137.925.535,1.558.633,2.386.633,1.362,0,2.434-.438,3.748-1.752,1.411-1.558,3.991-4.916,6.182-8.031.73-1.022,1.119-1.802,1.119-2.239,0-.146-.049-.292-.097-.39-.34-1.168-1.85-2.093-3.067-2.093Z"></path>
  <path class="b" d="m255.128,76.082c.049-.146.098-.341.098-.536,0-.729-.487-1.605-1.46-2.579-1.266-1.266-2.629-1.898-4.089-1.898-1.022,0-2.045.292-3.115.925-.828.438-1.947,1.314-3.359,2.628-.925.828-1.509,1.266-1.752,1.266-.146,0-.194-.097-.194-.243,0-.39.194-1.07.633-1.995.146-.39.243-.73.243-1.022,0-.195-.049-.39-.195-.633-.195-.438-.779-.974-1.752-1.558l-.292-.098c-.389-.146-.633-.194-1.071-.194-1.217,0-1.509.292-2.482,2.677-1.007,2.366-1.896,4.769-2.689,7.208-.295-.043-.609-.079-.963-.102-.292-.048-.779-.097-1.46-.097l-2.628-.146c-1.022-.049-1.217-.243-1.217-.486s.341-.633,1.168-1.558c3.748-4.138,6.182-9.103,6.571-13.386.049-.243.049-.438.049-.633,0-2.774-1.704-4.965-4.576-5.938-.584-.146-1.217-.243-1.85-.243-.389,0-.73,0-1.071.048-.682.244-1.46.633-2.385,1.169-1.947,1.46-3.845,4.186-5.744,8.226-.73,1.509-1.363,3.115-1.947,4.771-.633,1.704-1.314,3.942-2.142,6.717-.194.73-.292.974-.682,1.363-.438.535-.584.682-.584,1.022,0,.097,0,.243.049.438v.877c0,.729-.098,1.411-.633,3.699-1.314,5.257-2.385,10.416-2.92,13.482-.292,1.558-.438,2.775-.438,3.7,0,.778.097,1.362.341,1.752.292.535.827.974,1.655,1.217l.292.146h.536c.876,0,1.411-.244,1.558-.779.097-.243.146-.682.146-1.217,0-1.314.146-2.531.682-4.819.73-3.65,3.066-12.412,3.456-13.142.195-.39.438-.633.73-.73.972-.34,8.646-.729,12.642-.73-.303,1.128-.596,2.261-.861,3.407-.535,2.19-.778,3.748-.778,4.673,0,.438.049.73.146.974.487.779,1.266,1.363,2.386,1.704.292.049.584.097.827.097.682,0,1.217-.243,1.655-.729.243-.243.73-1.12,1.509-2.531,4.089-7.935,8.08-13.386,11.974-16.355.584-.486,1.071-.729,1.509-.729.292,0,.584.146.925.389.925.682,1.752,1.022,2.434,1.022.535,0,.876-.146,1.119-.486Zm-32.662.194c-.146,0-.244-.098-.244-.341,0-.682.536-2.287,1.606-4.867,1.801-4.138,4.138-7.739,5.549-8.664.195-.098.34-.146.487-.146.341,0,.486.243.486.73,0,.146,0,.341-.048.535-.389,2.337-1.363,4.771-2.92,7.351-.633.925-1.314,1.897-2.142,2.871-1.363,1.704-2.288,2.531-2.774,2.531Z"></path>
  <path class="b" d="m273.335,73.356c-.73-.438-1.412-.682-2.093-.682-.536,0-.925.243-1.314.584-.633.584-2.774,3.456-5.16,6.912-3.018,4.332-4.868,6.766-5.5,7.301-.341.292-.633.438-.779.438-.195,0-.292-.195-.292-.535,0-.633.341-1.898.974-3.7.632-1.801,1.314-3.504,2.093-5.11.633-1.509,1.022-1.996,1.752-2.386.633-.34.974-.876.974-1.654,0-.682-.341-1.314-1.022-1.947-.535-.486-1.217-.827-1.947-1.022-.244-.049-.536-.097-.779-.097-.584,0-1.071.243-1.509.729-.974,1.12-2.045,3.066-3.262,5.842-1.217,2.774-2.142,5.354-2.677,7.642-.195,1.022-.292,1.947-.292,2.872,0,.633.049,1.217.146,1.654.146.828.584,1.606,1.266,2.239.73.73,1.606,1.266,2.726,1.606.438.098.828.146,1.168.146s.73-.049,1.119-.146c1.947-.39,3.748-2.044,7.01-6.474,1.411-1.996,1.606-2.288,1.995-2.288.341,0,.39.438.536,2.19,0,1.947.097,2.482.633,3.311.633,1.217,2.093,1.995,3.115,1.995.536,0,.876-.194,1.022-.633.049-.097.098-.194.098-.341,0-.243-.39-1.411-.39-2.238v-1.071c.049-2.093.438-4.722,1.363-9.589.341-1.704.486-2.823.486-3.456,0-.828-.486-1.509-1.46-2.093Z"></path>
  <path class="b" d="m286.626,61.966c.243.438.584.779,1.022,1.119.633.487,1.12.73,1.558.73.536,0,.876-.146,1.071-.39.098-.194.243-.633.438-1.362.584-1.606,1.752-3.991,3.456-7.106.73-1.218,1.022-1.996,1.022-2.629,0-.292-.048-.584-.194-.876-.438-1.022-1.704-1.947-2.726-2.142h-.195c-.34,0-.729.194-1.119.584-.535.535-1.85,3.115-2.969,5.792-.974,2.239-1.509,3.699-1.558,4.43l-.097.486c0,.73.097.974.243,1.218l.049.146Z"></path>
  <path class="b" d="m319.775,61.674c-.244-.39-.632-.73-1.217-.974-.244-.049-.487-.098-1.266-.098h-.584c-1.898,0-4.186.487-8.421,1.461-1.12.292-1.898.438-2.288.438s-.584-.194-.584-.535c0-.049.048-.39.194-.925s.195-1.022.195-1.363-.049-.681-.195-.925c-.243-.535-.633-1.021-1.168-1.362-.682-.438-1.412-.682-2.142-.682-.39,0-.633.146-.876.39-.438.243-.536.633-.73,1.411l-1.071,2.823c-.925,2.288-1.217,3.018-1.558,3.262-.146.243-.876.535-2.093.925-2.482.778-5.598,2.044-7.301,2.823-1.314.535-1.752,1.266-1.752,2.628,0,.876.195,1.412.633,1.655.098.098.243.146.487.146.438,0,1.314-.243,2.628-.778,2.628-.974,4.138-1.46,4.527-1.46.341,0,.536.194.536.633,0,.34-.146.925-.39,1.654-.782,2.47-1.553,5.001-2.309,7.564-.042.028-.085.049-.126.078-.195.194-.779.876-1.753,2.093-.486.633-1.266,1.606-2.385,2.921-1.314,1.558-2.239,2.677-2.823,3.358-1.363,1.606-2.288,2.434-2.823,2.434-.292,0-.438-.292-.438-.925,0-.535.048-1.217.195-2.044.341-1.85.974-3.992,1.85-6.377s1.704-4.332,2.531-5.841c.438-.633.633-1.168.633-1.655,0-.243-.049-.438-.098-.633-.438-.925-1.558-1.85-2.726-2.239-.39-.146-.779-.194-1.12-.194-1.314,0-2.142,1.07-3.359,3.797-1.217,2.531-2.19,5.159-3.018,7.885-.633,2.288-.974,4.284-.974,5.987,0,2.726.827,4.722,2.434,6.036,1.363,1.022,3.115,1.509,4.381,1.509,1.314,0,2.677-.535,3.991-1.606.882-.882,1.717-1.806,2.506-2.754-.437,2.021-.655,3.444-.655,4.263,0,1.606.828,2.678,2.434,3.213.194,0,.341,0,.486.049.049.049.098.049.146.049.341,0,.827-.195,1.07-.438.146-.194.195-.146.195-1.558.146-1.022.194-1.752.194-2.093.633-2.482,1.558-5.841,2.823-10.027,1.46-4.722,3.018-9.248,4.624-13.58.633-1.802,1.071-2.872,1.314-3.213.097-.098.292-.243.633-.438.292-.146.974-.341,2.044-.584,2.288-.535,4.819-.974,7.691-1.362,1.606-.341,2.823-.487,3.699-.487.243,0,.535,0,.778.049,1.022,0,1.168,0,1.46-.098.73-.438,1.168-1.509,1.168-2.677,0-.73-.098-1.266-.244-1.606Z"></path>
</svg>
