<?xml version="1.0" encoding="UTF-8"?>
<svg xmlns="http://www.w3.org/2000/svg" id="a" viewBox="0 0 452.493 183.101">
  <defs>
    <style>.b{stroke-width:0px;}</style>
  </defs>
  <path class="b" d="m182.64,68.75c.931.156,1.474.64,1.63,1.458.156.815-.233,1.495-1.164,2.037-.857.468-2.41.857-4.661,1.167-2.254.31-4.738.31-7.458,0s-5.439-1.048-8.156-2.214c-2.72-1.164-5.011-2.989-6.876-5.476-.778-1.008-1.807-2.64-3.087-4.894-1.283-2.251-2.661-4.524-4.138-6.818-1.476-2.291-2.971-4.312-4.487-6.058-1.513-1.749-2.894-2.622-4.135-2.622h-1.167l.116,16.662c0,1.712.156,3.05.466,4.021.31.974.701,1.73,1.167,2.273.466.545.989.913,1.571,1.106.585.196,1.146.37,1.691.526.542.233.855.68.934,1.339.074.661-.275,1.108-1.05,1.341-.778.233-2.407.426-4.894.582s-5.185.254-8.098.291c-2.913.04-5.672.021-8.273-.058-2.606-.077-4.41-.233-5.421-.466-.855-.156-1.262-.659-1.222-1.516.037-.855.368-1.357.989-1.513s1.243-.294,1.865-.41,1.167-.407,1.632-.873.852-1.222,1.164-2.273c.31-1.048.466-2.622.466-4.72l-.116-50.223c0-1.706-.156-3.048-.466-4.021-.312-.968-.698-1.706-1.164-2.212-.468-.505-.992-.855-1.574-1.05-.582-.193-1.148-.407-1.691-.64-.542-.156-.855-.564-.931-1.225-.079-.659.272-1.143,1.048-1.455.622-.233,2.021-.389,4.196-.466s4.429-.156,6.759-.233c2.717-.077,5.709-.116,8.971-.116h6.876c10.177,0,18.021,1.96,23.54,5.884,5.513,3.923,8.273,9.497,8.273,16.722,0,2.407-.37,4.585-1.108,6.524-.738,1.944-1.746,3.712-3.029,5.302-1.28,1.595-2.796,2.992-4.545,4.196-1.746,1.206-3.593,2.233-5.534,3.087,2.564,3.73,5.011,7.363,7.341,10.897s4.196,6.312,5.593,8.331c1.167,1.709,2.116,3.05,2.857,4.021.735.971,1.397,1.728,1.979,2.27.585.545,1.127.915,1.632,1.108.505.196,1.066.331,1.691.407Zm-43.233-26.334c5.36-.31,9.516-2.175,12.468-5.595,2.952-3.418,4.429-8.156,4.429-14.214s-1.439-10.781-4.312-14.159-7.069-5.225-12.585-5.534v39.503Z"></path>
  <path class="b" d="m206.294,18.41c3.884,0,7.437.68,10.662,2.04,3.222,1.36,5.982,3.283,8.273,5.767,2.291,2.487,4.079,5.458,5.36,8.915,1.283,3.458,1.923,7.243,1.923,11.36,0,4.273-.622,8.14-1.865,11.595-1.243,3.458-2.989,6.408-5.243,8.855s-5.011,4.333-8.273,5.654-6.876,1.979-10.836,1.979c-3.109,0-6.236-.68-9.381-2.037-3.146-1.36-5.942-3.265-8.389-5.712s-4.45-5.397-6.003-8.855c-1.556-3.455-2.331-7.283-2.331-11.479,0-8.855,2.291-15.749,6.876-20.683,4.582-4.934,10.992-7.4,19.228-7.4Zm8.855,50.456c1.399-.542,2.331-1.611,2.796-3.204.468-1.593.601-3.556.41-5.886-.196-2.328-.643-4.931-1.341-7.807-.698-2.873-1.516-5.825-2.447-8.855-.389-1.32-1.032-3.106-1.923-5.36-.894-2.254-1.963-4.468-3.204-6.643-1.243-2.175-2.643-4.058-4.196-5.651s-3.225-2.389-5.011-2.389l-.466.116h-.233c-.931.233-1.709.894-2.331,1.982s-1.011,2.545-1.164,4.368c-.159,1.828-.138,3.788.058,5.886.193,2.098.524,4.273.989,6.524.466,2.254,1.048,4.352,1.749,6.294.852,2.407,1.823,4.836,2.913,7.283,1.087,2.447,2.273,4.68,3.553,6.699,1.283,2.021,2.64,3.672,4.079,4.952,1.437,1.283,2.855,1.923,4.254,1.923.386,0,.892-.077,1.513-.233Z"></path>
  <path class="b" d="m272.599,50.107c2.796,2.873,4.193,5.942,4.193,9.204-.077,4.585-1.963,8.042-5.651,10.371-3.691,2.331-8.839,3.497-15.439,3.497-3.495,0-6.487-.31-8.974-.934-2.487-.619-4.545-1.415-6.175-2.386-1.632-.971-2.894-2.098-3.788-3.381-.894-1.28-1.455-2.582-1.688-3.902-.233-1.167-.254-2.349-.058-3.556.193-1.204.619-2.291,1.28-3.262.659-.971,1.553-1.749,2.68-2.331s2.429-.833,3.905-.757c2.019.156,3.651.855,4.894,2.095,1.241,1.246,1.862,2.992,1.862,5.246,0,3.574.68,6.254,2.04,8.04,1.36,1.788,3.28,2.68,5.77,2.68,1.085,0,1.997-.389,2.738-1.167.735-.775,1.28-1.688,1.63-2.738.349-1.048.447-2.114.291-3.204-.156-1.087-.582-1.902-1.28-2.447-.857-.698-2.021-1.59-3.495-2.68-1.479-1.087-3.381-2.484-5.712-4.196-1.788-1.32-3.611-2.698-5.476-4.135s-3.653-2.815-5.36-4.138c-2.487-1.865-4.294-4.175-5.418-6.934-1.127-2.757-1.032-5.884.291-9.381.622-1.706,1.553-3.204,2.796-4.484,1.241-1.283,2.64-2.331,4.196-3.148,1.553-.815,3.222-1.455,5.011-1.921,1.786-.468,3.534-.738,5.243-.817,3.495-.233,6.484.021,8.971.759s4.505,1.709,6.061,2.913c1.553,1.204,2.698,2.524,3.437,3.96.738,1.439,1.108,2.738,1.108,3.905,0,1.788-.508,3.495-1.516,5.127-1.011,1.632-2.836,2.643-5.476,3.029-1.476.156-2.855.021-4.138-.407-1.28-.426-2.37-1.087-3.262-1.982-.894-.892-1.497-1.939-1.807-3.146-.312-1.204-.312-2.505,0-3.905.466-1.786.601-3.183.407-4.193s-.564-1.786-1.106-2.331c-.545-.542-1.206-.855-1.982-.934-.778-.077-1.556-.077-2.331,0-1.397.159-2.466.683-3.204,1.574-.741.894-1.148,1.963-1.225,3.204-.077,1.243.175,2.526.759,3.847.582,1.323,1.532,2.524,2.855,3.611.619.545,1.823,1.458,3.611,2.738,1.786,1.283,3.807,2.664,6.061,4.138,1.32.857,2.622,1.73,3.902,2.622,1.283.894,2.487,1.73,3.614,2.505,1.124.778,2.114,1.476,2.971,2.098.855.622,1.513,1.164,1.982,1.632Z"></path>
  <path class="b" d="m325.851,60.943c.392-.466.772-.698,1.164-.698.54,0,.931.291,1.164.873s.159,1.225-.233,1.923c-.772,1.243-1.841,2.466-3.206,3.669-1.355,1.206-3.026,2.294-5.005,3.265s-4.233,1.746-6.762,2.331c-2.524.582-5.302.873-8.331.873-4.04,0-7.691-.622-10.953-1.865-3.265-1.241-6.061-3.011-8.392-5.302s-4.156-5.029-5.476-8.214c-1.323-3.185-2.058-6.68-2.214-10.49-.077-3.648.466-7.124,1.632-10.429,1.164-3.299,2.931-6.193,5.302-8.68,2.368-2.487,5.262-4.466,8.68-5.945,3.418-1.474,7.302-2.212,11.654-2.212,3.653,0,6.913.564,9.791,1.688,2.868,1.127,5.302,2.545,7.281,4.254s3.471,3.595,4.487,5.651c1.005,2.061,1.513,4.04,1.513,5.945s-.561,3.593-1.693,5.069c-1.122,1.476-2.815,2.487-5.069,3.029-2.402.545-4.847,1.011-7.333,1.397-2.487.392-4.762.836-6.82,1.341s-3.73,1.148-5.011,1.923c-1.283.778-1.923,1.862-1.923,3.262,0,1.164.524,2.41,1.574,3.73,1.048,1.32,2.389,2.545,4.019,3.669,1.632,1.127,3.474,2.058,5.537,2.796,2.053.741,4.053,1.108,6,1.108,1.704,0,3.302-.31,4.773-.934,1.482-.622,2.762-1.63,3.852-3.029Zm-29.016-10.836c1.087-1.32,2.447-2.447,4.079-3.381,1.63-.931,3.378-1.706,5.243-2.331,2.72-.931,4.64-2.659,5.767-5.185,1.122-2.524,1.259-5.146.407-7.865-.386-1.164-.836-2.273-1.339-3.32-.508-1.05-1.127-2-1.862-2.855-.741-.855-1.635-1.534-2.683-2.04-1.05-.505-2.273-.759-3.672-.759-2.796,0-4.913,1.069-6.349,3.206-1.439,2.138-2.352,4.68-2.738,7.632-.392,2.952-.294,6,.291,9.148.582,3.146,1.532,5.728,2.855,7.749Z"></path>
  <path class="b" d="m63.571,162.477c1.399,0,2.698.31,3.905.931,1.204.622,2.233,1.399,3.087,2.331.855.934,1.516,1.982,1.982,3.148.466,1.164.698,2.288.698,3.378,0,1.241-.233,2.505-.698,3.788-.466,1.28-1.167,2.444-2.098,3.495-.931,1.048-2.116,1.902-3.553,2.564-1.439.659-3.167.989-5.185.989-2.722,0-5.304-.564-7.751-1.688-2.447-1.127-4.876-2.526-7.281-4.196-2.41-1.672-4.878-3.479-7.4-5.418-2.526-1.944-5.265-3.749-8.217-5.418-2.952-1.672-6.175-3.071-9.672-4.196-3.495-1.127-7.418-1.691-11.767-1.691-.392,0-.992-.019-1.807-.058s-1.632-.077-2.447-.116-1.593-.098-2.331-.175-1.265-.156-1.574-.233c-.855-.233-1.262-.757-1.222-1.574.037-.815.368-1.299.989-1.455s1.243-.291,1.865-.407,1.167-.407,1.632-.876c.466-.466.852-1.241,1.164-2.331.31-1.085.466-2.68.466-4.778l-.116-61.15c0-1.706-.156-3.048-.466-4.019-.312-.971-.698-1.728-1.164-2.273-.468-.542-.992-.913-1.574-1.108-.582-.193-1.148-.368-1.691-.524-.542-.153-.855-.561-.931-1.222-.079-.659.272-1.146,1.048-1.458.778-.233,2.407-.426,4.894-.582s5.185-.251,8.101-.291c2.913-.04,5.669-.019,8.273.058,2.601.077,4.407.233,5.418.466.855.156,1.262.661,1.225,1.516-.042.855-.37,1.36-.992,1.513-.622.156-1.243.291-1.865.407s-1.164.41-1.63.876-.857,1.243-1.167,2.331-.466,2.68-.466,4.778v70.822c1.786.389,3.672.913,5.651,1.571,1.982.659,4.098,1.611,6.352,2.855,1.087.622,2.273,1.36,3.553,2.214,1.283.855,2.564,1.691,3.847,2.505,1.28.817,2.582,1.495,3.902,2.04,1.32.542,2.603.815,3.847.815.931,0,1.749-.426,2.447-1.28.698-.857,1.474-1.788,2.331-2.796.855-1.011,1.923-1.944,3.204-2.796,1.283-.857,3.011-1.283,5.185-1.283Z"></path>
  <path class="b" d="m79.209,136.169c.386-.466.775-.698,1.164-.698.542,0,.931.291,1.164.873.235.582.156,1.225-.233,1.923-.778,1.243-1.847,2.466-3.204,3.669-1.36,1.206-3.029,2.294-5.011,3.265s-4.236,1.746-6.759,2.331c-2.524.582-5.302.873-8.331.873-4.04,0-7.691-.622-10.953-1.865-3.265-1.241-6.061-3.011-8.392-5.302s-4.156-5.029-5.476-8.214c-1.323-3.185-2.058-6.68-2.214-10.49-.077-3.648.466-7.124,1.632-10.429,1.164-3.299,2.931-6.193,5.302-8.68,2.368-2.487,5.262-4.466,8.68-5.945,3.418-1.474,7.302-2.212,11.654-2.212,3.651,0,6.913.564,9.789,1.688,2.873,1.127,5.302,2.545,7.283,4.254s3.476,3.595,4.487,5.651c1.008,2.061,1.513,4.04,1.513,5.945s-.564,3.593-1.688,5.069c-1.127,1.476-2.818,2.487-5.069,3.029-2.41.545-4.857,1.011-7.341,1.397-2.487.392-4.759.836-6.818,1.341s-3.73,1.148-5.011,1.923c-1.283.778-1.923,1.862-1.923,3.262,0,1.164.524,2.41,1.574,3.73,1.048,1.32,2.389,2.545,4.019,3.669,1.632,1.127,3.476,2.058,5.537,2.796,2.056.741,4.058,1.108,6,1.108,1.709,0,3.302-.31,4.778-.934,1.474-.622,2.757-1.63,3.847-3.029Zm-29.016-10.836c1.087-1.32,2.447-2.447,4.079-3.381,1.63-.931,3.378-1.706,5.243-2.331,2.717-.931,4.64-2.659,5.767-5.185,1.124-2.524,1.262-5.146.407-7.865-.389-1.164-.836-2.273-1.339-3.32-.508-1.05-1.127-2-1.865-2.855-.741-.855-1.632-1.534-2.68-2.04-1.05-.505-2.273-.759-3.672-.759-2.796,0-4.913,1.069-6.349,3.206-1.439,2.138-2.352,4.68-2.738,7.632-.392,2.952-.294,6,.291,9.148.582,3.146,1.532,5.728,2.855,7.749Z"></path>
  <path class="b" d="m173.946,144.208c.852-.153,1.397.196,1.63,1.05s-.156,1.513-1.164,1.979c-.312.159-1.069.352-2.273.585-1.206.233-2.603.407-4.196.524s-3.302.098-5.127-.058-3.495-.601-5.011-1.341c-1.513-.735-2.778-1.844-3.786-3.32-1.011-1.476-1.516-3.418-1.516-5.825v-22.606c0-3.185-.487-5.923-1.458-8.217-.971-2.291-2.698-3.437-5.185-3.437-1.553,0-2.989.545-4.31,1.632-1.323,1.087-2.41,2.328-3.265,3.728.077.466.135.952.175,1.458s.058.989.058,1.455l.119,25.519c0,1.632.153,2.934.466,3.905.31.974.698,1.709,1.164,2.214s.992.855,1.574,1.048c.582.196,1.146.37,1.688.526.622.156.952.564.992,1.222.037.661-.291,1.106-.992,1.341-.542.156-1.476.291-2.796.407s-2.855.214-4.603.291c-1.746.077-3.611.135-5.593.175s-3.865.04-5.651,0c-1.788-.04-3.4-.098-4.836-.175-1.439-.077-2.505-.193-3.204-.349-.857-.156-1.243-.643-1.167-1.458s.426-1.299,1.05-1.455c.619-.156,1.222-.294,1.804-.41.585-.116,1.108-.407,1.574-.873s.855-1.222,1.167-2.273c.31-1.048.466-2.582.466-4.603v-21.672c0-3.185-.508-5.923-1.516-8.217-1.011-2.291-2.759-3.437-5.243-3.437-1.788,0-3.4.68-4.836,2.04-1.439,1.36-2.585,2.894-3.437,4.603l.116,27.149c0,1.632.153,2.934.466,3.905.31.974.698,1.709,1.164,2.214.468.505.992.855,1.574,1.048.582.196,1.146.37,1.691.526.542.156.852.564.931,1.222.077.661-.272,1.106-1.048,1.341-.778.233-2.41.426-4.894.582-2.487.156-5.167.251-8.042.291-2.873.04-5.611.019-8.214-.058s-4.447-.233-5.534-.466c-.857-.156-1.243-.643-1.167-1.458s.429-1.299,1.05-1.455,1.222-.294,1.807-.41c.582-.116,1.106-.407,1.571-.873s.855-1.222,1.167-2.273c.31-1.048.466-2.582.466-4.603v-18.76c0-3.497-.138-6.079-.407-7.749-.272-1.672-.683-2.815-1.225-3.439-.545-.619-1.204-.913-1.982-.873-.775.04-1.63.058-2.564.058-.855,0-1.418-.484-1.688-1.458-.272-.971-.021-1.688.757-2.156,1.476-.931,3.069-1.844,4.778-2.738,1.709-.892,3.397-1.669,5.069-2.331,1.669-.659,3.28-1.204,4.836-1.63,1.553-.426,2.952-.64,4.196-.64,1.397,0,2.601.505,3.611,1.513,1.008,1.011,1.516,2.214,1.516,3.614v2.68c1.32-2.098,3.241-3.942,5.767-5.537,2.524-1.59,5.611-2.389,9.265-2.389,3.495,0,6.564.876,9.204,2.624,2.64,1.746,4.622,4.019,5.945,6.815,1.164-2.407,3.087-4.582,5.767-6.524s6.003-2.915,9.963-2.915c2.487,0,4.757.45,6.818,1.341,2.058.894,3.825,2.098,5.302,3.611,1.474,1.516,2.64,3.304,3.495,5.363s1.283,4.214,1.283,6.466l.116,26.336c0,2.564.466,4.273,1.397,5.127.934.855,1.905,1.164,2.915.931Z"></path>
  <path class="b" d="m200.282,93.636c3.884,0,7.437.68,10.662,2.04,3.222,1.36,5.982,3.283,8.273,5.767,2.291,2.487,4.079,5.458,5.36,8.915,1.283,3.458,1.923,7.243,1.923,11.36,0,4.273-.622,8.14-1.865,11.595-1.243,3.458-2.989,6.408-5.243,8.855s-5.011,4.333-8.273,5.654-6.876,1.979-10.836,1.979c-3.109,0-6.236-.68-9.381-2.037-3.146-1.36-5.942-3.265-8.389-5.712s-4.45-5.397-6.003-8.855c-1.556-3.455-2.331-7.283-2.331-11.479,0-8.855,2.291-15.749,6.876-20.683,4.582-4.934,10.992-7.4,19.228-7.4Zm8.855,50.456c1.399-.542,2.331-1.611,2.796-3.204.468-1.593.601-3.556.41-5.886-.196-2.328-.643-4.931-1.341-7.807-.698-2.873-1.516-5.825-2.447-8.855-.389-1.32-1.032-3.106-1.923-5.36-.894-2.254-1.963-4.468-3.204-6.643-1.243-2.175-2.643-4.058-4.196-5.651s-3.225-2.389-5.011-2.389l-.466.116h-.233c-.931.233-1.709.894-2.331,1.982s-1.011,2.545-1.164,4.368c-.159,1.828-.138,3.788.058,5.886.193,2.098.524,4.273.989,6.524.466,2.254,1.048,4.352,1.749,6.294.852,2.407,1.823,4.836,2.913,7.283,1.087,2.447,2.273,4.68,3.553,6.699,1.283,2.021,2.64,3.672,4.079,4.952,1.437,1.283,2.855,1.923,4.254,1.923.386,0,.892-.077,1.513-.233Z"></path>
  <path class="b" d="m285.812,144.208c.466-.077.836-.019,1.111.175.265.196.444.466.519.817.074.349.042.717-.116,1.106s-.508.698-1.048.931c-.307.159-1.111.352-2.392.585s-2.751.407-4.423.524-3.46.077-5.365-.116-3.63-.659-5.185-1.399c-1.556-.738-2.857-1.804-3.905-3.204s-1.566-3.302-1.566-5.709v-22.606c0-3.497-.667-6.061-1.989-7.691-1.312-1.632-2.751-2.545-4.307-2.741-1.556-.193-2.995.235-4.307,1.283-1.323,1.048-1.989,2.466-1.989,4.254v26.567c0,1.712.159,3.05.466,4.021.317.971.709,1.73,1.175,2.273.466.545.984.913,1.566,1.106.582.196,1.143.37,1.693.524.54.159.857.566.931,1.225.074.661-.233,1.148-.931,1.458-.55.156-1.503.291-2.857.407s-2.91.214-4.656.291c-1.757.077-3.598.135-5.54.175s-3.825.04-5.651,0-3.458-.098-4.894-.175c-1.439-.077-2.505-.193-3.204-.349-.857-.156-1.243-.659-1.167-1.516.077-.855.426-1.357,1.05-1.516.622-.153,1.222-.291,1.807-.407.582-.116,1.106-.407,1.571-.873s.855-1.241,1.167-2.331c.31-1.087.466-2.68.466-4.778v-19.228c0-3.651-.138-6.273-.407-7.865-.275-1.59-.683-2.622-1.225-3.087-.545-.466-1.204-.622-1.982-.466-.775.156-1.669.233-2.68.233-.855-.077-1.378-.542-1.571-1.399-.196-.852.058-1.513.757-1.979,1.474-.934,3.069-1.865,4.778-2.799,1.709-.931,3.397-1.746,5.069-2.447,1.669-.698,3.28-1.262,4.836-1.688,1.553-.426,2.952-.64,4.196-.64,1.397,0,2.603.505,3.609,1.513,1.016,1.011,1.513,2.254,1.513,3.73v1.164c.942-1.164,2.021-2.251,3.27-3.262,1.079-.775,2.37-1.495,3.841-2.156,1.471-.659,3.143-.989,5.016-.989,2.635,0,5.069.447,7.281,1.339,2.212.894,4.116,2.098,5.704,3.611,1.598,1.516,2.836,3.304,3.736,5.363.889,2.058,1.333,4.214,1.333,6.466l.116,26.336c0,2.487.529,4.156,1.577,5.011s2.116,1.164,3.206.931Z"></path>
  <path class="b" d="m338.136,144.441c.466-.077.831-.019,1.106.175.27.196.444.468.524.817s.021.698-.175,1.048-.524.64-.989.873c-.392.159-1.397.41-3.032.759-1.63.349-3.455.524-5.476.524-2.095,0-4.212-.31-6.349-.931s-3.825-1.825-5.069-3.614c-.857,1.09-2.021,2.061-3.497,2.913-1.164.778-2.72,1.476-4.661,2.098s-4.349.934-7.222.934c-2.254,0-4.37-.254-6.349-.759-1.984-.505-3.714-1.339-5.191-2.505-1.476-1.164-2.64-2.659-3.492-4.487-.857-1.823-1.28-4.019-1.28-6.582,0-2.873.64-5.302,1.921-7.283s2.852-3.672,4.72-5.069c1.862-1.399,3.921-2.622,6.175-3.672,2.254-1.048,4.312-2.095,6.175-3.146,1.868-1.048,3.439-2.175,4.72-3.378,1.286-1.204,1.926-2.698,1.926-4.487,0-1.553-.333-2.72-.995-3.495-.656-.778-1.376-1.167-2.153-1.167-.624,0-1.164.312-1.63.931-.466.624-.545,1.595-.233,2.915.233,1.164.132,2.233-.291,3.204-.429.971-1.069,1.825-1.926,2.564s-1.884,1.323-3.085,1.749c-1.206.426-2.392.64-3.556.64-1.09,0-2.138-.214-3.148-.64s-1.862-1.069-2.561-1.923c-.931-1.167-1.439-2.836-1.519-5.011-.074-2.175.704-4.312,2.333-6.41.931-1.164,2.079-2.193,3.439-3.087,1.355-.892,2.852-1.632,4.487-2.214,1.63-.582,3.339-1.029,5.127-1.339,1.783-.31,3.529-.468,5.243-.468,2.561,0,5.106.312,7.63.934s4.815,1.593,6.873,2.913c2.058,1.323,3.73,3.069,5.011,5.243,1.286,2.175,1.926,4.778,1.926,7.807l.116,26.569c0,2.487.466,4.156,1.397,5.011s1.942,1.204,3.032,1.048Zm-29.482-.931c.698.312,1.593.466,2.677.466,1.169,0,2.312-.212,3.439-.64,1.127-.426,2.042-1.066,2.741-1.923-.079-.077-.159-.27-.233-.582-.159-.622-.233-1.593-.233-2.913v-33.678c0-1.786-.545-3.204-1.635-4.254-1.09-1.048-2.328-1.571-3.73-1.571-.772,0-1.571.193-2.386.582s-1.534,1.011-2.153,1.865c1.164-.389,2.286-.426,3.376-.116s2.021.855,2.799,1.63c.772.778,1.397,1.73,1.862,2.857s.698,2.27.698,3.437c0,2.331-.524,4.156-1.571,5.476-1.048,1.323-2.27,2.545-3.672,3.672-1.397,1.127-2.778,2.37-4.138,3.728-1.36,1.36-2.386,3.283-3.085,5.767-1.09,4.196-1.069,7.733.058,10.606s2.852,4.738,5.185,5.593Z"></path>
  <path class="b" d="m398.38,144.208c.852-.153,1.397.196,1.63,1.05s-.159,1.513-1.164,1.979c-.312.159-1.243.392-2.799.701s-3.302.466-5.243.466-3.921-.233-5.942-.698c-2.021-.468-3.693-1.399-5.011-2.799l-1.862,1.167c-1.556.698-3.519,1.381-5.889,2.04s-4.561.989-6.582.989c-3.265,0-6.524-.503-9.789-1.513s-6.175-2.624-8.741-4.836c-2.561-2.214-4.64-5.069-6.233-8.566-1.593-3.495-2.386-7.728-2.386-12.701,0-3.339.444-6.601,1.339-9.789.894-3.185,2.27-6,4.138-8.447,1.862-2.447,4.27-4.407,7.222-5.886,2.952-1.474,6.524-2.212,10.72-2.212,2.952,0,5.825.505,8.624,1.513,2.799,1.011,5.09,2.447,6.873,4.312v-3.963c0-3.651-.153-6.273-.466-7.865-.312-1.59-.735-2.622-1.28-3.087s-1.206-.622-1.979-.466c-.778.156-1.635.233-2.566.233-.857-.077-1.397-.542-1.63-1.399-.233-.855.037-1.513.815-1.982,1.476-.931,3.048-1.862,4.72-2.796,1.672-.931,3.36-1.746,5.069-2.447,1.709-.698,3.339-1.262,4.894-1.688,1.55-.426,2.915-.643,4.079-.643,1.476,0,2.72.508,3.73,1.516,1.005,1.011,1.513,2.254,1.513,3.728v57.683c0,2.564.423,4.31,1.28,5.243.852.931,1.825,1.32,2.915,1.164Zm-21.096-35.54c-.153-.622-.386-1.299-.698-2.04-.312-.738-.735-1.437-1.28-2.098-.545-.659-1.222-1.222-2.037-1.688-.82-.468-1.847-.701-3.09-.701-1.09,0-2.349.45-3.788,1.341-1.439.894-2.815,2.254-4.138,4.077-1.317,1.828-2.487,4.177-3.492,7.05-1.011,2.876-1.635,6.294-1.868,10.254-.074,1.712,0,3.73.233,6.061s.72,4.564,1.46,6.701c.735,2.138,1.82,3.942,3.259,5.418s3.28,2.214,5.534,2.214c1.556,0,2.931-.331,4.138-.992,1.206-.659,2.233-1.437,3.09-2.331.852-.892,1.492-1.786,1.921-2.68.429-.892.64-1.571.64-2.04l.116-28.548Z"></path>
  <path class="b" d="m447.317,136.169c.392-.466.778-.698,1.164-.698.545,0,.937.291,1.169.873s.153,1.225-.233,1.923c-.778,1.243-1.847,2.466-3.206,3.669-1.36,1.206-3.032,2.294-5.011,3.265s-4.233,1.746-6.757,2.331c-2.529.582-5.302.873-8.333.873-4.042,0-7.693-.622-10.953-1.865-3.265-1.241-6.058-3.011-8.392-5.302-2.328-2.291-4.154-5.029-5.476-8.214s-2.058-6.68-2.212-10.49c-.079-3.648.466-7.124,1.63-10.429,1.164-3.299,2.931-6.193,5.302-8.68s5.259-4.466,8.683-5.945c3.418-1.474,7.302-2.212,11.651-2.212,3.651,0,6.915.564,9.789,1.688,2.873,1.127,5.302,2.545,7.281,4.254,1.984,1.709,3.476,3.595,4.487,5.651,1.011,2.061,1.519,4.04,1.519,5.945s-.566,3.593-1.693,5.069-2.815,2.487-5.069,3.029c-2.407.545-4.852,1.011-7.339,1.397-2.487.392-4.762.836-6.82,1.341s-3.725,1.148-5.011,1.923c-1.28.778-1.921,1.862-1.921,3.262,0,1.164.524,2.41,1.571,3.73,1.053,1.32,2.392,2.545,4.021,3.669,1.635,1.127,3.476,2.058,5.534,2.796,2.058.741,4.058,1.108,6.005,1.108,1.704,0,3.296-.31,4.773-.934,1.476-.622,2.757-1.63,3.847-3.029Zm-29.016-10.836c1.09-1.32,2.45-2.447,4.079-3.381,1.635-.931,3.381-1.706,5.243-2.331,2.72-.931,4.64-2.659,5.767-5.185,1.127-2.524,1.265-5.146.413-7.865-.392-1.164-.836-2.273-1.344-3.32-.503-1.05-1.127-2-1.862-2.855-.741-.855-1.63-1.534-2.683-2.04-1.048-.505-2.27-.759-3.667-.759-2.799,0-4.915,1.069-6.355,3.206-1.434,2.138-2.349,4.68-2.735,7.632-.392,2.952-.291,6,.291,9.148.582,3.146,1.534,5.728,2.852,7.749Z"></path>
  <path class="b" d="m449.784,52.157h-84.366c-1.497,0-2.709-1.212-2.709-2.709s1.212-2.709,2.709-2.709h84.366c1.497,0,2.709,1.212,2.709,2.709s-1.212,2.709-2.709,2.709Z"></path>
  <path class="b" d="m449.784,180.392H89.376c-1.497,0-2.709-1.212-2.709-2.709s1.212-2.709,2.709-2.709h360.407c1.497,0,2.709,1.212,2.709,2.709s-1.212,2.709-2.709,2.709Z"></path>
  <path class="b" d="m87.07,52.157H2.709c-1.497,0-2.709-1.212-2.709-2.709s1.212-2.709,2.709-2.709h84.361c1.497,0,2.709,1.212,2.709,2.709s-1.212,2.709-2.709,2.709Z"></path>
</svg>
