<?xml version="1.0" encoding="UTF-8"?><svg id="a" xmlns="http://www.w3.org/2000/svg" viewBox="0 0 647.911 524.857"><path d="M102.82,.23H6.54C3.385,.23,.827,2.788,.827,5.943V177.608c0,3.155,2.558,5.713,5.713,5.713H102.82c3.155,0,5.713-2.558,5.713-5.713V5.943c0-3.155-2.558-5.713-5.713-5.713Zm-11.746,148.525c0,1.44-.718,2.158-2.158,2.158H34.742c-1.439,0-2.158,.721-2.158,2.159v10.36c0,1.44-.719,2.158-2.159,2.158h-10.575c-1.438,0-2.158-.718-2.158-2.158v-42.195c0-1.438,.72-2.158,2.158-2.158h10.575c1.44,0,2.159,.72,2.159,2.158v10.468c0,1.44,.72,2.159,2.158,2.159h54.174c1.44,0,2.158,.72,2.158,2.158v12.735Zm0-66.152c0,1.44-.718,2.159-2.158,2.159h-25.36c-1.439,0-2.159,.72-2.159,2.158v6.799c0,1.44,.72,2.159,2.159,2.159h25.36c1.44,0,2.158,.72,2.158,2.158v12.626c0,1.44-.718,2.159-2.158,2.159H19.85c-1.438,0-2.158-.719-2.158-2.159v-12.626c0-1.438,.72-2.158,2.158-2.158h24.605c1.44,0,2.158-.719,2.158-2.159v-6.799c0-1.438-.719-2.158-2.158-2.158H19.85c-1.438,0-2.158-.719-2.158-2.159v-12.734c0-1.438,.72-2.159,2.158-2.159H88.916c1.44,0,2.158,.721,2.158,2.159v12.734Zm0-26.007c0,1.44-.718,2.159-2.158,2.159H19.85c-1.438,0-2.158-.719-2.158-2.159V21.201c0-1.439,.72-2.159,2.158-2.159h10.575c1.44,0,2.159,.72,2.159,2.159v18.453c0,1.44,.72,2.159,2.158,2.159h9.712c1.44,0,2.158-.719,2.158-2.159v-7.23c0-1.438,.72-2.158,2.158-2.158h10.468c1.44,0,2.158,.72,2.158,2.158v7.23c0,1.44,.72,2.159,2.159,2.159h10.575c1.44,0,2.158-.719,2.158-2.159V21.201c0-1.439,.72-2.159,2.158-2.159h10.468c1.44,0,2.158,.72,2.158,2.159V56.597Z"/><g><path d="M538.435,294.726h3.182c4.771,0,8.317-1.721,10.638-5.17,2.317-3.445,3.479-7.289,3.479-11.532,0-4.505-1.193-8.153-3.579-10.937-2.386-2.784-5.901-4.176-10.539-4.176h-3.182c-2.121,0-3.182,1.062-3.182,3.18v25.454c0,2.121,1.061,3.18,3.182,3.18Z"/><path d="M261.064,294.726h3.182c4.771,0,8.317-1.721,10.638-5.17,2.317-3.445,3.479-7.289,3.479-11.532,0-4.505-1.193-8.153-3.579-10.937-2.386-2.784-5.901-4.176-10.538-4.176h-3.182c-2.121,0-3.182,1.062-3.182,3.18v25.454c0,2.121,1.061,3.18,3.182,3.18Z"/><path d="M68.401,290.551h3.778c4.241,0,7.488-1.423,9.744-4.274,2.252-2.849,3.38-6.265,3.38-10.242,0-4.375-1.193-7.755-3.579-10.142-2.386-2.386-5.767-3.579-10.142-3.579h-3.579c-2.386,0-3.579,1.193-3.579,3.579v20.681c0,2.654,1.323,3.977,3.977,3.977Z"/><path d="M71.979,315.606h-3.778c-2.52,0-3.778,1.262-3.778,3.778v22.073c0,2.52,1.258,3.778,3.778,3.778h3.778c4.375,0,7.919-1.423,10.638-4.276,2.715-2.849,4.076-6.393,4.076-10.638,0-4.375-1.361-7.919-4.076-10.638-2.719-2.715-6.263-4.076-10.638-4.076Z"/><path d="M193.566,389.582c7.544-8.92,16.654-16.448,27.084-22.378,1.914-1.087,3.853-2.094,5.813-3.028v-123.934c0-2.65,1.323-3.977,3.977-3.977h34.401c6.627,0,12.693,.764,18.195,2.288,5.499,1.524,10.205,3.944,14.117,7.257,3.91,3.316,6.96,7.492,9.148,12.528,2.187,5.039,3.28,11.071,3.28,18.096,0,6.761-1.193,13.058-3.579,18.89-2.386,5.834-6.363,10.806-11.93,14.914-1.859,1.327-2.388,2.983-1.591,4.971l20.083,50.906c.663,1.591,.663,2.884,0,3.877-.664,.994-1.857,1.492-3.579,1.492h-25.056c-1.857,0-3.117-.86-3.778-2.585l-16.704-47.525c-.53-1.457-1.591-2.188-3.182-2.188s-2.386,.796-2.386,2.387v34.619c4.906,.35,9.452,2.663,12.612,6.504,3.584,4.349,4.926,9.928,3.72,15.386-.392,2.125-1.078,4.101-2.017,5.888,1.962,1.053,3.852,2.271,5.665,3.65,4.417,3.36,7.961,7.536,10.619,12.494h56.826c2.786-1.844,6.051-3.021,9.625-3.385,.833-.083,1.667-.126,2.479-.126,4.343,0,8.379,1.217,11.767,3.511h70.646c.683-2.012,1.666-3.933,2.98-5.713,3.406-4.61,8.59-7.487,14.614-8.101,.836-.084,1.674-.127,2.489-.127,4.79,0,9.217,1.469,12.814,4.256,3.262,2.534,5.599,5.888,6.816,9.684h67.467c5.417-3.074,10.664-4.372,15.014-4.814,1.297-.133,2.597-.2,3.864-.2,3.167,0,6.226,.416,9.123,1.242,1.219-.381,2.422-.631,3.632-.754,.72-.074,1.449-.112,2.167-.112,3.808,0,7.563,1.066,10.878,3.096,.463,.284,.91,.585,1.342,.901,5.552-19.474,9.763-33.291,12.525-41.089l.014-.038,.014-.038c3.617-9.997,10.439-13.087,14.641-14.03V216.208c0-5.635-4.568-10.203-10.203-10.203H10.203c-5.635,0-10.203,4.568-10.203,10.203v173.702c0,5.635,4.568,10.204,10.203,10.204H185.564c2.498-3.657,5.165-7.176,8.002-10.531ZM503.835,240.242c0-2.65,1.323-3.977,3.977-3.977h34.401c6.627,0,12.693,.764,18.195,2.288,5.499,1.524,10.205,3.944,14.117,7.257,3.91,3.316,6.96,7.492,9.148,12.528,2.187,5.039,3.28,11.071,3.28,18.096,0,6.761-1.193,13.058-3.579,18.89-2.386,5.834-6.363,10.806-11.93,14.914-1.859,1.327-2.388,2.983-1.591,4.971l20.083,50.906c.663,1.591,.663,2.884,0,3.877-.664,.994-1.857,1.492-3.579,1.492h-25.056c-1.857,0-3.117-.86-3.778-2.585l-16.704-47.525c-.53-1.457-1.591-2.188-3.182-2.188s-2.386,.796-2.386,2.387v45.934c0,2.654-1.327,3.977-3.977,3.977h-23.465c-2.654,0-3.977-1.323-3.977-3.977v-127.264Zm-85.028,0c0-2.65,1.323-3.977,3.977-3.977h65.222c2.652,0,3.979,1.327,3.979,3.977v19.488c0,2.654-1.327,3.977-3.979,3.977h-34.003c-2.652,0-3.977,1.327-3.977,3.977v17.896c0,2.654,1.325,3.977,3.977,3.977h13.324c2.65,0,3.977,1.327,3.977,3.977v19.289c0,2.654-1.327,3.977-3.977,3.977h-13.324c-2.652,0-3.977,1.327-3.977,3.977v19.488c0,2.654,1.325,3.977,3.977,3.977h34.003c2.652,0,3.979,1.327,3.979,3.977v19.289c0,2.654-1.327,3.977-3.979,3.977h-65.222c-2.654,0-3.977-1.323-3.977-3.977v-127.264Zm-97.732,33.208c0-6.096,1.124-11.534,3.379-16.306,2.254-4.773,5.302-8.815,9.148-12.13,3.843-3.312,8.352-5.866,13.522-7.657,5.17-1.788,10.604-2.684,16.306-2.684,5.964,0,11.465,.896,16.505,2.684,5.036,1.79,9.376,4.409,13.024,7.856,3.646,3.448,6.495,7.59,8.551,12.428,2.053,4.84,3.083,10.374,3.083,16.602v3.381c0,2.255-1.13,3.38-3.381,3.38h-23.265c-2.52,0-3.778-1.258-3.778-3.778v-3.579c0-3.58-.994-6.429-2.983-8.551-2.121-1.987-4.771-2.983-7.954-2.983-3.052,0-5.637,.996-7.755,2.983-2.123,1.989-3.182,4.574-3.182,7.755v62.042c0,3.05,1.059,5.637,3.182,7.755,2.118,2.123,4.703,3.182,7.755,3.182s5.633-1.059,7.755-3.182c2.12-2.118,3.182-4.704,3.182-7.755v-7.159c0-2.65-1.327-3.977-3.977-3.977h-2.784c-2.654,0-3.977-1.323-3.977-3.977v-16.903c0-2.65,1.323-3.977,3.977-3.977h33.207c2.652,0,3.979,1.327,3.979,3.977v31.418c0,6.1-1.063,11.534-3.182,16.306-2.121,4.773-5.039,8.819-8.75,12.13-3.713,3.316-8.122,5.867-13.223,7.657-5.105,1.788-10.573,2.684-16.405,2.684-5.702,0-11.105-.896-16.206-2.684-5.104-1.79-9.545-4.375-13.322-7.756-3.778-3.38-6.795-7.456-9.049-12.229-2.255-4.771-3.379-10.14-3.379-16.106v-60.847Zm-208.232,74.269c-2.321,4.972-5.468,9.215-9.445,12.727-3.977,3.513-8.585,6.232-13.82,8.153-5.238,1.924-10.772,2.884-16.604,2.884H37.578c-2.654,0-3.977-1.323-3.977-3.977v-127.264c0-2.65,1.323-3.977,3.977-3.977h35.793c5.568,0,10.868,.896,15.907,2.684,5.038,1.79,9.445,4.344,13.225,7.657,3.778,3.314,6.761,7.356,8.947,12.13,2.188,4.771,3.282,10.075,3.282,15.907,0,4.641-.831,9.016-2.485,13.123-1.66,4.111-4.145,7.825-7.458,11.136-2.255,2.52-2.187,4.842,.199,6.96,3.709,3.182,6.527,6.994,8.451,11.435,1.919,4.442,2.884,9.116,2.884,14.017,0,5.966-1.162,11.434-3.481,16.405Zm27.601,15.61c-3.713-3.182-6.63-7.09-8.75-11.731-2.121-4.639-3.18-9.943-3.18-15.909v-95.448c0-2.65,1.323-3.977,3.977-3.977h23.265c2.65,0,3.977,1.327,3.977,3.977v92.267c0,4.507,.86,7.823,2.585,9.941,1.591,2.255,3.977,3.381,7.159,3.381,3.843,0,6.428-1.392,7.755-4.176,1.323-2.784,1.987-5.832,1.987-9.146v-92.267c0-2.65,1.325-3.977,3.979-3.977h23.264c2.652,0,3.979,1.327,3.979,3.977v95.448c0,6.1-1.03,11.503-3.083,16.206-2.056,4.708-4.905,8.62-8.551,11.733-3.647,3.115-7.988,5.468-13.024,7.059-5.039,1.589-10.475,2.386-16.306,2.386-5.702,0-11.036-.829-16.009-2.485-4.971-1.656-9.315-4.076-13.024-7.259Z"/></g><path d="M280.084,420.589c.609,5.987,.223,12.67-1.15,19.863-2.749,15.54-7.671,29.405-14.622,41.17-6.987,11.816-14.788,20.832-23.188,26.798-8.489,6.025-17.317,9.541-26.237,10.448-1.458,.148-2.892,.223-4.298,.223-8.99,0-16.927-3.024-23.646-9.021-7.689-6.865-12.284-17.176-13.654-30.646-.832-8.173-.38-17.207,1.344-26.852,1.779-10.039,4.957-19.911,9.442-29.337,4.483-9.422,10.087-18.138,16.655-25.905,6.63-7.84,14.653-14.465,23.847-19.691,9.251-5.253,19.121-8.444,29.339-9.484,2.103-.214,3.99,.558,5.319,2.173,1.272,1.544,1.701,3.438,1.218,5.357-.604,3.723-3.016,6.062-6.641,6.43-16.423,1.672-30.85,9.452-42.879,23.127-12.173,13.839-19.867,29.802-22.869,47.444-1.529,9.078-1.947,17.203-1.241,24.145,1.023,10.059,4.093,17.53,9.125,22.208,4.989,4.644,10.865,6.541,17.971,5.826,4.863-.495,9.919-2.274,15.027-5.289,5.223-3.083,10.301-7.326,15.092-12.61,4.8-5.295,9.189-12.145,13.047-20.359,3.876-8.255,6.784-17.437,8.643-27.291,1.158-5.728,1.484-11.147,.976-16.146-.719-7.057-3.057-12.186-6.949-15.243-3.982-3.125-8.778-4.354-14.661-3.756-7.51,.765-14.65,4.421-21.225,10.867-6.674,6.539-11.59,15.992-14.613,28.098-1.449,5.333-5.026,6.463-7.03,6.666-1.742,.175-3.205-.183-4.353-1.067-.825-.636-1.854-1.852-2.075-4.035-.066-.654,.005-1.403,.224-2.359,3.873-15.64,10.385-27.903,19.369-36.504,9.059-8.671,19.066-13.618,29.747-14.705,9.083-.923,16.977,1.107,23.461,6.04,6.548,4.981,10.412,12.86,11.487,23.419Zm68.986,3.001c1.043,.939,2.792,1.984,5.41,1.984,.338,0,.69-.018,1.058-.055,2.721-.277,4.888-1.384,6.44-3.288,1.534-1.88,2.221-4.083,1.986-6.37-.225-2.217-1.295-4.127-3.097-5.524-1.78-1.381-4.049-1.938-6.741-1.668-3.336,.34-5.191,1.977-6.162,3.291-1.344,1.821-1.908,3.893-1.678,6.154,.219,2.164,1.154,4.005,2.783,5.476Zm102.489-10.431c1.042,.939,2.791,1.985,5.41,1.985,.338,0,.69-.018,1.059-.055,2.721-.277,4.888-1.384,6.439-3.287,1.534-1.879,2.222-4.083,1.987-6.371-.225-2.217-1.295-4.126-3.097-5.525-1.779-1.379-4.043-1.938-6.741-1.667-3.334,.34-5.19,1.976-6.162,3.291-1.344,1.821-1.908,3.893-1.678,6.154,.216,2.135,1.178,4.027,2.782,5.475Zm195.744,16.842c-8.729,17.64-19.934,27.247-33.327,28.61-.684,.069-1.358,.104-2.023,.104-4.109,0-7.869-1.323-11.2-3.945-1.51-1.188-2.773-2.553-3.8-4.077-6.462,7.066-13.521,11.026-21.109,11.797-2.99,.31-5.877-.416-8.568-2.142-1.815-1.165-3.173-2.785-4.023-4.779-1.56,1.574-3.287,3.093-5.172,4.546-4.151,3.198-8.418,5.04-12.683,5.474-.66,.067-1.303,.101-1.925,.101-3.672,0-6.669-1.168-8.929-3.485-.868-.888-1.606-1.9-2.226-3.019-.287,.287-.565,.584-.856,.863-5.821,5.583-11.108,8.547-16.16,9.061-4.669,.481-8.426-.743-11.139-3.626-2.501-2.657-3.959-5.867-4.334-9.541-.418-4.107,.675-9.724,3.343-17.172,3.153-8.805,3.117-10.864,3.078-11.188-.193-.895-.432-1.252-.515-1.354-.02,.004-.064,.005-.126,.011-.82,.083-2.675,.738-5.886,4.189-2.695,2.896-4.678,5.991-5.893,9.198-2.552,6.355-5.384,15.739-8.439,27.947-1.123,4.365-4.103,5.301-5.78,5.472-.225,.023-.449,.034-.673,.034-1.504,0-3.003-.511-4.372-1.498-.78-.562-1.428-1.213-1.945-1.942-4.25,2.865-8.772,4.553-13.555,5.04-.708,.072-1.407,.108-2.096,.108-4.4,0-8.398-1.469-11.91-4.38-1.035-.857-1.955-1.794-2.765-2.805-8.724,12.795-18.476,20.226-29.133,22.165-.237,.671-.574,1.647-1.047,3.065-.934,2.796-1.704,4.891-2.356,6.406-.597,1.393-1.476,3.343-2.766,6.137-1.301,2.812-2.689,5.164-4.129,6.995-1.354,1.719-2.961,3.541-4.778,5.419-2.01,2.073-4.335,3.702-6.91,4.843-2.515,1.113-5.216,1.822-8.03,2.107h0c-.766,.078-1.51,.117-2.231,.117-3.739,0-6.883-1.045-9.367-3.119-2.94-2.456-4.654-5.885-5.093-10.192-.363-3.579,.208-7.35,1.697-11.208,1.441-3.734,3.706-7.417,6.729-10.945,2.401-2.802,5.489-5.346,9.207-7.589-1.599-.393-3.154-1.072-4.654-2.037-1.691-1.084-3.027-2.433-4.025-4.015-5.723,5.518-12.011,8.663-18.831,9.357-.708,.072-1.407,.108-2.096,.108-4.399,0-8.397-1.469-11.909-4.38-1.412-1.169-2.603-2.493-3.597-3.946-6.387,6.991-13.87,10.963-22.385,11.83-.759,.077-1.5,.116-2.224,.116-3.972,0-7.403-1.161-10.226-3.465-3.336-2.717-5.294-6.694-5.814-11.818-.724-7.11,1.514-15.542,6.649-25.061l.009-.015c-.435-.194-1.097-.447-2.084-.74-2.481,9.077-4.681,15.2-6.701,18.668-1.048,1.875-2.833,3.054-4.999,3.272-2.152,.222-4.207-.493-5.945-2.059-3.003-2.695-2.146-5.517-1.637-6.604,3.065-6.802,5.212-12.714,6.386-17.591-3.125-2.194-4.092-5.069-4.315-7.266-.288-2.819,.559-5.468,2.518-7.87s4.483-3.776,7.503-4.084c3.916-.395,6.259,1.049,7.532,2.334,1.679,1.693,2.664,3.87,2.929,6.471,.067,.661,.093,1.28,.077,1.862,.666,.234,1.585,.538,2.845,.92,2.985,.906,5.479,1.815,7.415,2.702,4.199,1.939,5.314,4.664,5.512,6.608,.278,2.731-.8,5.494-3.205,8.213-5.237,7.589-7.657,13.736-7.195,18.277,.163,1.604,.633,2.699,1.436,3.353,.808,.659,1.934,.908,3.43,.751,7.747-.788,14.453-7.369,19.942-19.542,.192-.977,.403-1.973,.653-3.005,.664-2.736,1.222-4.934,1.705-6.72,.479-1.779,1.161-4.199,2.029-7.187,1.096-3.79,1.497-5.009,1.691-5.538,1.505-5.013,4.524-6.345,6.8-6.577,1.903-.193,3.668,.453,5.103,1.867,1.3,1.29,2.064,3.009,2.279,5.116,.146,1.428-.069,3.034-.658,4.912l-.059,.17c-.02,.054-.205,.583-1.406,4.272-.883,2.711-1.534,4.741-1.948,6.092-.406,1.314-.918,3.167-1.521,5.51-.582,2.252-.972,4.3-1.161,6.087-.186,1.731-.212,3.267-.08,4.567,.156,1.534,.829,2.896,2.06,4.165,.381,.394,1.529,1.589,5.219,1.216,3.689-.376,6.863-2.088,9.703-5.233,2.687-2.977,5.309-6.946,7.816-11.81,1.391-4.691,3.663-9.428,6.818-14.18,6.568-9.888,14.379-15.356,23.214-16.255,5.479-.561,9.802,.34,12.914,2.672,1.259-1.044,2.843-1.687,4.681-1.873,1.729-.182,3.348,.152,4.809,.978,1.758,.99,2.842,2.674,3.052,4.741,.09,.873,.005,1.759-.251,2.64-.15,1.697-1.235,6.052-5.871,21.087-2.591,8.402-4.569,14.727-5.974,19.093,6.983-3.559,13.99-12.741,20.901-27.376,.186-.933,.388-1.882,.626-2.865,.664-2.736,1.222-4.934,1.705-6.719,.482-1.793,1.165-4.212,2.029-7.188,1.096-3.788,1.497-5.007,1.691-5.537,1.505-5.014,4.523-6.346,6.8-6.578,1.9-.194,3.667,.453,5.103,1.867,1.3,1.29,2.064,3.009,2.279,5.117,.146,1.428-.069,3.034-.658,4.911l-.059,.17c-.028,.078-.231,.666-1.406,4.272-.883,2.712-1.534,4.742-1.948,6.092-.406,1.314-.918,3.167-1.521,5.51-.581,2.251-.972,4.299-1.161,6.087-.185,1.735-.212,3.271-.08,4.567,.156,1.534,.83,2.896,2.06,4.166,.38,.394,1.543,1.59,5.219,1.215,3.689-.376,6.863-2.088,9.703-5.233,2.895-3.208,5.716-7.577,8.4-12.973l6.807-23.484c.663-2.767,2.894-4.539,6.136-4.87,1.893-.191,3.733,.169,5.487,1.072,.276,.143,.531,.293,.766,.448,2.494-1.585,5.453-2.559,8.837-2.902,3.552-.364,6.705,.261,9.372,1.849,2.034,1.214,4.564,3.704,5.07,8.681,.362,3.568-.739,9.234-3.367,17.322-3.06,9.407-3.325,12.688-3.212,13.805,.072,.714,.241,1.024,.294,1.077,.047,.027,.33,.105,.918,.049,1.523-.155,4.198-1.329,8.281-6.039,3.552-4.094,6.634-8.749,9.178-13.831,1.313-3.838,3.184-7.76,5.626-11.75,6.189-10.108,14.035-15.713,23.318-16.657,3.318-.339,6.396-.051,9.152,.851,1.251,.411,2.364,.931,3.337,1.555,.471-.577,.965-.999,1.507-1.301l.229-.115c.889-.398,1.674-.628,2.402-.702,1.964-.202,3.827,.227,5.533,1.271,1.948,1.197,3.091,2.963,3.308,5.11,.121,1.182,.02,2.182-.311,3.055-.065,.172-.162,.425-3.068,6.739-1.857,4.031-3.632,8.524-5.273,13.355-1.908,5.612-2.119,8.652-1.961,10.215,.086,.84,.301,1.449,.547,1.551,.446,.167,.742,.176,.872,.162,1.612-.164,4.454-1.375,8.853-6.22,3.825-4.213,6.867-8.832,9.041-13.728,.133-.284,.284-.549,.446-.801,1.225-5.435,3.148-12.936,6.12-23.393,5.776-20.332,10.112-34.615,12.888-42.452,1.457-4.027,3.687-6.213,6.633-6.512,1.845-.189,3.573,.496,4.893,1.926,1.134,1.232,1.808,2.848,2.005,4.805,.167,1.633-.058,3.362-.668,5.138-18.02,58.581-20.36,70.963-20.15,73.121,.063,.622,.311,1.577,1.716,2.685,1.087,.856,2.508,1.182,4.324,.996,7.995-.814,15.062-7.456,21.008-19.74,1.063-2.124,2.918-3.405,5.24-3.643,1.805-.182,3.562,.275,5.113,1.321,2.18,1.472,2.789,3.276,2.916,4.532,.097,.949-.1,1.953-.584,2.982Zm-103.333,20.384c.063,.618,.163,1,.241,1.22,2.646-.378,7.316-2.824,14.831-12.043,7.581-9.299,8.485-14.53,7.893-17.291-.19-.682-.67-1.368-1.425-2.041-.49-.437-.877-.571-1.257-.571-.111,0-.223,.012-.335,.03-5.466,.818-10.267,4.875-14.323,12.067-4.229,7.487-6.12,13.755-5.625,18.629Zm-155.438,6.558c-1.524,3.761-2.162,7.027-1.884,9.756,.068,.674,.204,1.045,.283,1.194,.062,.007,.167,.01,.326-.007,2.47-.252,7.078-2.553,15.009-12.087,7.796-9.372,8.71-14.52,8.104-17.188-.138-.521-.489-1.012-1.083-1.449-.549-.402-1.14-.549-1.905-.472-5.031,.512-9.873,4.453-14.393,11.715-1.633,2.624-2.949,5.077-3.959,7.362-.091,.285-.2,.572-.336,.862-.053,.107-.108,.207-.162,.313Zm-2.183,40.156c-4.35,4.645-6.363,8.875-5.987,12.575,.154,1.521,.438,2.111,2.66,1.892,2.992-.306,6.345-3.274,9.695-8.586,2.79-4.425,4.885-8.708,6.257-12.781-4.951,.865-9.108,3.143-12.625,6.9Z"/><g><path d="M147.234,0h48.627c7.564,0,14.766,1.216,21.612,3.647,6.842,2.432,12.832,5.901,17.965,10.4,5.133,4.504,9.186,9.996,12.157,16.479,2.971,6.483,4.457,13.688,4.457,21.612,0,6.306-1.127,12.249-3.377,17.829-2.254,5.585-5.631,10.629-10.131,15.129-3.064,3.423-2.972,6.576,.271,9.455,5.04,4.322,8.868,9.502,11.481,15.533,2.608,6.036,3.917,12.385,3.917,19.046,0,8.104-1.579,15.533-4.728,22.287-3.153,6.754-7.429,12.521-12.832,17.29-5.403,4.773-11.663,8.468-18.775,11.076-7.117,2.612-14.635,3.917-22.558,3.917h-48.087c-3.604,0-5.402-1.798-5.402-5.403V5.403c0-3.601,1.798-5.403,5.402-5.403Zm41.873,73.751h5.133c5.762,0,10.173-1.933,13.237-5.808,3.061-3.871,4.593-8.51,4.593-13.913,0-5.943-1.621-10.536-4.862-13.777s-7.835-4.863-13.777-4.863h-4.863c-3.241,0-4.862,1.621-4.862,4.863v28.096c0,3.604,1.798,5.402,5.402,5.402Zm-5.402,39.172v29.986c0,3.424,1.709,5.133,5.133,5.133h5.133c5.943,0,10.76-1.933,14.453-5.808,3.688-3.871,5.538-8.688,5.538-14.453,0-5.943-1.85-10.76-5.538-14.453-3.693-3.689-8.51-5.538-14.453-5.538h-5.133c-3.424,0-5.133,1.714-5.133,5.133Z"/><path d="M276.554,5.403c0-3.601,1.798-5.403,5.402-5.403h88.609c3.601,0,5.403,1.803,5.403,5.403V31.878c0,3.604-1.803,5.403-5.403,5.403h-46.195c-3.605,0-5.403,1.802-5.403,5.402v24.313c0,3.605,1.798,5.403,5.403,5.403h18.1c3.601,0,5.403,1.803,5.403,5.403v26.204c0,3.604-1.803,5.403-5.403,5.403h-18.1c-3.605,0-5.403,1.803-5.403,5.403v26.475c0,3.604,1.798,5.402,5.403,5.402h46.195c3.601,0,5.403,1.803,5.403,5.403v26.204c0,3.605-1.803,5.403-5.403,5.403h-88.609c-3.604,0-5.402-1.798-5.402-5.403V5.403Z"/><path d="M397.472,5.403c0-3.601,1.798-5.403,5.402-5.403h88.609c3.601,0,5.403,1.803,5.403,5.403V31.878c0,3.604-1.803,5.403-5.403,5.403h-46.195c-3.605,0-5.403,1.802-5.403,5.402v24.313c0,3.605,1.798,5.403,5.403,5.403h18.1c3.601,0,5.403,1.803,5.403,5.403v26.204c0,3.604-1.803,5.403-5.403,5.403h-18.1c-3.605,0-5.403,1.803-5.403,5.403v26.475c0,3.604,1.798,5.402,5.403,5.402h46.195c3.601,0,5.403,1.803,5.403,5.403v26.204c0,3.605-1.803,5.403-5.403,5.403h-88.609c-3.604,0-5.402-1.798-5.402-5.403V5.403Z"/><path d="M518.39,178.299V5.403c0-3.601,1.798-5.403,5.402-5.403h90.771c3.601,0,5.403,1.803,5.403,5.403V31.878c0,3.604-1.803,5.403-5.403,5.403h-48.356c-3.605,0-5.403,1.802-5.403,5.402v24.313c0,3.605,1.798,5.403,5.403,5.403h26.475c3.601,0,5.402,1.803,5.402,5.403v26.204c0,3.604-1.802,5.403-5.402,5.403h-26.475c-3.605,0-5.403,1.803-5.403,5.403v63.484c0,3.605-1.803,5.403-5.403,5.403h-31.607c-3.604,0-5.402-1.798-5.402-5.403Z"/></g></svg>