<?xml version="1.0" encoding="UTF-8"?><svg id="a" xmlns="http://www.w3.org/2000/svg" viewBox="0 0 722.58 527.018"><path d="M101.993,2.391H5.713C2.558,2.391,0,4.949,0,8.104V179.769c0,3.155,2.558,5.713,5.713,5.713H101.993c3.155,0,5.713-2.558,5.713-5.713V8.104c0-3.155-2.558-5.713-5.713-5.713Zm-11.746,148.525c0,1.44-.718,2.158-2.158,2.158H33.915c-1.439,0-2.158,.721-2.158,2.159v10.36c0,1.44-.719,2.158-2.159,2.158h-10.575c-1.438,0-2.158-.718-2.158-2.158v-42.195c0-1.438,.72-2.158,2.158-2.158h10.575c1.44,0,2.159,.72,2.159,2.158v10.468c0,1.44,.72,2.159,2.158,2.159h54.174c1.44,0,2.158,.72,2.158,2.158v12.735Zm0-66.152c0,1.44-.718,2.159-2.158,2.159h-25.36c-1.439,0-2.159,.72-2.159,2.158v6.799c0,1.44,.72,2.159,2.159,2.159h25.36c1.44,0,2.158,.72,2.158,2.158v12.626c0,1.44-.718,2.159-2.158,2.159H19.023c-1.438,0-2.158-.719-2.158-2.159v-12.626c0-1.438,.72-2.158,2.158-2.158h24.605c1.44,0,2.158-.719,2.158-2.159v-6.799c0-1.438-.719-2.158-2.158-2.158H19.023c-1.438,0-2.158-.719-2.158-2.159v-12.734c0-1.438,.72-2.159,2.158-2.159H88.089c1.44,0,2.158,.721,2.158,2.159v12.734Zm0-26.007c0,1.44-.718,2.159-2.158,2.159H19.023c-1.438,0-2.158-.719-2.158-2.159V23.362c0-1.439,.72-2.159,2.158-2.159h10.575c1.44,0,2.159,.72,2.159,2.159v18.453c0,1.44,.72,2.159,2.158,2.159h9.712c1.44,0,2.158-.719,2.158-2.159v-7.23c0-1.438,.72-2.158,2.158-2.158h10.468c1.44,0,2.158,.72,2.158,2.158v7.23c0,1.44,.72,2.159,2.159,2.159h10.575c1.44,0,2.158-.719,2.158-2.159V23.362c0-1.439,.72-2.159,2.158-2.159h10.468c1.44,0,2.158,.72,2.158,2.159V58.758Z"/><g><path d="M73.96,317.767h-3.778c-2.52,0-3.778,1.262-3.778,3.778v22.073c0,2.52,1.258,3.778,3.778,3.778h3.778c4.375,0,7.919-1.423,10.638-4.275,2.715-2.849,4.076-6.393,4.076-10.638,0-4.375-1.361-7.919-4.076-10.638-2.719-2.715-6.263-4.076-10.638-4.076Z"/><path d="M266.227,265.073h-3.182c-2.121,0-3.182,1.063-3.182,3.18v25.454c0,2.121,1.061,3.18,3.182,3.18h3.182c4.771,0,8.318-1.721,10.638-5.17,2.317-3.445,3.479-7.289,3.479-11.532,0-4.505-1.193-8.153-3.579-10.937-2.386-2.784-5.901-4.176-10.539-4.176Z"/><path d="M70.381,292.711h3.778c4.241,0,7.488-1.423,9.744-4.274,2.252-2.849,3.379-6.265,3.379-10.242,0-4.375-1.193-7.754-3.579-10.142-2.386-2.386-5.767-3.579-10.142-3.579h-3.579c-2.386,0-3.579,1.193-3.579,3.579v20.681c0,2.654,1.323,3.977,3.977,3.977Z"/><path d="M681.761,208.165H12.184c-5.635,0-10.203,4.568-10.203,10.203v173.702c0,5.635,4.568,10.203,10.203,10.203h246.048c2.498-3.657,5.165-7.176,8.002-10.531,5.837-6.902,12.623-12.96,20.222-18.099h-.544c-1.857,0-3.117-.86-3.778-2.585l-16.704-47.525c-.53-1.457-1.591-2.188-3.182-2.188s-2.386,.796-2.386,2.387v45.934c0,2.654-1.327,3.977-3.977,3.977h-23.465c-2.654,0-3.977-1.323-3.977-3.977v-127.264c0-2.65,1.323-3.977,3.977-3.977h34.401c6.627,0,12.693,.764,18.195,2.288,5.499,1.524,10.205,3.944,14.117,7.257,3.91,3.316,6.96,7.492,9.148,12.528,2.187,5.039,3.28,11.071,3.28,18.096,0,6.761-1.193,13.058-3.579,18.89-2.386,5.834-6.363,10.806-11.93,14.913-1.859,1.327-2.388,2.983-1.591,4.971l17.388,44.075c5.07-1.504,10.252-2.531,15.519-3.067,.63-.064,1.267-.096,1.895-.096,.167,0,.33,.023,.496,.027-1.246-1.789-2.36-3.699-3.326-5.744-2.255-4.771-3.38-10.14-3.38-16.106v-60.847c0-6.096,1.124-11.534,3.38-16.306,2.254-4.773,5.302-8.815,9.148-12.13,3.843-3.312,8.352-5.867,13.522-7.657,5.17-1.788,10.604-2.684,16.306-2.684,5.964,0,11.465,.896,16.505,2.684,5.036,1.79,9.376,4.409,13.024,7.856,3.646,3.448,6.495,7.59,8.551,12.428,2.053,4.84,3.083,10.374,3.083,16.602v3.381c0,2.255-1.13,3.38-3.381,3.38h-23.265c-2.52,0-3.778-1.258-3.778-3.778v-3.579c0-3.58-.994-6.43-2.983-8.551-2.121-1.987-4.771-2.983-7.954-2.983-3.052,0-5.637,.996-7.755,2.983-2.123,1.989-3.182,4.574-3.182,7.755v62.042c0,3.05,1.059,5.637,3.182,7.755,2.118,2.123,4.703,3.182,7.755,3.182s5.633-1.059,7.755-3.182c2.12-2.118,3.182-4.705,3.182-7.755v-7.159c0-2.65-1.327-3.977-3.977-3.977h-2.784c-2.654,0-3.977-1.323-3.977-3.977v-16.903c0-2.65,1.323-3.977,3.977-3.977h33.207c2.652,0,3.979,1.327,3.979,3.977v31.418c0,6.1-1.062,11.534-3.182,16.306-2.121,4.773-5.039,8.819-8.75,12.13-3.713,3.316-8.122,5.866-13.223,7.657-5.105,1.788-10.573,2.684-16.405,2.684-5.702,0-11.105-.896-16.206-2.684-.711-.249-1.406-.518-2.091-.798,.725,2.734,.8,5.628,.168,8.49-.392,2.125-1.078,4.101-2.017,5.888,1.962,1.053,3.852,2.271,5.665,3.65,4.417,3.36,7.961,7.536,10.619,12.494h56.826c2.786-1.844,6.051-3.021,9.625-3.385,.833-.083,1.667-.126,2.479-.126,4.343,0,8.379,1.217,11.767,3.511h70.646c.683-2.012,1.666-3.933,2.98-5.713,3.406-4.61,8.59-7.487,14.614-8.101,.836-.084,1.674-.127,2.489-.127,4.79,0,9.217,1.469,12.814,4.256,3.262,2.534,5.599,5.888,6.816,9.684h67.467c5.417-3.074,10.665-4.372,15.015-4.814,1.297-.133,2.597-.2,3.864-.2,3.167,0,6.226,.416,9.123,1.242,1.219-.381,2.422-.631,3.632-.754,.72-.074,1.449-.112,2.167-.112,3.808,0,7.563,1.066,10.878,3.096,.463,.284,.91,.585,1.342,.901,5.552-19.474,9.763-33.291,12.525-41.089l.014-.038,.014-.038c3.364-9.298,9.5-12.62,13.723-13.799V218.369c0-5.635-4.568-10.203-10.203-10.203ZM114.823,349.88c-2.321,4.972-5.468,9.215-9.445,12.727-3.977,3.513-8.585,6.232-13.82,8.153-5.238,1.924-10.772,2.884-16.604,2.884H39.559c-2.654,0-3.977-1.323-3.977-3.977v-127.264c0-2.65,1.323-3.977,3.977-3.977h35.793c5.568,0,10.868,.896,15.907,2.684,5.038,1.79,9.445,4.344,13.225,7.657,3.778,3.314,6.761,7.356,8.947,12.13,2.188,4.771,3.282,10.075,3.282,15.907,0,4.641-.831,9.016-2.485,13.123-1.66,4.111-4.145,7.825-7.458,11.136-2.255,2.52-2.187,4.842,.199,6.96,3.709,3.182,6.527,6.994,8.451,11.435,1.919,4.442,2.883,9.116,2.883,14.018,0,5.966-1.162,11.434-3.481,16.405Zm97.596-12.03c0,6.1-1.03,11.503-3.083,16.206-2.056,4.708-4.905,8.62-8.551,11.733-3.647,3.115-7.988,5.468-13.024,7.059-5.039,1.589-10.475,2.386-16.306,2.386-5.702,0-11.036-.829-16.009-2.485-4.971-1.656-9.315-4.076-13.024-7.259-3.713-3.182-6.63-7.09-8.75-11.731-2.121-4.639-3.18-9.943-3.18-15.909v-95.447c0-2.65,1.323-3.977,3.977-3.977h23.265c2.65,0,3.977,1.327,3.977,3.977v92.267c0,4.507,.86,7.823,2.585,9.941,1.591,2.255,3.977,3.381,7.159,3.381,3.843,0,6.428-1.392,7.755-4.176,1.323-2.784,1.988-5.832,1.988-9.146v-92.267c0-2.65,1.325-3.977,3.979-3.977h23.264c2.652,0,3.979,1.327,3.979,3.977v95.447Zm281.546-75.96c0,2.654-1.327,3.977-3.979,3.977h-34.003c-2.652,0-3.977,1.327-3.977,3.977v17.897c0,2.654,1.325,3.977,3.977,3.977h13.324c2.65,0,3.977,1.327,3.977,3.977v19.289c0,2.654-1.327,3.977-3.977,3.977h-13.324c-2.652,0-3.977,1.327-3.977,3.977v19.488c0,2.654,1.325,3.977,3.977,3.977h34.003c2.652,0,3.979,1.327,3.979,3.977v19.289c0,2.654-1.327,3.977-3.979,3.977h-65.222c-2.654,0-3.977-1.323-3.977-3.977v-127.264c0-2.65,1.323-3.977,3.977-3.977h65.222c2.652,0,3.979,1.327,3.979,3.977v19.488Zm97.953,110.262c-.664,.994-1.857,1.491-3.579,1.491h-25.056c-1.857,0-3.117-.86-3.778-2.585l-16.704-47.525c-.53-1.457-1.591-2.188-3.182-2.188s-2.386,.796-2.386,2.387v45.934c0,2.654-1.327,3.977-3.977,3.977h-23.465c-2.654,0-3.977-1.323-3.977-3.977v-127.264c0-2.65,1.323-3.977,3.977-3.977h34.401c6.627,0,12.693,.764,18.195,2.288,5.499,1.524,10.205,3.944,14.117,7.257,3.91,3.316,6.96,7.492,9.148,12.528,2.187,5.039,3.28,11.071,3.28,18.096,0,6.761-1.193,13.058-3.579,18.89-2.386,5.834-6.363,10.806-11.93,14.913-1.859,1.327-2.388,2.983-1.591,4.971l20.083,50.906c.662,1.591,.662,2.883,0,3.877Zm78.593-52.54c-12.271,1.041-23.393,7.633-30.196,17.898-1.021,1.415-1.35,2.06-1.22,2.189,1.971-1.124,3.782-2.507,5.386-4.112,6.044-5.641,13.611-9.385,21.763-10.767,2.42-.422,3.682-.336,4.243,.042,.051,.033,.098,.071,.141,.114,.825,.818-.745,2.619-1.53,3.897-5.044,8.211-9.729,19.768-18.067,27.57-10.653,10.003-28.069,12.415-36.643,12.989-.969,.164-1.966,.026-2.855-.393-.069-.044-.132-.095-.19-.153-.768-.761,.019-2.141,.674-3.267,6.286-10.793,15.285-34.44,30.138-44.826,3.626-2.51,7.723-4.26,12.044-5.145-2.918-1.202-5.711-2.687-8.34-4.432-2.212-1.474-4.278-3.155-6.171-5.02-1.167-1.151-2.257-2.377-3.263-3.67-12.943-16.657-15.338-46.302-19.139-61.838-.636-2.606-1.456-6.125,4.192-3.459,5.48,2.583,10.764,5.562,15.811,8.913,4.616,3.043,8.934,6.516,12.894,10.374,3.875,3.737,7.142,8.056,9.686,12.8,6.281,12.142,6.757,26.132,8.94,36.4,.525,2.462,2.602,6.95-4.705,2.772-1.288-.734-2.48-1.469-3.612-2.228-2.594-1.714-5.016-3.674-7.233-5.854-3.435-3.537-6.436-7.47-8.941-11.717-1.287-2.215-2.706-4.351-4.249-6.395-.053-.053-.111-.101-.172-.144-.401-.271-.363,.437,.413,2.783,2.427,7.794,6.692,14.891,12.435,20.692,2.185,2.161,4.574,4.107,7.132,5.811,3.473,2.286,7.172,4.207,11.039,5.733,.334,.128,.654,.29,.955,.483,.117,.075,.225,.162,.324,.26,.92,.912-.616,1.646-1.685,1.701Z"/><path d="M543.598,265.073h-3.182c-2.121,0-3.182,1.063-3.182,3.18v25.454c0,2.121,1.061,3.18,3.182,3.18h3.182c4.771,0,8.318-1.721,10.638-5.17,2.317-3.445,3.479-7.289,3.479-11.532,0-4.505-1.193-8.153-3.579-10.937-2.386-2.784-5.901-4.176-10.539-4.176Z"/></g><g><path d="M138.79,2.16h31.878c2.879,0,4.681,1.445,5.402,4.322l12.697,71.59c1.621,8.469,3.331,12.697,5.133,12.697s3.512-4.141,5.133-12.426L213.351,6.482c.54-2.877,2.25-4.322,5.133-4.322h30.257c1.979,0,3.465,.588,4.457,1.756,.988,1.174,1.216,2.748,.676,4.729l-40.793,173.166c-.903,2.701-2.701,4.053-5.403,4.053h-30.256c-2.884,0-4.593-1.352-5.133-4.053L133.387,8.645c-.362-1.98-.046-3.555,.946-4.729,.987-1.168,2.473-1.756,4.457-1.756Z"/><path d="M269.542,7.564c0-3.602,1.798-5.404,5.402-5.404h88.609c3.601,0,5.403,1.803,5.403,5.404v26.475c0,3.604-1.803,5.402-5.403,5.402h-46.195c-3.605,0-5.403,1.803-5.403,5.402v24.314c0,3.605,1.798,5.402,5.403,5.402h18.1c3.601,0,5.403,1.803,5.403,5.404v26.203c0,3.605-1.803,5.404-5.403,5.404h-18.1c-3.605,0-5.403,1.803-5.403,5.402v26.475c0,3.605,1.798,5.402,5.403,5.402h46.195c3.601,0,5.403,1.803,5.403,5.404v26.203c0,3.605-1.803,5.404-5.403,5.404h-88.609c-3.604,0-5.402-1.799-5.402-5.404V7.564Z"/><path d="M383.004,135.346V52.68c0-8.283,1.527-15.67,4.592-22.152,3.061-6.484,7.201-11.977,12.427-16.48,5.222-4.498,11.347-7.969,18.371-10.4,7.023-2.432,14.406-3.646,22.151-3.646,8.104,0,15.576,1.215,22.423,3.646,6.843,2.432,12.739,5.99,17.695,10.672,4.951,4.686,8.821,10.311,11.616,16.883,2.79,6.578,4.188,14.096,4.188,22.559v4.592c0,3.064-1.532,4.594-4.593,4.594h-31.607c-3.424,0-5.133-1.711-5.133-5.133v-4.863c0-4.863-1.351-8.734-4.053-11.617-2.883-2.701-6.483-4.051-10.806-4.051-4.146,0-7.657,1.35-10.536,4.051-2.883,2.703-4.322,6.215-4.322,10.537v84.285c0,4.146,1.439,7.658,4.322,10.537,2.879,2.883,6.391,4.322,10.536,4.322s7.652-1.439,10.536-4.322c2.878-2.879,4.322-6.391,4.322-10.537v-9.725c0-3.6-1.803-5.402-5.403-5.402h-3.782c-3.604,0-5.403-1.799-5.403-5.404v-22.961c0-3.602,1.799-5.404,5.403-5.404h45.115c3.601,0,5.403,1.803,5.403,5.404v42.684c0,8.285-1.444,15.668-4.323,22.152-2.883,6.482-6.846,11.979-11.886,16.479-5.045,4.504-11.034,7.969-17.966,10.4-6.935,2.432-14.364,3.646-22.287,3.646-7.745,0-15.086-1.215-22.017-3.646-6.936-2.432-12.968-5.943-18.101-10.535-5.133-4.594-9.231-10.131-12.292-16.615-3.064-6.482-4.592-13.777-4.592-21.881Z"/><path d="M514.132,135.346V52.68c0-8.283,1.527-15.67,4.592-22.152,3.061-6.484,7.201-11.977,12.427-16.48,5.222-4.498,11.347-7.969,18.371-10.4,7.023-2.432,14.406-3.646,22.151-3.646,8.104,0,15.576,1.215,22.423,3.646,6.843,2.432,12.739,5.99,17.695,10.672,4.951,4.686,8.821,10.311,11.616,16.883,2.79,6.578,4.188,14.096,4.188,22.559v4.592c0,3.064-1.532,4.594-4.593,4.594h-31.607c-3.424,0-5.133-1.711-5.133-5.133v-4.863c0-4.863-1.351-8.734-4.053-11.617-2.883-2.701-6.483-4.051-10.806-4.051-4.146,0-7.657,1.35-10.536,4.051-2.883,2.703-4.322,6.215-4.322,10.537v84.285c0,4.146,1.439,7.658,4.322,10.537,2.879,2.883,6.391,4.322,10.536,4.322s7.652-1.439,10.536-4.322c2.878-2.879,4.322-6.391,4.322-10.537v-9.725c0-3.6-1.803-5.402-5.403-5.402h-3.782c-3.604,0-5.403-1.799-5.403-5.404v-22.961c0-3.602,1.799-5.404,5.403-5.404h45.115c3.601,0,5.403,1.803,5.403,5.404v42.684c0,8.285-1.444,15.668-4.323,22.152-2.883,6.482-6.846,11.979-11.886,16.479-5.045,4.504-11.034,7.969-17.966,10.4-6.935,2.432-14.364,3.646-22.287,3.646-7.745,0-15.086-1.215-22.017-3.646-6.936-2.432-12.968-5.943-18.101-10.535-5.133-4.594-9.231-10.131-12.292-16.615-3.064-6.482-4.592-13.777-4.592-21.881Z"/><path d="M652.553,2.16h31.608c3.601,0,5.402,1.803,5.402,5.404V180.459c0,3.605-1.802,5.404-5.402,5.404h-31.608c-3.604,0-5.402-1.799-5.402-5.404V7.564c0-3.602,1.798-5.404,5.402-5.404Z"/></g><g><path d="M545.807,424.242l-.061,.052,.013,.114,.048-.165Z"/><path d="M526.228,415.32c1.042,.939,2.791,1.985,5.41,1.985,.338,0,.69-.018,1.059-.055,2.721-.277,4.888-1.384,6.439-3.287,1.534-1.879,2.222-4.083,1.987-6.371-.225-2.217-1.295-4.126-3.097-5.525-1.488-1.153-3.316-1.734-5.453-1.734-.418,0-.847,.022-1.289,.067-3.334,.34-5.19,1.976-6.162,3.291-1.344,1.821-1.908,3.893-1.678,6.154,.216,2.135,1.178,4.027,2.782,5.475Z"/><path d="M423.738,425.751c1.043,.939,2.792,1.984,5.41,1.984,.338,0,.69-.018,1.058-.055,2.721-.277,4.888-1.384,6.44-3.288,1.534-1.88,2.221-4.083,1.986-6.37-.225-2.217-1.295-4.127-3.097-5.524-1.49-1.156-3.322-1.734-5.458-1.734-.417,0-.844,.022-1.284,.066-3.336,.34-5.191,1.977-6.162,3.291-1.344,1.821-1.908,3.893-1.678,6.154,.219,2.164,1.154,4.005,2.783,5.476Z"/><path d="M719.64,424.647c-1.329-.896-2.81-1.36-4.342-1.36-.256,0-.513,.013-.771,.039-2.322,.237-4.177,1.519-5.24,3.643-5.945,12.284-13.013,18.926-21.008,19.74-.329,.034-.645,.05-.948,.05-1.372,0-2.486-.345-3.376-1.047-1.405-1.107-1.652-2.062-1.716-2.685-.21-2.158,2.131-14.54,20.15-73.121,.61-1.775,.835-3.505,.668-5.138-.197-1.957-.871-3.572-2.005-4.805-1.175-1.274-2.675-1.957-4.293-1.957-.198,0-.398,.01-.6,.031-2.946,.299-5.176,2.484-6.633,6.512-2.775,7.837-7.111,22.12-12.888,42.452-2.972,10.457-4.895,17.958-6.12,23.393-.162,.252-.313,.517-.446,.801-2.174,4.896-5.216,9.515-9.041,13.728-4.398,4.845-7.24,6.056-8.853,6.22-.025,.003-.056,.004-.093,.004-.156,0-.418-.032-.779-.167-.246-.102-.461-.711-.547-1.551-.158-1.562,.053-4.603,1.961-10.215,1.642-4.831,3.416-9.324,5.273-13.355,2.906-6.314,3.003-6.567,3.068-6.739,.33-.873,.432-1.873,.311-3.055-.217-2.147-1.359-3.913-3.308-5.11-1.432-.876-2.975-1.319-4.595-1.319-.31,0-.623,.016-.938,.049-.728,.074-1.514,.304-2.402,.702l-.229,.115c-.542,.302-1.036,.724-1.507,1.301-.973-.624-2.086-1.144-3.337-1.555-2.009-.657-4.189-.988-6.508-.988-.863,0-1.745,.046-2.644,.138-9.283,.944-17.129,6.549-23.318,16.657-2.443,3.99-4.313,7.911-5.626,11.75-2.544,5.082-5.626,9.737-9.178,13.831-4.083,4.71-6.758,5.884-8.281,6.039-.15,.014-.28,.02-.391,.02-.326,0-.492-.049-.527-.069-.053-.053-.222-.363-.294-1.077-.113-1.117,.152-4.397,3.212-13.805,2.628-8.088,3.729-13.754,3.367-17.322-.506-4.977-3.036-7.467-5.07-8.681-2.175-1.295-4.673-1.949-7.447-1.949-.628,0-1.27,.033-1.925,.101-3.384,.344-6.343,1.317-8.837,2.902-.234-.155-.489-.306-.766-.448-1.449-.746-2.958-1.122-4.506-1.122-.326,0-.653,.017-.981,.05-3.242,.331-5.473,2.104-6.136,4.87l-6.807,23.484c-2.684,5.396-5.505,9.765-8.4,12.973-2.84,3.146-6.014,4.857-9.703,5.233-.487,.05-.931,.072-1.334,.072-2.637,0-3.556-.945-3.885-1.287-1.229-1.27-1.903-2.632-2.06-4.166-.132-1.297-.104-2.832,.08-4.567,.189-1.788,.58-3.836,1.161-6.087,.604-2.343,1.115-4.195,1.522-5.51,.414-1.35,1.065-3.38,1.948-6.092,1.175-3.606,1.378-4.194,1.406-4.272l.059-.17c.589-1.877,.804-3.483,.658-4.911-.215-2.108-.979-3.827-2.279-5.117-1.269-1.25-2.797-1.901-4.447-1.901-.217,0-.435,.011-.656,.034-2.276,.232-5.295,1.564-6.8,6.578-.194,.53-.596,1.749-1.691,5.537-.864,2.976-1.547,5.395-2.029,7.188-.483,1.785-1.041,3.982-1.705,6.719-.238,.983-.44,1.933-.626,2.865-6.911,14.635-13.918,23.817-20.901,27.376,1.404-4.366,3.383-10.69,5.974-19.093,4.636-15.035,5.721-19.39,5.871-21.087,.256-.881,.341-1.767,.251-2.64-.21-2.067-1.294-3.751-3.052-4.741-1.202-.679-2.512-1.026-3.902-1.026-.299,0-.601,.016-.907,.048-1.838,.187-3.422,.829-4.681,1.873-2.514-1.884-5.818-2.833-9.883-2.833-.967,0-1.978,.054-3.031,.161-8.835,.898-16.646,6.367-23.214,16.255-3.155,4.752-5.427,9.489-6.818,14.18-2.507,4.864-5.13,8.833-7.816,11.81-2.84,3.146-6.014,4.857-9.703,5.233-.488,.049-.931,.071-1.333,.071-2.646,0-3.555-.945-3.885-1.287-1.23-1.269-1.903-2.631-2.06-4.165-.132-1.301-.106-2.836,.08-4.567,.189-1.787,.579-3.835,1.161-6.087,.604-2.343,1.115-4.195,1.521-5.51,.414-1.351,1.065-3.381,1.948-6.092,1.201-3.689,1.387-4.219,1.406-4.272l.059-.17c.589-1.878,.804-3.484,.658-4.912-.215-2.107-.979-3.826-2.279-5.116-1.269-1.25-2.795-1.901-4.448-1.901-.216,0-.435,.011-.655,.033-2.275,.232-5.295,1.564-6.8,6.577-.194,.529-.596,1.748-1.691,5.538-.868,2.987-1.551,5.407-2.029,7.187-.483,1.786-1.041,3.983-1.705,6.72-.25,1.033-.461,2.029-.653,3.005-5.489,12.172-12.196,18.753-19.942,19.542-.289,.03-.565,.046-.827,.046-1.093,0-1.952-.265-2.603-.797-.803-.653-1.272-1.749-1.436-3.353-.462-4.541,1.958-10.688,7.195-18.277,2.405-2.719,3.483-5.481,3.205-8.213-.197-1.944-1.313-4.669-5.512-6.608-1.937-.887-4.43-1.796-7.415-2.702-1.26-.382-2.179-.686-2.845-.92,.016-.582-.01-1.201-.077-1.862-.265-2.601-1.25-4.777-2.929-6.471-1.128-1.138-3.094-2.4-6.249-2.4-.408,0-.835,.021-1.283,.066-3.019,.308-5.544,1.682-7.503,4.084s-2.806,5.051-2.518,7.87c.224,2.196,1.19,5.071,4.315,7.266-1.174,4.877-3.32,10.789-6.386,17.591-.509,1.088-1.366,3.909,1.637,6.604,1.531,1.379,3.308,2.098,5.181,2.098,.253,0,.508-.013,.764-.04,2.166-.219,3.951-1.397,4.999-3.272,2.021-3.468,4.22-9.591,6.701-18.668,.987,.293,1.649,.546,2.084,.74l-.009,.015c-5.136,9.519-7.373,17.95-6.649,25.061,.52,5.124,2.478,9.102,5.814,11.818,2.822,2.304,6.254,3.465,10.226,3.465,.724,0,1.465-.039,2.224-.116,8.515-.867,15.998-4.839,22.385-11.83,.994,1.454,2.185,2.777,3.597,3.946,3.512,2.911,7.51,4.38,11.909,4.38,.688,0,1.388-.036,2.096-.108,6.819-.694,13.107-3.839,18.831-9.357,.998,1.582,2.334,2.931,4.025,4.015,1.5,.965,3.056,1.645,4.654,2.037-3.718,2.243-6.806,4.787-9.207,7.589-3.022,3.528-5.287,7.211-6.729,10.945-1.489,3.858-2.061,7.629-1.697,11.208,.438,4.308,2.152,7.736,5.093,10.192,2.484,2.074,5.628,3.119,9.367,3.119,.722,0,1.466-.039,2.231-.117h0c2.814-.285,5.516-.994,8.03-2.107,2.575-1.141,4.9-2.77,6.91-4.843,1.817-1.878,3.425-3.7,4.778-5.419,1.439-1.831,2.828-4.184,4.129-6.995,1.29-2.794,2.169-4.744,2.766-6.137,.652-1.516,1.423-3.61,2.356-6.406,.473-1.418,.81-2.395,1.047-3.065,10.657-1.938,20.409-9.37,29.133-22.165,.811,1.011,1.73,1.948,2.765,2.805,3.512,2.911,7.51,4.38,11.91,4.38,.689,0,1.388-.036,2.096-.108,4.782-.487,9.305-2.175,13.555-5.04,.518,.729,1.165,1.38,1.945,1.942,1.369,.987,2.868,1.498,4.372,1.498,.224,0,.448-.011,.673-.034,1.678-.171,4.657-1.106,5.78-5.472,3.056-12.208,5.888-21.592,8.439-27.947,1.215-3.207,3.197-6.302,5.893-9.198,3.211-3.451,5.065-4.106,5.886-4.189,.062-.006,.107-.007,.126-.011,.083,.103,.321,.46,.515,1.354,.039,.324,.075,2.384-3.078,11.188-2.668,7.448-3.761,13.064-3.343,17.172,.375,3.674,1.833,6.884,4.334,9.541,2.329,2.475,5.428,3.728,9.213,3.728,.623,0,1.265-.034,1.925-.102,5.052-.514,10.339-3.478,16.16-9.061,.291-.279,.57-.577,.857-.863,.62,1.119,1.357,2.13,2.226,3.019,2.26,2.317,5.257,3.485,8.929,3.485,.622,0,1.265-.033,1.925-.101,4.265-.434,8.531-2.275,12.683-5.474,1.885-1.453,3.612-2.972,5.172-4.546,.851,1.994,2.208,3.614,4.023,4.779,2.288,1.467,4.717,2.211,7.231,2.211,.443,0,.889-.023,1.337-.07,7.587-.771,14.646-4.731,21.109-11.797,1.027,1.523,2.29,2.888,3.8,4.077,3.331,2.622,7.091,3.945,11.2,3.945,.665,0,1.34-.035,2.023-.104,13.394-1.363,24.598-10.971,33.327-28.61,.484-1.029,.681-2.033,.584-2.982-.127-1.256-.736-3.061-2.916-4.532Zm-252.253,80.493c-3.351,5.312-6.703,8.28-9.695,8.586-.298,.029-.562,.044-.795,.044-1.502,0-1.732-.62-1.866-1.936-.376-3.7,1.638-7.931,5.987-12.575,3.517-3.758,7.674-6.035,12.625-6.9-1.372,4.073-3.467,8.356-6.257,12.781Zm9.549-47.181c-7.931,9.534-12.539,11.835-15.009,12.087-.086,.009-.157,.012-.213,.012-.047,0-.085-.002-.113-.005-.079-.149-.215-.521-.283-1.194-.278-2.729,.359-5.995,1.884-9.756,.054-.107,.109-.206,.162-.313,.137-.29,.245-.577,.336-.862,1.01-2.285,2.326-4.738,3.959-7.362,4.52-7.262,9.361-11.203,14.393-11.715,.13-.013,.256-.02,.377-.02,.589,0,1.073,.158,1.529,.491,.594,.438,.945,.928,1.083,1.449,.606,2.668-.309,7.815-8.104,17.188Zm156.775-16.237c-7.515,9.219-12.186,11.665-14.831,12.043-.078-.22-.178-.602-.241-1.22-.495-4.874,1.397-11.142,5.625-18.629,4.057-7.192,8.857-11.249,14.323-12.067,.112-.019,.224-.03,.335-.03,.38,0,.767,.135,1.257,.571,.755,.673,1.234,1.359,1.425,2.041,.593,2.761-.312,7.992-7.893,17.291Z"/><path d="M343.265,399.331c-5.47-4.161-11.942-6.257-19.286-6.257-1.362,0-2.754,.072-4.175,.217-10.681,1.087-20.688,6.034-29.747,14.705-8.984,8.601-15.496,20.864-19.369,36.504-.219,.956-.29,1.705-.224,2.359,.222,2.184,1.25,3.399,2.075,4.035,.959,.739,2.138,1.11,3.516,1.11,.271,0,.55-.014,.836-.043,2.004-.203,5.581-1.333,7.03-6.666,3.023-12.105,7.939-21.559,14.613-28.098,6.574-6.446,13.715-10.103,21.225-10.867,.96-.098,1.89-.146,2.793-.146,4.632,0,8.535,1.287,11.868,3.902,3.893,3.058,6.23,8.187,6.949,15.243,.509,4.999,.183,10.419-.976,16.146-1.858,9.854-4.767,19.036-8.643,27.291-3.857,8.215-8.247,15.064-13.047,20.359-4.791,5.284-9.869,9.527-15.092,12.61-5.108,3.015-10.164,4.794-15.027,5.289-.969,.097-1.915,.146-2.839,.146-5.853,0-10.823-1.962-15.132-5.973-5.032-4.678-8.102-12.149-9.125-22.208-.706-6.941-.288-15.066,1.241-24.145,3.002-17.643,10.696-33.605,22.869-47.444,12.029-13.675,26.456-21.455,42.879-23.127,3.625-.367,6.037-2.707,6.641-6.43,.483-1.919,.055-3.813-1.218-5.357-1.184-1.439-2.81-2.208-4.637-2.208-.224,0-.452,.012-.682,.035-10.218,1.04-20.088,4.231-29.339,9.484-9.193,5.227-17.217,11.852-23.847,19.691-6.568,7.768-12.172,16.483-16.655,25.905-4.485,9.426-7.663,19.298-9.442,29.337-1.724,9.645-2.176,18.679-1.344,26.852,1.37,13.47,5.965,23.78,13.654,30.646,6.719,5.996,14.655,9.021,23.646,9.021,1.406,0,2.84-.074,4.298-.223,8.92-.907,17.748-4.423,26.237-10.448,8.4-5.966,16.201-14.981,23.188-26.798,6.951-11.765,11.873-25.63,14.622-41.17,1.373-7.193,1.76-13.876,1.15-19.863-1.075-10.559-4.939-18.438-11.487-23.419Z"/></g></svg>